<?xml version="1.0" encoding="utf-8"?>
<!-- Generator: Adobe Illustrator 27.2.0, SVG Export Plug-In . SVG Version: 6.00 Build 0)  -->
<svg version="1.1" id="Layer_1" xmlns="http://www.w3.org/2000/svg" xmlns:xlink="http://www.w3.org/1999/xlink" x="0px" y="0px"
	 viewBox="0 0 600 400" style="enable-background:new 0 0 600 400;" xml:space="preserve">
<style type="text/css">
	.st0{fill:none;}
	.st1{opacity:0.95;fill:#5D5D5D;stroke:#010101;stroke-width:0.5342;stroke-miterlimit:10;enable-background:new    ;}
	.st2{opacity:0.95;fill:#C2404F;stroke:#010101;stroke-width:0.5342;stroke-miterlimit:10;enable-background:new    ;}
	.st3{opacity:0.95;fill:#F8A79A;stroke:#010101;stroke-width:0.5342;stroke-miterlimit:10;enable-background:new    ;}
	.st4{opacity:0.95;fill:#4759A7;stroke:#010101;stroke-width:0.5342;stroke-miterlimit:10;enable-background:new    ;}
	.st5{opacity:0.95;fill:#AEAED7;stroke:#010101;stroke-width:0.5342;stroke-miterlimit:10;enable-background:new    ;}
	.st6{fill:none;stroke:#010101;stroke-width:1.5349;stroke-miterlimit:10;}
	.st7{fill:none;stroke:#010101;stroke-width:1.5349;stroke-linecap:square;stroke-miterlimit:10;}
	.st8{fill:#010101;}
	.st9{font-family:'ArialMT';}
	.st10{font-size:16.0247px;}
	.st11{fill:none;stroke:#010101;stroke-width:1.6025;stroke-linecap:round;stroke-miterlimit:10;}
	.st12{fill:none;stroke:#010101;stroke-width:1.6025;stroke-linecap:square;stroke-miterlimit:10;}
	.st13{opacity:0.8;fill:none;stroke:#010101;stroke-width:2.1366;stroke-miterlimit:10;enable-background:new    ;}
	.st14{opacity:0.8;fill:none;stroke:#C2404F;stroke-width:2.1366;stroke-miterlimit:10;enable-background:new    ;}
	.st15{opacity:0.8;fill:none;stroke:#F8A79A;stroke-width:2.1366;stroke-miterlimit:10;enable-background:new    ;}
	.st16{opacity:0.8;fill:none;stroke:#4759A7;stroke-width:2.1366;stroke-miterlimit:10;enable-background:new    ;}
	.st17{opacity:0.8;fill:none;stroke:#AEAED7;stroke-width:2.1366;stroke-miterlimit:10;enable-background:new    ;}
	.st18{fill:none;stroke:#010101;stroke-width:1.3354;stroke-miterlimit:10;}
</style>
<rect class="st0" width="600" height="400"/>
<polygon class="st1" points="166.9,157.2 168,157.2 169.6,157.2 170.6,157.2 172.2,157.2 173.3,157.2 174.9,157.2 176,157.2 
	177.6,157.2 178.6,157.2 180.2,157.2 181.6,157.2 182.9,157.2 184.2,157.2 185.6,157.2 186.9,157.2 188.3,157.2 189.6,157.2 
	190.9,157.2 192.3,157.2 193.6,157.2 194.9,157.2 196.3,157.2 197.6,157.2 198.9,157.2 200.3,157.2 201.6,157.2 202.9,157.2 
	204.3,157.2 205.6,157.2 206.9,157.2 208.3,157.2 209.6,157.2 211,157.2 212.3,157.2 213.9,157.2 215,157.2 216.6,157.2 
	217.9,157.2 219.2,157.2 220.6,157.2 221.9,157.2 223.2,157.2 224.6,157.2 225.9,157.2 227.2,157.2 228.6,157.2 229.9,157.2 
	231.3,157.2 232.6,157.2 233.9,157.2 235.3,157.2 236.6,157 237.9,156.7 239.3,156.7 240.6,157 241.9,157 243.3,157 244.6,157 
	245.9,156.7 247.3,156.7 248.6,156.2 249.9,155.9 251.5,155.1 252.6,154.6 254.2,154.3 255.3,153.8 256.9,153 258,151.3 
	259.6,149.5 260.6,147.1 262.2,144.1 263.6,140.9 264.9,137.5 266.2,132.1 267.6,125.7 268.9,119 270.2,108.9 271.6,102.2 272.9,91 
	274.3,86.7 275.6,75.5 276.9,71.8 278.3,65.3 279.6,62.1 280.9,58.7 282.3,54.9 283.6,58.4 284.9,61.3 286.3,70.4 287.9,75.8 
	288.9,82.7 290.5,92.3 291.6,101.1 293.2,111.8 294.3,118.5 295.9,127.3 297,133.2 298.6,138.3 299.9,141.7 301.2,144.7 
	302.6,147.1 303.9,148.9 305.2,150.5 306.6,151.6 307.9,152.4 309.2,153 310.6,153.5 311.9,153.5 313.2,154 314.6,153.8 
	315.9,153.2 317.2,152.7 318.6,152.2 319.9,151.9 321.3,150.3 322.6,148.7 323.9,145.5 325.3,143.1 326.6,139.6 327.9,136.7 
	329.3,132.7 330.6,130 331.9,126.5 333.5,123.3 334.6,116.6 336.2,113.2 337.3,109.4 338.9,109.2 340,102.7 341.6,100.3 342.6,93.7 
	344.2,92.3 345.6,90.2 346.9,94.7 348.2,102.7 349.6,107.8 350.9,112.1 352.2,115.6 353.6,121.4 354.9,129.2 356.2,134.3 
	357.6,139.1 358.9,142.3 360.2,145.2 361.6,147.6 362.9,149.7 364.3,151.6 365.6,152.7 366.9,153.5 368.3,154.6 369.9,155.1 
	370.9,155.6 372.5,155.6 373.6,155.9 375.2,156.2 376.3,156.2 377.9,156.2 378.9,156.7 380.5,157 381.9,157.2 383.2,157.2 
	384.6,157 385.9,157.2 387.2,157 388.6,157.2 389.9,157.2 391.2,157.2 392.6,157.2 393.9,157.2 395.2,157.2 396.6,157.2 
	396.6,157.2 "/>
<polygon class="st2" points="145.5,178.6 145.5,177.8 146.9,177.8 148.2,178.3 149.5,178.3 150.9,178.3 152.2,177.8 153.5,177.3 
	154.9,177.3 156.2,177.5 157.5,177.3 158.9,177.8 160.2,178.1 161.5,178.6 163.1,178.6 164.2,178.3 165.8,178.3 166.9,178.3 
	168.5,178.6 169.6,178.3 171.2,178.1 172.5,178.1 173.8,178.1 175.2,178.3 176.5,178.1 177.8,178.3 179.2,178.3 180.5,178.6 
	181.8,178.6 183.2,178.6 184.5,178.6 185.8,178.6 187.2,178.6 188.5,178.6 189.9,178.6 191.2,178.6 192.5,178.6 193.9,178.6 
	195.2,178.6 196.5,178.6 197.9,178.3 199.2,178.1 200.5,177.5 201.9,178.1 203.2,178.3 204.8,178.6 205.9,178.6 207.5,178.3 
	208.8,178.3 210.2,178.1 211.5,178.3 212.8,178.1 214.2,178.3 215.5,178.3 216.8,178.3 218.2,178.3 219.5,178.3 220.8,178.3 
	222.2,178.3 223.5,178.1 224.8,178.1 226.2,178.1 227.5,178.3 228.8,178.3 230.2,178.1 231.5,177.5 232.9,177.5 234.2,177.5 
	235.5,177.3 236.9,177.5 238.2,177.5 239.5,177.3 240.9,177 242.2,177.5 243.5,177.8 245.1,177.8 246.2,177 247.8,177 248.9,176.7 
	250.5,176.7 251.5,177 253.2,176.7 254.5,176.7 255.8,176.7 257.2,176.2 258.5,176.5 259.8,176.2 261.2,176.5 262.5,176.5 
	263.8,176.7 265.2,176.7 266.5,176.7 267.8,176.7 269.2,176.5 270.5,176.7 271.8,176.5 273.2,176.7 274.5,176.7 275.9,177 
	277.2,177 278.8,177 279.9,177.3 281.5,177 282.5,177 284.1,176.7 285.2,176.7 286.8,176.5 287.9,176.2 289.5,175.9 290.8,175.7 
	292.1,175.1 293.5,174.6 294.8,173.2 296.2,172.2 297.5,170.3 298.8,168.2 300.2,165.5 301.5,162.3 302.8,160.7 304.2,155.1 
	305.5,148.9 306.8,139.6 308.2,134.3 309.5,130.2 310.8,124.6 312.2,115 313.5,102.7 314.8,97.1 316.2,91.3 317.5,88.9 318.9,83 
	320.2,81.4 321.5,76.8 322.9,76.3 324.2,82.4 325.5,93.7 327.1,101.9 328.2,103.8 329.8,110.2 330.9,119 332.5,130.5 333.8,138 
	335.1,146 336.5,153.5 337.8,159.1 339.2,163.6 340.5,166.6 341.8,169.2 343.2,170.8 344.5,172.7 345.8,173.8 347.2,174.9 
	348.5,175.7 349.8,176.2 351.2,176.2 352.5,176.5 353.8,176.7 355.2,177 356.5,177 357.8,177 359.2,177 360.5,177 361.9,177 
	363.5,176.7 364.5,177 366.1,176.7 367.2,177 368.8,177 369.9,177.3 371.5,177.3 372.8,177.3 374.1,177.5 375.5,177.3 375.5,178.6 
	"/>
<polygon class="st3" points="124.2,200 124.2,199.2 125.5,199.2 126.8,198.9 128.2,198.9 129.5,199.7 130.8,199.4 132.2,199.4 
	133.5,199.4 134.8,199.7 136.2,198.9 137.5,198.9 138.8,198.9 140.2,199.4 141.8,199.4 142.8,199.4 144.4,198.9 145.5,198.9 
	147.1,198.9 148.2,199.2 149.8,199.2 151.1,199.7 152.5,200 153.8,199.7 155.1,199.2 156.5,198.4 157.8,198.9 159.1,199.4 
	160.5,200 161.8,199.4 163.1,198.9 164.5,198.6 165.8,198.9 167.2,198.6 168.5,199.2 169.8,198.6 171.2,198.9 172.5,198.1 
	173.8,198.9 175.4,199.4 176.5,200 178.1,199.7 179.2,199.7 180.8,199.7 181.8,199.4 183.4,199.4 184.5,198.9 186.1,198.9 
	187.4,198.4 188.8,198.1 190.1,198.1 191.5,197.8 192.8,198.1 194.1,197.8 195.5,197.6 196.8,197.6 198.1,197.3 199.5,197 
	200.8,196.5 202.1,196 203.5,195.4 204.8,194.6 206.1,193.8 207.5,192.2 208.8,190.9 210.2,188.5 211.5,185 212.8,181.8 
	214.2,178.9 215.5,174.9 216.8,170.3 218.2,162 219.5,151.1 220.8,142.5 222.2,136.7 223.8,134.5 224.8,128.6 226.4,123 
	227.5,118.8 229.1,114.2 230.2,112.1 231.8,116.6 233.1,119.6 234.5,124.9 235.8,127.8 237.1,135.9 238.5,143.3 239.8,151.6 
	241.1,159.9 242.5,168.4 243.8,174.1 245.1,179.4 246.5,182.6 247.8,185.8 249.1,188.5 250.5,190.1 251.8,191.4 253.2,192.5 
	254.5,193 255.8,193.8 257.4,194.6 258.5,194.6 260.1,194.6 261.2,194.1 262.8,194.3 263.8,193.5 265.4,192.5 266.5,191.4 
	268.1,190.3 269.4,188.5 270.8,186.1 272.1,182.3 273.4,179.1 274.8,175.1 276.1,168.7 277.5,158.6 278.8,151.9 280.1,146.3 
	281.5,143.1 282.8,134.3 284.1,122.8 285.5,114.5 286.8,100.6 288.1,100.3 289.5,97.7 290.8,107.3 292.1,107 293.5,110.2 
	294.8,115.8 296.2,124.9 297.5,134 298.8,141.7 300.2,149.2 301.5,156.4 302.8,163.1 304.2,169.2 305.8,175.7 307.1,181 
	308.4,185.5 309.8,188.5 311.1,190.3 312.4,191.9 313.8,193.5 315.1,194.3 316.4,195.4 317.8,196 319.1,196.8 320.5,197 
	321.8,197.3 323.1,197.6 324.5,197.6 325.8,197.6 327.1,197.6 328.5,197.6 329.8,197.6 331.1,197.8 332.5,197.8 333.8,197.8 
	335.1,197.8 336.5,197.6 337.8,197.8 339.2,197.8 340.5,197.8 342.1,197.6 343.2,197.6 344.8,197.6 345.8,197.6 347.4,197.6 
	348.5,197.6 350.1,197.6 351.4,197.6 352.8,197.8 354.1,197.8 354.1,200 "/>
<polygon class="st4" points="102.8,221.3 102.8,220.8 104.1,220.5 105.5,220.5 106.8,220.5 108.1,220.3 109.5,220.5 110.8,221.1 
	112.1,221.3 113.5,220.8 114.8,220.5 116.1,220.8 117.5,220.8 118.8,221.1 120.4,220.8 121.5,221.1 123.1,220.8 124.2,220.5 
	125.8,220.5 126.8,220.5 128.4,220.5 129.8,220.8 131.1,220.8 132.4,221.1 133.8,221.1 135.1,221.3 136.4,221.3 137.8,221.3 
	139.1,221.3 140.4,221.1 141.8,221.3 143.1,220.8 144.4,221.1 145.8,221.1 147.1,221.3 148.5,221.1 149.8,221.1 151.1,221.1 
	152.5,220.8 154.1,220.5 155.1,220.5 156.7,220.5 157.8,220.8 159.4,221.1 160.5,221.1 162.1,220.8 163.1,220.5 164.7,220.8 
	166.1,220.8 167.4,220.8 168.8,220.8 170.1,221.1 171.4,221.3 172.8,221.1 174.1,220.8 175.4,220.3 176.8,220.3 178.1,220.5 
	179.4,221.1 180.8,221.1 182.1,220.8 183.4,220.5 184.8,220.5 186.1,220.5 187.4,220.8 188.8,220.8 190.1,220.8 191.5,220.5 
	192.8,220.5 194.1,220.5 195.7,220.8 196.8,221.1 198.4,221.3 199.5,221.3 201.1,220.8 202.4,220.8 203.7,220.5 205.1,220.8 
	206.4,221.1 207.7,221.3 209.1,221.3 210.4,221.1 211.8,220.8 213.1,220.5 214.4,220.5 215.8,220.5 217.1,220.5 218.4,220.3 
	219.8,220.3 221.1,220.3 222.4,220.8 223.8,220.8 225.1,220.5 226.4,220.3 227.8,220.5 229.1,220.8 230.4,220.8 231.8,220.5 
	233.1,220.3 234.5,220.3 236.1,220.3 237.1,220.3 238.7,220.3 239.8,220 241.4,219.7 242.5,219.5 244.1,219.5 245.1,218.9 
	246.7,218.7 248.1,217.9 249.4,217.1 250.7,216 252.1,214.6 253.4,213 254.8,211.4 256.1,209 257.4,206.1 258.8,202.9 260.1,197 
	261.4,190.6 262.8,181.5 264.1,172.2 265.4,160.7 266.8,151.9 268.1,145.2 269.4,137.5 270.8,130.2 272.4,119.8 273.4,119 
	275.1,120.4 276.1,119.6 277.7,124.1 278.8,120.4 280.4,125.7 281.5,121.4 283.1,124.1 284.4,135.3 285.7,150.8 287.1,165.8 
	288.4,176.2 289.7,181.3 291.1,189.3 292.4,194.3 293.7,201 295.1,206.1 296.4,209.3 297.8,211.7 299.1,214.1 300.4,216 
	301.8,217.3 303.1,218.1 304.4,218.9 305.8,219.2 307.1,219.5 308.4,219.5 309.8,219.5 311.1,219.7 312.4,219.7 313.8,220 
	315.1,220 316.4,220 317.8,220.3 319.1,220.3 320.7,220 321.8,220 323.4,220 324.7,220.3 326.1,220.3 327.4,220.3 328.7,220.3 
	330.1,220.3 331.4,220.3 332.7,220.3 332.7,221.3 "/>
<polygon class="st5" points="81.4,242.7 82.5,242.7 84.1,242.7 85.4,242.7 86.8,242.7 88.1,242.7 89.4,242.7 90.8,242.7 92.1,242.7 
	93.4,242.7 94.8,242.7 96.1,242.7 97.4,242.7 98.8,242.7 100.1,242.7 101.5,242.7 102.8,242.7 104.1,242.7 105.5,242.7 106.8,242.7 
	108.1,242.7 109.5,242.7 110.8,242.7 112.1,242.7 113.5,242.7 114.8,242.7 116.1,242.7 117.5,242.7 118.8,242.7 120.4,242.7 
	121.5,242.7 123.1,242.7 124.2,242.7 125.8,242.7 126.8,242.7 128.4,242.7 129.5,242.7 131.1,242.7 132.4,242.7 133.8,242.7 
	135.1,242.7 136.4,242.7 137.8,242.7 139.1,242.7 140.4,242.7 141.8,242.7 143.1,242.7 144.4,242.4 145.8,242.2 147.1,241.6 
	148.5,241.4 149.8,241.1 151.1,240.8 152.5,240.6 153.8,240.3 155.1,239.5 156.7,238.7 157.8,237.3 159.4,236 160.5,234.1 
	162.1,232 163.1,229.3 164.7,225.1 166.1,220 167.4,213.8 168.8,207.2 170.1,196.5 171.4,187.1 172.8,181.3 174.1,174.3 175.4,169 
	176.8,160.7 178.1,156.2 179.4,153 180.8,144.9 182.1,145.2 183.4,140.4 184.8,147.6 186.1,154.6 187.4,167.1 188.8,176.2 
	190.1,184.5 191.5,193.5 192.8,201.8 194.1,207.2 195.5,212.5 196.8,220 198.1,225.9 199.5,229.9 200.8,232.5 202.4,234.9 
	203.5,236.5 205.1,238.1 206.1,239 207.7,240 208.8,240.3 210.4,240.6 211.5,240.8 213.1,241.4 214.4,241.6 215.8,241.6 
	217.1,241.6 218.4,242.2 219.8,242.2 221.1,242.2 222.4,241.9 223.8,242.2 225.1,241.9 226.4,242.2 227.8,242.4 229.1,242.7 
	230.4,242.7 231.8,242.4 233.1,242.4 234.5,242.7 235.8,242.7 237.1,242.7 238.7,242.7 239.8,242.7 241.4,242.7 242.5,242.7 
	244.1,242.7 245.1,242.7 246.7,242.7 248.1,242.7 249.4,242.7 250.7,242.7 252.1,242.7 253.4,242.7 254.8,242.7 256.1,242.7 
	257.4,242.7 258.8,242.7 260.1,242.7 261.4,242.7 262.8,242.7 264.1,242.7 265.4,242.7 266.8,242.7 268.1,242.7 269.4,242.7 
	270.8,242.7 272.1,242.7 273.4,242.7 274.8,242.7 276.1,242.7 277.5,242.7 278.8,242.7 280.1,242.7 281.5,242.7 283.1,242.7 
	284.4,242.7 285.7,242.7 287.1,242.7 288.4,242.7 289.7,242.7 291.1,242.4 292.4,242.4 293.7,242.4 295.1,242.7 296.4,242.7 
	297.8,242.7 299.1,242.7 300.4,242.7 301.8,242.7 303.1,242.7 304.4,242.7 305.8,242.7 307.1,242.7 308.4,242.7 309.8,242.7 
	311.1,242.7 "/>
<line class="st6" x1="81.4" y1="253.4" x2="311.6" y2="253.4"/>
<line class="st7" x1="158.1" y1="253.4" x2="158.1" y2="259.2"/>
<line class="st7" x1="235" y1="253.4" x2="235" y2="259.2"/>
<line class="st7" x1="311.6" y1="253.4" x2="311.6" y2="259.2"/>
<text transform="matrix(1 0 0 1 70.2642 273.7612)" class="st8 st9 st10">7.5</text>
<text transform="matrix(1 0 0 1 147.0117 273.7612)" class="st8 st9 st10">8.0</text>
<text transform="matrix(1 0 0 1 223.7583 273.7612)" class="st8 st9 st10">8.5</text>
<text transform="matrix(1 0 0 1 300.5059 273.7612)" class="st8 st9 st10">9.0</text>
<line class="st7" x1="81.4" y1="253.4" x2="81.4" y2="259.2"/>
<line class="st7" x1="63.8" y1="242.7" x2="69.7" y2="242.7"/>
<line class="st11" x1="70.7" y1="242.7" x2="70.7" y2="140.4"/>
<line class="st12" x1="63.8" y1="191.7" x2="69.7" y2="191.7"/>
<line class="st12" x1="63.8" y1="140.4" x2="69.7" y2="140.4"/>
<text transform="matrix(1 0 0 1 39.5723 246.9927)" class="st8 st9 st10">0.0</text>
<text transform="matrix(1 0 0 1 39.5723 195.8276)" class="st8 st9 st10">0.5</text>
<text transform="matrix(1 0 0 1 39.5723 144.6626)" class="st8 st9 st10">1.0</text>
<text transform="matrix(1 0 0 1 127.6499 293.4106)" class="st8 st9 st10">Retention time (min)</text>
<text transform="matrix(1 0 0 1 433.168 159.5752)" class="st8 st9 st10">zymosteol + lathosterol</text>
<line class="st13" x1="407.5" y1="156.4" x2="424.1" y2="156.4"/>
<text transform="matrix(1 0 0 1 412.7822 181.064)" class="st8 st9 st10">EBP + lathosterol</text>
<line class="st14" x1="386.2" y1="177.8" x2="402.7" y2="177.8"/>
<text transform="matrix(1 0 0 1 391.416 202.5532)" class="st8 st9 st10">EBP + zymostenol</text>
<line class="st15" x1="364.8" y1="198.4" x2="381.3" y2="198.4"/>
<text transform="matrix(1 0 0 1 373.75 225.1118)" class="st8 st9 st10">σ</text>
<text transform="matrix(0.583 0 0 0.583 383.6401 230.4478)" class="st8 st9 st10">2 </text>
<text transform="matrix(1 0 0 1 391.4316 225.1118)" class="st8 st9 st10">+ lathosterol</text>
<line class="st16" x1="343.4" y1="220.8" x2="360" y2="220.8"/>
<text transform="matrix(1 0 0 1 352.3828 246.5991)" class="st8 st9 st10">σ</text>
<text transform="matrix(0.583 0 0 0.583 362.2729 251.935)" class="st8 st9 st10">2</text>
<text transform="matrix(1 0 0 1 367.4688 246.5991)" class="st8 st9 st10">+ zymostenol</text>
<line class="st17" x1="322.1" y1="242.4" x2="338.6" y2="242.4"/>
<line class="st12" x1="149.3" y1="157.2" x2="155.1" y2="157.2"/>
<line class="st11" x1="156.2" y1="157.2" x2="156.2" y2="54.9"/>
<line class="st12" x1="149.3" y1="106.2" x2="155.1" y2="106.2"/>
<line class="st12" x1="149.3" y1="54.9" x2="155.1" y2="54.9"/>
<text transform="matrix(1 0 0 1 343.4805 54.917)" class="st8 st9 st10">lathosterol</text>
<line class="st11" x1="156.2" y1="157.2" x2="70.7" y2="242.7"/>
<text transform="matrix(0 -1 1 0 16.2515 229.3311)" class="st8 st9 st10">Relative abundance</text>
<text transform="matrix(1 0 0 1 124.9619 162.3423)" class="st8 st9 st10">0.0</text>
<text transform="matrix(1 0 0 1 124.9619 111.1777)" class="st8 st9 st10">0.5</text>
<text transform="matrix(1 0 0 1 124.9619 60.0127)" class="st8 st9 st10">1.0</text>
<line class="st18" x1="281.7" y1="39.4" x2="281.7" y2="51.7"/>
<line class="st18" x1="374.1" y1="60" x2="354.4" y2="84.6"/>
<text transform="matrix(1 0 0 1 241.4854 35.1377)" class="st8 st9 st10">zymostenol</text>
</svg>
