<?xml version="1.0" encoding="utf-8"?>
<!-- Generator: Adobe Illustrator 27.2.0, SVG Export Plug-In . SVG Version: 6.00 Build 0)  -->
<svg version="1.1" id="e9818c06-acac-11ed-bfbf-7cd30ac779a6"
	 xmlns="http://www.w3.org/2000/svg" xmlns:xlink="http://www.w3.org/1999/xlink" x="0px" y="0px" viewBox="0 0 83.7 81.4"
	 style="enable-background:new 0 0 83.7 81.4;" xml:space="preserve">
<style type="text/css">
	.st0{font-family:'Helvetica-Bold';}
	.st1{font-size:8.8px;}
	.st2{fill:none;stroke:#000000;stroke-width:1.2;}
</style>
<text transform="matrix(1 0 0 1 69.0129 29.7535)" class="st0 st1">N</text>
<text transform="matrix(1 0 0 1 69.0129 61.3053)" class="st0 st1">N</text>
<text transform="matrix(1 0 0 1 33.335 6.5293)" class="st0 st1">O</text>
<text transform="matrix(1 0 0 1 33.5799 65.0293)" class="st0 st1">N</text>
<text transform="matrix(1 0 0 1 16.6924 35.7793)" class="st0 st1">N</text>
<text transform="matrix(1 0 0 1 -0.4399 65.0293)" class="st0 st1">O</text>
<line class="st2" x1="36.8" y1="22.9" x2="53.6" y2="32.6"/>
<line class="st2" x1="53.6" y1="52.1" x2="53.6" y2="32.6"/>
<line class="st2" x1="57.2" y1="49.2" x2="57.2" y2="35.6"/>
<line class="st2" x1="53.6" y1="32.6" x2="67.3" y2="28.2"/>
<line class="st2" x1="76.2" y1="32.1" x2="83.7" y2="42.4"/>
<line class="st2" x1="83.7" y1="42.4" x2="77.1" y2="51.5"/>
<line class="st2" x1="79" y1="42.6" x2="73.6" y2="50.2"/>
<line class="st2" x1="53.6" y1="52.1" x2="67.3" y2="56.6"/>
<line class="st2" x1="38.6" y1="22.9" x2="38.6" y2="8.9"/>
<line class="st2" x1="35" y1="22.9" x2="35" y2="8.9"/>
<line class="st2" x1="19.9" y1="52.1" x2="31.9" y2="59.1"/>
<line class="st2" x1="41.6" y1="59.1" x2="53.6" y2="52.1"/>
<line class="st2" x1="36.8" y1="22.9" x2="24.7" y2="29.8"/>
<line class="st2" x1="19.9" y1="38.1" x2="19.9" y2="52.1"/>
<line class="st2" x1="15" y1="29.8" x2="3" y2="22.9"/>
<line class="st2" x1="19" y1="50.6" x2="8.5" y2="56.6"/>
<line class="st2" x1="20.8" y1="53.7" x2="8.5" y2="60.8"/>
<line class="st2" x1="36.8" y1="67.4" x2="36.8" y2="81.4"/>
</svg>
