<?xml version="1.0" encoding="utf-8"?>
<!-- Generator: Adobe Illustrator 27.3.1, SVG Export Plug-In . SVG Version: 6.00 Build 0)  -->
<svg version="1.1" id="Layer_1" xmlns="http://www.w3.org/2000/svg" xmlns:xlink="http://www.w3.org/1999/xlink" x="0px" y="0px"
	 viewBox="0 0 359.9 100.8" style="enable-background:new 0 0 359.9 100.8;" xml:space="preserve">
<style type="text/css">
	.st0{fill:#F7931E;}
	.st1{fill:#FFFFFF;}
	.st2{font-family:'AlbertusMT';}
	.st3{font-size:30px;}
	.st4{fill:#6f6f6f;}
	.st5{font-size:50px;}
</style>
<polygon class="st0" points="121.2,45.1 97,59 97,86.9 121.2,100.8 145.3,86.9 145.3,59 "/>
<polygon class="st0" points="173.2,45.1 149.1,59 149.1,86.9 173.2,100.8 197.4,86.9 197.4,59 "/>
<polygon class="st0" points="199.2,0 175.1,13.9 175.1,41.8 199.2,55.8 223.4,41.8 223.4,13.9 "/>
<polygon class="st0" points="253.1,5.8 226.9,14.3 226.9,41.8 253.1,50.3 269.2,28 "/>
<g>
	<text transform="matrix(1 0 0 1 109.23 83.11)" class="st1 st2 st3">A</text>
</g>
<g>
	<text transform="matrix(1 0 0 1 165.68 83.11)" class="st1 st2 st3">L</text>
</g>
<g>
	<text transform="matrix(1 0 0 1 186.08 39.4)" class="st1 st2 st3">O</text>
</g>
<g>
	<text transform="matrix(1 0 0 1 233.79 39.4)" class="st1 st2 st3">N</text>
</g>
<text transform="matrix(1 0 0 1 0 67.1006)" class="st4 st2 st5">The</text>
<text transform="matrix(1 0 0 1 285.7988 67.1001)" class="st4 st2 st5">Lab</text>
</svg>
