<svg id="Layer_1" xmlns="http://www.w3.org/2000/svg" viewBox="0 0 172.21 100.85">
	<defs>
		<style>.cls-1{fill:#fff;font-family:AlbertusMT, 'Albertus MT';font-size:30px;}.cls-1,.cls-2{isolation:isolate;}.cls-3{fill:#f7931e;}</style>
	</defs>
	<polygon class="cls-3" points="24.15 45.06 0 59.01 0 86.9 24.15 100.85 48.31 86.9 48.31 59.01 24.15 45.06"/>
	<polygon class="cls-3" points="76.2 45.06 52.05 59.01 52.05 86.9 76.2 100.85 100.36 86.9 100.36 59.01 76.2 45.06"/>
	<polygon class="cls-3" points="102.21 0 78.05 13.95 78.05 41.84 102.21 55.78 126.36 41.84 126.36 13.95 102.21 0"/>
	<polygon class="cls-3" points="156.07 5.82 129.94 14.3 129.94 41.78 156.07 50.27 172.21 28.04 156.07 5.82"/>
	<g class="cls-2"><text class="cls-1" transform="translate(12.23 83.11)"><tspan x="0" y="0">A</tspan></text></g>
	<g class="cls-2"><text class="cls-1" transform="translate(68.68 83.11)"><tspan x="0" y="0">L</tspan></text></g>
	<g class="cls-2"><text class="cls-1" transform="translate(89.08 39.4)"><tspan x="0" y="0">O</tspan></text></g>
	<g class="cls-2"><text class="cls-1" transform="translate(136.79 39.4)"><tspan x="0" y="0">N</tspan></text></g>
</svg>