<?xml version="1.0" encoding="utf-8"?>
<!-- Generator: Adobe Illustrator 27.3.1, SVG Export Plug-In . SVG Version: 6.00 Build 0)  -->
<svg version="1.1" id="j" xmlns="http://www.w3.org/2000/svg" xmlns:xlink="http://www.w3.org/1999/xlink" x="0px" y="0px"
	 viewBox="0 0 425.2 301.5" style="enable-background:new 0 0 425.2 301.5;" xml:space="preserve">
<style type="text/css">
	.st0{font-family:'ArialMT';}
	.st1{font-size:14.8766px;}
	.st2{font-family:'Arial-BoldMT';}
	.st3{font-size:18px;}
	.st4{font-family:'MyriadPro-Regular';}
</style>
<image style="overflow:visible;" width="2801" height="1804" xlink:href="sigma-2_cholesterol.png"  transform="matrix(0.1518 0 0 0.1518 0 27.6623)">
</image>
<text transform="matrix(1 0 0 1 176.8851 75.2275)" class="st0 st1">Y150</text>
<text transform="matrix(1 0 0 1 137.9467 113.833)" class="st0 st1">H21</text>
<text transform="matrix(1 0 0 1 1.7894 162.2275)" class="st0 st1">T110</text>
<text transform="matrix(1 0 0 1 8.8802 213.4307)" class="st0 st1">Q77</text>
<text transform="matrix(1 0 0 1 99.4515 246.9561)" class="st0 st1">E73</text>
<text transform="matrix(1 0 0 1 213.0375 257.6533)" class="st0 st1">D29</text>
<text transform="matrix(1 0 0 1 382.1381 231.6963)" class="st0 st1">Y50</text>
<text transform="matrix(1 0 0 1 207.1586 140.2812)" class="st0 st1">Cholesterol</text>
<text transform="matrix(1 0 0 1 53.4125 209.1816)" class="st0 st1">3.2 Å</text>
<text transform="matrix(1 0 0 1 56.0198 17.1035)"><tspan x="0" y="0" class="st2 st3">Cholesterol bound to the σ</tspan><tspan x="230.3" y="0" class="st4 st3">₂</tspan><tspan x="235.9" y="0" class="st2 st3"> receptor</tspan></text>
</svg>
