<?xml version="1.0" encoding="utf-8"?>
<!-- Generator: Adobe Illustrator 27.3.1, SVG Export Plug-In . SVG Version: 6.00 Build 0)  -->
<svg version="1.1" id="Layer_1" xmlns="http://www.w3.org/2000/svg" xmlns:xlink="http://www.w3.org/1999/xlink" x="0px" y="0px"
	 viewBox="0 0 244 244" style="enable-background:new 0 0 244 244;" xml:space="preserve">
<style type="text/css">
	.st0{fill:#F7931E;}
	.st1{fill:#FFFFFF;}
	.st2{font-family:'AlbertusMT';}
	.st3{font-size:30px;}
	.st4{font-size:50px;}
</style>
<polygon class="st0" points="63.2,109.1 39,123 39,150.9 63.2,164.8 87.3,150.9 87.3,123 "/>
<polygon class="st0" points="115.2,109.1 91.1,123 91.1,150.9 115.2,164.8 139.4,150.9 139.4,123 "/>
<polygon class="st0" points="141.2,64 117.1,77.9 117.1,105.8 141.2,119.8 165.4,105.8 165.4,77.9 "/>
<polygon class="st0" points="195.1,69.8 168.9,78.3 168.9,105.8 195.1,114.3 211.2,92 "/>
<g>
	<text transform="matrix(1 0 0 1 51.23 147.11)" class="st1 st2 st3">A</text>
</g>
<g>
	<text transform="matrix(1 0 0 1 107.68 147.11)" class="st1 st2 st3">L</text>
</g>
<g>
	<text transform="matrix(1 0 0 1 128.08 103.4)" class="st1 st2 st3">O</text>
</g>
<g>
	<text transform="matrix(1 0 0 1 175.79 103.4)" class="st1 st2 st3">N</text>
</g>
<text transform="matrix(1 0 0 1 43.9482 69.7998)" class="st0 st2 st4">The</text>
<text transform="matrix(1 0 0 1 141.25 190.6021)" class="st0 st2 st4">Lab</text>
</svg>
