<?xml version="1.0" encoding="utf-8"?>
<!-- Generator: Adobe Illustrator 27.2.0, SVG Export Plug-In . SVG Version: 6.00 Build 0)  -->
<svg version="1.1" id="Слой_1" xmlns="http://www.w3.org/2000/svg" xmlns:xlink="http://www.w3.org/1999/xlink" x="0px" y="0px"
	 viewBox="0 0 400 400" style="enable-background:new 0 0 400 400;" xml:space="preserve">
<style type="text/css">
	.st0{fill:none;}
</style>
<rect class="st0" width="400" height="400"/>
<g>
	<rect x="101.6" y="177.3" width="2.4" height="45.6"/>
	<rect x="139.3" y="233.2" transform="matrix(0.8663 -0.4996 0.4996 0.8663 -95.3957 112.3467)" width="45.6" height="2.4"/>
	<rect x="160.9" y="143.2" transform="matrix(0.5 -0.866 0.866 0.5 -62.6847 223.3714)" width="2.4" height="45.6"/>
	<path d="M292,170l-49.3-28.5l-0.6-0.3l-0.6,0.3L192.2,170l-49.3-28.5l-0.6-0.3l-0.6,0.3L92.4,170l-33.9-19.6l-1.2,2.1l33.9,19.6
		v56.2l-31.2,18l1.2,2.1l31.2-18l47.6,27.5l0,0l1.7,1l0.6,0.3l0.6-0.3l1.7-1l0,0l46.4-26.8l0,0l1.7-1l0.6-0.3v-0.7v-2v-55l47.7-27.5
		l0,0l1.1-0.7l1.1,0.7l0,0l46.4,26.8l0,0l1.7,1l0.6,0.3l0.6-0.3l33.1-19.1l-1.2-2.1L292,170z M191,228.3l-1.1,0.7l0,0l-46.4,26.8
		l0,0l-1.1,0.7l-48.7-28.1v-56.3l47.5-27.5l0,0l1.1-0.7l1.1,0.7l0,0l47.6,27.5V227V228.3z"/>
	<path d="M42.6,127.8c-8,0-13,5.6-13,14.6c0,8.9,5,14.6,13,14.6s13-5.6,13-14.6C55.5,133.4,50.5,127.8,42.6,127.8z M42.6,153.6
		c-5.8,0-9.4-4.4-9.4-11.3c0-7,3.6-11.3,9.4-11.3s9.4,4.4,9.4,11.3C51.9,149.3,48.3,153.6,42.6,153.6z"/>
	<polygon points="22.1,140.4 6.6,140.4 6.6,128.2 3.1,128.2 3.1,156.4 6.6,156.4 6.6,143.6 22.1,143.6 22.1,156.4 25.6,156.4 
		25.6,128.2 22.1,128.2 	"/>
	<path d="M42.6,243c-8,0-13,5.6-13,14.6c0,9,5,14.6,13,14.6s13-5.6,13-14.6C55.6,248.6,50.5,243,42.6,243z M42.6,268.8
		c-5.8,0-9.4-4.4-9.4-11.3c0-7,3.6-11.3,9.4-11.3s9.4,4.4,9.4,11.3C51.9,264.5,48.3,268.8,42.6,268.8z"/>
	<polygon points="22.1,255.6 6.6,255.6 6.6,243.4 3.1,243.4 3.1,271.6 6.6,271.6 6.6,258.8 22.1,258.8 22.1,271.6 25.6,271.6 
		25.6,243.4 22.1,243.4 	"/>
	<polygon points="349.6,150.1 349.5,150.1 334,128 330.6,128 330.6,156.2 334.1,156.2 334.1,134.1 334.3,134.1 349.7,156.2 
		353.1,156.2 353.1,128 349.6,128 	"/>
	<polygon points="376.1,140.2 360.6,140.2 360.6,128 357.1,128 357.1,156.2 360.6,156.2 360.6,143.4 376.1,143.4 376.1,156.2 
		379.6,156.2 379.6,128 376.1,128 	"/>
	<path d="M387.1,160.3L387.1,160.3l5-5.2c3.3-3.4,4.3-5,4.3-7.2c0-3-2.8-5.4-6.3-5.4c-3.7,0-6.5,2.6-6.5,6l0,0h2.4l0,0
		c0-2.2,1.8-3.9,4.1-3.9c2.2,0,3.9,1.5,3.9,3.4c0,1.6-0.6,2.7-3.3,5.5l-6.9,7.3v1.7h13v-2.2H387.1z"/>
</g>
</svg>
