<?xml version="1.0" encoding="utf-8"?>
<!-- Generator: Adobe Illustrator 27.3.1, SVG Export Plug-In . SVG Version: 6.00 Build 0)  -->
<svg version="1.1" xmlns="http://www.w3.org/2000/svg" xmlns:xlink="http://www.w3.org/1999/xlink" x="0px" y="0px"
	 viewBox="0 0 223.1 173.1" style="enable-background:new 0 0 223.1 173.1;" xml:space="preserve">
<style type="text/css">
	.st0{fill:#A7A9AC;stroke:#58595B;stroke-width:0.5927;stroke-miterlimit:10;}
	.st1{fill:none;stroke:#58595B;stroke-width:0.5717;stroke-linecap:round;stroke-miterlimit:10;}
	.st2{fill:none;stroke:#FFFFFF;stroke-width:0.7824;stroke-miterlimit:10;}
	.st3{fill:none;stroke:#0048A2;stroke-width:1.1433;stroke-miterlimit:10;}
	.st4{fill:none;stroke:#0048A2;stroke-width:1.1433;stroke-linecap:round;stroke-miterlimit:10;}
	.st5{fill:url(#SVGID_1_);stroke:#231F20;stroke-width:0.3927;stroke-miterlimit:10;}
	
		.st6{fill:url(#SVGID_00000102525589116499686900000004198411800788893583_);stroke:#231F20;stroke-width:0.3927;stroke-miterlimit:10;}
	
		.st7{fill:url(#SVGID_00000045591795658900401110000009919598138291125420_);stroke:#231F20;stroke-width:0.3927;stroke-miterlimit:10;}
	
		.st8{fill:url(#SVGID_00000039120145110197048720000015862352394984120210_);stroke:#231F20;stroke-width:0.3927;stroke-miterlimit:10;}
	
		.st9{fill:url(#SVGID_00000010990299584244800050000012440552263677233084_);stroke:#231F20;stroke-width:0.3927;stroke-miterlimit:10;}
	
		.st10{fill:url(#SVGID_00000099636774207467975270000011330688690586721411_);stroke:#231F20;stroke-width:0.3927;stroke-miterlimit:10;}
	
		.st11{fill:url(#SVGID_00000171693900880863409720000017717754485538961580_);stroke:#231F20;stroke-width:0.3927;stroke-miterlimit:10;}
	
		.st12{fill:url(#SVGID_00000064351923695356805780000011135364177893160615_);stroke:#231F20;stroke-width:0.3927;stroke-miterlimit:10;}
	
		.st13{fill:url(#SVGID_00000111888179096675542200000005375213484695955645_);stroke:#231F20;stroke-width:0.3927;stroke-miterlimit:10;}
	
		.st14{fill:url(#SVGID_00000054225296787852423920000017827710291181137051_);stroke:#231F20;stroke-width:0.3927;stroke-miterlimit:10;}
	.st15{fill:none;stroke:#0048A2;stroke-width:1.9636;stroke-miterlimit:10;}
	
		.st16{fill:url(#SVGID_00000090978044004941193030000003158382329645810570_);stroke:#231F20;stroke-width:0.3927;stroke-miterlimit:10;}
	
		.st17{fill:url(#SVGID_00000115501053532627599750000010047797251136040364_);stroke:#231F20;stroke-width:0.3927;stroke-miterlimit:10;}
	
		.st18{fill:url(#SVGID_00000058567564231709052020000004990611926633429385_);stroke:#231F20;stroke-width:0.3927;stroke-miterlimit:10;}
	
		.st19{fill:url(#SVGID_00000134939584631400815500000012575710416465628815_);stroke:#231F20;stroke-width:0.3927;stroke-miterlimit:10;}
	
		.st20{fill:url(#SVGID_00000120516699394150739350000007711324260871787394_);stroke:#231F20;stroke-width:0.3927;stroke-miterlimit:10;}
	
		.st21{fill:url(#SVGID_00000175307716199252366280000011049692252062238876_);stroke:#231F20;stroke-width:0.3927;stroke-miterlimit:10;}
	
		.st22{fill:url(#SVGID_00000033335077006314501370000014514079085034618556_);stroke:#231F20;stroke-width:0.3927;stroke-miterlimit:10;}
	
		.st23{fill:url(#SVGID_00000137121293208873129160000009859894540352571301_);stroke:#231F20;stroke-width:0.3927;stroke-miterlimit:10;}
	
		.st24{fill:url(#SVGID_00000160165173124888780700000002647511461385721277_);stroke:#231F20;stroke-width:0.3927;stroke-miterlimit:10;}
	
		.st25{fill:url(#SVGID_00000037693331846160148090000004898182091838638244_);stroke:#231F20;stroke-width:0.3927;stroke-miterlimit:10;}
	.st26{fill:none;stroke:#A6006F;stroke-width:1.1433;stroke-miterlimit:10;}
	.st27{fill:#FFFFFF;}
	.st28{font-family:'Arial-BoldMT';}
	.st29{font-size:8px;}
	.st30{fill:#FF1B00;stroke:#231F20;stroke-width:0.3927;stroke-miterlimit:10;}
	.st31{font-size:7px;}
	
		.st32{fill:url(#SVGID_00000082351034204108873090000003513949991809399466_);stroke:#231F20;stroke-width:0.3163;stroke-miterlimit:10;}
	.st33{font-size:9px;}
	
		.st34{fill:url(#SVGID_00000173853694659721581130000007447317987137307306_);stroke:#231F20;stroke-width:0.3168;stroke-miterlimit:10;}
	.st35{fill:#FAB8A6;stroke:#231F20;stroke-width:0.257;stroke-miterlimit:10;}
	.st36{fill:#231F20;}
	
		.st37{fill:url(#SVGID_00000069393486541156918500000014092181813760038039_);stroke:#231F20;stroke-width:0.3927;stroke-miterlimit:10;}
	
		.st38{fill:url(#SVGID_00000082336968305655914320000000004434315388062611_);stroke:#231F20;stroke-width:0.3927;stroke-miterlimit:10;}
	
		.st39{fill:url(#SVGID_00000026142840592728321850000002563422596291638448_);stroke:#231F20;stroke-width:0.3927;stroke-miterlimit:10;}
	
		.st40{fill:url(#SVGID_00000103952680304543176450000014949719080737734787_);stroke:#231F20;stroke-width:0.3927;stroke-miterlimit:10;}
	
		.st41{fill:url(#SVGID_00000011723312535339288820000015029920381920273846_);stroke:#231F20;stroke-width:0.3927;stroke-miterlimit:10;}
	
		.st42{fill:url(#SVGID_00000133529725135188713390000007571151065033418890_);stroke:#231F20;stroke-width:0.3927;stroke-miterlimit:10;}
	
		.st43{fill:url(#SVGID_00000160178512188119707710000006570732474400644512_);stroke:#231F20;stroke-width:0.3927;stroke-miterlimit:10;}
	
		.st44{fill:url(#SVGID_00000160183050144394297380000004208860881442493840_);stroke:#231F20;stroke-width:0.3927;stroke-miterlimit:10;}
	
		.st45{fill:url(#SVGID_00000179624733424272590180000001274918685808935581_);stroke:#231F20;stroke-width:0.3227;stroke-miterlimit:10;}
	.st46{fill:#0090D0;stroke:#231F20;stroke-width:0.2296;stroke-miterlimit:10;}
	.st47{fill:#FFFFFF;stroke:#000000;stroke-width:0.1429;stroke-miterlimit:10;}
	.st48{fill:#1798FF;}
	.st49{fill:#0F7BFF;stroke:#000000;stroke-width:6.730569e-02;stroke-miterlimit:10;}
	.st50{fill:#74C1FF;stroke:#000000;stroke-width:6.730569e-02;stroke-miterlimit:10;}
	.st51{fill:#0F5FFF;stroke:#000000;stroke-width:6.730569e-02;stroke-miterlimit:10;}
	.st52{fill:#1798FF;stroke:#000000;stroke-width:6.730569e-02;stroke-miterlimit:10;}
	.st53{fill:#FF8F4F;stroke:#58595B;stroke-width:0.352;stroke-miterlimit:10;}
	.st54{fill:#58595B;}
	.st55{font-size:2.1118px;}
	.st56{font-size:6px;}
	.st57{fill:none;stroke:#000000;stroke-width:0.6978;stroke-miterlimit:10;}
	.st58{fill:#0F7BFF;stroke:#000000;stroke-width:7.150274e-02;stroke-miterlimit:10;}
	.st59{fill:#74C1FF;stroke:#000000;stroke-width:7.150274e-02;stroke-miterlimit:10;}
	.st60{fill:#0F5FFF;stroke:#000000;stroke-width:7.150274e-02;stroke-miterlimit:10;}
	.st61{fill:#FF8F4F;stroke:#58595B;stroke-width:0.286;stroke-miterlimit:10;}
	.st62{font-size:1.7161px;}
	.st63{fill:#1798FF;stroke:#000000;stroke-width:7.150274e-02;stroke-miterlimit:10;}
	.st64{fill:none;stroke:#000000;stroke-width:0.9466;stroke-miterlimit:10;}
	.st65{fill:#002EA2;}
	.st66{fill:none;stroke:#231F20;stroke-width:0.2858;stroke-miterlimit:10;}
</style>
<g id="aim_1">
	<g>
		<path class="st0" d="M13.5,36.6c0,1.3-1.3,2.3-2.9,2.3c-1.6,0-2.9-1-2.9-2.3c0-1.3,1.3-2.3,2.9-2.3C12.2,34.3,13.5,35.4,13.5,36.6
			z"/>
		<g>
			<path class="st1" d="M9.4,38.8c0,2.2-1.8,2.2-1.8,4.4c0,2.2,1.8,2.2,1.8,4.4c0,2.2-1.8,2.2-1.8,4.4c0,2.2,1.8,2.2,1.8,4.5
				c0,2.2-1.8,2.2-1.8,4.5"/>
		</g>
		<g>
			<path class="st1" d="M11.8,39c0,2.2-1.8,2.2-1.8,4.4c0,2.2,1.8,2.2,1.8,4.4c0,2.2-1.8,2.2-1.8,4.4c0,2.2,1.8,2.2,1.8,4.5
				c0,2.2-1.8,2.2-1.8,4.5"/>
		</g>
		<line class="st2" x1="5.5" y1="49.7" x2="14.2" y2="49.9"/>
		<path class="st0" d="M11.8,63.5c0,1.3-1.3,2.3-2.9,2.3c-1.6,0-2.9-1-2.9-2.3c0-1.3,1.3-2.3,2.9-2.3C10.5,61.2,11.8,62.2,11.8,63.5
			z"/>
	</g>
	<g>
		<path class="st0" d="M7.7,36.6c0,1.3-1.3,2.3-2.9,2.3c-1.6,0-2.9-1-2.9-2.3c0-1.3,1.3-2.3,2.9-2.3C6.4,34.3,7.7,35.4,7.7,36.6z"/>
		<g>
			<path class="st1" d="M3.5,38.8c0,2.2-1.8,2.2-1.8,4.4c0,2.2,1.8,2.2,1.8,4.4c0,2.2-1.8,2.2-1.8,4.4c0,2.2,1.8,2.2,1.8,4.5
				c0,2.2-1.8,2.2-1.8,4.5"/>
		</g>
		<g>
			<path class="st1" d="M6,39c0,2.2-1.8,2.2-1.8,4.4c0,2.2,1.8,2.2,1.8,4.4c0,2.2-1.8,2.2-1.8,4.4c0,2.2,1.8,2.2,1.8,4.5
				c0,2.2-1.8,2.2-1.8,4.5"/>
		</g>
		<line class="st2" x1="-0.3" y1="49.7" x2="8.3" y2="49.9"/>
		<path class="st0" d="M5.9,63.5c0,1.3-1.3,2.3-2.9,2.3c-1.6,0-2.9-1-2.9-2.3c0-1.3,1.3-2.3,2.9-2.3C4.6,61.2,5.9,62.2,5.9,63.5z"/>
	</g>
	<g>
		<path class="st0" d="M25.6,36.6c0,1.3-1.3,2.3-2.9,2.3c-1.6,0-2.9-1-2.9-2.3c0-1.3,1.3-2.3,2.9-2.3C24.3,34.3,25.6,35.4,25.6,36.6
			z"/>
		<g>
			<path class="st1" d="M21.4,38.8c0,2.2-1.8,2.2-1.8,4.4c0,2.2,1.8,2.2,1.8,4.4c0,2.2-1.8,2.2-1.8,4.4c0,2.2,1.8,2.2,1.8,4.5
				c0,2.2-1.8,2.2-1.8,4.5"/>
		</g>
		<g>
			<path class="st1" d="M23.9,39c0,2.2-1.8,2.2-1.8,4.4c0,2.2,1.8,2.2,1.8,4.4c0,2.2-1.8,2.2-1.8,4.4c0,2.2,1.8,2.2,1.8,4.5
				c0,2.2-1.8,2.2-1.8,4.5"/>
		</g>
		<line class="st2" x1="17.6" y1="49.7" x2="26.2" y2="49.9"/>
		<path class="st0" d="M23.9,63.5c0,1.3-1.3,2.3-2.9,2.3c-1.6,0-2.9-1-2.9-2.3c0-1.3,1.3-2.3,2.9-2.3C22.6,61.2,23.9,62.2,23.9,63.5
			z"/>
	</g>
	<g>
		<path class="st0" d="M19.8,36.6c0,1.3-1.3,2.3-2.9,2.3c-1.6,0-2.9-1-2.9-2.3c0-1.3,1.3-2.3,2.9-2.3C18.4,34.3,19.8,35.4,19.8,36.6
			z"/>
		<g>
			<path class="st1" d="M15.6,38.8c0,2.2-1.8,2.2-1.8,4.4c0,2.2,1.8,2.2,1.8,4.4c0,2.2-1.8,2.2-1.8,4.4c0,2.2,1.8,2.2,1.8,4.5
				c0,2.2-1.8,2.2-1.8,4.5"/>
		</g>
		<g>
			<path class="st1" d="M18.1,39c0,2.2-1.8,2.2-1.8,4.4c0,2.2,1.8,2.2,1.8,4.4c0,2.2-1.8,2.2-1.8,4.4c0,2.2,1.8,2.2,1.8,4.5
				c0,2.2-1.8,2.2-1.8,4.5"/>
		</g>
		<line class="st2" x1="11.8" y1="49.7" x2="20.4" y2="49.9"/>
		<path class="st0" d="M18,63.5c0,1.3-1.3,2.3-2.9,2.3c-1.6,0-2.9-1-2.9-2.3c0-1.3,1.3-2.3,2.9-2.3C16.7,61.2,18,62.2,18,63.5z"/>
	</g>
	<g>
		<path class="st0" d="M37.7,36.6c0,1.3-1.3,2.3-2.9,2.3c-1.6,0-2.9-1-2.9-2.3c0-1.3,1.3-2.3,2.9-2.3C36.4,34.3,37.7,35.4,37.7,36.6
			z"/>
		<g>
			<path class="st1" d="M33.5,38.8c0,2.2-1.8,2.2-1.8,4.4c0,2.2,1.8,2.2,1.8,4.4c0,2.2-1.8,2.2-1.8,4.4c0,2.2,1.8,2.2,1.8,4.5
				c0,2.2-1.8,2.2-1.8,4.5"/>
		</g>
		<g>
			<path class="st1" d="M36,39c0,2.2-1.8,2.2-1.8,4.4c0,2.2,1.8,2.2,1.8,4.4c0,2.2-1.8,2.2-1.8,4.4c0,2.2,1.8,2.2,1.8,4.5
				c0,2.2-1.8,2.2-1.8,4.5"/>
		</g>
		<line class="st2" x1="29.7" y1="49.7" x2="38.3" y2="49.9"/>
		<path class="st0" d="M35.9,63.5c0,1.3-1.3,2.3-2.9,2.3c-1.6,0-2.9-1-2.9-2.3c0-1.3,1.3-2.3,2.9-2.3C34.6,61.2,35.9,62.2,35.9,63.5
			z"/>
	</g>
	<g>
		<path class="st0" d="M31.8,36.6c0,1.3-1.3,2.3-2.9,2.3c-1.6,0-2.9-1-2.9-2.3c0-1.3,1.3-2.3,2.9-2.3C30.5,34.3,31.8,35.4,31.8,36.6
			z"/>
		<g>
			<path class="st1" d="M27.7,38.8c0,2.2-1.8,2.2-1.8,4.4c0,2.2,1.8,2.2,1.8,4.4c0,2.2-1.8,2.2-1.8,4.4c0,2.2,1.8,2.2,1.8,4.5
				c0,2.2-1.8,2.2-1.8,4.5"/>
		</g>
		<g>
			<path class="st1" d="M30.1,39c0,2.2-1.8,2.2-1.8,4.4c0,2.2,1.8,2.2,1.8,4.4c0,2.2-1.8,2.2-1.8,4.4c0,2.2,1.8,2.2,1.8,4.5
				c0,2.2-1.8,2.2-1.8,4.5"/>
		</g>
		<line class="st2" x1="23.9" y1="49.7" x2="32.5" y2="49.9"/>
		<path class="st0" d="M30.1,63.5c0,1.3-1.3,2.3-2.9,2.3c-1.6,0-2.9-1-2.9-2.3c0-1.3,1.3-2.3,2.9-2.3C28.8,61.2,30.1,62.2,30.1,63.5
			z"/>
	</g>
	<g>
		<path class="st0" d="M49.6,36.6c0,1.3-1.3,2.3-2.9,2.3c-1.6,0-2.9-1-2.9-2.3c0-1.3,1.3-2.3,2.9-2.3C48.3,34.3,49.6,35.4,49.6,36.6
			z"/>
		<g>
			<path class="st1" d="M45.4,38.8c0,2.2-1.8,2.2-1.8,4.4c0,2.2,1.8,2.2,1.8,4.4c0,2.2-1.8,2.2-1.8,4.4c0,2.2,1.8,2.2,1.8,4.5
				c0,2.2-1.8,2.2-1.8,4.5"/>
		</g>
		<g>
			<path class="st1" d="M47.9,39c0,2.2-1.8,2.2-1.8,4.4c0,2.2,1.8,2.2,1.8,4.4c0,2.2-1.8,2.2-1.8,4.4c0,2.2,1.8,2.2,1.8,4.5
				c0,2.2-1.8,2.2-1.8,4.5"/>
		</g>
		<line class="st2" x1="41.6" y1="49.7" x2="50.2" y2="49.9"/>
		<path class="st0" d="M47.9,63.5c0,1.3-1.3,2.3-2.9,2.3c-1.6,0-2.9-1-2.9-2.3c0-1.3,1.3-2.3,2.9-2.3C46.6,61.2,47.9,62.2,47.9,63.5
			z"/>
	</g>
	<g>
		<path class="st0" d="M43.8,36.6c0,1.3-1.3,2.3-2.9,2.3c-1.6,0-2.9-1-2.9-2.3c0-1.3,1.3-2.3,2.9-2.3C42.4,34.3,43.8,35.4,43.8,36.6
			z"/>
		<g>
			<path class="st1" d="M39.6,38.8c0,2.2-1.8,2.2-1.8,4.4c0,2.2,1.8,2.2,1.8,4.4c0,2.2-1.8,2.2-1.8,4.4c0,2.2,1.8,2.2,1.8,4.5
				c0,2.2-1.8,2.2-1.8,4.5"/>
		</g>
		<g>
			<path class="st1" d="M42.1,39c0,2.2-1.8,2.2-1.8,4.4c0,2.2,1.8,2.2,1.8,4.4c0,2.2-1.8,2.2-1.8,4.4c0,2.2,1.8,2.2,1.8,4.5
				c0,2.2-1.8,2.2-1.8,4.5"/>
		</g>
		<line class="st2" x1="35.8" y1="49.7" x2="44.4" y2="49.9"/>
		<path class="st0" d="M42,63.5c0,1.3-1.3,2.3-2.9,2.3c-1.6,0-2.9-1-2.9-2.3c0-1.3,1.3-2.3,2.9-2.3C40.7,61.2,42,62.2,42,63.5z"/>
	</g>
	<g>
		<path class="st0" d="M61.7,36.6c0,1.3-1.3,2.3-2.9,2.3c-1.6,0-2.9-1-2.9-2.3c0-1.3,1.3-2.3,2.9-2.3C60.4,34.3,61.7,35.4,61.7,36.6
			z"/>
		<g>
			<path class="st1" d="M57.5,38.8c0,2.2-1.8,2.2-1.8,4.4c0,2.2,1.8,2.2,1.8,4.4c0,2.2-1.8,2.2-1.8,4.4c0,2.2,1.8,2.2,1.8,4.5
				c0,2.2-1.8,2.2-1.8,4.5"/>
		</g>
		<g>
			<path class="st1" d="M60,39c0,2.2-1.8,2.2-1.8,4.4c0,2.2,1.8,2.2,1.8,4.4c0,2.2-1.8,2.2-1.8,4.4c0,2.2,1.8,2.2,1.8,4.5
				c0,2.2-1.8,2.2-1.8,4.5"/>
		</g>
		<line class="st2" x1="53.7" y1="49.7" x2="62.3" y2="49.9"/>
		<path class="st0" d="M59.9,63.5c0,1.3-1.3,2.3-2.9,2.3c-1.6,0-2.9-1-2.9-2.3c0-1.3,1.3-2.3,2.9-2.3C58.6,61.2,59.9,62.2,59.9,63.5
			z"/>
	</g>
	<g>
		<path class="st0" d="M55.8,36.6c0,1.3-1.3,2.3-2.9,2.3c-1.6,0-2.9-1-2.9-2.3c0-1.3,1.3-2.3,2.9-2.3C54.5,34.3,55.8,35.4,55.8,36.6
			z"/>
		<g>
			<path class="st1" d="M51.7,38.8c0,2.2-1.8,2.2-1.8,4.4c0,2.2,1.8,2.2,1.8,4.4c0,2.2-1.8,2.2-1.8,4.4c0,2.2,1.8,2.2,1.8,4.5
				c0,2.2-1.8,2.2-1.8,4.5"/>
		</g>
		<g>
			<path class="st1" d="M54.1,39c0,2.2-1.8,2.2-1.8,4.4c0,2.2,1.8,2.2,1.8,4.4c0,2.2-1.8,2.2-1.8,4.4c0,2.2,1.8,2.2,1.8,4.5
				c0,2.2-1.8,2.2-1.8,4.5"/>
		</g>
		<line class="st2" x1="47.9" y1="49.7" x2="56.5" y2="49.9"/>
		<path class="st0" d="M54.1,63.5c0,1.3-1.3,2.3-2.9,2.3c-1.6,0-2.9-1-2.9-2.3c0-1.3,1.3-2.3,2.9-2.3C52.8,61.2,54.1,62.2,54.1,63.5
			z"/>
	</g>
	<g>
		<path class="st0" d="M73.7,36.6c0,1.3-1.3,2.3-2.9,2.3c-1.6,0-2.9-1-2.9-2.3c0-1.3,1.3-2.3,2.9-2.3C72.4,34.3,73.7,35.4,73.7,36.6
			z"/>
		<g>
			<path class="st1" d="M69.6,38.8c0,2.2-1.8,2.2-1.8,4.4c0,2.2,1.8,2.2,1.8,4.4c0,2.2-1.8,2.2-1.8,4.4c0,2.2,1.8,2.2,1.8,4.5
				c0,2.2-1.8,2.2-1.8,4.5"/>
		</g>
		<g>
			<path class="st1" d="M72.1,39c0,2.2-1.8,2.2-1.8,4.4c0,2.2,1.8,2.2,1.8,4.4c0,2.2-1.8,2.2-1.8,4.4c0,2.2,1.8,2.2,1.8,4.5
				c0,2.2-1.8,2.2-1.8,4.5"/>
		</g>
		<line class="st2" x1="65.8" y1="49.7" x2="74.4" y2="49.9"/>
		<path class="st0" d="M72,63.5c0,1.3-1.3,2.3-2.9,2.3c-1.6,0-2.9-1-2.9-2.3c0-1.3,1.3-2.3,2.9-2.3C70.7,61.2,72,62.2,72,63.5z"/>
	</g>
	<g>
		<path class="st0" d="M67.9,36.6c0,1.3-1.3,2.3-2.9,2.3c-1.6,0-2.9-1-2.9-2.3c0-1.3,1.3-2.3,2.9-2.3C66.6,34.3,67.9,35.4,67.9,36.6
			z"/>
		<g>
			<path class="st1" d="M63.8,38.8c0,2.2-1.8,2.2-1.8,4.4c0,2.2,1.8,2.2,1.8,4.4c0,2.2-1.8,2.2-1.8,4.4c0,2.2,1.8,2.2,1.8,4.5
				c0,2.2-1.8,2.2-1.8,4.5"/>
		</g>
		<g>
			<path class="st1" d="M66.2,39c0,2.2-1.8,2.2-1.8,4.4c0,2.2,1.8,2.2,1.8,4.4c0,2.2-1.8,2.2-1.8,4.4c0,2.2,1.8,2.2,1.8,4.5
				c0,2.2-1.8,2.2-1.8,4.5"/>
		</g>
		<line class="st2" x1="59.9" y1="49.7" x2="68.6" y2="49.9"/>
		<path class="st0" d="M66.2,63.5c0,1.3-1.3,2.3-2.9,2.3c-1.6,0-2.9-1-2.9-2.3c0-1.3,1.3-2.3,2.9-2.3C64.9,61.2,66.2,62.2,66.2,63.5
			z"/>
	</g>
	<g>
		<path class="st0" d="M85.8,36.6c0,1.3-1.3,2.3-2.9,2.3c-1.6,0-2.9-1-2.9-2.3c0-1.3,1.3-2.3,2.9-2.3C84.5,34.3,85.8,35.4,85.8,36.6
			z"/>
		<g>
			<path class="st1" d="M81.7,38.8c0,2.2-1.8,2.2-1.8,4.4c0,2.2,1.8,2.2,1.8,4.4c0,2.2-1.8,2.2-1.8,4.4c0,2.2,1.8,2.2,1.8,4.5
				c0,2.2-1.8,2.2-1.8,4.5"/>
		</g>
		<g>
			<path class="st1" d="M84.1,39c0,2.2-1.8,2.2-1.8,4.4c0,2.2,1.8,2.2,1.8,4.4c0,2.2-1.8,2.2-1.8,4.4c0,2.2,1.8,2.2,1.8,4.5
				c0,2.2-1.8,2.2-1.8,4.5"/>
		</g>
		<line class="st2" x1="77.8" y1="49.7" x2="86.5" y2="49.9"/>
		<path class="st0" d="M84.1,63.5c0,1.3-1.3,2.3-2.9,2.3c-1.6,0-2.9-1-2.9-2.3c0-1.3,1.3-2.3,2.9-2.3C82.8,61.2,84.1,62.2,84.1,63.5
			z"/>
	</g>
	<g>
		<path class="st0" d="M80,36.6c0,1.3-1.3,2.3-2.9,2.3c-1.6,0-2.9-1-2.9-2.3c0-1.3,1.3-2.3,2.9-2.3C78.7,34.3,80,35.4,80,36.6z"/>
		<g>
			<path class="st1" d="M75.8,38.8c0,2.2-1.8,2.2-1.8,4.4c0,2.2,1.8,2.2,1.8,4.4c0,2.2-1.8,2.2-1.8,4.4c0,2.2,1.8,2.2,1.8,4.5
				c0,2.2-1.8,2.2-1.8,4.5"/>
		</g>
		<g>
			<path class="st1" d="M78.3,39c0,2.2-1.8,2.2-1.8,4.4c0,2.2,1.8,2.2,1.8,4.4c0,2.2-1.8,2.2-1.8,4.4c0,2.2,1.8,2.2,1.8,4.5
				c0,2.2-1.8,2.2-1.8,4.5"/>
		</g>
		<line class="st2" x1="72" y1="49.7" x2="80.6" y2="49.9"/>
		<path class="st0" d="M78.3,63.5c0,1.3-1.3,2.3-2.9,2.3c-1.6,0-2.9-1-2.9-2.3c0-1.3,1.3-2.3,2.9-2.3C76.9,61.2,78.3,62.2,78.3,63.5
			z"/>
	</g>
	<g>
		<path class="st0" d="M97.9,36.6c0,1.3-1.3,2.3-2.9,2.3c-1.6,0-2.9-1-2.9-2.3c0-1.3,1.3-2.3,2.9-2.3C96.6,34.3,97.9,35.4,97.9,36.6
			z"/>
		<g>
			<path class="st1" d="M93.7,38.8c0,2.2-1.8,2.2-1.8,4.4c0,2.2,1.8,2.2,1.8,4.4c0,2.2-1.8,2.2-1.8,4.4c0,2.2,1.8,2.2,1.8,4.5
				c0,2.2-1.8,2.2-1.8,4.5"/>
		</g>
		<g>
			<path class="st1" d="M96.2,39c0,2.2-1.8,2.2-1.8,4.4c0,2.2,1.8,2.2,1.8,4.4c0,2.2-1.8,2.2-1.8,4.4c0,2.2,1.8,2.2,1.8,4.5
				c0,2.2-1.8,2.2-1.8,4.5"/>
		</g>
		<line class="st2" x1="89.9" y1="49.7" x2="98.5" y2="49.9"/>
		<path class="st0" d="M96.2,63.5c0,1.3-1.3,2.3-2.9,2.3c-1.6,0-2.9-1-2.9-2.3c0-1.3,1.3-2.3,2.9-2.3C94.9,61.2,96.2,62.2,96.2,63.5
			z"/>
	</g>
	<g>
		<path class="st0" d="M92.1,36.6c0,1.3-1.3,2.3-2.9,2.3c-1.6,0-2.9-1-2.9-2.3c0-1.3,1.3-2.3,2.9-2.3C90.8,34.3,92.1,35.4,92.1,36.6
			z"/>
		<g>
			<path class="st1" d="M87.9,38.8c0,2.2-1.8,2.2-1.8,4.4c0,2.2,1.8,2.2,1.8,4.4c0,2.2-1.8,2.2-1.8,4.4c0,2.2,1.8,2.2,1.8,4.5
				c0,2.2-1.8,2.2-1.8,4.5"/>
		</g>
		<g>
			<path class="st1" d="M90.4,39c0,2.2-1.8,2.2-1.8,4.4c0,2.2,1.8,2.2,1.8,4.4c0,2.2-1.8,2.2-1.8,4.4c0,2.2,1.8,2.2,1.8,4.5
				c0,2.2-1.8,2.2-1.8,4.5"/>
		</g>
		<line class="st2" x1="84.1" y1="49.7" x2="92.7" y2="49.9"/>
		<path class="st0" d="M90.3,63.5c0,1.3-1.3,2.3-2.9,2.3c-1.6,0-2.9-1-2.9-2.3c0-1.3,1.3-2.3,2.9-2.3C89,61.2,90.3,62.2,90.3,63.5z"
			/>
	</g>
	<g>
		<path class="st0" d="M110,36.6c0,1.3-1.3,2.3-2.9,2.3c-1.6,0-2.9-1-2.9-2.3c0-1.3,1.3-2.3,2.9-2.3C108.7,34.3,110,35.4,110,36.6z"
			/>
		<g>
			<path class="st1" d="M105.8,38.8c0,2.2-1.8,2.2-1.8,4.4c0,2.2,1.8,2.2,1.8,4.4c0,2.2-1.8,2.2-1.8,4.4c0,2.2,1.8,2.2,1.8,4.5
				c0,2.2-1.8,2.2-1.8,4.5"/>
		</g>
		<g>
			<path class="st1" d="M108.3,39c0,2.2-1.8,2.2-1.8,4.4c0,2.2,1.8,2.2,1.8,4.4c0,2.2-1.8,2.2-1.8,4.4c0,2.2,1.8,2.2,1.8,4.5
				c0,2.2-1.8,2.2-1.8,4.5"/>
		</g>
		<line class="st2" x1="102" y1="49.7" x2="110.6" y2="49.9"/>
		<path class="st0" d="M108.2,63.5c0,1.3-1.3,2.3-2.9,2.3c-1.6,0-2.9-1-2.9-2.3c0-1.3,1.3-2.3,2.9-2.3
			C106.9,61.2,108.2,62.2,108.2,63.5z"/>
	</g>
	<g>
		<path class="st0" d="M104.1,36.6c0,1.3-1.3,2.3-2.9,2.3c-1.6,0-2.9-1-2.9-2.3c0-1.3,1.3-2.3,2.9-2.3
			C102.8,34.3,104.1,35.4,104.1,36.6z"/>
		<g>
			<path class="st1" d="M100,38.8c0,2.2-1.8,2.2-1.8,4.4c0,2.2,1.8,2.2,1.8,4.4c0,2.2-1.8,2.2-1.8,4.4c0,2.2,1.8,2.2,1.8,4.5
				c0,2.2-1.8,2.2-1.8,4.5"/>
		</g>
		<g>
			<path class="st1" d="M102.5,39c0,2.2-1.8,2.2-1.8,4.4c0,2.2,1.8,2.2,1.8,4.4c0,2.2-1.8,2.2-1.8,4.4c0,2.2,1.8,2.2,1.8,4.5
				c0,2.2-1.8,2.2-1.8,4.5"/>
		</g>
		<line class="st2" x1="96.2" y1="49.7" x2="104.8" y2="49.9"/>
		<path class="st0" d="M102.4,63.5c0,1.3-1.3,2.3-2.9,2.3c-1.6,0-2.9-1-2.9-2.3c0-1.3,1.3-2.3,2.9-2.3
			C101.1,61.2,102.4,62.2,102.4,63.5z"/>
	</g>
	<g>
		<path class="st0" d="M121.9,36.6c0,1.3-1.3,2.3-2.9,2.3c-1.6,0-2.9-1-2.9-2.3c0-1.3,1.3-2.3,2.9-2.3
			C120.6,34.3,121.9,35.4,121.9,36.6z"/>
		<g>
			<path class="st1" d="M117.7,38.8c0,2.2-1.8,2.2-1.8,4.4c0,2.2,1.8,2.2,1.8,4.4c0,2.2-1.8,2.2-1.8,4.4c0,2.2,1.8,2.2,1.8,4.5
				c0,2.2-1.8,2.2-1.8,4.5"/>
		</g>
		<g>
			<path class="st1" d="M120.2,39c0,2.2-1.8,2.2-1.8,4.4c0,2.2,1.8,2.2,1.8,4.4c0,2.2-1.8,2.2-1.8,4.4c0,2.2,1.8,2.2,1.8,4.5
				c0,2.2-1.8,2.2-1.8,4.5"/>
		</g>
		<line class="st2" x1="113.9" y1="49.7" x2="122.5" y2="49.9"/>
		<path class="st0" d="M120.2,63.5c0,1.3-1.3,2.3-2.9,2.3c-1.6,0-2.9-1-2.9-2.3c0-1.3,1.3-2.3,2.9-2.3
			C118.9,61.2,120.2,62.2,120.2,63.5z"/>
	</g>
	<g>
		<path class="st0" d="M116.1,36.6c0,1.3-1.3,2.3-2.9,2.3c-1.6,0-2.9-1-2.9-2.3c0-1.3,1.3-2.3,2.9-2.3
			C114.8,34.3,116.1,35.4,116.1,36.6z"/>
		<g>
			<path class="st1" d="M111.9,38.8c0,2.2-1.8,2.2-1.8,4.4c0,2.2,1.8,2.2,1.8,4.4c0,2.2-1.8,2.2-1.8,4.4c0,2.2,1.8,2.2,1.8,4.5
				c0,2.2-1.8,2.2-1.8,4.5"/>
		</g>
		<g>
			<path class="st1" d="M114.4,39c0,2.2-1.8,2.2-1.8,4.4c0,2.2,1.8,2.2,1.8,4.4c0,2.2-1.8,2.2-1.8,4.4c0,2.2,1.8,2.2,1.8,4.5
				c0,2.2-1.8,2.2-1.8,4.5"/>
		</g>
		<line class="st2" x1="108.1" y1="49.7" x2="116.7" y2="49.9"/>
		<path class="st0" d="M114.3,63.5c0,1.3-1.3,2.3-2.9,2.3c-1.6,0-2.9-1-2.9-2.3c0-1.3,1.3-2.3,2.9-2.3
			C113,61.2,114.3,62.2,114.3,63.5z"/>
	</g>
	<g>
		<path class="st0" d="M134,36.6c0,1.3-1.3,2.3-2.9,2.3c-1.6,0-2.9-1-2.9-2.3c0-1.3,1.3-2.3,2.9-2.3C132.7,34.3,134,35.4,134,36.6z"
			/>
		<g>
			<path class="st1" d="M129.8,38.8c0,2.2-1.8,2.2-1.8,4.4c0,2.2,1.8,2.2,1.8,4.4c0,2.2-1.8,2.2-1.8,4.4c0,2.2,1.8,2.2,1.8,4.5
				c0,2.2-1.8,2.2-1.8,4.5"/>
		</g>
		<g>
			<path class="st1" d="M132.3,39c0,2.2-1.8,2.2-1.8,4.4c0,2.2,1.8,2.2,1.8,4.4c0,2.2-1.8,2.2-1.8,4.4c0,2.2,1.8,2.2,1.8,4.5
				c0,2.2-1.8,2.2-1.8,4.5"/>
		</g>
		<line class="st2" x1="126" y1="49.7" x2="134.6" y2="49.9"/>
		<path class="st0" d="M132.2,63.5c0,1.3-1.3,2.3-2.9,2.3c-1.6,0-2.9-1-2.9-2.3c0-1.3,1.3-2.3,2.9-2.3
			C130.9,61.2,132.2,62.2,132.2,63.5z"/>
	</g>
	<g>
		<path class="st0" d="M128.1,36.6c0,1.3-1.3,2.3-2.9,2.3c-1.6,0-2.9-1-2.9-2.3c0-1.3,1.3-2.3,2.9-2.3
			C126.8,34.3,128.1,35.4,128.1,36.6z"/>
		<g>
			<path class="st1" d="M124,38.8c0,2.2-1.8,2.2-1.8,4.4c0,2.2,1.8,2.2,1.8,4.4c0,2.2-1.8,2.2-1.8,4.4c0,2.2,1.8,2.2,1.8,4.5
				c0,2.2-1.8,2.2-1.8,4.5"/>
		</g>
		<g>
			<path class="st1" d="M126.5,39c0,2.2-1.8,2.2-1.8,4.4c0,2.2,1.8,2.2,1.8,4.4c0,2.2-1.8,2.2-1.8,4.4c0,2.2,1.8,2.2,1.8,4.5
				c0,2.2-1.8,2.2-1.8,4.5"/>
		</g>
		<line class="st2" x1="120.2" y1="49.7" x2="128.8" y2="49.9"/>
		<path class="st0" d="M126.4,63.5c0,1.3-1.3,2.3-2.9,2.3c-1.6,0-2.9-1-2.9-2.3c0-1.3,1.3-2.3,2.9-2.3
			C125.1,61.2,126.4,62.2,126.4,63.5z"/>
	</g>
	<g>
		<path class="st0" d="M140.2,36.6c0,1.3-1.3,2.3-2.9,2.3c-1.6,0-2.9-1-2.9-2.3c0-1.3,1.3-2.3,2.9-2.3
			C138.9,34.3,140.2,35.4,140.2,36.6z"/>
		<g>
			<path class="st1" d="M136.1,38.8c0,2.2-1.8,2.2-1.8,4.4c0,2.2,1.8,2.2,1.8,4.4c0,2.2-1.8,2.2-1.8,4.4c0,2.2,1.8,2.2,1.8,4.5
				c0,2.2-1.8,2.2-1.8,4.5"/>
		</g>
		<g>
			<path class="st1" d="M138.5,39c0,2.2-1.8,2.2-1.8,4.4c0,2.2,1.8,2.2,1.8,4.4c0,2.2-1.8,2.2-1.8,4.4c0,2.2,1.8,2.2,1.8,4.5
				c0,2.2-1.8,2.2-1.8,4.5"/>
		</g>
		<line class="st2" x1="132.2" y1="49.7" x2="140.9" y2="49.9"/>
		<path class="st0" d="M138.5,63.5c0,1.3-1.3,2.3-2.9,2.3c-1.6,0-2.9-1-2.9-2.3c0-1.3,1.3-2.3,2.9-2.3
			C137.2,61.2,138.5,62.2,138.5,63.5z"/>
	</g>
	<g>
		<path class="st0" d="M167.8,36.6c0,1.3-1.3,2.3-2.9,2.3c-1.6,0-2.9-1-2.9-2.3c0-1.3,1.3-2.3,2.9-2.3
			C166.5,34.3,167.8,35.4,167.8,36.6z"/>
		<g>
			<path class="st1" d="M163.7,38.8c0,2.2-1.8,2.2-1.8,4.4c0,2.2,1.8,2.2,1.8,4.4c0,2.2-1.8,2.2-1.8,4.4c0,2.2,1.8,2.2,1.8,4.5
				c0,2.2-1.8,2.2-1.8,4.5"/>
		</g>
		<g>
			<path class="st1" d="M166.1,39c0,2.2-1.8,2.2-1.8,4.4c0,2.2,1.8,2.2,1.8,4.4c0,2.2-1.8,2.2-1.8,4.4c0,2.2,1.8,2.2,1.8,4.5
				c0,2.2-1.8,2.2-1.8,4.5"/>
		</g>
		<line class="st2" x1="159.8" y1="49.7" x2="168.5" y2="49.9"/>
		<path class="st0" d="M166.1,63.5c0,1.3-1.3,2.3-2.9,2.3c-1.6,0-2.9-1-2.9-2.3c0-1.3,1.3-2.3,2.9-2.3
			C164.8,61.2,166.1,62.2,166.1,63.5z"/>
	</g>
	<g>
		<path class="st0" d="M162,36.6c0,1.3-1.3,2.3-2.9,2.3c-1.6,0-2.9-1-2.9-2.3c0-1.3,1.3-2.3,2.9-2.3C160.7,34.3,162,35.4,162,36.6z"
			/>
		<g>
			<path class="st1" d="M157.8,38.8c0,2.2-1.8,2.2-1.8,4.4c0,2.2,1.8,2.2,1.8,4.4c0,2.2-1.8,2.2-1.8,4.4c0,2.2,1.8,2.2,1.8,4.5
				c0,2.2-1.8,2.2-1.8,4.5"/>
		</g>
		<g>
			<path class="st1" d="M160.3,39c0,2.2-1.8,2.2-1.8,4.4c0,2.2,1.8,2.2,1.8,4.4c0,2.2-1.8,2.2-1.8,4.4c0,2.2,1.8,2.2,1.8,4.5
				c0,2.2-1.8,2.2-1.8,4.5"/>
		</g>
		<line class="st2" x1="154" y1="49.7" x2="162.6" y2="49.9"/>
		<path class="st0" d="M160.3,63.5c0,1.3-1.3,2.3-2.9,2.3c-1.6,0-2.9-1-2.9-2.3c0-1.3,1.3-2.3,2.9-2.3
			C158.9,61.2,160.3,62.2,160.3,63.5z"/>
	</g>
	<g>
		<path class="st0" d="M179.7,36.6c0,1.3-1.3,2.3-2.9,2.3c-1.6,0-2.9-1-2.9-2.3c0-1.3,1.3-2.3,2.9-2.3
			C178.4,34.3,179.7,35.4,179.7,36.6z"/>
		<g>
			<path class="st1" d="M175.6,38.8c0,2.2-1.8,2.2-1.8,4.4c0,2.2,1.8,2.2,1.8,4.4c0,2.2-1.8,2.2-1.8,4.4c0,2.2,1.8,2.2,1.8,4.5
				c0,2.2-1.8,2.2-1.8,4.5"/>
		</g>
		<g>
			<path class="st1" d="M178.1,39c0,2.2-1.8,2.2-1.8,4.4c0,2.2,1.8,2.2,1.8,4.4c0,2.2-1.8,2.2-1.8,4.4c0,2.2,1.8,2.2,1.8,4.5
				c0,2.2-1.8,2.2-1.8,4.5"/>
		</g>
		<line class="st2" x1="171.8" y1="49.7" x2="180.4" y2="49.9"/>
		<path class="st0" d="M178,63.5c0,1.3-1.3,2.3-2.9,2.3c-1.6,0-2.9-1-2.9-2.3c0-1.3,1.3-2.3,2.9-2.3C176.7,61.2,178,62.2,178,63.5z"
			/>
	</g>
	<g>
		<path class="st0" d="M173.9,36.6c0,1.3-1.3,2.3-2.9,2.3c-1.6,0-2.9-1-2.9-2.3c0-1.3,1.3-2.3,2.9-2.3
			C172.6,34.3,173.9,35.4,173.9,36.6z"/>
		<g>
			<path class="st1" d="M169.7,38.8c0,2.2-1.8,2.2-1.8,4.4c0,2.2,1.8,2.2,1.8,4.4c0,2.2-1.8,2.2-1.8,4.4c0,2.2,1.8,2.2,1.8,4.5
				c0,2.2-1.8,2.2-1.8,4.5"/>
		</g>
		<g>
			<path class="st1" d="M172.2,39c0,2.2-1.8,2.2-1.8,4.4c0,2.2,1.8,2.2,1.8,4.4c0,2.2-1.8,2.2-1.8,4.4c0,2.2,1.8,2.2,1.8,4.5
				c0,2.2-1.8,2.2-1.8,4.5"/>
		</g>
		<line class="st2" x1="165.9" y1="49.7" x2="174.6" y2="49.9"/>
		<path class="st0" d="M172.2,63.5c0,1.3-1.3,2.3-2.9,2.3c-1.6,0-2.9-1-2.9-2.3c0-1.3,1.3-2.3,2.9-2.3
			C170.9,61.2,172.2,62.2,172.2,63.5z"/>
	</g>
	<g>
		<path class="st0" d="M191.8,36.6c0,1.3-1.3,2.3-2.9,2.3c-1.6,0-2.9-1-2.9-2.3c0-1.3,1.3-2.3,2.9-2.3
			C190.5,34.3,191.8,35.4,191.8,36.6z"/>
		<g>
			<path class="st1" d="M187.7,38.8c0,2.2-1.8,2.2-1.8,4.4c0,2.2,1.8,2.2,1.8,4.4c0,2.2-1.8,2.2-1.8,4.4c0,2.2,1.8,2.2,1.8,4.5
				c0,2.2-1.8,2.2-1.8,4.5"/>
		</g>
		<g>
			<path class="st1" d="M190.1,39c0,2.2-1.8,2.2-1.8,4.4c0,2.2,1.8,2.2,1.8,4.4c0,2.2-1.8,2.2-1.8,4.4c0,2.2,1.8,2.2,1.8,4.5
				c0,2.2-1.8,2.2-1.8,4.5"/>
		</g>
		<line class="st2" x1="183.8" y1="49.7" x2="192.5" y2="49.9"/>
		<path class="st0" d="M190.1,63.5c0,1.3-1.3,2.3-2.9,2.3c-1.6,0-2.9-1-2.9-2.3c0-1.3,1.3-2.3,2.9-2.3
			C188.8,61.2,190.1,62.2,190.1,63.5z"/>
	</g>
	<g>
		<path class="st0" d="M186,36.6c0,1.3-1.3,2.3-2.9,2.3c-1.6,0-2.9-1-2.9-2.3c0-1.3,1.3-2.3,2.9-2.3C184.7,34.3,186,35.4,186,36.6z"
			/>
		<g>
			<path class="st1" d="M181.8,38.8c0,2.2-1.8,2.2-1.8,4.4c0,2.2,1.8,2.2,1.8,4.4c0,2.2-1.8,2.2-1.8,4.4c0,2.2,1.8,2.2,1.8,4.5
				c0,2.2-1.8,2.2-1.8,4.5"/>
		</g>
		<g>
			<path class="st1" d="M184.3,39c0,2.2-1.8,2.2-1.8,4.4c0,2.2,1.8,2.2,1.8,4.4c0,2.2-1.8,2.2-1.8,4.4c0,2.2,1.8,2.2,1.8,4.5
				c0,2.2-1.8,2.2-1.8,4.5"/>
		</g>
		<line class="st2" x1="178" y1="49.7" x2="186.6" y2="49.9"/>
		<path class="st0" d="M184.3,63.5c0,1.3-1.3,2.3-2.9,2.3c-1.6,0-2.9-1-2.9-2.3c0-1.3,1.3-2.3,2.9-2.3
			C182.9,61.2,184.3,62.2,184.3,63.5z"/>
	</g>
	<g>
		<path class="st0" d="M203.9,36.6c0,1.3-1.3,2.3-2.9,2.3c-1.6,0-2.9-1-2.9-2.3c0-1.3,1.3-2.3,2.9-2.3
			C202.6,34.3,203.9,35.4,203.9,36.6z"/>
		<g>
			<path class="st1" d="M199.7,38.8c0,2.2-1.8,2.2-1.8,4.4c0,2.2,1.8,2.2,1.8,4.4c0,2.2-1.8,2.2-1.8,4.4c0,2.2,1.8,2.2,1.8,4.5
				c0,2.2-1.8,2.2-1.8,4.5"/>
		</g>
		<g>
			<path class="st1" d="M202.2,39c0,2.2-1.8,2.2-1.8,4.4c0,2.2,1.8,2.2,1.8,4.4c0,2.2-1.8,2.2-1.8,4.4c0,2.2,1.8,2.2,1.8,4.5
				c0,2.2-1.8,2.2-1.8,4.5"/>
		</g>
		<line class="st2" x1="195.9" y1="49.7" x2="204.5" y2="49.9"/>
		<path class="st0" d="M202.2,63.5c0,1.3-1.3,2.3-2.9,2.3c-1.6,0-2.9-1-2.9-2.3c0-1.3,1.3-2.3,2.9-2.3
			C200.9,61.2,202.2,62.2,202.2,63.5z"/>
	</g>
	<g>
		<path class="st0" d="M198.1,36.6c0,1.3-1.3,2.3-2.9,2.3c-1.6,0-2.9-1-2.9-2.3c0-1.3,1.3-2.3,2.9-2.3
			C196.8,34.3,198.1,35.4,198.1,36.6z"/>
		<g>
			<path class="st1" d="M193.9,38.8c0,2.2-1.8,2.2-1.8,4.4c0,2.2,1.8,2.2,1.8,4.4c0,2.2-1.8,2.2-1.8,4.4c0,2.2,1.8,2.2,1.8,4.5
				c0,2.2-1.8,2.2-1.8,4.5"/>
		</g>
		<g>
			<path class="st1" d="M196.4,39c0,2.2-1.8,2.2-1.8,4.4c0,2.2,1.8,2.2,1.8,4.4c0,2.2-1.8,2.2-1.8,4.4c0,2.2,1.8,2.2,1.8,4.5
				c0,2.2-1.8,2.2-1.8,4.5"/>
		</g>
		<line class="st2" x1="190.1" y1="49.7" x2="198.7" y2="49.9"/>
		<path class="st0" d="M196.3,63.5c0,1.3-1.3,2.3-2.9,2.3c-1.6,0-2.9-1-2.9-2.3c0-1.3,1.3-2.3,2.9-2.3
			C195,61.2,196.3,62.2,196.3,63.5z"/>
	</g>
	<g>
		<path class="st0" d="M216,36.6c0,1.3-1.3,2.3-2.9,2.3c-1.6,0-2.9-1-2.9-2.3c0-1.3,1.3-2.3,2.9-2.3C214.7,34.3,216,35.4,216,36.6z"
			/>
		<g>
			<path class="st1" d="M211.8,38.8c0,2.2-1.8,2.2-1.8,4.4c0,2.2,1.8,2.2,1.8,4.4c0,2.2-1.8,2.2-1.8,4.4c0,2.2,1.8,2.2,1.8,4.5
				c0,2.2-1.8,2.2-1.8,4.5"/>
		</g>
		<g>
			<path class="st1" d="M214.3,39c0,2.2-1.8,2.2-1.8,4.4c0,2.2,1.8,2.2,1.8,4.4c0,2.2-1.8,2.2-1.8,4.4c0,2.2,1.8,2.2,1.8,4.5
				c0,2.2-1.8,2.2-1.8,4.5"/>
		</g>
		<line class="st2" x1="208" y1="49.7" x2="216.6" y2="49.9"/>
		<path class="st0" d="M214.2,63.5c0,1.3-1.3,2.3-2.9,2.3c-1.6,0-2.9-1-2.9-2.3c0-1.3,1.3-2.3,2.9-2.3
			C212.9,61.2,214.2,62.2,214.2,63.5z"/>
	</g>
	<g>
		<path class="st0" d="M210.1,36.6c0,1.3-1.3,2.3-2.9,2.3c-1.6,0-2.9-1-2.9-2.3c0-1.3,1.3-2.3,2.9-2.3
			C208.8,34.3,210.1,35.4,210.1,36.6z"/>
		<g>
			<path class="st1" d="M206,38.8c0,2.2-1.8,2.2-1.8,4.4c0,2.2,1.8,2.2,1.8,4.4c0,2.2-1.8,2.2-1.8,4.4c0,2.2,1.8,2.2,1.8,4.5
				c0,2.2-1.8,2.2-1.8,4.5"/>
		</g>
		<g>
			<path class="st1" d="M208.4,39c0,2.2-1.8,2.2-1.8,4.4c0,2.2,1.8,2.2,1.8,4.4c0,2.2-1.8,2.2-1.8,4.4c0,2.2,1.8,2.2,1.8,4.5
				c0,2.2-1.8,2.2-1.8,4.5"/>
		</g>
		<line class="st2" x1="202.2" y1="49.7" x2="210.8" y2="49.9"/>
		<path class="st0" d="M208.4,63.5c0,1.3-1.3,2.3-2.9,2.3c-1.6,0-2.9-1-2.9-2.3c0-1.3,1.3-2.3,2.9-2.3
			C207.1,61.2,208.4,62.2,208.4,63.5z"/>
	</g>
	<path class="st3" d="M61.7,65c0,3.8-13.5,3.5-13.5-0.5"/>
	<path class="st4" d="M126,64.8c0.1,0.6,0.2,1.3,0.6,1.8c0.4,0.5,0.9,0.8,1.4,1.1c0.5,0.3,1,0.7,1.4,1.2c0.4,0.5,3.6,2,3.8,2.1
		c0.6,0.4,1.4,1.1,2.1,1.3"/>
	<path class="st3" d="M87.9,65.3c0,3.5-14.7,3.3-14.7-0.4"/>
	<g>
		<linearGradient id="SVGID_1_" gradientUnits="userSpaceOnUse" x1="56.1334" y1="51.7148" x2="67.1965" y2="51.7148">
			<stop  offset="0" style="stop-color:#EC1C24"/>
			<stop  offset="1" style="stop-color:#000000"/>
		</linearGradient>
		<path class="st5" d="M67.2,37.7V63c0,1.5-2.5,2.8-5.5,2.8c-3.1,0-5.5-1.2-5.5-2.8V37.7H67.2z"/>
		
			<linearGradient id="SVGID_00000165216056275952757780000012086896031492515716_" gradientUnits="userSpaceOnUse" x1="56.1315" y1="37.6516" x2="67.1952" y2="37.6516">
			<stop  offset="0" style="stop-color:#EC1C24"/>
			<stop  offset="1" style="stop-color:#000000"/>
		</linearGradient>
		
			<ellipse style="fill:url(#SVGID_00000165216056275952757780000012086896031492515716_);stroke:#231F20;stroke-width:0.3927;stroke-miterlimit:10;" cx="61.7" cy="37.7" rx="5.5" ry="2.8"/>
	</g>
	<g>
		
			<linearGradient id="SVGID_00000011749696174657914680000003156135984833079993_" gradientUnits="userSpaceOnUse" x1="68.8656" y1="51.7148" x2="79.9287" y2="51.7148">
			<stop  offset="0" style="stop-color:#EC1C24"/>
			<stop  offset="1" style="stop-color:#000000"/>
		</linearGradient>
		
			<path style="fill:url(#SVGID_00000011749696174657914680000003156135984833079993_);stroke:#231F20;stroke-width:0.3927;stroke-miterlimit:10;" d="
			M79.9,37.7V63c0,1.5-2.5,2.8-5.5,2.8c-3.1,0-5.5-1.2-5.5-2.8V37.7H79.9z"/>
		
			<linearGradient id="SVGID_00000093178519803890339240000005158898248370278588_" gradientUnits="userSpaceOnUse" x1="68.8638" y1="37.6516" x2="79.9274" y2="37.6516">
			<stop  offset="0" style="stop-color:#EC1C24"/>
			<stop  offset="1" style="stop-color:#000000"/>
		</linearGradient>
		
			<ellipse style="fill:url(#SVGID_00000093178519803890339240000005158898248370278588_);stroke:#231F20;stroke-width:0.3927;stroke-miterlimit:10;" cx="74.4" cy="37.7" rx="5.5" ry="2.8"/>
	</g>
	<g>
		
			<linearGradient id="SVGID_00000034062097812824457420000013608368449274616200_" gradientUnits="userSpaceOnUse" x1="82.3927" y1="51.7148" x2="93.4558" y2="51.7148">
			<stop  offset="0" style="stop-color:#AE2C67"/>
			<stop  offset="1" style="stop-color:#000000"/>
		</linearGradient>
		
			<path style="fill:url(#SVGID_00000034062097812824457420000013608368449274616200_);stroke:#231F20;stroke-width:0.3927;stroke-miterlimit:10;" d="
			M93.5,37.7V63c0,1.5-2.5,2.8-5.5,2.8c-3.1,0-5.5-1.2-5.5-2.8V37.7H93.5z"/>
		
			<linearGradient id="SVGID_00000026843254905773495920000000364344753862095780_" gradientUnits="userSpaceOnUse" x1="82.3909" y1="37.6516" x2="93.4546" y2="37.6516">
			<stop  offset="0" style="stop-color:#AE2C67"/>
			<stop  offset="1" style="stop-color:#000000"/>
		</linearGradient>
		
			<ellipse style="fill:url(#SVGID_00000026843254905773495920000000364344753862095780_);stroke:#231F20;stroke-width:0.3927;stroke-miterlimit:10;" cx="87.9" cy="37.7" rx="5.5" ry="2.8"/>
	</g>
	<path class="st3" d="M113.1,65.8c0,2.9-12.6,2.7-12.6-0.4"/>
	<g>
		
			<linearGradient id="SVGID_00000062874218547926421920000006600786329797729677_" gradientUnits="userSpaceOnUse" x1="94.9589" y1="51.7148" x2="106.0221" y2="51.7148">
			<stop  offset="0" style="stop-color:#AE2C67"/>
			<stop  offset="1" style="stop-color:#000000"/>
		</linearGradient>
		
			<path style="fill:url(#SVGID_00000062874218547926421920000006600786329797729677_);stroke:#231F20;stroke-width:0.3927;stroke-miterlimit:10;" d="
			M106,37.7V63c0,1.5-2.5,2.8-5.5,2.8c-3.1,0-5.5-1.2-5.5-2.8V37.7H106z"/>
		
			<linearGradient id="SVGID_00000008127174177351123130000013772813290173542050_" gradientUnits="userSpaceOnUse" x1="94.9571" y1="37.6516" x2="106.0208" y2="37.6516">
			<stop  offset="0" style="stop-color:#AE2C67"/>
			<stop  offset="1" style="stop-color:#000000"/>
		</linearGradient>
		
			<ellipse style="fill:url(#SVGID_00000008127174177351123130000013772813290173542050_);stroke:#231F20;stroke-width:0.3927;stroke-miterlimit:10;" cx="100.5" cy="37.7" rx="5.5" ry="2.8"/>
	</g>
	<g>
		
			<linearGradient id="SVGID_00000070076565462438698210000004647895047792577677_" gradientUnits="userSpaceOnUse" x1="107.5252" y1="51.7148" x2="118.5883" y2="51.7148">
			<stop  offset="0" style="stop-color:#AE2C67"/>
			<stop  offset="1" style="stop-color:#000000"/>
		</linearGradient>
		
			<path style="fill:url(#SVGID_00000070076565462438698210000004647895047792577677_);stroke:#231F20;stroke-width:0.3927;stroke-miterlimit:10;" d="
			M118.6,37.7V63c0,1.5-2.5,2.8-5.5,2.8c-3.1,0-5.5-1.2-5.5-2.8V37.7H118.6z"/>
		
			<linearGradient id="SVGID_00000043451592382159845030000018369840564692124094_" gradientUnits="userSpaceOnUse" x1="107.5233" y1="37.6516" x2="118.587" y2="37.6516">
			<stop  offset="0" style="stop-color:#AE2C67"/>
			<stop  offset="1" style="stop-color:#000000"/>
		</linearGradient>
		
			<ellipse style="fill:url(#SVGID_00000043451592382159845030000018369840564692124094_);stroke:#231F20;stroke-width:0.3927;stroke-miterlimit:10;" cx="113.1" cy="37.7" rx="5.5" ry="2.8"/>
	</g>
	<g>
		<path class="st15" d="M176,69.9"/>
		<path class="st15" d="M171.6,65.8"/>
	</g>
	<g>
		
			<linearGradient id="SVGID_00000097485687465703253810000003301268159993691579_" gradientUnits="userSpaceOnUse" x1="120.0914" y1="51.7148" x2="131.1545" y2="51.7148">
			<stop  offset="0" style="stop-color:#AE2C67"/>
			<stop  offset="1" style="stop-color:#000000"/>
		</linearGradient>
		
			<path style="fill:url(#SVGID_00000097485687465703253810000003301268159993691579_);stroke:#231F20;stroke-width:0.3927;stroke-miterlimit:10;" d="
			M131.2,37.7V63c0,1.5-2.5,2.8-5.5,2.8c-3.1,0-5.5-1.2-5.5-2.8V37.7H131.2z"/>
		
			<linearGradient id="SVGID_00000120533779786003734170000007853305779968570511_" gradientUnits="userSpaceOnUse" x1="120.0895" y1="37.6516" x2="131.1532" y2="37.6516">
			<stop  offset="0" style="stop-color:#AE2C67"/>
			<stop  offset="1" style="stop-color:#000000"/>
		</linearGradient>
		
			<ellipse style="fill:url(#SVGID_00000120533779786003734170000007853305779968570511_);stroke:#231F20;stroke-width:0.3927;stroke-miterlimit:10;" cx="125.6" cy="37.7" rx="5.5" ry="2.8"/>
	</g>
	<path class="st4" d="M10.7,65.2c-0.1,0.4-0.2,0.8-0.3,1.2c-0.2,0.9-0.4,1.8-0.9,2.4c-0.8,0.9-1.9,0.9-3,0.6c-1-0.2-2.1-0.6-3.1-0.5
		c-1.1,0.2-2.1,1.1-2.5,2.4"/>
	<g>
		
			<linearGradient id="SVGID_00000158004600411903960790000014922665199405939134_" gradientUnits="userSpaceOnUse" x1="43.4011" y1="51.7148" x2="54.4643" y2="51.7148">
			<stop  offset="0" style="stop-color:#EC1C24"/>
			<stop  offset="1" style="stop-color:#000000"/>
		</linearGradient>
		
			<path style="fill:url(#SVGID_00000158004600411903960790000014922665199405939134_);stroke:#231F20;stroke-width:0.3927;stroke-miterlimit:10;" d="
			M54.5,37.7V63c0,1.5-2.5,2.8-5.5,2.8c-3.1,0-5.5-1.2-5.5-2.8V37.7H54.5z"/>
		
			<linearGradient id="SVGID_00000001624816380242659580000012695491973316154548_" gradientUnits="userSpaceOnUse" x1="43.3993" y1="37.6516" x2="54.463" y2="37.6516">
			<stop  offset="0" style="stop-color:#EC1C24"/>
			<stop  offset="1" style="stop-color:#000000"/>
		</linearGradient>
		
			<ellipse style="fill:url(#SVGID_00000001624816380242659580000012695491973316154548_);stroke:#231F20;stroke-width:0.3927;stroke-miterlimit:10;" cx="48.9" cy="37.7" rx="5.5" ry="2.8"/>
	</g>
	<path class="st3" d="M35.3,65.6c0,4.9-13.6,4.6-13.6-0.6"/>
	<g>
		
			<linearGradient id="SVGID_00000117634786008247889120000012899629401327559840_" gradientUnits="userSpaceOnUse" x1="4.8123" y1="51.7148" x2="15.8754" y2="51.7148">
			<stop  offset="0" style="stop-color:#808184"/>
			<stop  offset="0" style="stop-color:#A6A8AB"/>
			<stop  offset="1" style="stop-color:#000000"/>
		</linearGradient>
		
			<path style="fill:url(#SVGID_00000117634786008247889120000012899629401327559840_);stroke:#231F20;stroke-width:0.3927;stroke-miterlimit:10;" d="
			M15.9,37.7V63c0,1.5-2.5,2.8-5.5,2.8c-3.1,0-5.5-1.2-5.5-2.8V37.7H15.9z"/>
		
			<linearGradient id="SVGID_00000170243093766402341830000003572535839476836255_" gradientUnits="userSpaceOnUse" x1="4.8105" y1="37.6516" x2="15.8742" y2="37.6516">
			<stop  offset="0" style="stop-color:#808184"/>
			<stop  offset="0" style="stop-color:#A6A8AB"/>
			<stop  offset="1" style="stop-color:#000000"/>
		</linearGradient>
		
			<ellipse style="fill:url(#SVGID_00000170243093766402341830000003572535839476836255_);stroke:#231F20;stroke-width:0.3927;stroke-miterlimit:10;" cx="10.3" cy="37.7" rx="5.5" ry="2.8"/>
	</g>
	<g>
		
			<linearGradient id="SVGID_00000116952619424624885460000016563629967097279123_" gradientUnits="userSpaceOnUse" x1="17.0472" y1="51.7148" x2="28.1104" y2="51.7148">
			<stop  offset="0" style="stop-color:#808184"/>
			<stop  offset="0" style="stop-color:#A6A8AB"/>
			<stop  offset="1" style="stop-color:#000000"/>
		</linearGradient>
		
			<path style="fill:url(#SVGID_00000116952619424624885460000016563629967097279123_);stroke:#231F20;stroke-width:0.3927;stroke-miterlimit:10;" d="
			M28.1,37.7V63c0,1.5-2.5,2.8-5.5,2.8c-3.1,0-5.5-1.2-5.5-2.8V37.7H28.1z"/>
		
			<linearGradient id="SVGID_00000102538111623451266770000011274808054944295814_" gradientUnits="userSpaceOnUse" x1="17.0454" y1="37.6516" x2="28.1091" y2="37.6516">
			<stop  offset="0" style="stop-color:#808184"/>
			<stop  offset="0" style="stop-color:#A6A8AB"/>
			<stop  offset="1" style="stop-color:#000000"/>
		</linearGradient>
		
			<ellipse style="fill:url(#SVGID_00000102538111623451266770000011274808054944295814_);stroke:#231F20;stroke-width:0.3927;stroke-miterlimit:10;" cx="22.6" cy="37.7" rx="5.5" ry="2.8"/>
	</g>
	<g>
		
			<linearGradient id="SVGID_00000170251557530796644350000017728742844569240969_" gradientUnits="userSpaceOnUse" x1="30.6689" y1="51.7148" x2="41.732" y2="51.7148">
			<stop  offset="0" style="stop-color:#EC1C24"/>
			<stop  offset="1" style="stop-color:#000000"/>
		</linearGradient>
		
			<path style="fill:url(#SVGID_00000170251557530796644350000017728742844569240969_);stroke:#231F20;stroke-width:0.3927;stroke-miterlimit:10;" d="
			M41.7,37.7V63c0,1.5-2.5,2.8-5.5,2.8c-3.1,0-5.5-1.2-5.5-2.8V37.7H41.7z"/>
		
			<linearGradient id="SVGID_00000065782029380580744020000006053245333395744686_" gradientUnits="userSpaceOnUse" x1="30.6671" y1="37.6516" x2="41.7308" y2="37.6516">
			<stop  offset="0" style="stop-color:#EC1C24"/>
			<stop  offset="1" style="stop-color:#000000"/>
		</linearGradient>
		
			<ellipse style="fill:url(#SVGID_00000065782029380580744020000006053245333395744686_);stroke:#231F20;stroke-width:0.3927;stroke-miterlimit:10;" cx="36.2" cy="37.7" rx="5.5" ry="2.8"/>
	</g>
	<path class="st26" d="M125.6,37.4c0-6-13.3-6-13.3,0"/>
	<path class="st26" d="M74.4,37.4c0-6-13.1-6-13.1,0"/>
	<path class="st26" d="M22.6,37.4c0-6-12.5-6-12.5,0"/>
	<path class="st26" d="M48.9,37.4c0-11.1-12.7-11.1-12.7,0"/>
	<path class="st26" d="M100.5,37.8c0-8.4-12.2-8.4-12.2,0"/>
	<g>
		<circle cx="47.6" cy="29.6" r="4.8"/>
		<text transform="matrix(1 0 0 1 44.9509 32.4222)" class="st27 st28 st29">E</text>
	</g>
	<g>
		<polygon class="st30" points="80.4,20.9 80.4,28 68.7,31.7 57,28 57,20.9 		"/>
		<text transform="matrix(1 0 0 1 57.9138 27.2337)" class="st27 st28 st31">E167K</text>
	</g>
	<g>
		
			<linearGradient id="SVGID_00000179647720000748909920000015375977362961822632_" gradientUnits="userSpaceOnUse" x1="34.3287" y1="75.3497" x2="75.7856" y2="75.3497">
			<stop  offset="1" style="stop-color:#EC1C24"/>
			<stop  offset="1" style="stop-color:#000000"/>
		</linearGradient>
		
			<rect x="34.3" y="69.5" style="fill:url(#SVGID_00000179647720000748909920000015375977362961822632_);stroke:#231F20;stroke-width:0.3163;stroke-miterlimit:10;" width="41.5" height="11.7"/>
		<text transform="matrix(1 0 0 1 36.8249 78.2151)" class="st27 st28 st33">Repeat 1</text>
	</g>
	<g>
		
			<linearGradient id="SVGID_00000167377791357062157290000005615700562336507534_" gradientUnits="userSpaceOnUse" x1="85.226" y1="75.3497" x2="126.8181" y2="75.3497">
			<stop  offset="1" style="stop-color:#AE2C67"/>
			<stop  offset="1" style="stop-color:#000000"/>
		</linearGradient>
		
			<rect x="85.2" y="69.5" style="fill:url(#SVGID_00000167377791357062157290000005615700562336507534_);stroke:#231F20;stroke-width:0.3168;stroke-miterlimit:10;" width="41.6" height="11.7"/>
		<text transform="matrix(1 0 0 1 87.9509 78.2151)" class="st27 st28 st33">Repeat 2</text>
	</g>
	<g>
		<rect x="1.8" y="15.1" class="st35" width="37.4" height="13.1"/>
		<text transform="matrix(1 0 0 1 3.0866 24.472)" class="st36 st28 st33">TM6SF2</text>
	</g>
	<path class="st4" d="M166.1,65c-0.1,0.4-0.2,0.8-0.3,1.2c-0.2,0.9-0.4,1.8-0.9,2.4c-0.8,0.9-1.9,0.9-3,0.6c-1-0.2-2.1-0.6-3.1-0.5
		c-1.1,0.2-2.1,1.1-2.5,2.4"/>
	<path class="st4" d="M203.1,64.9c0.1,0.6,0.2,1.3,0.6,1.8c0.4,0.5,0.9,0.8,1.4,1.1c0.5,0.3,1,0.7,1.4,1.2s0.6,1.1,0.6,1.7
		c0,0.8-0.2,1.5-0.2,2.3c0,0.2,0,0.5,0.1,0.7c0.1,0.2,0.3,0.3,0.5,0.5c0.6,0.4,1.2,0.7,1.8,0.9"/>
	<g>
		
			<linearGradient id="SVGID_00000044893808197835543810000006734250318884007562_" gradientUnits="userSpaceOnUse" x1="160.6416" y1="51.8265" x2="171.7047" y2="51.8265">
			<stop  offset="0" style="stop-color:#7F3F97"/>
			<stop  offset="1" style="stop-color:#000000"/>
		</linearGradient>
		
			<path style="fill:url(#SVGID_00000044893808197835543810000006734250318884007562_);stroke:#231F20;stroke-width:0.3927;stroke-miterlimit:10;" d="
			M171.7,37.8v25.4c0,1.5-2.5,2.8-5.5,2.8c-3.1,0-5.5-1.2-5.5-2.8V37.8H171.7z"/>
		
			<linearGradient id="SVGID_00000031906470924847370490000008156401916026902453_" gradientUnits="userSpaceOnUse" x1="160.6397" y1="37.7634" x2="171.7034" y2="37.7634">
			<stop  offset="0" style="stop-color:#7F3F97"/>
			<stop  offset="1" style="stop-color:#000000"/>
		</linearGradient>
		
			<ellipse style="fill:url(#SVGID_00000031906470924847370490000008156401916026902453_);stroke:#231F20;stroke-width:0.3927;stroke-miterlimit:10;" cx="166.2" cy="37.8" rx="5.5" ry="2.8"/>
	</g>
	<path class="st3" d="M190.8,65.3c0,3.8-12.4,3.5-12.4-0.5"/>
	<g>
		
			<linearGradient id="SVGID_00000092436788510477750670000004789086596202676616_" gradientUnits="userSpaceOnUse" x1="172.9385" y1="51.8265" x2="184.0016" y2="51.8265">
			<stop  offset="0" style="stop-color:#7F3F97"/>
			<stop  offset="1" style="stop-color:#000000"/>
		</linearGradient>
		
			<path style="fill:url(#SVGID_00000092436788510477750670000004789086596202676616_);stroke:#231F20;stroke-width:0.3927;stroke-miterlimit:10;" d="
			M184,37.8v25.4c0,1.5-2.5,2.8-5.5,2.8c-3.1,0-5.5-1.2-5.5-2.8V37.8H184z"/>
		
			<linearGradient id="SVGID_00000096752452719370184660000010412076929681996220_" gradientUnits="userSpaceOnUse" x1="172.9366" y1="37.7634" x2="184.0003" y2="37.7634">
			<stop  offset="0" style="stop-color:#7F3F97"/>
			<stop  offset="1" style="stop-color:#000000"/>
		</linearGradient>
		
			<ellipse style="fill:url(#SVGID_00000096752452719370184660000010412076929681996220_);stroke:#231F20;stroke-width:0.3927;stroke-miterlimit:10;" cx="178.5" cy="37.8" rx="5.5" ry="2.8"/>
	</g>
	<g>
		
			<linearGradient id="SVGID_00000088849827347909534200000016183066946378758031_" gradientUnits="userSpaceOnUse" x1="185.2353" y1="51.8265" x2="196.2985" y2="51.8265">
			<stop  offset="0" style="stop-color:#7F3F97"/>
			<stop  offset="1" style="stop-color:#000000"/>
		</linearGradient>
		
			<path style="fill:url(#SVGID_00000088849827347909534200000016183066946378758031_);stroke:#231F20;stroke-width:0.3927;stroke-miterlimit:10;" d="
			M196.3,37.8v25.4c0,1.5-2.5,2.8-5.5,2.8c-3.1,0-5.5-1.2-5.5-2.8V37.8H196.3z"/>
		
			<linearGradient id="SVGID_00000003071083840049419290000000830076933687381143_" gradientUnits="userSpaceOnUse" x1="185.2335" y1="37.7634" x2="196.2972" y2="37.7634">
			<stop  offset="0" style="stop-color:#7F3F97"/>
			<stop  offset="1" style="stop-color:#000000"/>
		</linearGradient>
		
			<ellipse style="fill:url(#SVGID_00000003071083840049419290000000830076933687381143_);stroke:#231F20;stroke-width:0.3927;stroke-miterlimit:10;" cx="190.8" cy="37.8" rx="5.5" ry="2.8"/>
	</g>
	<g>
		
			<linearGradient id="SVGID_00000063600117536528098750000007506958792621575611_" gradientUnits="userSpaceOnUse" x1="197.5322" y1="51.8265" x2="208.5954" y2="51.8265">
			<stop  offset="0" style="stop-color:#7F3F97"/>
			<stop  offset="1" style="stop-color:#000000"/>
		</linearGradient>
		
			<path style="fill:url(#SVGID_00000063600117536528098750000007506958792621575611_);stroke:#231F20;stroke-width:0.3927;stroke-miterlimit:10;" d="
			M208.6,37.8v25.4c0,1.5-2.5,2.8-5.5,2.8c-3.1,0-5.5-1.2-5.5-2.8V37.8H208.6z"/>
		
			<linearGradient id="SVGID_00000013172422324200233210000017445343395739841680_" gradientUnits="userSpaceOnUse" x1="197.5304" y1="37.7634" x2="208.5941" y2="37.7634">
			<stop  offset="0" style="stop-color:#7F3F97"/>
			<stop  offset="1" style="stop-color:#000000"/>
		</linearGradient>
		
			<ellipse style="fill:url(#SVGID_00000013172422324200233210000017445343395739841680_);stroke:#231F20;stroke-width:0.3927;stroke-miterlimit:10;" cx="203.1" cy="37.8" rx="5.5" ry="2.8"/>
	</g>
	<path class="st26" d="M203.1,37.4c0-6-12.3-6-12.3,0"/>
	<path class="st26" d="M178.5,38c0-10-12.5-10-12.5,0"/>
	<g>
		<circle cx="174.2" cy="29.6" r="4.8"/>
		<text transform="matrix(1 0 0 1 171.5477 32.4222)" class="st27 st28 st29">D</text>
	</g>
	<g>
		
			<linearGradient id="SVGID_00000141440300941505438400000001572262024296298151_" gradientUnits="userSpaceOnUse" x1="182.1871" y1="21.876" x2="194.1173" y2="21.876">
			<stop  offset="1" style="stop-color:#7F3F97"/>
			<stop  offset="1" style="stop-color:#000000"/>
		</linearGradient>
		
			<rect x="182.2" y="15.9" style="fill:url(#SVGID_00000141440300941505438400000001572262024296298151_);stroke:#231F20;stroke-width:0.3227;stroke-miterlimit:10;" width="11.9" height="11.9"/>
		<text transform="matrix(1 0 0 1 183.6657 22.4407)" class="st27 st28 st33">σ</text>
		<text transform="matrix(0.583 0 0 0.583 189.823 25.4378)" class="st27 st28 st33">2</text>
	</g>
	<text transform="matrix(1 0 0 1 1.7605 7.4339)" class="st28 st33">EXPERA family - sterol sensing and homeostasis</text>
</g>
<g id="aim_2">
	<g>
		<rect x="0.7" y="134.7" class="st46" width="29.8" height="13.1"/>
		<text transform="matrix(1 0 0 1 1.923985e-02 144.0643)" class="st47 st28 st33">PAQRs</text>
	</g>
	<text transform="matrix(1 0 0 1 0.4606 89.1683)" class="st28 st33">PAQR family - progesterone non-classical signaling</text>
	<g>
		<g>
			<g>
				<path class="st48" d="M40.3,159.3c0,1.2-0.1,2.3-0.3,3.5c-0.1,0.5-0.2,1.1-0.3,1.6c-0.1,0.6-0.3,0.9-0.8,1.1
					c-0.7,0.4-1.4,0.7-1.9,1.4c-0.5,0.7-0.8,1.5-0.8,2.3c0,0.4,0.7,0.4,0.7,0c0-0.9,0.4-1.8,1.1-2.4c0.6-0.6,1.6-0.7,2-1.4
					c0.2-0.3,0.3-0.8,0.4-1.2c0.1-0.5,0.2-1.1,0.3-1.6c0.2-1.1,0.3-2.2,0.3-3.4C40.9,158.9,40.3,158.9,40.3,159.3L40.3,159.3z"/>
			</g>
		</g>
		<g>
			<path class="st49" d="M32.9,120.2l4.8,39.3l0-0.1c0.1,0.9,1.7,1.4,3.4,1.2c1.8-0.2,3.2-1.1,3.1-2l0,0.1l-4.8-39.3"/>
			
				<ellipse transform="matrix(0.9925 -0.1219 0.1219 0.9925 -14.3334 5.2963)" class="st50" cx="36.1" cy="119.8" rx="3.3" ry="1.6"/>
		</g>
		<g>
			<g>
				<path class="st48" d="M52.8,160c0,1.9-2.3,2.7-3.9,2.7c-1.6,0-3.8-0.8-3.9-2.7c0-0.4-0.7-0.4-0.7,0c0,2.3,2.6,3.4,4.5,3.4
					c2,0,4.5-1.1,4.5-3.4C53.5,159.6,52.8,159.6,52.8,160L52.8,160z"/>
			</g>
		</g>
		<g>
			<path class="st51" d="M44.3,119.6l-2.1,39.5l0-0.1c0,0.9,1.4,1.7,3.2,1.8s3.3-0.6,3.4-1.5l0,0.1l2.1-39.5"/>
			
				<ellipse transform="matrix(5.233596e-02 -0.9986 0.9986 5.233596e-02 -74.5322 160.9275)" class="st50" cx="47.5" cy="119.7" rx="1.6" ry="3.3"/>
		</g>
		<g>
			<g>
				<path class="st48" d="M36.5,119.8c0-0.9,0.9-1.5,1.6-1.9c1.1-0.6,2.5-0.8,3.7-0.8c1.2,0,2.5,0.2,3.7,0.7c0.8,0.4,1.7,1,1.7,1.9
					c0,0.5,0.8,0.5,0.8,0c-0.1-2.7-4.1-3.5-6.1-3.5c-2.1,0-6,0.7-6.1,3.5C35.7,120.3,36.5,120.3,36.5,119.8L36.5,119.8z"/>
			</g>
		</g>
		<g>
			<path class="st49" d="M49.9,120.4V160V160c0,0.9,1.5,1.6,3.3,1.6s3.3-0.7,3.3-1.6v0.1v-39.6"/>
			<ellipse class="st50" cx="53.1" cy="120.4" rx="3.3" ry="1.6"/>
		</g>
		<g>
			<g>
				<path class="st48" d="M66.9,160.8c0,1.2,0,2.3-0.1,3.5c-0.1,0.8-0.2,1.8-0.7,2.5c-0.5,0.6-1.4,0.6-2,0.3c-0.9-0.3-1.5-1-2-1.8
					c-0.7-1.1-0.9-2.4-0.9-3.7c0-0.4-0.7-0.4-0.7,0c0,2.2,0.9,4.9,3,6c0.8,0.4,1.9,0.6,2.7,0c0.8-0.5,1.1-1.5,1.2-2.4
					c0.2-1.4,0.2-2.9,0.2-4.3C67.5,160.4,66.9,160.4,66.9,160.8L66.9,160.8z"/>
			</g>
		</g>
		<g>
			<path class="st51" d="M55.3,123.4l2.8,39.5l0-0.1c0.1,0.9,1.6,1.5,3.4,1.4c1.8-0.1,3.2-1,3.2-1.9l0,0.1L61.8,123"/>
			
				<ellipse transform="matrix(0.9976 -6.975647e-02 6.975647e-02 0.9976 -8.4523 4.3843)" class="st50" cx="58.5" cy="123.2" rx="3.3" ry="1.6"/>
		</g>
		<g>
			<g>
				<path class="st48" d="M61,162.4c0,0.5,0.1,1.1,0.1,1.6c0,0.5,0.1,1,0.2,1.5c0.2,0.8,0.8,1.3,1.6,1.6c0.9,0.4,1.9,0.6,2.9,0.9
					c0.4,0.1,0.9,0.2,1.2,0.6c0.3,0.3,0.4,0.7,0.7,0.9c0.4,0.3,0.7-0.3,0.3-0.6c-0.3-0.2-0.4-0.6-0.6-0.9c-0.3-0.3-0.6-0.4-1-0.6
					c-0.9-0.3-1.9-0.6-2.8-0.9c-0.7-0.2-1.5-0.5-1.7-1.3c-0.1-0.4-0.1-0.9-0.2-1.3c0-0.5-0.1-1-0.1-1.5C61.6,162,60.9,162,61,162.4
					L61,162.4z"/>
			</g>
		</g>
		<g>
			<path class="st49" d="M59.4,122.1L58,161.6l0-0.1c0,0.9,1.4,1.7,3.2,1.7c1.8,0.1,3.3-0.6,3.3-1.5l0,0.1l1.4-39.6"/>
			
				<ellipse transform="matrix(3.489950e-02 -0.9994 0.9994 3.489950e-02 -61.6433 180.541)" class="st50" cx="62.7" cy="122.2" rx="1.6" ry="3.3"/>
		</g>
		<g>
			<g>
				<path class="st48" d="M54.7,163.4c0.5,1.3,0.8,2.9-0.1,4.1c-0.8,1.2-2.3,1.5-3.7,1.4c-2.7-0.1-4.1-3.5-4.9-5.6
					c-0.5-1.4-0.8-2.9-0.8-4.3c0-0.4-0.7-0.4-0.7,0c0,1.5,0.3,2.9,0.8,4.3c0.5,1.5,1.2,3,2.2,4.3c0.8,1,1.9,1.9,3.3,2
					c1.5,0.1,3.2-0.3,4.1-1.5c1.2-1.4,1-3.4,0.4-5C55.2,162.8,54.5,163,54.7,163.4L54.7,163.4z"/>
			</g>
		</g>
		<g>
			<path class="st49" d="M41.9,119v39.6v-0.1c0,0.9,1.5,1.6,3.3,1.6s3.3-0.7,3.3-1.6v0.1V119"/>
			<ellipse class="st50" cx="45.1" cy="119" rx="3.3" ry="1.6"/>
		</g>
		<g>
			<path class="st52" d="M42.1,124.6l8.9,38.6l0-0.1c0.2,0.9,1.8,1.3,3.6,0.8c1.8-0.4,3-1.4,2.8-2.3l0,0.1l-8.9-38.6"/>
			
				<ellipse transform="matrix(0.9744 -0.225 0.225 0.9744 -26.7082 13.3555)" class="st50" cx="45.3" cy="123.9" rx="3.3" ry="1.6"/>
		</g>
		<g>
			<path class="st52" d="M51.6,124.5l12.2,37.6l0-0.1c0.3,0.9,1.9,1.1,3.6,0.5c1.7-0.6,2.9-1.7,2.6-2.6l0,0.1l-12.2-37.6"/>
			
				<ellipse transform="matrix(0.9511 -0.309 0.309 0.9511 -35.4737 22.9345)" class="st50" cx="54.7" cy="123.5" rx="3.3" ry="1.6"/>
		</g>
		<g>
			<g>
				<path class="st48" d="M45.6,123.9c0-1.5,0.7-2.9,1.6-4c0.8-0.9,1.9-1.8,3.1-2c1.2-0.2,2.3,0.5,3,1.4c0.9,1.2,1.3,2.7,1.3,4.2
					c0,0.4,0.7,0.4,0.7,0c0-2.3-0.9-5.1-3.3-6.1c-2.2-0.9-4.4,0.8-5.7,2.5c-0.9,1.2-1.4,2.6-1.5,4.1
					C44.9,124.3,45.6,124.3,45.6,123.9L45.6,123.9z"/>
			</g>
		</g>
		<g>
			<g>
				<path class="st48" d="M53.5,120.5c0-1.9,1.9-4,3.8-4.1c0.8,0,1.6,0.5,2.2,1.1c0.7,0.7,1.3,1.4,1.9,2.3c0.4,0.7,1,1.6,1,2.4
					c0,0.4,0.7,0.4,0.7,0c0-0.9-0.5-1.7-0.9-2.5c-0.6-1-1.3-1.9-2.1-2.7c-0.7-0.6-1.6-1.2-2.5-1.3c-1.2-0.1-2.3,0.6-3.1,1.4
					c-0.8,0.9-1.5,2.1-1.5,3.3C52.8,120.9,53.5,120.9,53.5,120.5L53.5,120.5z"/>
			</g>
		</g>
		<g>
			<g>
				<path class="st48" d="M45.5,119.1c0-1.4,0-3.1,0.7-4.3c0.8-1.3,2.4-1.6,3.8-1.2c1.3,0.3,2.5,1.2,3.5,2.1c1.2,1,2.2,2.2,3.1,3.6
					c0.8,1.2,1.6,2.6,1.6,4c0,0.4,0.7,0.4,0.7,0c0-1.4-0.7-2.8-1.5-3.9c-0.9-1.5-2.1-2.9-3.5-4.1c-1.1-1-2.4-2-3.9-2.3
					c-1.4-0.3-3.1-0.1-4.1,1.1c-1.2,1.4-1.2,3.4-1.2,5.2C44.8,119.5,45.5,119.5,45.5,119.1L45.5,119.1z"/>
			</g>
		</g>
	</g>
	<g>
		<polygon class="st53" points="4.3,114.3 4.3,117.8 7.3,119.6 10.4,117.8 10.4,114.3 7.3,112.5 		"/>
		<line class="st53" x1="1.9" y1="118.8" x2="4.3" y2="117.5"/>
		<line class="st53" x1="2.3" y1="119.4" x2="4.7" y2="118.1"/>
		<line class="st53" x1="7.3" y1="118.9" x2="9.7" y2="117.5"/>
		<text transform="matrix(1 0 0 1 0.6481 120.3475)" class="st54 st28 st55">O</text>
		<line class="st53" x1="10.4" y1="114.3" x2="10.4" y2="111.5"/>
		<line class="st53" x1="19.5" y1="108.9" x2="19.5" y2="106.2"/>
		<polygon class="st53" points="19.5,109 19.5,112.5 22.9,113.6 24.9,110.8 22.9,107.9 		"/>
		<polygon class="st53" points="10.4,114.3 10.4,117.8 13.4,119.6 16.5,117.8 16.5,114.3 13.4,112.5 		"/>
		<polygon class="st53" points="13.4,109 13.4,112.5 16.5,114.3 19.5,112.5 19.5,109 16.5,107.2 		"/>
		<line class="st53" x1="22.9" y1="108" x2="23.7" y2="105.4"/>
		<line class="st53" x1="22.3" y1="103" x2="23.8" y2="104.9"/>
		<line class="st53" x1="21.9" y1="103.3" x2="23.6" y2="105.4"/>
		<text transform="matrix(1 0 0 1 20.8591 103.0838)" class="st54 st28 st55">O</text>
		<line class="st53" x1="26.4" y1="105" x2="23.7" y2="105.4"/>
	</g>
	<text transform="matrix(1 0 0 1 1.1179 100.5447)" class="st28 st56">Progesterone</text>
	<g>
		<g>
			<path class="st57" d="M31.2,108.8c3.7-1.9,8.2-0.8,11.2,2.4"/>
			<g>
				<polygon points="39.9,112 44.4,114 43.8,109.1 				"/>
			</g>
		</g>
	</g>
	<g>
		<g>
			<g>
				<path class="st48" d="M94.6,158.8c0,1.2-0.1,2.5-0.3,3.7c-0.1,0.6-0.2,1.1-0.3,1.7c-0.1,0.6-0.4,0.9-0.9,1.2
					c-0.8,0.4-1.5,0.8-2,1.5c-0.5,0.7-0.8,1.6-0.8,2.5c0,0.5,0.7,0.5,0.7,0c0-1,0.4-1.9,1.1-2.6c0.6-0.6,1.7-0.7,2.2-1.5
					c0.3-0.4,0.3-0.8,0.4-1.2c0.1-0.6,0.2-1.1,0.3-1.7c0.2-1.2,0.3-2.4,0.3-3.6C95.3,158.3,94.6,158.3,94.6,158.8L94.6,158.8z"/>
			</g>
		</g>
		<g>
			<path class="st58" d="M86.8,117.2l5.1,41.7l0-0.1c0.1,0.9,1.8,1.5,3.7,1.3c1.9-0.2,3.4-1.2,3.2-2.1l0,0.1l-5.1-41.7"/>
			
				<ellipse transform="matrix(0.9925 -0.1219 0.1219 0.9925 -13.5614 11.8659)" class="st59" cx="90.2" cy="116.8" rx="3.5" ry="1.7"/>
		</g>
		<g>
			<g>
				<path class="st48" d="M105.4,159.6c0,0.6,0.1,1.1,0,1.7c0,0.4-0.1,0.8-0.5,0.9c-0.6,0.3-1.5,0.2-2.2,0.1c-0.7-0.1-1.5-0.4-2-0.9
					c-0.6-0.5-1-1.1-1-1.9c0-0.5-0.7-0.5-0.7,0c0,1.8,1.6,3,3.2,3.4c1.2,0.3,3.5,0.6,3.9-1.1c0.2-0.7,0-1.5,0-2.2
					C106.2,159.2,105.4,159.2,105.4,159.6L105.4,159.6z"/>
			</g>
		</g>
		<g>
			<path class="st60" d="M98.9,116.5l-2.2,42l0-0.1c0,1,1.5,1.8,3.4,1.9c1.9,0.1,3.5-0.6,3.6-1.5l0,0.1l2.2-42"/>
			
				<ellipse transform="matrix(5.233596e-02 -0.9986 0.9986 5.233596e-02 -19.5703 212.7819)" class="st59" cx="102.3" cy="116.7" rx="1.7" ry="3.5"/>
		</g>
		<g>
			<polygon class="st61" points="103.1,129 105.7,130.1 108,128.4 107.6,125.6 105,124.4 102.7,126.2 			"/>
			<line class="st61" x1="105.7" y1="132.2" x2="105.4" y2="130"/>
			<line class="st61" x1="106.3" y1="132.1" x2="106" y2="129.9"/>
			<line class="st61" x1="107.5" y1="128.2" x2="107.2" y2="126"/>
			<text transform="matrix(0.3907 -0.9205 0.9205 0.3907 106.3873 133.6102)" class="st54 st28 st62">O</text>
			<line class="st61" x1="105" y1="124.4" x2="102.9" y2="123.6"/>
			<line class="st61" x1="103.9" y1="115.9" x2="101.8" y2="115"/>
			<polygon class="st61" points="103.9,115.9 106.6,117 108.4,114.9 107,112.4 104.2,113.1 			"/>
			<polygon class="st61" points="105,124.4 107.6,125.6 109.9,123.8 109.6,121 106.9,119.9 104.7,121.6 			"/>
			<polygon class="st61" points="102,120.5 104.6,121.6 106.9,119.9 106.6,117 103.9,115.9 101.7,117.6 			"/>
			<line class="st61" x1="104.3" y1="113.1" x2="102.6" y2="111.7"/>
			<line class="st61" x1="100.4" y1="112" x2="102.2" y2="111.4"/>
			<line class="st61" x1="100.4" y1="112.3" x2="102.6" y2="111.7"/>
			<text transform="matrix(0.3907 -0.9205 0.9205 0.3907 99.8908 113.01)" class="st54 st28 st62">O</text>
			<line class="st61" x1="103.1" y1="109.5" x2="102.6" y2="111.7"/>
		</g>
		<g>
			<g>
				<path class="st48" d="M90.6,116.8c0-1,0.9-1.6,1.7-2c1.2-0.6,2.6-0.8,4-0.8c1.3,0,2.7,0.2,3.9,0.8c0.8,0.4,1.8,1.1,1.8,2.1
					c0,0.5,0.9,0.5,0.8,0c-0.1-2.9-4.3-3.7-6.5-3.7c-2.2,0-6.4,0.8-6.5,3.7C89.8,117.3,90.6,117.3,90.6,116.8L90.6,116.8z"/>
			</g>
		</g>
		<g>
			<path class="st58" d="M106.7,117.2l-3.7,41.9l0-0.1c-0.1,1,1.4,1.9,3.3,2c1.9,0.2,3.5-0.5,3.6-1.4l0,0.1l3.7-41.9"/>
			
				<ellipse transform="matrix(8.715574e-02 -0.9962 0.9962 8.715574e-02 -16.5574 216.9976)" class="st59" cx="110.1" cy="117.5" rx="1.7" ry="3.5"/>
		</g>
		<g>
			<g>
				<path class="st48" d="M120.1,162.1c0,0.5,0,1.1-0.1,1.6c0,0.3-0.1,0.7-0.2,1c0,0,0,0.1-0.1,0.1c0,0,0,0.1,0,0.1c0,0,0,0,0,0
					c-0.1,0.1,0,0,0,0c0,0-0.1,0.1-0.1,0.1c0,0-0.1,0.1,0,0c0,0,0,0-0.1,0c0,0-0.1,0.1-0.1,0.1c0,0,0,0,0,0c0,0-0.1,0-0.1,0
					c-0.1,0-0.1,0-0.2,0c0,0-0.1,0-0.1,0c0,0,0,0-0.1,0c-0.1,0,0.1,0,0,0c-0.4,0-0.7,0-1.1,0.1c-0.2,0-0.4,0-0.6,0
					c-0.1,0-0.2,0-0.4-0.1c0,0-0.1,0-0.1,0c0.1,0,0,0,0,0c0,0,0,0-0.1,0c0,0,0,0,0,0c0,0,0,0,0,0c0,0,0,0,0,0c0,0,0,0,0-0.1
					c0,0.1,0,0,0,0c0,0,0,0,0-0.1c0-0.1,0,0.1,0,0c0-0.1,0-0.1,0-0.2c0-0.1,0-0.1,0-0.2c0,0,0-0.1,0-0.1c0,0,0-0.1,0-0.1
					c0.1-1.1,0.3-2.2,0.3-3.3c0-0.5-0.7-0.5-0.7,0c0,1.1-0.2,2.1-0.3,3.1c-0.1,0.6-0.1,1.3,0.5,1.6c0.3,0.2,0.7,0.2,1.1,0.2
					c0.4,0,0.9,0,1.3,0c0.7-0.1,1.3-0.2,1.7-0.8c0.2-0.4,0.3-0.8,0.4-1.2c0.1-0.7,0.1-1.3,0.1-2
					C120.8,161.6,120.1,161.6,120.1,162.1L120.1,162.1z"/>
			</g>
		</g>
		<g>
			<path class="st60" d="M110.6,120.6l2.9,41.9l0-0.1c0.1,1,1.7,1.6,3.6,1.5c1.9-0.1,3.4-1,3.4-2l0,0.1l-2.9-41.9"/>
			
				<ellipse transform="matrix(0.9976 -6.975647e-02 6.975647e-02 0.9976 -8.1208 8.2482)" class="st59" cx="114" cy="120.4" rx="3.5" ry="1.7"/>
		</g>
		<g>
			<g>
				<path class="st48" d="M116.6,162.1c0.1,0.6,0.1,1.1,0.2,1.7c0,0.5,0.1,1,0.2,1.5c0.2,0.9,0.9,1.4,1.7,1.7c1,0.4,2,0.7,3.1,1
					c0.4,0.1,1,0.2,1.3,0.6c0.3,0.4,0.4,0.7,0.8,1c0.4,0.3,0.7-0.3,0.4-0.6c-0.3-0.2-0.4-0.7-0.7-0.9c-0.3-0.3-0.7-0.5-1-0.6
					c-1-0.3-2-0.6-3-0.9c-0.8-0.2-1.6-0.5-1.8-1.4c-0.1-0.5-0.1-1-0.2-1.4c-0.1-0.5-0.1-1.1-0.2-1.6
					C117.3,161.6,116.6,161.6,116.6,162.1L116.6,162.1z"/>
			</g>
		</g>
		<g>
			<path class="st58" d="M114.9,119.2l-1.5,42l0-0.1c0,1,1.5,1.8,3.4,1.8c1.9,0.1,3.5-0.7,3.5-1.6l0,0.1l1.5-42"/>
			
				<ellipse transform="matrix(3.489950e-02 -0.9994 0.9994 3.489950e-02 -4.9659 233.4749)" class="st59" cx="118.4" cy="119.3" rx="1.7" ry="3.5"/>
		</g>
		<g>
			<g>
				<path class="st48" d="M109.9,163.1c0.4,1,0.4,2-0.7,2.5c-1,0.5-2.4,0.5-3.5,0.6c-0.7,0-1.4,0-2.2-0.1c-0.6,0-1.4,0-1.9-0.3
					c-0.9-0.5-0.6-1.9-0.4-2.7c0.3-1.6,0.9-3.1,0.9-4.7c0-0.5-0.7-0.5-0.7,0c0,1.6-0.6,3.2-0.9,4.7c-0.2,1.1-0.4,2.5,0.7,3.2
					c0.6,0.4,1.3,0.4,2,0.4c0.8,0,1.6,0.1,2.4,0.1c1.4,0,2.9,0,4.1-0.6c1.3-0.7,1.5-2.1,1-3.4C110.4,162.5,109.8,162.7,109.9,163.1
					L109.9,163.1z"/>
			</g>
		</g>
		<g>
			<path class="st58" d="M94.5,116.4l3.7,41.9l0-0.1c0.1,1,1.7,1.6,3.6,1.4c1.9-0.2,3.4-1.1,3.3-2l0,0.1l-3.7-41.9"/>
			
				<ellipse transform="matrix(0.9962 -8.715574e-02 8.715574e-02 0.9962 -9.7412 8.9805)" class="st59" cx="98" cy="116" rx="3.5" ry="1.7"/>
		</g>
		<g>
			<path class="st63" d="M96.5,121.9l9.5,41l0-0.1c0.2,0.9,1.9,1.3,3.8,0.9c1.9-0.4,3.2-1.5,3-2.5l0,0.1l-9.5-41"/>
			
				<ellipse transform="matrix(0.9744 -0.225 0.225 0.9744 -24.6835 25.5804)" class="st59" cx="99.9" cy="121.1" rx="3.5" ry="1.7"/>
		</g>
		<g>
			<g>
				<path class="st48" d="M97.4,115.3c0.1-4.5,6.4-6,9.9-4.9c4.1,1.3,5.5,5.6,5.4,9.5c0,0.5,0.7,0.5,0.7,0c0-3.6-0.9-7.4-4.1-9.4
					c-2.8-1.8-6.7-1.6-9.5,0c-1.8,1-3.1,2.6-3.2,4.7C96.7,115.8,97.4,115.8,97.4,115.3L97.4,115.3z"/>
			</g>
		</g>
		<g>
			<path class="st63" d="M109.3,120.6l7.3,41.4l0-0.1c0.2,0.9,1.8,1.4,3.7,1.1c1.9-0.3,3.3-1.4,3.1-2.3l0,0.1l-7.3-41.4"/>
			
				<ellipse transform="matrix(0.9848 -0.1736 0.1736 0.9848 -19.1153 21.4017)" class="st59" cx="112.8" cy="119.9" rx="3.5" ry="1.7"/>
		</g>
		<g>
			<g>
				<path class="st48" d="M100.3,121.1c0.1-3.1,2.9-6.9,6.3-6.4c2.6,0.4,6.1,2.3,6.2,5.2c0,0.5,0.7,0.5,0.7,0
					c-0.1-2.8-2.6-4.6-4.9-5.5c-1-0.4-2.2-0.7-3.4-0.5c-1.4,0.2-2.6,1.2-3.5,2.2c-1.2,1.4-2,3.1-2.1,4.9
					C99.6,121.6,100.3,121.6,100.3,121.1L100.3,121.1z"/>
			</g>
		</g>
		<g>
			<g>
				<path class="st48" d="M110.3,117.5c0-1.8,1.6-3.8,3.4-4c1.8-0.2,3,1.8,3.7,3.2c0.4,0.8,0.7,1.7,0.7,2.5c0,0.5,0.7,0.5,0.7,0
					c0-0.9-0.3-1.8-0.7-2.6c-0.4-1-1-1.9-1.7-2.7c-0.7-0.7-1.5-1.2-2.5-1.2c-1.2,0-2.2,0.6-3,1.5c-0.8,0.9-1.3,2-1.4,3.2
					C109.5,118,110.3,118,110.3,117.5L110.3,117.5z"/>
			</g>
		</g>
	</g>
	<g>
		<g>
			<line class="st64" x1="68.7" y1="142.7" x2="80.6" y2="142.7"/>
			<g>
				<polygon points="79.6,146 85.3,142.7 79.6,139.4 				"/>
			</g>
		</g>
	</g>
	<text transform="matrix(1 0 0 1 140.861 103.2986)" class="st65 st28 st31">Oocyte maturation</text>
	<text transform="matrix(1 0 0 1 140.861 136.3045)" class="st65 st28 st31">Pregnancy maintenance</text>
	<text transform="matrix(1 0 0 1 140.861 169.3143)" class="st65 st28 st31">Neuroprotection</text>
	<text transform="matrix(1 0 0 1 140.861 152.8103)" class="st65 st28 st31">Sperm maturation</text>
	<text transform="matrix(1 0 0 1 140.861 115.3377)"><tspan x="0" y="0" class="st65 st28 st31">Apoptosis and</tspan><tspan x="0" y="8.4" class="st65 st28 st31">cell survival</tspan></text>
	<g>
		<g>
			<line class="st66" x1="124.4" y1="139.2" x2="140" y2="105.2"/>
			<g>
				<polygon class="st36" points="141.1,106.1 140.9,103.3 138.5,104.9 				"/>
			</g>
		</g>
	</g>
	<g>
		<g>
			<line class="st66" x1="124.4" y1="139.2" x2="138.4" y2="120.4"/>
			<g>
				<polygon class="st36" points="139.3,121.6 139.7,118.8 137.1,119.9 				"/>
			</g>
		</g>
	</g>
	<g>
		<g>
			<line class="st66" x1="124.4" y1="139.2" x2="136.5" y2="134.4"/>
			<g>
				<polygon class="st36" points="136.7,135.9 138.4,133.7 135.6,133.2 				"/>
			</g>
		</g>
	</g>
	<g>
		<g>
			<line class="st66" x1="124.4" y1="139.2" x2="137.1" y2="148.5"/>
			<g>
				<polygon class="st36" points="135.9,149.4 138.7,149.8 137.6,147.1 				"/>
			</g>
		</g>
	</g>
	<g>
		<g>
			<line class="st66" x1="124.4" y1="139.2" x2="138.6" y2="163.7"/>
			<g>
				<polygon class="st36" points="137.2,164 139.7,165.5 139.7,162.6 				"/>
			</g>
		</g>
	</g>
</g>
</svg>
