<?xml version="1.0" encoding="utf-8"?>
<!-- Generator: Adobe Illustrator 27.3.1, SVG Export Plug-In . SVG Version: 6.00 Build 0)  -->
<svg version="1.1" id="Layer_1" xmlns="http://www.w3.org/2000/svg" xmlns:xlink="http://www.w3.org/1999/xlink" x="0px" y="0px"
	 viewBox="0 0 277.6 252.3" style="enable-background:new 0 0 277.6 252.3;" xml:space="preserve">
<style type="text/css">
	.st0{font-family:'ArialMT';}
	.st1{font-size:9px;}
	.st2{fill:#A7A9AC;stroke:#58595B;stroke-width:1.0677;stroke-miterlimit:10;}
	.st3{fill:none;stroke:#58595B;stroke-width:1.0298;stroke-linecap:round;stroke-miterlimit:10;}
	.st4{fill:none;stroke:#FFFFFF;stroke-width:1.4092;stroke-miterlimit:10;}
	.st5{fill:#1798FF;}
	.st6{fill:#0F7BFF;stroke:#000000;stroke-width:0.117;stroke-miterlimit:10;}
	.st7{fill:#74C1FF;stroke:#000000;stroke-width:0.117;stroke-miterlimit:9.9992;}
	.st8{fill:#0F5FFF;stroke:#000000;stroke-width:0.117;stroke-miterlimit:10;}
	.st9{fill:#74C1FF;stroke:#000000;stroke-width:0.117;stroke-miterlimit:9.9994;}
	.st10{fill:#FF8F4F;stroke:#58595B;stroke-width:0.4679;stroke-miterlimit:10;}
	.st11{fill:none;stroke:#58595B;stroke-width:0.4679;stroke-miterlimit:10;}
	.st12{fill:#58595B;}
	.st13{font-family:'Arial-BoldMT';}
	.st14{font-size:2.8073px;}
	.st15{fill:#74C1FF;stroke:#000000;stroke-width:0.117;stroke-miterlimit:10.0002;}
	.st16{fill:#74C1FF;stroke:#000000;stroke-width:0.117;stroke-miterlimit:10.0008;}
	.st17{fill:#1798FF;stroke:#000000;stroke-width:0.117;stroke-miterlimit:10;}
	.st18{fill:#74C1FF;stroke:#000000;stroke-width:0.117;stroke-miterlimit:9.9996;}
	.st19{opacity:0.5;fill:#FFFFFF;enable-background:new    ;}
	.st20{fill:#F15A29;}
	.st21{fill:none;stroke:#000000;stroke-miterlimit:10;}
	.st22{font-size:18px;}
	.st23{opacity:0.7;}
	.st24{fill:#F7941E;stroke:#F15A29;stroke-width:0.6903;stroke-miterlimit:10;}
	.st25{font-size:5.247px;}
	.st26{fill:#39B54A;stroke:#006838;stroke-width:0.6903;stroke-miterlimit:10;}
	.st27{fill:none;stroke:#231F20;stroke-width:0.6658;stroke-miterlimit:10;}
	.st28{fill:#231F20;}
	.st29{fill:#74C1FF;stroke:#000000;stroke-width:0.117;stroke-miterlimit:10;}
	.st30{font-size:2.8074px;}
	.st31{fill:none;stroke:#000000;stroke-width:0.8437;stroke-miterlimit:10;}
	.st32{font-size:6px;}
	.st33{font-size:14px;}
</style>
<g id="Layer_1_00000069360308526018746790000015617944359692867728_">
	<text transform="matrix(1 0 0 1 139.3118 123.4459)" class="st0 st1">receptor</text>
	<text transform="matrix(1 0 0 1 136.8118 134.2459)" class="st0 st1">activation</text>
</g>
<g id="Layer_5">
	<g>
		<g>
			<path class="st2" d="M276.6,38.6c0,2.6-2.1,4.7-4.7,4.7s-4.7-2.1-4.7-4.7c0-2.6,2.1-4.7,4.7-4.7S276.6,36,276.6,38.6z"/>
			<g>
				<path class="st3" d="M270.1,43c0,4.5-3.3,4.5-3.3,9s3.3,4.5,3.3,9s-3.3,4.5-3.3,9s3.3,4.5,3.3,9s-3.3,4.5-3.3,9"/>
			</g>
			<g>
				<path class="st3" d="M274.1,43.4c0,4.5-3.3,4.5-3.3,9s3.3,4.5,3.3,9s-3.3,4.5-3.3,9s3.3,4.5,3.3,9s-3.3,4.5-3.3,9"/>
			</g>
			<line class="st4" x1="263.8" y1="65" x2="277.6" y2="65.3"/>
			<path class="st2" d="M273.8,92.8c0,2.6-2.1,4.7-4.7,4.7s-4.7-2.1-4.7-4.7s2.1-4.7,4.7-4.7S273.8,90.2,273.8,92.8z"/>
		</g>
		<g>
			<path class="st2" d="M256.3,38.6c0,2.6-2.1,4.7-4.7,4.7c-2.6,0-4.7-2.1-4.7-4.7c0-2.6,2.1-4.7,4.7-4.7
				C254.2,33.9,256.3,36,256.3,38.6z"/>
			<g>
				<path class="st3" d="M249.8,43c0,4.5-3.3,4.5-3.3,9s3.3,4.5,3.3,9s-3.3,4.5-3.3,9s3.3,4.5,3.3,9s-3.3,4.5-3.3,9"/>
			</g>
			<g>
				<path class="st3" d="M253.8,43.4c0,4.5-3.3,4.5-3.3,9s3.3,4.5,3.3,9s-3.3,4.5-3.3,9s3.3,4.5,3.3,9s-3.3,4.5-3.3,9"/>
			</g>
			<line class="st4" x1="243.5" y1="65" x2="257.3" y2="65.3"/>
			<path class="st2" d="M253.5,92.8c0,2.6-2.1,4.7-4.7,4.7c-2.6,0-4.7-2.1-4.7-4.7s2.1-4.7,4.7-4.7
				C251.4,88.1,253.5,90.2,253.5,92.8z"/>
		</g>
		<g>
			<path class="st2" d="M195.9,38.6c0,2.6-2.1,4.7-4.7,4.7c-2.6,0-4.7-2.1-4.7-4.7c0-2.6,2.1-4.7,4.7-4.7
				C193.8,33.9,195.9,36,195.9,38.6z"/>
			<g>
				<path class="st3" d="M189.4,43c0,4.5-3.3,4.5-3.3,9s3.3,4.5,3.3,9s-3.3,4.5-3.3,9s3.3,4.5,3.3,9s-3.3,4.5-3.3,9"/>
			</g>
			<g>
				<path class="st3" d="M193.3,43.4c0,4.5-3.3,4.5-3.3,9s3.3,4.5,3.3,9s-3.3,4.5-3.3,9s3.3,4.5,3.3,9s-3.3,4.5-3.3,9"/>
			</g>
			<line class="st4" x1="183.1" y1="65" x2="196.9" y2="65.3"/>
			<path class="st2" d="M193.1,92.8c0,2.6-2.1,4.7-4.7,4.7c-2.6,0-4.7-2.1-4.7-4.7s2.1-4.7,4.7-4.7C191,88.1,193.1,90.2,193.1,92.8z
				"/>
		</g>
		<g>
			<path class="st2" d="M246.1,38.6c0,2.6-2.1,4.7-4.7,4.7c-2.6,0-4.7-2.1-4.7-4.7c0-2.6,2.1-4.7,4.7-4.7S246.1,36,246.1,38.6z"/>
			<g>
				<path class="st3" d="M239.6,43c0,4.5-3.3,4.5-3.3,9s3.3,4.5,3.3,9s-3.3,4.5-3.3,9s3.3,4.5,3.3,9s-3.3,4.5-3.3,9"/>
			</g>
			<g>
				<path class="st3" d="M243.6,43.4c0,4.5-3.3,4.5-3.3,9s3.3,4.5,3.3,9s-3.3,4.5-3.3,9s3.3,4.5,3.3,9s-3.3,4.5-3.3,9"/>
			</g>
			<line class="st4" x1="233.3" y1="65" x2="247.1" y2="65.3"/>
			<path class="st2" d="M243.3,92.8c0,2.6-2.1,4.7-4.7,4.7c-2.6,0-4.7-2.1-4.7-4.7s2.1-4.7,4.7-4.7
				C241.2,88.1,243.3,90.2,243.3,92.8z"/>
		</g>
		<g>
			<path class="st2" d="M236.1,38.6c0,2.6-2.1,4.7-4.7,4.7c-2.6,0-4.7-2.1-4.7-4.7c0-2.6,2.1-4.7,4.7-4.7S236.1,36,236.1,38.6z"/>
			<g>
				<path class="st3" d="M229.6,43c0,4.5-3.3,4.5-3.3,9s3.3,4.5,3.3,9s-3.3,4.5-3.3,9s3.3,4.5,3.3,9s-3.3,4.5-3.3,9"/>
			</g>
			<g>
				<path class="st3" d="M233.5,43.4c0,4.5-3.3,4.5-3.3,9s3.3,4.5,3.3,9s-3.3,4.5-3.3,9s3.3,4.5,3.3,9s-3.3,4.5-3.3,9"/>
			</g>
			<line class="st4" x1="223.3" y1="65" x2="237.1" y2="65.3"/>
			<path class="st2" d="M233.3,92.8c0,2.6-2.1,4.7-4.7,4.7c-2.6,0-4.7-2.1-4.7-4.7s2.1-4.7,4.7-4.7
				C231.2,88.1,233.3,90.2,233.3,92.8z"/>
		</g>
		<g>
			<path class="st2" d="M226,38.6c0,2.6-2.1,4.7-4.7,4.7c-2.6,0-4.7-2.1-4.7-4.7c0-2.6,2.1-4.7,4.7-4.7S226,36,226,38.6z"/>
			<g>
				<path class="st3" d="M219.6,43c0,4.5-3.3,4.5-3.3,9s3.3,4.5,3.3,9s-3.3,4.5-3.3,9s3.3,4.5,3.3,9s-3.3,4.5-3.3,9"/>
			</g>
			<g>
				<path class="st3" d="M223.5,43.4c0,4.5-3.3,4.5-3.3,9s3.3,4.5,3.3,9s-3.3,4.5-3.3,9s3.3,4.5,3.3,9s-3.3,4.5-3.3,9"/>
			</g>
			<line class="st4" x1="213.3" y1="65" x2="227.1" y2="65.3"/>
			<path class="st2" d="M223.3,92.8c0,2.6-2.1,4.7-4.7,4.7c-2.6,0-4.7-2.1-4.7-4.7s2.1-4.7,4.7-4.7
				C221.2,88.1,223.3,90.2,223.3,92.8z"/>
		</g>
		<g>
			<path class="st2" d="M216,38.6c0,2.6-2.1,4.7-4.7,4.7c-2.6,0-4.7-2.1-4.7-4.7c0-2.6,2.1-4.7,4.7-4.7S216,36,216,38.6z"/>
			<g>
				<path class="st3" d="M209.5,43c0,4.5-3.3,4.5-3.3,9s3.3,4.5,3.3,9s-3.3,4.5-3.3,9s3.3,4.5,3.3,9s-3.3,4.5-3.3,9"/>
			</g>
			<g>
				<path class="st3" d="M213.5,43.4c0,4.5-3.3,4.5-3.3,9s3.3,4.5,3.3,9s-3.3,4.5-3.3,9s3.3,4.5,3.3,9s-3.3,4.5-3.3,9"/>
			</g>
			<line class="st4" x1="203.2" y1="65" x2="217" y2="65.3"/>
			<path class="st2" d="M213.2,92.8c0,2.6-2.1,4.7-4.7,4.7c-2.6,0-4.7-2.1-4.7-4.7s2.1-4.7,4.7-4.7
				C211.1,88.1,213.2,90.2,213.2,92.8z"/>
		</g>
		<g>
			<path class="st2" d="M206,38.6c0,2.6-2.1,4.7-4.7,4.7c-2.6,0-4.7-2.1-4.7-4.7c0-2.6,2.1-4.7,4.7-4.7S206,36,206,38.6z"/>
			<g>
				<path class="st3" d="M199.5,43c0,4.5-3.3,4.5-3.3,9s3.3,4.5,3.3,9s-3.3,4.5-3.3,9s3.3,4.5,3.3,9s-3.3,4.5-3.3,9"/>
			</g>
			<g>
				<path class="st3" d="M203.5,43.4c0,4.5-3.3,4.5-3.3,9s3.3,4.5,3.3,9s-3.3,4.5-3.3,9s3.3,4.5,3.3,9s-3.3,4.5-3.3,9"/>
			</g>
			<line class="st4" x1="193.2" y1="65" x2="207" y2="65.3"/>
			<path class="st2" d="M203.2,92.8c0,2.6-2.1,4.7-4.7,4.7c-2.6,0-4.7-2.1-4.7-4.7s2.1-4.7,4.7-4.7
				C201.1,88.1,203.2,90.2,203.2,92.8z"/>
		</g>
		<g>
			<path class="st2" d="M266.4,38.6c0,2.6-2.1,4.7-4.7,4.7s-4.7-2.1-4.7-4.7c0-2.6,2.1-4.7,4.7-4.7S266.4,36,266.4,38.6z"/>
			<g>
				<path class="st3" d="M260,43c0,4.5-3.3,4.5-3.3,9s3.3,4.5,3.3,9s-3.3,4.5-3.3,9s3.3,4.5,3.3,9s-3.3,4.5-3.3,9"/>
			</g>
			<g>
				<path class="st3" d="M263.9,43.4c0,4.5-3.3,4.5-3.3,9s3.3,4.5,3.3,9s-3.3,4.5-3.3,9s3.3,4.5,3.3,9s-3.3,4.5-3.3,9"/>
			</g>
			<line class="st4" x1="253.7" y1="65" x2="267.5" y2="65.3"/>
			<path class="st2" d="M263.7,92.8c0,2.6-2.1,4.7-4.7,4.7s-4.7-2.1-4.7-4.7s2.1-4.7,4.7-4.7C261.6,88.1,263.7,90.2,263.7,92.8z"/>
		</g>
		<g>
			<g>
				<g>
					<path class="st5" d="M208.5,97.8c0,2-0.2,4-0.5,6c-0.2,0.9-0.3,1.9-0.6,2.8c-0.2,1-0.6,1.5-1.5,1.9c-1.3,0.6-2.4,1.3-3.3,2.4
						c-0.9,1.2-1.3,2.6-1.3,4c0,0.8,1.2,0.8,1.2,0c0-1.6,0.6-3.1,1.8-4.2c1.1-1,2.7-1.2,3.6-2.4c0.4-0.6,0.6-1.3,0.7-2
						c0.2-0.9,0.4-1.9,0.5-2.8c0.3-1.9,0.5-3.9,0.5-5.8C209.7,97.1,208.5,97.1,208.5,97.8L208.5,97.8z"/>
				</g>
			</g>
			<g>
				<path class="st6" d="M195.7,29.8l8.4,68.3V98c0.2,1.6,2.9,2.5,6,2.1s5.5-2,5.3-3.5v0.1L207,28.4"/>
				
					<ellipse transform="matrix(0.9925 -0.1219 0.1219 0.9925 -2.0472 24.7558)" class="st7" cx="201.3" cy="29.1" rx="5.7" ry="2.8"/>
			</g>
			<g>
				<g>
					<path class="st5" d="M226.2,99.2c0,0.9,0.1,1.9,0.1,2.8c0,0.7-0.2,1.3-0.9,1.5c-1.1,0.5-2.5,0.3-3.6,0.1
						c-1.2-0.2-2.4-0.7-3.3-1.5c-0.9-0.8-1.6-1.8-1.6-3.1c0-0.8-1.2-0.8-1.2,0c0,2.9,2.6,4.9,5.2,5.6c2,0.5,5.8,0.9,6.4-1.8
						c0.3-1.2,0.1-2.5,0.1-3.7C227.4,98.4,226.2,98.4,226.2,99.2L226.2,99.2z"/>
				</g>
			</g>
			<g>
				<path class="st8" d="M215.4,28.7l-3.6,68.7v-0.1c-0.1,1.6,2.4,3,5.5,3.1c3.1,0.2,5.8-1,5.8-2.5V98l3.6-68.7"/>
				
					<ellipse transform="matrix(5.233904e-02 -0.9986 0.9986 5.233904e-02 180.5668 248.3121)" class="st9" cx="221.1" cy="29" rx="2.8" ry="5.7"/>
			</g>
			<g>
				<polygon class="st10" points="222.3,49.1 226.6,50.9 230.4,48.1 229.8,43.5 225.5,41.6 221.8,44.5 				"/>
				<line class="st11" x1="226.7" y1="54.4" x2="226.2" y2="50.7"/>
				<line class="st11" x1="227.6" y1="54.2" x2="227.1" y2="50.6"/>
				<line class="st11" x1="229.5" y1="47.8" x2="229.1" y2="44.2"/>
				<text transform="matrix(0.3907 -0.9205 0.9205 0.3907 227.7655 56.6745)" class="st12 st13 st14">O</text>
				<line class="st11" x1="225.5" y1="41.6" x2="222.1" y2="40.2"/>
				<line class="st11" x1="223.7" y1="27.7" x2="220.3" y2="26.3"/>
				<polygon class="st10" points="223.7,27.7 228,29.5 231.1,26 228.7,22 224.2,23.1 				"/>
				<polygon class="st10" points="225.5,41.6 229.8,43.5 233.5,40.7 233,36 228.7,34.2 224.9,37 				"/>
				<polygon class="st10" points="220.6,35.2 224.9,37 228.6,34.2 228.1,29.5 223.7,27.7 220,30.5 				"/>
				<line class="st11" x1="224.3" y1="23.1" x2="221.5" y2="20.7"/>
				<line class="st11" x1="217.9" y1="21.2" x2="221" y2="20.4"/>
				<line class="st11" x1="218" y1="21.8" x2="221.5" y2="20.8"/>
				<text transform="matrix(0.3907 -0.9205 0.9205 0.3907 217.1405 22.9773)" class="st12 st13 st14">O</text>
				<line class="st11" x1="222.4" y1="17.3" x2="221.5" y2="20.8"/>
			</g>
			<g>
				<g>
					<path class="st5" d="M202,29.1c0.1-1.6,1.5-2.6,2.8-3.3c2-1,4.3-1.3,6.5-1.3s4.4,0.3,6.4,1.3c1.3,0.6,2.9,1.7,2.9,3.4
						c0,0.9,1.4,0.9,1.4,0c-0.2-4.8-7-6-10.7-6c-3.6,0-10.5,1.3-10.7,6C200.6,30,202,30,202,29.1L202,29.1z"/>
				</g>
			</g>
			<g>
				<path class="st6" d="M228.2,29.9l-6,68.5v-0.1c-0.1,1.6,2.3,3,5.4,3.3c3.1,0.3,5.8-0.8,5.9-2.3v0.1l6-68.5"/>
				
					<ellipse transform="matrix(8.715482e-02 -0.9962 0.9962 8.715482e-02 183.2248 260.6077)" class="st15" cx="233.8" cy="30.3" rx="2.8" ry="5.7"/>
			</g>
			<g>
				<g>
					<path class="st5" d="M250.2,103.3c0,0.9,0,1.8-0.1,2.7c0,0.5-0.2,1.2-0.3,1.6l-0.1,0.2c0,0,0,0.1-0.1,0.1c0,0,0,0,0,0.1
						c-0.1,0.1,0-0.1,0,0c-0.1,0.1-0.1,0.1-0.2,0.2l-0.1,0.1c0.1,0-0.1,0.1-0.1,0.1c-0.1,0-0.2,0.1-0.2,0.1s0,0-0.1,0
						s-0.1,0-0.2,0.1c-0.1,0-0.2,0.1-0.3,0.1s-0.1,0-0.2,0h-0.1c-0.1,0,0.1,0,0,0c-0.6,0.1-1.2,0.1-1.8,0.1c-0.3,0-0.7,0-1,0
						c-0.2,0-0.4,0-0.7-0.1h-0.1c0.1,0,0,0,0,0s-0.1,0-0.1-0.1c-0.1,0,0.1,0.1,0,0c0,0,0-0.1-0.1-0.1c0.1,0.1,0,0.1,0,0v-0.1
						c0.1,0.1,0,0,0,0v-0.1c0-0.1,0,0.1,0,0s0-0.2,0-0.3s0-0.2,0-0.3s0-0.1,0-0.2c0,0,0-0.2,0-0.1c0.2-1.8,0.6-3.6,0.6-5.4
						c0-0.8-1.2-0.8-1.2,0c0,1.7-0.3,3.4-0.5,5.1c-0.1,1-0.2,2.1,0.8,2.7c0.5,0.3,1.2,0.3,1.8,0.3c0.7,0,1.4,0,2.1-0.1
						c1.1-0.1,2.2-0.4,2.8-1.4c0.4-0.6,0.5-1.3,0.6-1.9c0.1-1.1,0.2-2.1,0.2-3.2C251.3,102.5,250.2,102.5,250.2,103.3L250.2,103.3z"
						/>
				</g>
			</g>
			<g>
				<path class="st8" d="M234.6,35.4l4.8,68.6v-0.1c0.1,1.6,2.7,2.6,5.9,2.4c3.1-0.2,5.6-1.7,5.5-3.2v0.1L246,34.6"/>
				
					<ellipse transform="matrix(0.9976 -6.975148e-02 6.975148e-02 0.9976 -1.8567 16.8472)" class="st16" cx="240.3" cy="35" rx="5.7" ry="2.8"/>
			</g>
			<g>
				<g>
					<path class="st5" d="M244.5,103.2c0.1,0.9,0.2,1.9,0.3,2.8c0.1,0.8,0.1,1.7,0.3,2.5c0.3,1.5,1.4,2.3,2.8,2.8
						c1.6,0.6,3.3,1.1,5,1.6c0.7,0.2,1.6,0.4,2.1,1c0.4,0.6,0.7,1.2,1.3,1.6s1.2-0.6,0.6-1c-0.5-0.4-0.7-1.1-1.1-1.5
						c-0.5-0.5-1.1-0.8-1.7-1c-1.6-0.5-3.2-1-4.8-1.5c-1.3-0.4-2.6-0.9-2.9-2.3c-0.2-0.8-0.2-1.6-0.3-2.3c-0.1-0.9-0.2-1.8-0.2-2.7
						C245.6,102.4,244.4,102.4,244.5,103.2L244.5,103.2z"/>
				</g>
			</g>
			<g>
				<path class="st6" d="M241.7,33.1l-2.4,68.7v-0.1c-0.1,1.6,2.4,2.9,5.6,3s5.7-1.1,5.8-2.6v0.1l2.4-68.7"/>
				
					<ellipse transform="matrix(3.489886e-02 -0.9994 0.9994 3.489886e-02 205.4829 279.3867)" class="st15" cx="247.4" cy="33.3" rx="2.8" ry="5.7"/>
			</g>
			<g>
				<g>
					<path class="st5" d="M233.5,104.9c0.6,1.6,0.6,3.3-1.1,4.2s-3.9,0.9-5.8,0.9c-1.2,0-2.4,0-3.5-0.1c-1-0.1-2.2,0-3.1-0.5
						c-1.5-0.8-1-3.1-0.7-4.4c0.6-2.6,1.4-5.1,1.4-7.7c0-0.8-1.2-0.8-1.2,0c0,2.6-0.9,5.2-1.4,7.7c-0.4,1.8-0.7,4.1,1.1,5.3
						c1,0.6,2.2,0.7,3.3,0.7c1.3,0.1,2.6,0.1,3.9,0.1c2.2,0,4.7,0,6.7-1.1c2.2-1.1,2.4-3.4,1.6-5.5
						C234.4,103.9,233.3,104.2,233.5,104.9L233.5,104.9z"/>
				</g>
			</g>
			<g>
				<path class="st6" d="M208.3,28.4l6,68.5v-0.1c0.1,1.6,2.8,2.6,5.9,2.3c3.1-0.3,5.6-1.8,5.4-3.3v0.1l-6-68.5"/>
				
					<ellipse transform="matrix(0.9962 -8.715482e-02 8.715482e-02 0.9962 -1.6181 18.7575)" class="st15" cx="214" cy="27.9" rx="5.7" ry="2.8"/>
			</g>
			<g>
				<path class="st17" d="M211.6,37.5l15.5,67v-0.1c0.4,1.5,3.1,2.2,6.2,1.5c3.1-0.7,5.3-2.5,4.9-4v0.1l-15.5-67"/>
				
					<ellipse transform="matrix(0.9744 -0.225 0.225 0.9744 -2.5775 49.7993)" class="st16" cx="217.2" cy="36.2" rx="5.7" ry="2.8"/>
			</g>
			<g>
				<g>
					<path class="st5" d="M213,26.7c0.2-7.4,10.4-9.9,16.2-8c6.7,2.2,9,9.2,8.9,15.6c0,0.8,1.2,0.8,1.2,0c0.1-5.8-1.5-12-6.7-15.3
						c-4.6-2.9-10.8-2.6-15.4-0.1c-3,1.6-5.2,4.3-5.3,7.8C211.9,27.4,213,27.4,213,26.7L213,26.7z"/>
				</g>
			</g>
			<g>
				<path class="st17" d="M232.6,35.3l11.9,67.7v-0.1c0.3,1.5,3,2.3,6.1,1.8s5.4-2.2,5.1-3.8v0.1l-11.9-67.7"/>
				
					<ellipse transform="matrix(0.9848 -0.1736 0.1736 0.9848 -2.3391 41.8727)" class="st18" cx="238.2" cy="34.3" rx="5.7" ry="2.8"/>
			</g>
			<g>
				<g>
					<path class="st5" d="M217.7,36.2c0.1-5,4.8-11.3,10.3-10.5c4.3,0.6,10,3.7,10.1,8.6c0,0.8,1.2,0.8,1.2,0
						c-0.1-4.5-4.2-7.5-8.1-8.9c-1.7-0.6-3.7-1.1-5.5-0.8c-2.3,0.4-4.3,1.9-5.8,3.6c-2,2.2-3.3,5-3.4,8.1
						C216.6,37,217.7,37,217.7,36.2L217.7,36.2z"/>
				</g>
			</g>
			<g>
				<g>
					<path class="st5" d="M234.1,30.3c0-3,2.5-6.2,5.6-6.5c3-0.3,4.9,2.9,6,5.2c0.6,1.3,1.1,2.7,1.1,4.2c0,0.8,1.2,0.8,1.2,0
						c0-1.5-0.5-3-1.1-4.3c-0.7-1.6-1.6-3.1-2.8-4.4c-1.1-1.1-2.5-1.9-4-1.9c-1.9,0.1-3.7,1-4.9,2.4c-1.3,1.4-2.2,3.3-2.2,5.3
						C232.9,31.1,234.1,31.1,234.1,30.3L234.1,30.3z"/>
				</g>
			</g>
		</g>
		<rect x="203.2" y="55.9" class="st19" width="48.4" height="10"/>
		<text transform="matrix(1 0 0 1 203.8727 63.8199)" class="st0 st1">ceramidase</text>
		<g>
			<g>
				<polygon points="192.2,101.4 192,101.3 193.8,98.8 194,98.8 				"/>
				<g>
					<path class="st20" d="M192.4,101c-0.1,0-0.1-0.1-0.2-0.1c0,0.2,0.1,0.4,0.1,0.6c0.5-0.7,1.1-1.4,1.6-2.1
						c0.1-0.1,0.1-0.2,0.2-0.3c-0.1,0.1-0.2,0.1-0.3,0.2c0.1,0,0.2,0,0.2,0c-0.1-0.2-0.2-0.4-0.3-0.6c-0.5,0.7-1.1,1.5-1.6,2.2
						c-0.1,0.1-0.2,0.2-0.2,0.3c-0.1,0.2,0,0.5,0.1,0.6c0.2,0.1,0.4,0,0.6-0.1c0.5-0.7,1.1-1.5,1.6-2.2c0.1-0.1,0.2-0.2,0.2-0.3
						c0.2-0.3-0.1-0.6-0.3-0.6c-0.1,0-0.1,0-0.2,0c-0.2,0-0.3,0.1-0.4,0.2c0,0,0,0.1-0.1,0.1c-0.1,0.2-0.3,0.3-0.4,0.5
						c-0.4,0.5-0.7,1-1.1,1.5c-0.1,0.1-0.2,0.2-0.3,0.4s0,0.5,0.1,0.6c0.1,0,0.1,0.1,0.2,0.1c0.2,0.1,0.4,0.1,0.6-0.1
						C192.6,101.4,192.6,101.1,192.4,101z"/>
				</g>
			</g>
			<g>
				<polygon points="194,98.8 193.8,98.8 192,96.5 192.1,96.4 192.2,96.4 				"/>
				<g>
					<path class="st20" d="M194,98.4c-0.1,0-0.2,0-0.2,0c0.1,0.1,0.2,0.1,0.3,0.2c-0.5-0.7-1-1.3-1.5-2c-0.1-0.1-0.1-0.2-0.2-0.3
						c0,0.1,0,0.2,0,0.3v-0.1c-0.1,0.1-0.3,0.2-0.4,0.3h0.1c-0.1-0.1-0.2-0.1-0.3-0.2c0.5,0.7,1.1,1.4,1.6,2.1
						c0.1,0.1,0.2,0.2,0.2,0.3c0.1,0.2,0.4,0.3,0.6,0.1c0.2-0.1,0.3-0.4,0.1-0.6c-0.6-0.7-1.1-1.5-1.7-2.2c0-0.1-0.1-0.1-0.1-0.2
						c0,0,0,0,0-0.1c-0.1-0.1-0.3-0.2-0.4-0.2c-0.2,0-0.3,0.1-0.4,0.3c0,0.2-0.1,0.3,0,0.4c0,0.1,0.1,0.1,0.1,0.1
						c0.2,0.2,0.3,0.4,0.5,0.6c0.3,0.5,0.7,0.9,1,1.4l0.1,0.1c0.1,0.1,0.2,0.2,0.4,0.2c0.1,0,0.1,0,0.2,0c0.2,0,0.4-0.2,0.4-0.4
						C194.4,98.6,194.3,98.4,194,98.4z"/>
				</g>
			</g>
			<g>
				<polygon points="192.2,96.4 192.1,96.4 192,96.3 193.8,93.9 193.9,93.9 194,94 				"/>
				<g>
					<path class="st20" d="M192.2,96L192.2,96c0,0.1,0.2,0.2,0.3,0.3v-0.1c0,0.1,0,0.2,0,0.3c0.5-0.7,1-1.4,1.5-2.1
						c0.1-0.1,0.1-0.2,0.2-0.3c-0.1,0.1-0.2,0.1-0.3,0.2h0.1c-0.1-0.1-0.3-0.2-0.4-0.3v0.1c0-0.1,0-0.2,0-0.3
						c-0.5,0.7-1,1.4-1.5,2.1c-0.1,0.1-0.1,0.2-0.2,0.3c-0.1,0.2,0,0.5,0.1,0.6c0.2,0.1,0.4,0,0.6-0.1c0.5-0.7,1.1-1.5,1.6-2.2
						c0-0.1,0.1-0.1,0.1-0.2c0.1-0.1,0.1-0.3,0-0.4c-0.1-0.2-0.2-0.3-0.4-0.3c-0.1,0-0.2,0-0.3,0.1c-0.1,0-0.1,0.1-0.2,0.2l-0.1,0.1
						c-0.1,0.2-0.3,0.4-0.4,0.6c-0.3,0.5-0.7,1-1,1.4c0,0.1-0.1,0.1-0.1,0.2c-0.1,0.1-0.1,0.3,0,0.5s0.2,0.3,0.4,0.3h0.1
						c0.2,0,0.4-0.2,0.4-0.4C192.6,96.2,192.4,96,192.2,96z"/>
				</g>
			</g>
			<g>
				<polygon points="193.9,93.8 193.9,93.9 193.8,93.9 192,91.4 192.2,91.4 				"/>
				<g>
					<path class="st20" d="M193.6,93.7L193.6,93.7c0.1,0,0.3-0.1,0.4-0.2h-0.1c0.1,0.1,0.2,0.1,0.3,0.2c-0.5-0.7-1.1-1.4-1.6-2.2
						c-0.1-0.1-0.2-0.2-0.2-0.3c-0.1,0.2-0.2,0.4-0.3,0.6c0.1,0,0.2,0,0.2,0c-0.1-0.1-0.2-0.1-0.3-0.2c0.5,0.7,1,1.4,1.5,2.1
						c0.1,0.1,0.1,0.2,0.2,0.3c0.1,0.2,0.4,0.3,0.6,0.1c0.2-0.1,0.3-0.4,0.1-0.6c-0.6-0.7-1.1-1.5-1.7-2.2l-0.1-0.1
						c-0.1-0.1-0.2-0.2-0.4-0.2c-0.1,0-0.1,0-0.2,0c-0.3,0-0.5,0.4-0.3,0.6c0.6,0.8,1.1,1.5,1.7,2.3c0,0.1,0.1,0.1,0.1,0.2l0.1,0.1
						c0.1,0.1,0.3,0.1,0.4,0.1c0.2,0,0.3-0.1,0.4-0.3v-0.1c0.1-0.2-0.1-0.5-0.3-0.5C193.8,93.3,193.6,93.5,193.6,93.7z"/>
				</g>
			</g>
			<g>
				<polygon points="192.2,91.4 192,91.4 193.8,88.9 194,88.9 				"/>
				<g>
					<path class="st20" d="M192.2,91c-0.1,0-0.2,0-0.2,0c0.1,0.2,0.2,0.4,0.3,0.6c0.5-0.7,1.1-1.4,1.6-2.2c0.1-0.1,0.2-0.2,0.2-0.3
						c-0.1,0.1-0.2,0.1-0.3,0.2c0.1,0,0.2,0,0.2,0c-0.1-0.2-0.2-0.4-0.3-0.6c-0.5,0.7-1.1,1.4-1.6,2.2c-0.1,0.1-0.2,0.2-0.2,0.3
						c-0.1,0.2,0,0.5,0.1,0.6c0.2,0.1,0.4,0,0.6-0.1c0.5-0.7,1.1-1.4,1.6-2.2c0.1-0.1,0.2-0.2,0.2-0.3c0.2-0.3-0.1-0.6-0.3-0.6
						c-0.1,0-0.1,0-0.2,0c-0.2,0-0.3,0.1-0.4,0.2c0,0,0,0.1-0.1,0.1c-0.1,0.2-0.3,0.4-0.4,0.5c-0.4,0.5-0.7,1-1.1,1.5
						c-0.1,0.1-0.2,0.2-0.3,0.4c-0.2,0.3,0.1,0.6,0.3,0.6c0.1,0,0.2,0,0.2,0c0.2,0,0.4-0.2,0.4-0.4C192.6,91.2,192.4,91,192.2,91z"
						/>
				</g>
			</g>
			<g>
				<polygon points="191.7,91.2 191.5,91.1 193.1,88.9 193.3,89 				"/>
				<g>
					<path class="st20" d="M191.9,90.9c-0.1,0-0.1-0.1-0.2-0.1c0,0.2,0.1,0.4,0.1,0.6c0.5-0.7,1-1.3,1.5-2c0.1-0.1,0.1-0.2,0.2-0.3
						c-0.2,0-0.4,0.1-0.6,0.1c0.1,0,0.1,0.1,0.2,0.1c0-0.2-0.1-0.4-0.1-0.6c-0.5,0.7-1,1.3-1.5,2c-0.1,0.1-0.1,0.2-0.2,0.3
						c-0.1,0.2,0,0.5,0.1,0.6c0.2,0.1,0.4,0,0.6-0.1c0.5-0.7,1-1.3,1.5-2c0.1-0.1,0.1-0.2,0.2-0.3c0.1-0.2,0-0.5-0.1-0.6
						c-0.1,0-0.1-0.1-0.2-0.1c-0.2-0.1-0.4,0-0.6,0.1c-0.5,0.7-1,1.3-1.5,2c-0.1,0.1-0.1,0.2-0.2,0.3c-0.1,0.2,0,0.5,0.1,0.6
						c0.1,0,0.1,0.1,0.2,0.1c0.2,0.1,0.4,0.1,0.6-0.1C192.1,91.3,192.1,91,191.9,90.9z"/>
				</g>
			</g>
			<g>
				<polygon points="194,88.9 193.8,88.9 192,86.5 192.2,86.5 				"/>
				<g>
					<path class="st20" d="M194,88.5c-0.1,0-0.2,0-0.2,0c0.1,0.1,0.2,0.1,0.3,0.2c-0.5-0.7-1.1-1.4-1.6-2.2
						c-0.1-0.1-0.2-0.2-0.2-0.3c-0.1,0.2-0.2,0.4-0.3,0.6c0.1,0,0.2,0,0.2,0c-0.1-0.1-0.2-0.1-0.3-0.2c0.5,0.7,1.1,1.4,1.6,2.2
						c0.1,0.1,0.2,0.2,0.2,0.3c0.1,0.2,0.4,0.3,0.6,0.1c0.2-0.1,0.3-0.4,0.1-0.6c-0.6-0.8-1.2-1.6-1.7-2.3l-0.1-0.1
						c-0.1-0.1-0.2-0.2-0.4-0.2c-0.1,0-0.1,0-0.2,0c-0.3,0-0.5,0.4-0.3,0.6c0.6,0.8,1.2,1.6,1.7,2.3l0.1,0.1
						c0.1,0.1,0.2,0.2,0.4,0.2c0.1,0,0.1,0,0.2,0c0.2,0,0.4-0.2,0.4-0.4C194.4,88.7,194.3,88.5,194,88.5z"/>
				</g>
			</g>
			<g>
				<polygon points="193.8,59.2 194,59.2 192.2,61.7 192,61.7 				"/>
				<g>
					<path class="st20" d="M193.8,59.6c0.1,0,0.2,0,0.2,0c-0.1-0.2-0.2-0.4-0.3-0.6c-0.5,0.7-1.1,1.4-1.6,2.2
						c-0.1,0.1-0.2,0.2-0.2,0.3c0.1-0.1,0.2-0.1,0.3-0.2c-0.1,0-0.2,0-0.2,0c0.1,0.2,0.2,0.4,0.3,0.6c0.5-0.7,1.1-1.4,1.6-2.2
						c0.1-0.1,0.2-0.2,0.2-0.3c0.1-0.2,0-0.5-0.1-0.6c-0.2-0.1-0.4,0-0.6,0.1c-0.5,0.7-1.1,1.4-1.6,2.2c-0.1,0.1-0.2,0.2-0.2,0.3
						c-0.2,0.3,0.1,0.6,0.3,0.6c0.1,0,0.1,0,0.2,0c0.2,0,0.3-0.1,0.4-0.2c0,0,0-0.1,0.1-0.1c0.1-0.2,0.3-0.4,0.4-0.5
						c0.4-0.5,0.7-1,1.1-1.5c0.1-0.1,0.2-0.2,0.3-0.4c0.2-0.3-0.1-0.6-0.3-0.6c-0.1,0-0.2,0-0.2,0c-0.2,0-0.4,0.2-0.4,0.4
						C193.4,59.5,193.6,59.6,193.8,59.6z"/>
				</g>
			</g>
			<g>
				<polygon points="192,61.7 192.2,61.7 194,64.2 193.8,64.2 				"/>
				<g>
					<path class="st20" d="M192,62.1c0.1,0,0.2,0,0.2,0c-0.1-0.1-0.2-0.1-0.3-0.2c0.5,0.7,1.1,1.4,1.6,2.2c0.1,0.1,0.2,0.2,0.2,0.3
						c0.1-0.2,0.2-0.4,0.3-0.6c-0.1,0-0.2,0-0.2,0c0.1,0.1,0.2,0.1,0.3,0.2c-0.5-0.7-1.1-1.4-1.6-2.2c-0.1-0.1-0.2-0.2-0.2-0.3
						c-0.1-0.2-0.4-0.3-0.6-0.1c-0.2,0.1-0.3,0.4-0.1,0.6c0.6,0.8,1.2,1.6,1.7,2.3l0.1,0.1c0.1,0.1,0.2,0.2,0.4,0.2
						c0.1,0,0.1,0,0.2,0c0.3,0,0.5-0.4,0.3-0.6c-0.6-0.8-1.2-1.6-1.7-2.3l-0.1-0.1c-0.1-0.1-0.2-0.2-0.4-0.2c-0.1,0-0.1,0-0.2,0
						c-0.2,0-0.4,0.2-0.4,0.4C191.6,61.9,191.7,62.1,192,62.1z"/>
				</g>
			</g>
			<g>
				<polygon points="193.8,64.2 194,64.2 192.2,66.7 192,66.7 				"/>
				<g>
					<path class="st20" d="M193.8,64.6c0.1,0,0.2,0,0.2,0c-0.1-0.2-0.2-0.4-0.3-0.6c-0.5,0.7-1.1,1.4-1.6,2.2
						c-0.1,0.1-0.2,0.2-0.2,0.3c0.1-0.1,0.2-0.1,0.3-0.2c-0.1,0-0.2,0-0.2,0c0.1,0.2,0.2,0.4,0.3,0.6c0.5-0.7,1.1-1.4,1.6-2.2
						c0.1-0.1,0.2-0.2,0.2-0.3c0.1-0.2,0-0.5-0.1-0.6c-0.2-0.1-0.4,0-0.6,0.1c-0.5,0.7-1.1,1.4-1.6,2.2c-0.1,0.1-0.2,0.2-0.2,0.3
						c-0.2,0.3,0.1,0.6,0.3,0.6c0.1,0,0.1,0,0.2,0c0.2,0,0.3-0.1,0.4-0.2c0,0,0-0.1,0.1-0.1c0.1-0.2,0.3-0.4,0.4-0.5
						c0.4-0.5,0.7-1,1.1-1.5c0.1-0.1,0.2-0.2,0.3-0.4c0.2-0.3-0.1-0.6-0.3-0.6c-0.1,0-0.2,0-0.2,0c-0.2,0-0.4,0.2-0.4,0.4
						C193.4,64.4,193.6,64.6,193.8,64.6z"/>
				</g>
			</g>
			<g>
				<polygon points="192,66.7 192.2,66.7 194,69.1 193.8,69.1 				"/>
				<g>
					<path class="st20" d="M192,67.1c0.1,0,0.2,0,0.2,0c-0.1-0.1-0.2-0.1-0.3-0.2c0.5,0.7,1.1,1.4,1.6,2.2c0.1,0.1,0.2,0.2,0.2,0.3
						c0.1-0.2,0.2-0.4,0.3-0.6c-0.1,0-0.2,0-0.2,0c0.1,0.1,0.2,0.1,0.3,0.2c-0.5-0.7-1.1-1.4-1.6-2.2c-0.1-0.1-0.2-0.2-0.2-0.3
						c-0.1-0.2-0.4-0.3-0.6-0.1c-0.2,0.1-0.3,0.4-0.1,0.6c0.6,0.8,1.2,1.6,1.7,2.3l0.1,0.1c0.1,0.1,0.2,0.2,0.4,0.2
						c0.1,0,0.1,0,0.2,0c0.3,0,0.5-0.4,0.3-0.6c-0.6-0.8-1.2-1.6-1.7-2.3l-0.1-0.1c-0.1-0.1-0.2-0.2-0.4-0.2c-0.1,0-0.1,0-0.2,0
						c-0.2,0-0.4,0.2-0.4,0.4C191.6,66.9,191.7,67.1,192,67.1z"/>
				</g>
			</g>
			<g>
				<polygon points="193.8,69.1 194,69.1 192.2,71.6 192,71.6 				"/>
				<g>
					<path class="st20" d="M193.8,69.5c0.1,0,0.2,0,0.2,0c-0.1-0.2-0.2-0.4-0.3-0.6c-0.5,0.7-1.1,1.4-1.6,2.2
						c-0.1,0.1-0.2,0.2-0.2,0.3c0.1-0.1,0.2-0.1,0.3-0.2c-0.1,0-0.2,0-0.2,0c0.1,0.2,0.2,0.4,0.3,0.6c0.5-0.7,1.1-1.4,1.6-2.2
						c0.1-0.1,0.2-0.2,0.2-0.3c0.1-0.2,0-0.5-0.1-0.6c-0.2-0.1-0.4,0-0.6,0.1c-0.5,0.7-1.1,1.4-1.6,2.2c-0.1,0.1-0.2,0.2-0.2,0.3
						c-0.2,0.3,0.1,0.6,0.3,0.6c0.1,0,0.1,0,0.2,0c0.2,0,0.3-0.1,0.4-0.2c0,0,0-0.1,0.1-0.1c0.1-0.2,0.3-0.4,0.4-0.5
						c0.4-0.5,0.7-1,1.1-1.5c0.1-0.1,0.2-0.2,0.3-0.4c0.2-0.3-0.1-0.6-0.3-0.6c-0.1,0-0.2,0-0.2,0c-0.2,0-0.4,0.2-0.4,0.4
						C193.4,69.4,193.6,69.5,193.8,69.5z"/>
				</g>
			</g>
			<g>
				<polygon points="192,71.6 192.2,71.6 194,74.1 193.8,74.1 				"/>
				<g>
					<path class="st20" d="M192,72c0.1,0,0.2,0,0.2,0c-0.1-0.1-0.2-0.1-0.3-0.2c0.5,0.7,1.1,1.4,1.6,2.2c0.1,0.1,0.2,0.2,0.2,0.3
						c0.1-0.2,0.2-0.4,0.3-0.6c-0.1,0-0.2,0-0.2,0c0.1,0.1,0.2,0.1,0.3,0.2c-0.5-0.7-1.1-1.4-1.6-2.2c-0.1-0.1-0.2-0.2-0.2-0.3
						c-0.1-0.2-0.4-0.3-0.6-0.1c-0.2,0.1-0.3,0.4-0.1,0.6c0.6,0.8,1.2,1.6,1.7,2.3l0.1,0.1c0.1,0.1,0.2,0.2,0.4,0.2
						c0.1,0,0.1,0,0.2,0c0.3,0,0.5-0.4,0.3-0.6c-0.6-0.8-1.2-1.6-1.7-2.3l-0.1-0.1c-0.1-0.1-0.2-0.2-0.4-0.2c-0.1,0-0.1,0-0.2,0
						c-0.2,0-0.4,0.2-0.4,0.4C191.6,71.8,191.7,72,192,72z"/>
				</g>
			</g>
			<g>
				<polygon points="193.8,74.1 194,74.1 192.2,76.6 192,76.6 				"/>
				<g>
					<path class="st20" d="M193.8,74.5c0.1,0,0.2,0,0.2,0c-0.1-0.2-0.2-0.4-0.3-0.6c-0.5,0.7-1.1,1.4-1.6,2.2
						c-0.1,0.1-0.2,0.2-0.2,0.3c0.1-0.1,0.2-0.1,0.3-0.2c-0.1,0-0.2,0-0.2,0c0.1,0.2,0.2,0.4,0.3,0.6c0.5-0.7,1.1-1.4,1.6-2.2
						c0.1-0.1,0.2-0.2,0.2-0.3c0.1-0.2,0-0.5-0.1-0.6c-0.2-0.1-0.4,0-0.6,0.1c-0.5,0.7-1.1,1.4-1.6,2.2c-0.1,0.1-0.2,0.2-0.2,0.3
						c-0.2,0.3,0.1,0.6,0.3,0.6c0.1,0,0.1,0,0.2,0c0.2,0,0.3-0.1,0.4-0.2c0,0,0-0.1,0.1-0.1c0.1-0.2,0.3-0.4,0.4-0.5
						c0.4-0.5,0.7-1,1.1-1.5c0.1-0.1,0.2-0.2,0.3-0.4c0.2-0.3-0.1-0.6-0.3-0.6c-0.1,0-0.2,0-0.2,0c-0.2,0-0.4,0.2-0.4,0.4
						C193.4,74.3,193.6,74.5,193.8,74.5z"/>
				</g>
			</g>
			<g>
				<polygon points="192,76.6 192.2,76.6 194,79 193.8,79 				"/>
				<g>
					<path class="st20" d="M192,77c0.1,0,0.2,0,0.2,0c-0.1-0.1-0.2-0.1-0.3-0.2c0.5,0.7,1.1,1.4,1.6,2.2c0.1,0.1,0.2,0.2,0.2,0.3
						c0.1-0.2,0.2-0.4,0.3-0.6c-0.1,0-0.2,0-0.2,0c0.1,0.1,0.2,0.1,0.3,0.2c-0.5-0.7-1.1-1.4-1.6-2.2c-0.1-0.1-0.2-0.2-0.2-0.3
						c-0.1-0.2-0.4-0.3-0.6-0.1c-0.2,0.1-0.3,0.4-0.1,0.6c0.6,0.8,1.2,1.6,1.7,2.3l0.1,0.1c0.1,0.1,0.2,0.2,0.4,0.2
						c0.1,0,0.1,0,0.2,0c0.3,0,0.5-0.4,0.3-0.6c-0.6-0.8-1.2-1.6-1.7-2.3l-0.1-0.1c-0.1-0.1-0.2-0.2-0.4-0.2c-0.1,0-0.1,0-0.2,0
						c-0.2,0-0.4,0.2-0.4,0.4C191.6,76.8,191.7,77,192,77z"/>
				</g>
			</g>
			<g>
				<polygon points="193.8,79 194,79 192.2,81.5 192,81.5 				"/>
				<g>
					<path class="st20" d="M193.8,79.4c0.1,0,0.2,0,0.2,0c-0.1-0.2-0.2-0.4-0.3-0.6c-0.5,0.7-1.1,1.4-1.6,2.2
						c-0.1,0.1-0.2,0.2-0.2,0.3c0.1-0.1,0.2-0.1,0.3-0.2c-0.1,0-0.2,0-0.2,0c0.1,0.2,0.2,0.4,0.3,0.6c0.5-0.7,1.1-1.4,1.6-2.2
						c0.1-0.1,0.2-0.2,0.2-0.3c0.1-0.2,0-0.5-0.1-0.6c-0.2-0.1-0.4,0-0.6,0.1c-0.5,0.7-1.1,1.4-1.6,2.2c-0.1,0.1-0.2,0.2-0.2,0.3
						c-0.2,0.3,0.1,0.6,0.3,0.6c0.1,0,0.1,0,0.2,0c0.2,0,0.3-0.1,0.4-0.2c0,0,0-0.1,0.1-0.1c0.1-0.2,0.3-0.4,0.4-0.5
						c0.4-0.5,0.7-1,1.1-1.5c0.1-0.1,0.2-0.2,0.3-0.4c0.2-0.3-0.1-0.6-0.3-0.6c-0.1,0-0.2,0-0.2,0c-0.2,0-0.4,0.2-0.4,0.4
						C193.4,79.3,193.6,79.4,193.8,79.4z"/>
				</g>
			</g>
			<g>
				<polygon points="192,81.5 192.2,81.5 194,84 193.8,84 				"/>
				<g>
					<path class="st20" d="M192,81.9c0.1,0,0.2,0,0.2,0c-0.1-0.1-0.2-0.1-0.3-0.2c0.5,0.7,1.1,1.4,1.6,2.2c0.1,0.1,0.2,0.2,0.2,0.3
						c0.1-0.2,0.2-0.4,0.3-0.6c-0.1,0-0.2,0-0.2,0c0.1,0.1,0.2,0.1,0.3,0.2c-0.5-0.7-1.1-1.4-1.6-2.2c-0.1-0.1-0.2-0.2-0.2-0.3
						c-0.1-0.2-0.4-0.3-0.6-0.1c-0.2,0.1-0.3,0.4-0.1,0.6c0.6,0.8,1.2,1.6,1.7,2.3l0.1,0.1c0.1,0.1,0.2,0.2,0.4,0.2
						c0.1,0,0.1,0,0.2,0c0.3,0,0.5-0.4,0.3-0.6c-0.6-0.8-1.2-1.6-1.7-2.3l-0.1-0.1c-0.1-0.1-0.2-0.2-0.4-0.2c-0.1,0-0.1,0-0.2,0
						c-0.2,0-0.4,0.2-0.4,0.4C191.6,81.7,191.7,81.9,192,81.9z"/>
				</g>
			</g>
			<g>
				<polygon points="193.8,84 194,84 192.2,86.5 192,86.5 				"/>
				<g>
					<path class="st20" d="M193.8,84.4c0.1,0,0.2,0,0.2,0c-0.1-0.2-0.2-0.4-0.3-0.6c-0.5,0.7-1.1,1.4-1.6,2.2
						c-0.1,0.1-0.2,0.2-0.2,0.3c0.1-0.1,0.2-0.1,0.3-0.2c-0.1,0-0.2,0-0.2,0c0.1,0.2,0.2,0.4,0.3,0.6c0.5-0.7,1.1-1.4,1.6-2.2
						c0.1-0.1,0.2-0.2,0.2-0.3c0.1-0.2,0-0.5-0.1-0.6c-0.2-0.1-0.4,0-0.6,0.1c-0.5,0.7-1.1,1.4-1.6,2.2c-0.1,0.1-0.2,0.2-0.2,0.3
						c-0.2,0.3,0.1,0.6,0.3,0.6c0.1,0,0.1,0,0.2,0c0.2,0,0.3-0.1,0.4-0.2c0,0,0-0.1,0.1-0.1c0.1-0.2,0.3-0.4,0.4-0.5
						c0.4-0.5,0.7-1,1.1-1.5c0.1-0.1,0.2-0.2,0.3-0.4c0.2-0.3-0.1-0.6-0.3-0.6c-0.1,0-0.2,0-0.2,0c-0.2,0-0.4,0.2-0.4,0.4
						C193.4,84.2,193.6,84.4,193.8,84.4z"/>
				</g>
			</g>
			<g>
				<polygon points="197,92.4 197.1,92.5 194.1,93.9 193.9,93.9 193.9,93.8 				"/>
				<g>
					<path class="st20" d="M196.7,92.6l0.1,0.1c0-0.2,0.1-0.4,0.1-0.6c-0.9,0.4-1.8,0.8-2.6,1.2c-0.1,0.1-0.3,0.1-0.4,0.2
						c0.1,0,0.1,0,0.2-0.1c-0.1,0-0.1,0-0.2,0c0.1,0.2,0.3,0.3,0.4,0.5v-0.1c-0.1,0.1-0.1,0.2-0.2,0.2c0.9-0.4,1.8-0.8,2.7-1.2
						c0.1-0.1,0.3-0.1,0.4-0.2c0.2-0.1,0.2-0.4,0.1-0.6c-0.1-0.2-0.4-0.2-0.6-0.1c-0.9,0.4-1.9,0.8-2.8,1.3c-0.1,0-0.1,0.1-0.2,0.1
						c-0.2,0.1-0.2,0.2-0.3,0.4c-0.1,0.3,0.1,0.5,0.4,0.5c0.2,0,0.3,0,0.4-0.1c0,0,0.1,0,0.1-0.1c0.2-0.1,0.5-0.2,0.7-0.3
						c0.6-0.3,1.2-0.5,1.8-0.8c0.1-0.1,0.3-0.1,0.4-0.2c0.2-0.1,0.3-0.4,0.1-0.6l-0.1-0.1c-0.1-0.2-0.4-0.3-0.6-0.1
						C196.7,92.1,196.5,92.4,196.7,92.6z"/>
				</g>
			</g>
			<g>
				<polygon points="197.1,95.2 197,95.4 194,94 193.9,93.9 194.1,93.9 				"/>
				<g>
					<path class="st20" d="M196.8,95l-0.1,0.1c0.2,0,0.4-0.1,0.6-0.1c-0.9-0.4-1.8-0.8-2.7-1.2c-0.1-0.1-0.3-0.1-0.4-0.2
						c0.1,0.1,0.1,0.2,0.2,0.2v-0.1c-0.1,0.2-0.3,0.3-0.4,0.5c0.1,0,0.1,0,0.2,0c-0.1,0-0.1,0-0.2-0.1c0.9,0.4,1.8,0.8,2.6,1.2
						c0.1,0.1,0.3,0.1,0.4,0.2c0.2,0.1,0.4,0.1,0.6-0.1c0.1-0.2,0.1-0.5-0.1-0.6c-0.9-0.4-1.9-0.8-2.8-1.3c-0.1,0-0.1-0.1-0.2-0.1
						c-0.1-0.1-0.3-0.1-0.4-0.1c-0.2,0-0.5,0.3-0.4,0.5c0.1,0.1,0.1,0.3,0.2,0.4c0.1,0,0.1,0,0.2,0.1c0.2,0.1,0.5,0.2,0.7,0.3
						c0.6,0.3,1.2,0.5,1.8,0.8c0.1,0.1,0.3,0.1,0.4,0.2c0.2,0.1,0.4,0,0.6-0.1l0.1-0.1c0.1-0.2,0-0.5-0.1-0.6
						C197.1,94.8,196.9,94.9,196.8,95z"/>
				</g>
			</g>
			<g>
				<polygon points="188.3,94.6 188.4,94.5 192,96.3 192.1,96.4 191.9,96.4 				"/>
				<g>
					<path class="st20" d="M188.5,95c0.1,0,0.1-0.1,0.2-0.1c-0.1,0-0.3,0-0.4,0c1.1,0.5,2.1,1,3.2,1.6c0.2,0.1,0.3,0.2,0.5,0.2
						c-0.1-0.1-0.1-0.2-0.2-0.2v0.1c0.1-0.2,0.3-0.3,0.4-0.5c-0.1,0-0.1,0-0.2,0c0.1,0,0.1,0,0.2,0.1c-1-0.5-2.1-1-3.1-1.6
						c-0.2-0.1-0.3-0.2-0.5-0.2c-0.2-0.1-0.4-0.1-0.6,0.1c-0.1,0.2-0.1,0.5,0.1,0.6c1.1,0.6,2.2,1.1,3.3,1.7c0.1,0,0.2,0.1,0.2,0.1
						c0.1,0.1,0.3,0.1,0.4,0.1c0.3,0,0.5-0.3,0.4-0.5c0-0.2-0.1-0.3-0.3-0.4c-0.1,0-0.1-0.1-0.2-0.1c-0.3-0.1-0.6-0.3-0.8-0.4
						c-0.7-0.3-1.4-0.7-2.1-1c-0.2-0.1-0.3-0.2-0.5-0.2c-0.1-0.1-0.3-0.1-0.4,0c-0.1,0-0.1,0.1-0.2,0.1c-0.2,0.1-0.3,0.3-0.1,0.6
						C188,95,188.3,95.1,188.5,95z"/>
				</g>
			</g>
			<g>
				<polygon points="188.4,98.4 188.3,98.2 191.9,96.4 192.1,96.4 192,96.5 				"/>
				<g>
					<path class="st20" d="M188.7,98.1l-0.1-0.1c0,0.2-0.1,0.4-0.1,0.6c1-0.5,2.1-1,3.1-1.6c0.1-0.1,0.3-0.1,0.4-0.2
						c-0.1,0-0.1,0-0.2,0.1c0.1,0,0.1,0,0.2,0c-0.1-0.2-0.3-0.3-0.4-0.5v0.1c0.1-0.1,0.1-0.2,0.2-0.2c-1.1,0.5-2.1,1.1-3.2,1.6
						c-0.2,0.1-0.3,0.2-0.5,0.2c-0.2,0.1-0.3,0.4-0.1,0.6c0.1,0.2,0.4,0.2,0.6,0.1c1.1-0.6,2.2-1.1,3.3-1.7c0.1,0,0.2-0.1,0.3-0.1
						c0.2-0.1,0.2-0.2,0.3-0.4c0.1-0.3-0.1-0.5-0.4-0.5c-0.1,0-0.3,0-0.4,0.1c-0.1,0-0.1,0.1-0.2,0.1c-0.3,0.1-0.5,0.3-0.8,0.4
						c-0.7,0.3-1.4,0.7-2.1,1c-0.2,0.1-0.3,0.2-0.5,0.2c-0.3,0.1-0.2,0.4-0.1,0.6l0.1,0.1c0.1,0.2,0.4,0.1,0.6,0
						C188.9,98.5,188.8,98.2,188.7,98.1z"/>
				</g>
			</g>
			<g>
				<polygon points="192,56.8 192.2,56.7 194,59.2 193.8,59.2 				"/>
				<g>
					<path class="st20" d="M192.2,57.1c0.1,0,0.1-0.1,0.2-0.1c-0.2,0-0.4-0.1-0.6-0.1c0.5,0.7,1.1,1.5,1.6,2.2
						c0.1,0.1,0.2,0.2,0.2,0.3c0.1-0.2,0.2-0.4,0.3-0.6c-0.1,0-0.2,0-0.2,0c0.1,0.1,0.2,0.1,0.3,0.2c-0.5-0.7-1.1-1.4-1.6-2.1
						c-0.1-0.1-0.1-0.2-0.2-0.3c-0.1-0.2-0.4-0.3-0.6-0.1c-0.2,0.1-0.3,0.4-0.1,0.6c0.6,0.8,1.1,1.5,1.7,2.3l0.1,0.1
						c0.1,0.1,0.2,0.2,0.4,0.2c0.1,0,0.1,0,0.2,0c0.3,0,0.5-0.4,0.3-0.6c-0.5-0.7-1.1-1.5-1.6-2.2c-0.1-0.1-0.2-0.2-0.2-0.3
						c-0.1-0.2-0.3-0.2-0.6-0.1c-0.1,0-0.1,0.1-0.2,0.1c-0.2,0.1-0.3,0.4-0.1,0.6C191.8,57.2,192,57.2,192.2,57.1z"/>
				</g>
			</g>
			<g>
				<polygon points="182.9,92.4 182.9,92.2 186.7,92.2 186.7,92.4 				"/>
				<g>
					<path class="st20" d="M183.3,92.4c0-0.1,0-0.1,0-0.2c-0.1,0.1-0.3,0.3-0.4,0.4c1.1,0,2.2,0,3.4,0c0.2,0,0.3,0,0.5,0
						c-0.1-0.1-0.3-0.3-0.4-0.4c0,0.1,0,0.1,0,0.2c0.1-0.1,0.3-0.3,0.4-0.4c-1.1,0-2.2,0-3.4,0c-0.2,0-0.3,0-0.5,0
						c-0.5,0-0.5,0.8,0,0.8c1.1,0,2.2,0,3.4,0c0.2,0,0.3,0,0.5,0s0.4-0.2,0.4-0.4c0-0.1,0-0.1,0-0.2c0-0.2-0.2-0.4-0.4-0.4
						c-1.1,0-2.2,0-3.4,0c-0.2,0-0.3,0-0.5,0s-0.4,0.2-0.4,0.4c0,0.1,0,0.1,0,0.2C182.5,92.9,183.3,92.9,183.3,92.4z"/>
				</g>
			</g>
			<g>
				<polygon points="182.9,91.9 182.9,91.8 186.7,91.8 186.7,92 				"/>
				<g>
					<path class="st20" d="M183.3,91.9c0-0.1,0-0.1,0-0.2c-0.1,0.1-0.3,0.3-0.4,0.4c1.1,0,2.2,0,3.4,0c0.2,0,0.3,0,0.5,0
						c-0.1-0.1-0.3-0.3-0.4-0.4c0,0.1,0,0.1,0,0.2c0.1-0.1,0.3-0.3,0.4-0.4c-1.1,0-2.2,0-3.4,0c-0.2,0-0.3,0-0.5,0
						c-0.5,0-0.5,0.8,0,0.8c1.1,0,2.2,0,3.4,0c0.2,0,0.3,0,0.5,0s0.4-0.2,0.4-0.4c0-0.1,0-0.1,0-0.2c0-0.2-0.2-0.4-0.4-0.4
						c-1.1,0-2.2,0-3.4,0c-0.2,0-0.3,0-0.5,0s-0.4,0.2-0.4,0.4c0,0.1,0,0.1,0,0.2C182.5,92.5,183.3,92.5,183.3,91.9z"/>
				</g>
			</g>
			<g>
				<polygon points="188.4,94.5 188.3,94.6 186.4,92.1 186.7,92.1 				"/>
				<g>
					<path class="st20" d="M188.2,94.2c-0.1,0-0.1,0.1-0.2,0.1c0.2,0,0.4,0.1,0.6,0.1c-0.5-0.7-1.1-1.5-1.6-2.2
						c-0.1-0.1-0.2-0.2-0.2-0.3c-0.1,0.2-0.2,0.4-0.3,0.6c0.1,0,0.2,0,0.2,0c-0.1-0.1-0.2-0.1-0.3-0.2c0.5,0.7,1,1.4,1.6,2.1
						c0.1,0.1,0.1,0.2,0.2,0.3c0.1,0.2,0.4,0.3,0.6,0.1c0.2-0.1,0.3-0.4,0.1-0.6c-0.6-0.8-1.1-1.5-1.7-2.3l-0.1-0.1
						c-0.2-0.2-0.4-0.2-0.6-0.2c-0.3,0-0.5,0.4-0.3,0.6c0.5,0.7,1.1,1.5,1.6,2.2c0.1,0.1,0.2,0.2,0.2,0.3c0.1,0.2,0.4,0.3,0.6,0.1
						c0.1,0,0.1-0.1,0.2-0.1c0.2-0.1,0.3-0.4,0.1-0.6C188.7,94.1,188.4,94,188.2,94.2z"/>
				</g>
			</g>
			<g>
				<polygon points="188.2,89.6 188.5,89.6 186.7,92.1 186.4,92.1 				"/>
				<g>
					<path class="st20" d="M188.2,90c0.1,0,0.2,0,0.2,0c-0.1-0.2-0.2-0.4-0.3-0.6c-0.5,0.7-1.1,1.4-1.6,2.2
						c-0.1,0.1-0.2,0.2-0.2,0.3c0.1-0.1,0.2-0.1,0.3-0.2c-0.1,0-0.2,0-0.2,0c0.1,0.2,0.2,0.4,0.3,0.6c0.5-0.7,1.1-1.4,1.6-2.2
						c0.1-0.1,0.2-0.2,0.2-0.3c0.1-0.2,0-0.5-0.1-0.6c-0.2-0.1-0.4,0-0.6,0.1c-0.5,0.7-1.1,1.4-1.6,2.2c-0.1,0.1-0.2,0.2-0.2,0.3
						c-0.2,0.3,0.1,0.6,0.3,0.6c0.1,0,0.1,0,0.2,0c0.2,0,0.3-0.1,0.4-0.2c0,0,0-0.1,0.1-0.1c0.1-0.2,0.3-0.4,0.4-0.5
						c0.4-0.5,0.7-1,1.1-1.5c0.1-0.1,0.2-0.2,0.3-0.4c0.2-0.3-0.1-0.6-0.3-0.6c-0.1,0-0.2,0-0.2,0c-0.2,0-0.4,0.2-0.4,0.4
						C187.8,89.8,188,90,188.2,90z"/>
				</g>
			</g>
			<g>
				<polygon points="186.4,87.2 186.7,87.2 188.5,89.6 188.2,89.6 				"/>
				<g>
					<path class="st20" d="M186.4,87.6c0.1,0,0.2,0,0.2,0c-0.1-0.1-0.2-0.1-0.3-0.2c0.5,0.7,1.1,1.4,1.6,2.2
						c0.1,0.1,0.2,0.2,0.2,0.3c0.1-0.2,0.2-0.4,0.3-0.6c-0.1,0-0.2,0-0.2,0c0.1,0.1,0.2,0.1,0.3,0.2c-0.5-0.7-1.1-1.4-1.6-2.2
						c-0.1-0.1-0.2-0.2-0.2-0.3c-0.1-0.2-0.4-0.3-0.6-0.1c-0.2,0.1-0.3,0.4-0.1,0.6c0.6,0.8,1.2,1.6,1.7,2.3l0.1,0.1
						c0.1,0.1,0.2,0.2,0.4,0.2c0.1,0,0.1,0,0.2,0c0.3,0,0.5-0.4,0.3-0.6c-0.6-0.8-1.2-1.6-1.7-2.3l-0.1-0.1
						c-0.1-0.1-0.2-0.2-0.4-0.2c-0.1,0-0.1,0-0.2,0c-0.2,0-0.4,0.2-0.4,0.4C186,87.4,186.2,87.6,186.4,87.6z"/>
				</g>
			</g>
			<g>
				<polygon points="188.2,84.7 188.5,84.7 186.7,87.2 186.4,87.2 				"/>
				<g>
					<path class="st20" d="M188.2,85.1c0.1,0,0.2,0,0.2,0c-0.1-0.2-0.2-0.4-0.3-0.6c-0.5,0.7-1.1,1.4-1.6,2.2
						c-0.1,0.1-0.2,0.2-0.2,0.3c0.1-0.1,0.2-0.1,0.3-0.2c-0.1,0-0.2,0-0.2,0c0.1,0.2,0.2,0.4,0.3,0.6c0.5-0.7,1.1-1.4,1.6-2.2
						c0.1-0.1,0.2-0.2,0.2-0.3c0.1-0.2,0-0.5-0.1-0.6c-0.2-0.1-0.4,0-0.6,0.1c-0.5,0.7-1.1,1.4-1.6,2.2c-0.1,0.1-0.2,0.2-0.2,0.3
						c-0.2,0.3,0.1,0.6,0.3,0.6c0.1,0,0.1,0,0.2,0c0.2,0,0.3-0.1,0.4-0.2c0,0,0-0.1,0.1-0.1c0.1-0.2,0.3-0.4,0.4-0.5
						c0.4-0.5,0.7-1,1.1-1.5c0.1-0.1,0.2-0.2,0.3-0.4c0.2-0.3-0.1-0.6-0.3-0.6c-0.1,0-0.2,0-0.2,0c-0.2,0-0.4,0.2-0.4,0.4
						C187.8,84.9,188,85.1,188.2,85.1z"/>
				</g>
			</g>
			<g>
				<polygon points="188.5,84.7 188.2,84.7 186.4,82.2 186.7,82.2 				"/>
				<g>
					<path class="st20" d="M188.5,84.3c-0.1,0-0.2,0-0.2,0c0.1,0.1,0.2,0.1,0.3,0.2c-0.5-0.7-1.1-1.4-1.6-2.2
						c-0.1-0.1-0.2-0.2-0.2-0.3c-0.1,0.2-0.2,0.4-0.3,0.6c0.1,0,0.2,0,0.2,0c-0.1-0.1-0.2-0.1-0.3-0.2c0.5,0.7,1.1,1.4,1.6,2.2
						c0.1,0.1,0.2,0.2,0.2,0.3c0.1,0.2,0.4,0.3,0.6,0.1c0.2-0.1,0.3-0.4,0.1-0.6c-0.6-0.8-1.2-1.6-1.7-2.3l-0.1-0.1
						c-0.1-0.1-0.2-0.2-0.4-0.2c-0.1,0-0.1,0-0.2,0c-0.3,0-0.5,0.4-0.3,0.6c0.6,0.8,1.2,1.6,1.7,2.3l0.1,0.1
						c0.1,0.1,0.2,0.2,0.4,0.2c0.1,0,0.1,0,0.2,0c0.2,0,0.4-0.2,0.4-0.4C188.9,84.5,188.7,84.3,188.5,84.3z"/>
				</g>
			</g>
			<g>
				<polygon points="186.7,82.2 186.4,82.2 188.2,79.7 188.5,79.7 				"/>
				<g>
					<path class="st20" d="M186.7,81.8c-0.1,0-0.2,0-0.2,0c0.1,0.2,0.2,0.4,0.3,0.6c0.5-0.7,1.1-1.4,1.6-2.2
						c0.1-0.1,0.2-0.2,0.2-0.3c-0.1,0.1-0.2,0.1-0.3,0.2c0.1,0,0.2,0,0.2,0c-0.1-0.2-0.2-0.4-0.3-0.6c-0.5,0.7-1.1,1.4-1.6,2.2
						c-0.1,0.1-0.2,0.2-0.2,0.3c-0.1,0.2,0,0.5,0.1,0.6c0.2,0.1,0.4,0,0.6-0.1c0.5-0.7,1.1-1.4,1.6-2.2c0.1-0.1,0.2-0.2,0.2-0.3
						c0.2-0.3-0.1-0.6-0.3-0.6c-0.1,0-0.1,0-0.2,0c-0.2,0-0.3,0.1-0.4,0.2c0,0,0,0.1-0.1,0.1c-0.1,0.2-0.3,0.4-0.4,0.5
						c-0.4,0.5-0.7,1-1.1,1.5c-0.1,0.1-0.2,0.2-0.3,0.4c-0.2,0.3,0.1,0.6,0.3,0.6c0.1,0,0.2,0,0.2,0c0.2,0,0.4-0.2,0.4-0.4
						C187,82,186.9,81.8,186.7,81.8z"/>
				</g>
			</g>
			<g>
				<polygon points="188.5,79.7 188.2,79.7 186.4,77.2 186.7,77.2 				"/>
				<g>
					<path class="st20" d="M188.5,79.3c-0.1,0-0.2,0-0.2,0c0.1,0.1,0.2,0.1,0.3,0.2c-0.5-0.7-1.1-1.4-1.6-2.2
						c-0.1-0.1-0.2-0.2-0.2-0.3c-0.1,0.2-0.2,0.4-0.3,0.6c0.1,0,0.2,0,0.2,0c-0.1-0.1-0.2-0.1-0.3-0.2c0.5,0.7,1.1,1.4,1.6,2.2
						c0.1,0.1,0.2,0.2,0.2,0.3c0.1,0.2,0.4,0.3,0.6,0.1c0.2-0.1,0.3-0.4,0.1-0.6c-0.6-0.8-1.2-1.6-1.7-2.3l-0.1-0.1
						c-0.1-0.1-0.2-0.2-0.4-0.2c-0.1,0-0.1,0-0.2,0c-0.3,0-0.5,0.4-0.3,0.6c0.6,0.8,1.2,1.6,1.7,2.3l0.1,0.1
						c0.1,0.1,0.2,0.2,0.4,0.2c0.1,0,0.1,0,0.2,0c0.2,0,0.4-0.2,0.4-0.4C188.9,79.5,188.7,79.3,188.5,79.3z"/>
				</g>
			</g>
			<g>
				<polygon points="186.7,77.2 186.4,77.2 188.2,74.8 188.5,74.8 				"/>
				<g>
					<path class="st20" d="M186.7,76.8c-0.1,0-0.2,0-0.2,0c0.1,0.2,0.2,0.4,0.3,0.6c0.5-0.7,1.1-1.4,1.6-2.2
						c0.1-0.1,0.2-0.2,0.2-0.3c-0.1,0.1-0.2,0.1-0.3,0.2c0.1,0,0.2,0,0.2,0c-0.1-0.2-0.2-0.4-0.3-0.6c-0.5,0.7-1.1,1.4-1.6,2.2
						c-0.1,0.1-0.2,0.2-0.2,0.3c-0.1,0.2,0,0.5,0.1,0.6c0.2,0.1,0.4,0,0.6-0.1c0.5-0.7,1.1-1.4,1.6-2.2c0.1-0.1,0.2-0.2,0.2-0.3
						c0.2-0.3-0.1-0.6-0.3-0.6c-0.1,0-0.1,0-0.2,0c-0.2,0-0.3,0.1-0.4,0.2c0,0,0,0.1-0.1,0.1c-0.1,0.2-0.3,0.4-0.4,0.5
						c-0.4,0.5-0.7,1-1.1,1.5c-0.1,0.1-0.2,0.2-0.3,0.4c-0.2,0.3,0.1,0.6,0.3,0.6c0.1,0,0.2,0,0.2,0c0.2,0,0.4-0.2,0.4-0.4
						C187,77,186.9,76.8,186.7,76.8z"/>
				</g>
			</g>
			<g>
				<polygon points="188.5,74.8 188.2,74.8 186.4,72.3 186.7,72.3 				"/>
				<g>
					<path class="st20" d="M188.5,74.4c-0.1,0-0.2,0-0.2,0c0.1,0.1,0.2,0.1,0.3,0.2c-0.5-0.7-1.1-1.4-1.6-2.2
						c-0.1-0.1-0.2-0.2-0.2-0.3c-0.1,0.2-0.2,0.4-0.3,0.6c0.1,0,0.2,0,0.2,0c-0.1-0.1-0.2-0.1-0.3-0.2c0.5,0.7,1.1,1.4,1.6,2.2
						c0.1,0.1,0.2,0.2,0.2,0.3c0.1,0.2,0.4,0.3,0.6,0.1c0.2-0.1,0.3-0.4,0.1-0.6c-0.6-0.8-1.2-1.6-1.7-2.3l-0.1-0.1
						c-0.1-0.1-0.2-0.2-0.4-0.2c-0.1,0-0.1,0-0.2,0c-0.3,0-0.5,0.4-0.3,0.6c0.6,0.8,1.2,1.6,1.7,2.3l0.1,0.1
						c0.1,0.1,0.2,0.2,0.4,0.2c0.1,0,0.1,0,0.2,0c0.2,0,0.4-0.2,0.4-0.4C188.9,74.6,188.7,74.4,188.5,74.4z"/>
				</g>
			</g>
			<g>
				<polygon points="186.7,72.3 186.4,72.3 188.2,69.8 188.5,69.8 				"/>
				<g>
					<path class="st20" d="M186.7,71.9c-0.1,0-0.2,0-0.2,0c0.1,0.2,0.2,0.4,0.3,0.6c0.5-0.7,1.1-1.4,1.6-2.2
						c0.1-0.1,0.2-0.2,0.2-0.3c-0.1,0.1-0.2,0.1-0.3,0.2c0.1,0,0.2,0,0.2,0c-0.1-0.2-0.2-0.4-0.3-0.6c-0.5,0.7-1.1,1.4-1.6,2.2
						c-0.1,0.1-0.2,0.2-0.2,0.3c-0.1,0.2,0,0.5,0.1,0.6c0.2,0.1,0.4,0,0.6-0.1c0.5-0.7,1.1-1.4,1.6-2.2c0.1-0.1,0.2-0.2,0.2-0.3
						c0.2-0.3-0.1-0.6-0.3-0.6c-0.1,0-0.1,0-0.2,0c-0.2,0-0.3,0.1-0.4,0.2c0,0,0,0.1-0.1,0.1c-0.1,0.2-0.3,0.4-0.4,0.5
						c-0.4,0.5-0.7,1-1.1,1.5c-0.1,0.1-0.2,0.2-0.3,0.4c-0.2,0.3,0.1,0.6,0.3,0.6c0.1,0,0.2,0,0.2,0c0.2,0,0.4-0.2,0.4-0.4
						C187,72.1,186.9,71.9,186.7,71.9z"/>
				</g>
			</g>
			<g>
				<polygon points="188.5,69.8 188.2,69.8 186.4,67.3 186.7,67.3 				"/>
				<g>
					<path class="st20" d="M188.5,69.4c-0.1,0-0.2,0-0.2,0c0.1,0.1,0.2,0.1,0.3,0.2c-0.5-0.7-1.1-1.4-1.6-2.2
						c-0.1-0.1-0.2-0.2-0.2-0.3c-0.1,0.2-0.2,0.4-0.3,0.6c0.1,0,0.2,0,0.2,0c-0.1-0.1-0.2-0.1-0.3-0.2c0.5,0.7,1.1,1.4,1.6,2.2
						c0.1,0.1,0.2,0.2,0.2,0.3c0.1,0.2,0.4,0.3,0.6,0.1c0.2-0.1,0.3-0.4,0.1-0.6c-0.6-0.8-1.2-1.6-1.7-2.3l-0.1-0.1
						c-0.1-0.1-0.2-0.2-0.4-0.2c-0.1,0-0.1,0-0.2,0c-0.3,0-0.5,0.4-0.3,0.6c0.6,0.8,1.2,1.6,1.7,2.3l0.1,0.1
						c0.1,0.1,0.2,0.2,0.4,0.2c0.1,0,0.1,0,0.2,0c0.2,0,0.4-0.2,0.4-0.4C188.9,69.6,188.7,69.4,188.5,69.4z"/>
				</g>
			</g>
			<g>
				<polygon points="186.7,67.3 186.4,67.3 188.2,64.9 188.5,64.9 				"/>
				<g>
					<path class="st20" d="M186.7,66.9c-0.1,0-0.2,0-0.2,0c0.1,0.2,0.2,0.4,0.3,0.6c0.5-0.7,1.1-1.4,1.6-2.2
						c0.1-0.1,0.2-0.2,0.2-0.3c-0.1,0.1-0.2,0.1-0.3,0.2c0.1,0,0.2,0,0.2,0c-0.1-0.2-0.2-0.4-0.3-0.6c-0.5,0.7-1.1,1.4-1.6,2.2
						c-0.1,0.1-0.2,0.2-0.2,0.3c-0.1,0.2,0,0.5,0.1,0.6c0.2,0.1,0.4,0,0.6-0.1c0.5-0.7,1.1-1.4,1.6-2.2c0.1-0.1,0.2-0.2,0.2-0.3
						c0.2-0.3-0.1-0.6-0.3-0.6c-0.1,0-0.1,0-0.2,0c-0.2,0-0.3,0.1-0.4,0.2c0,0,0,0.1-0.1,0.1c-0.1,0.2-0.3,0.4-0.4,0.5
						c-0.4,0.5-0.7,1-1.1,1.5c-0.1,0.1-0.2,0.2-0.3,0.4c-0.2,0.3,0.1,0.6,0.3,0.6c0.1,0,0.2,0,0.2,0c0.2,0,0.4-0.2,0.4-0.4
						C187,67.1,186.9,66.9,186.7,66.9z"/>
				</g>
			</g>
			<g>
				<polygon points="188.5,64.9 188.2,64.9 186.4,62.4 186.7,62.4 				"/>
				<g>
					<path class="st20" d="M188.5,64.5c-0.1,0-0.2,0-0.2,0c0.1,0.1,0.2,0.1,0.3,0.2c-0.5-0.7-1.1-1.4-1.6-2.2
						c-0.1-0.1-0.2-0.2-0.2-0.3c-0.1,0.2-0.2,0.4-0.3,0.6c0.1,0,0.2,0,0.2,0c-0.1-0.1-0.2-0.1-0.3-0.2c0.5,0.7,1.1,1.4,1.6,2.2
						c0.1,0.1,0.2,0.2,0.2,0.3c0.1,0.2,0.4,0.3,0.6,0.1c0.2-0.1,0.3-0.4,0.1-0.6c-0.6-0.8-1.2-1.6-1.7-2.3l-0.1-0.1
						c-0.1-0.1-0.2-0.2-0.4-0.2c-0.1,0-0.1,0-0.2,0c-0.3,0-0.5,0.4-0.3,0.6c0.6,0.8,1.2,1.6,1.7,2.3L188,65c0.1,0.1,0.2,0.2,0.4,0.2
						c0.1,0,0.1,0,0.2,0c0.2,0,0.4-0.2,0.4-0.4C188.9,64.7,188.7,64.5,188.5,64.5z"/>
				</g>
			</g>
			<g>
				<polygon points="186.7,62.4 186.4,62.4 188.2,59.9 188.5,59.9 				"/>
				<g>
					<path class="st20" d="M186.7,62c-0.1,0-0.2,0-0.2,0c0.1,0.2,0.2,0.4,0.3,0.6c0.5-0.7,1.1-1.4,1.6-2.2c0.1-0.1,0.2-0.2,0.2-0.3
						c-0.1,0.1-0.2,0.1-0.3,0.2c0.1,0,0.2,0,0.2,0c-0.1-0.2-0.2-0.4-0.3-0.6c-0.5,0.7-1.1,1.4-1.6,2.2c-0.1,0.1-0.2,0.2-0.2,0.3
						c-0.1,0.2,0,0.5,0.1,0.6c0.2,0.1,0.4,0,0.6-0.1c0.5-0.7,1.1-1.4,1.6-2.2c0.1-0.1,0.2-0.2,0.2-0.3c0.2-0.3-0.1-0.6-0.3-0.6
						c-0.1,0-0.1,0-0.2,0c-0.2,0-0.3,0.1-0.4,0.2c0,0,0,0.1-0.1,0.1c-0.1,0.2-0.3,0.4-0.4,0.5c-0.4,0.5-0.7,1-1.1,1.5
						c-0.1,0.1-0.2,0.2-0.3,0.4c-0.2,0.3,0.1,0.6,0.3,0.6c0.1,0,0.2,0,0.2,0c0.2,0,0.4-0.2,0.4-0.4C187,62.2,186.9,62,186.7,62z"/>
				</g>
			</g>
			<g>
				<polygon points="188.5,59.9 188.2,59.9 186.4,57.5 186.6,57.4 				"/>
				<g>
					<path class="st20" d="M188.5,59.5c-0.1,0-0.2,0-0.2,0c0.1,0.1,0.2,0.1,0.3,0.2c-0.5-0.7-1.1-1.4-1.6-2.1
						c-0.1-0.1-0.1-0.2-0.2-0.3c0,0.2-0.1,0.4-0.1,0.6c0.1,0,0.1-0.1,0.2-0.1c-0.2,0-0.4-0.1-0.6-0.1c0.5,0.7,1.1,1.5,1.6,2.2
						c0.1,0.1,0.2,0.2,0.2,0.3c0.1,0.2,0.4,0.3,0.6,0.1c0.2-0.1,0.3-0.4,0.1-0.6c-0.5-0.7-1.1-1.5-1.6-2.2c-0.1-0.1-0.2-0.2-0.2-0.3
						c-0.1-0.2-0.3-0.2-0.6-0.1c-0.1,0-0.1,0.1-0.2,0.1c-0.2,0.1-0.3,0.4-0.1,0.6c0.6,0.8,1.1,1.5,1.7,2.3l0.1,0.1
						c0.1,0.1,0.2,0.2,0.4,0.2c0.1,0,0.1,0,0.2,0c0.2,0,0.4-0.2,0.4-0.4C188.9,59.7,188.7,59.5,188.5,59.5z"/>
				</g>
			</g>
		</g>
		<g>
			<g>
				<polygon points="268.6,103.3 268.4,103.2 270.2,100.8 270.5,100.8 				"/>
				<g>
					<path class="st20" d="M268.8,102.9c-0.1,0-0.1-0.1-0.2-0.1c0,0.2,0.1,0.4,0.1,0.6c0.5-0.7,1.1-1.4,1.6-2.1
						c0.1-0.1,0.1-0.2,0.2-0.3c-0.1,0.1-0.2,0.1-0.3,0.2c0.1,0,0.2,0,0.2,0c-0.1-0.2-0.2-0.4-0.3-0.6c-0.5,0.7-1.1,1.5-1.6,2.2
						c-0.1,0.1-0.2,0.2-0.2,0.3c-0.1,0.2,0,0.5,0.1,0.6c0.2,0.1,0.4,0,0.6-0.1c0.5-0.7,1.1-1.5,1.6-2.2c0.1-0.1,0.2-0.2,0.2-0.3
						c0.2-0.3-0.1-0.6-0.3-0.6c-0.1,0-0.1,0-0.2,0c-0.2,0-0.3,0.1-0.4,0.2c0,0,0,0.1-0.1,0.1c-0.1,0.2-0.3,0.3-0.4,0.5
						c-0.4,0.5-0.7,1-1.1,1.5c-0.1,0.1-0.2,0.2-0.3,0.4s0,0.5,0.1,0.6c0.1,0,0.1,0.1,0.2,0.1c0.2,0.1,0.4,0.1,0.6-0.1
						C269.1,103.3,269,103,268.8,102.9z"/>
				</g>
			</g>
			<g>
				<polygon points="270.5,100.8 270.2,100.8 268.5,98.5 268.5,98.4 268.7,98.4 				"/>
				<g>
					<path class="st20" d="M270.5,100.4c-0.1,0-0.2,0-0.2,0c0.1,0.1,0.2,0.1,0.3,0.2c-0.5-0.7-1-1.3-1.5-2c-0.1-0.1-0.1-0.2-0.2-0.3
						c0,0.1,0,0.2,0,0.3v-0.1c-0.1,0.1-0.3,0.2-0.4,0.3h0.1c-0.1-0.1-0.2-0.1-0.3-0.2c0.5,0.7,1.1,1.4,1.6,2.1
						c0.1,0.1,0.2,0.2,0.2,0.3c0.1,0.2,0.4,0.3,0.6,0.1c0.2-0.1,0.3-0.4,0.1-0.6c-0.6-0.7-1.1-1.5-1.7-2.2c0-0.1-0.1-0.1-0.1-0.2
						c0,0,0,0,0-0.1c-0.1-0.1-0.3-0.2-0.4-0.2c-0.2,0-0.3,0.1-0.4,0.3c0,0.2-0.1,0.3,0,0.4c0,0.1,0.1,0.1,0.1,0.1
						c0.2,0.2,0.3,0.4,0.5,0.6c0.3,0.5,0.7,0.9,1,1.4l0.1,0.1c0.1,0.1,0.2,0.2,0.4,0.2c0.1,0,0.1,0,0.2,0c0.2,0,0.4-0.2,0.4-0.4
						C270.9,100.5,270.7,100.4,270.5,100.4z"/>
				</g>
			</g>
			<g>
				<polygon points="268.7,98.4 268.5,98.4 268.5,98.2 270.2,95.8 270.4,95.8 270.4,95.9 				"/>
				<g>
					<path class="st20" d="M268.7,98h-0.1c0.1,0.1,0.3,0.2,0.4,0.3v-0.1c0,0.1,0,0.2,0,0.3c0.5-0.7,1-1.4,1.5-2.1
						c0.1-0.1,0.1-0.2,0.2-0.3c-0.1,0.1-0.2,0.1-0.3,0.2h0.1c-0.1-0.1-0.3-0.2-0.4-0.3v0.1c0-0.1,0-0.2,0-0.3
						c-0.5,0.7-1,1.4-1.5,2.1c-0.1,0.1-0.1,0.2-0.2,0.3c-0.1,0.2,0,0.5,0.1,0.6c0.2,0.1,0.4,0,0.6-0.1c0.5-0.7,1.1-1.5,1.6-2.2
						c0-0.1,0.1-0.1,0.1-0.2c0.1-0.1,0.1-0.3,0-0.4c-0.1-0.2-0.2-0.3-0.4-0.3c-0.1,0-0.2,0-0.3,0.1c-0.1,0-0.1,0.1-0.2,0.2l-0.1,0.1
						c-0.1,0.2-0.3,0.4-0.4,0.6c-0.3,0.5-0.7,1-1,1.4c0,0.1-0.1,0.1-0.1,0.2c-0.1,0.1-0.1,0.3,0,0.5s0.2,0.3,0.4,0.3h0.1
						c0.2,0,0.4-0.2,0.4-0.4C269.1,98.1,268.9,98,268.7,98z"/>
				</g>
			</g>
			<g>
				<polygon points="270.4,95.7 270.4,95.8 270.2,95.8 268.4,93.3 268.7,93.3 				"/>
				<g>
					<path class="st20" d="M270,95.6L270,95.6c0.1,0,0.3-0.1,0.4-0.2h-0.1c0.1,0.1,0.2,0.1,0.3,0.2c-0.5-0.7-1.1-1.4-1.6-2.2
						c-0.1-0.1-0.2-0.2-0.2-0.3c-0.1,0.2-0.2,0.4-0.3,0.6c0.1,0,0.2,0,0.2,0c-0.1-0.1-0.2-0.1-0.3-0.2c0.5,0.7,1,1.4,1.5,2.1
						c0.1,0.1,0.1,0.2,0.2,0.3c0.1,0.2,0.4,0.3,0.6,0.1c0.2-0.1,0.3-0.4,0.1-0.6c-0.6-0.7-1.1-1.5-1.7-2.2l-0.1-0.1
						c-0.1-0.1-0.2-0.2-0.4-0.2c-0.1,0-0.1,0-0.2,0c-0.3,0-0.5,0.4-0.3,0.6c0.6,0.8,1.1,1.5,1.7,2.3c0,0.1,0.1,0.1,0.1,0.2l0.1,0.1
						c0.1,0.1,0.3,0.1,0.4,0.1c0.2,0,0.3-0.1,0.4-0.3v-0.1c0.1-0.2-0.1-0.5-0.3-0.5C270.3,95.3,270.1,95.4,270,95.6z"/>
				</g>
			</g>
			<g>
				<polygon points="268.7,93.3 268.4,93.3 270.2,90.9 270.5,90.9 				"/>
				<g>
					<path class="st20" d="M268.7,92.9c-0.1,0-0.2,0-0.2,0c0.1,0.2,0.2,0.4,0.3,0.6c0.5-0.7,1.1-1.4,1.6-2.2
						c0.1-0.1,0.2-0.2,0.2-0.3c-0.1,0.1-0.2,0.1-0.3,0.2c0.1,0,0.2,0,0.2,0c-0.1-0.2-0.2-0.4-0.3-0.6c-0.5,0.7-1.1,1.4-1.6,2.2
						c-0.1,0.1-0.2,0.2-0.2,0.3c-0.1,0.2,0,0.5,0.1,0.6c0.2,0.1,0.4,0,0.6-0.1c0.5-0.7,1.1-1.4,1.6-2.2c0.1-0.1,0.2-0.2,0.2-0.3
						c0.2-0.3-0.1-0.6-0.3-0.6c-0.1,0-0.1,0-0.2,0c-0.2,0-0.3,0.1-0.4,0.2c0,0,0,0.1-0.1,0.1c-0.1,0.2-0.3,0.4-0.4,0.5
						c-0.4,0.5-0.7,1-1.1,1.5c-0.1,0.1-0.2,0.2-0.3,0.4c-0.2,0.3,0.1,0.6,0.3,0.6c0.1,0,0.2,0,0.2,0c0.2,0,0.4-0.2,0.4-0.4
						C269.1,93.1,268.9,92.9,268.7,92.9z"/>
				</g>
			</g>
			<g>
				<polygon points="268.1,93.2 267.9,93.1 269.6,90.8 269.8,90.9 				"/>
				<g>
					<path class="st20" d="M268.3,92.8c-0.1,0-0.1-0.1-0.2-0.1c0,0.2,0.1,0.4,0.1,0.6c0.5-0.7,1-1.3,1.5-2c0.1-0.1,0.1-0.2,0.2-0.3
						c-0.2,0-0.4,0.1-0.6,0.1c0.1,0,0.1,0.1,0.2,0.1c0-0.2-0.1-0.4-0.1-0.6c-0.5,0.7-1,1.3-1.5,2c-0.1,0.1-0.1,0.2-0.2,0.3
						c-0.1,0.2,0,0.5,0.1,0.6c0.2,0.1,0.4,0,0.6-0.1c0.5-0.7,1-1.3,1.5-2c0.1-0.1,0.1-0.2,0.2-0.3c0.1-0.2,0-0.5-0.1-0.6
						c-0.1,0-0.1-0.1-0.2-0.1c-0.2-0.1-0.4,0-0.6,0.1c-0.5,0.7-1,1.3-1.5,2c-0.1,0.1-0.1,0.2-0.2,0.3c-0.1,0.2,0,0.5,0.1,0.6
						c0.1,0,0.1,0.1,0.2,0.1c0.2,0.1,0.4,0.1,0.6-0.1S268.5,92.9,268.3,92.8z"/>
				</g>
			</g>
			<g>
				<polygon points="270.5,90.9 270.2,90.9 268.4,88.4 268.7,88.4 				"/>
				<g>
					<path class="st20" d="M270.5,90.5c-0.1,0-0.2,0-0.2,0c0.1,0.1,0.2,0.1,0.3,0.2c-0.5-0.7-1.1-1.4-1.6-2.2
						c-0.1-0.1-0.2-0.2-0.2-0.3c-0.1,0.2-0.2,0.4-0.3,0.6c0.1,0,0.2,0,0.2,0c-0.1-0.1-0.2-0.1-0.3-0.2c0.5,0.7,1.1,1.4,1.6,2.2
						c0.1,0.1,0.2,0.2,0.2,0.3c0.1,0.2,0.4,0.3,0.6,0.1c0.2-0.1,0.3-0.4,0.1-0.6c-0.6-0.8-1.2-1.6-1.7-2.3l-0.1-0.1
						c-0.1-0.1-0.2-0.2-0.4-0.2c-0.1,0-0.1,0-0.2,0c-0.3,0-0.5,0.4-0.3,0.6c0.6,0.8,1.2,1.6,1.7,2.3L270,91c0.1,0.1,0.2,0.2,0.4,0.2
						c0.1,0,0.1,0,0.2,0c0.2,0,0.4-0.2,0.4-0.4C270.9,90.6,270.7,90.5,270.5,90.5z"/>
				</g>
			</g>
			<g>
				<polygon points="270.2,61.2 270.5,61.2 268.7,63.6 268.4,63.6 				"/>
				<g>
					<path class="st20" d="M270.2,61.6c0.1,0,0.2,0,0.2,0c-0.1-0.2-0.2-0.4-0.3-0.6c-0.5,0.7-1.1,1.4-1.6,2.2
						c-0.1,0.1-0.2,0.2-0.2,0.3c0.1-0.1,0.2-0.1,0.3-0.2c-0.1,0-0.2,0-0.2,0c0.1,0.2,0.2,0.4,0.3,0.6
						C269.2,63.2,269.8,62.5,270.2,61.6c0.2,0,0.3-0.1,0.3-0.2c0.1-0.2,0-0.5-0.1-0.6c-0.2-0.1-0.4,0-0.6,0.1
						c-0.5,0.7-1.1,1.4-1.6,2.2c-0.1,0.1-0.2,0.2-0.2,0.3c-0.2,0.3,0.1,0.6,0.3,0.6c0.1,0,0.1,0,0.2,0c0.2,0,0.3-0.1,0.4-0.2
						c0,0,0-0.1,0.1-0.1c0.1-0.2,0.3-0.4,0.4-0.5c0.4-0.5,0.7-1,1.1-1.5c0.1-0.1,0.2-0.2,0.3-0.4c0.2-0.3-0.1-0.6-0.3-0.6
						c-0.1,0-0.2,0-0.2,0c-0.2,0-0.4,0.2-0.4,0.4C269.9,61.4,270,61.6,270.2,61.6z"/>
				</g>
			</g>
			<g>
				<polygon points="268.4,63.6 268.7,63.6 270.5,66.1 270.2,66.1 				"/>
				<g>
					<path class="st20" d="M268.4,64c0.1,0,0.2,0,0.2,0c-0.1-0.1-0.2-0.1-0.3-0.2c0.5,0.7,1.1,1.4,1.6,2.2c0.1,0.1,0.2,0.2,0.2,0.3
						c0.1-0.2,0.2-0.4,0.3-0.6c-0.1,0-0.2,0-0.2,0c0.1,0.1,0.2,0.1,0.3,0.2c-0.5-0.7-1.1-1.4-1.6-2.2c-0.1-0.1-0.2-0.2-0.2-0.3
						c-0.1-0.2-0.4-0.3-0.6-0.1c-0.2,0.1-0.3,0.4-0.1,0.6c0.6,0.8,1.2,1.6,1.7,2.3l0.1,0.1c0.1,0.1,0.2,0.2,0.4,0.2
						c0.1,0,0.1,0,0.2,0c0.3,0,0.5-0.4,0.3-0.6c-0.6-0.8-1.2-1.6-1.7-2.3l-0.1-0.1c-0.1-0.1-0.2-0.2-0.4-0.2c-0.1,0-0.1,0-0.2,0
						c-0.2,0-0.4,0.2-0.4,0.4C268,63.9,268.2,64,268.4,64z"/>
				</g>
			</g>
			<g>
				<polygon points="270.2,66.1 270.5,66.1 268.7,68.6 268.4,68.6 				"/>
				<g>
					<path class="st20" d="M270.2,66.5c0.1,0,0.2,0,0.2,0c-0.1-0.2-0.2-0.4-0.3-0.6c-0.5,0.7-1.1,1.4-1.6,2.2
						c-0.1,0.1-0.2,0.2-0.2,0.3c0.1-0.1,0.2-0.1,0.3-0.2c-0.1,0-0.2,0-0.2,0c0.1,0.2,0.2,0.4,0.3,0.6
						C269.2,68.1,269.8,67.4,270.2,66.5c0.2,0,0.3-0.1,0.3-0.2c0.1-0.2,0-0.5-0.1-0.6c-0.2-0.1-0.4,0-0.6,0.1
						c-0.5,0.7-1.1,1.4-1.6,2.2c-0.1,0.1-0.2,0.2-0.2,0.3c-0.2,0.3,0.1,0.6,0.3,0.6c0.1,0,0.1,0,0.2,0c0.2,0,0.3-0.1,0.4-0.2
						c0,0,0-0.1,0.1-0.1c0.1-0.2,0.3-0.4,0.4-0.5c0.4-0.5,0.7-1,1.1-1.5c0.1-0.1,0.2-0.2,0.3-0.4c0.2-0.3-0.1-0.6-0.3-0.6
						c-0.1,0-0.2,0-0.2,0c-0.2,0-0.4,0.2-0.4,0.4C269.9,66.3,270,66.5,270.2,66.5z"/>
				</g>
			</g>
			<g>
				<polygon points="268.4,68.6 268.7,68.6 270.5,71.1 270.2,71.1 				"/>
				<g>
					<path class="st20" d="M268.4,69c0.1,0,0.2,0,0.2,0c-0.1-0.1-0.2-0.1-0.3-0.2c0.5,0.7,1.1,1.4,1.6,2.2c0.1,0.1,0.2,0.2,0.2,0.3
						c0.1-0.2,0.2-0.4,0.3-0.6c-0.1,0-0.2,0-0.2,0c0.1,0.1,0.2,0.1,0.3,0.2c-0.5-0.7-1.1-1.4-1.6-2.2c-0.1-0.1-0.2-0.2-0.2-0.3
						c-0.1-0.2-0.4-0.3-0.6-0.1c-0.2,0.1-0.3,0.4-0.1,0.6c0.6,0.8,1.2,1.6,1.7,2.3l0.1,0.1c0.1,0.1,0.2,0.2,0.4,0.2
						c0.1,0,0.1,0,0.2,0c0.3,0,0.5-0.4,0.3-0.6c-0.6-0.8-1.2-1.6-1.7-2.3l-0.1-0.1c-0.1-0.1-0.2-0.2-0.4-0.2c-0.1,0-0.1,0-0.2,0
						c-0.2,0-0.4,0.2-0.4,0.4C268,68.8,268.2,69,268.4,69z"/>
				</g>
			</g>
			<g>
				<polygon points="270.2,71.1 270.5,71.1 268.7,73.5 268.4,73.5 				"/>
				<g>
					<path class="st20" d="M270.2,71.5c0.1,0,0.2,0,0.2,0c-0.1-0.2-0.2-0.4-0.3-0.6c-0.5,0.7-1.1,1.4-1.6,2.2
						c-0.1,0.1-0.2,0.2-0.2,0.3c0.1-0.1,0.2-0.1,0.3-0.2c-0.1,0-0.2,0-0.2,0c0.1,0.2,0.2,0.4,0.3,0.6
						C269.2,73.1,269.8,72.4,270.2,71.5c0.2,0,0.3-0.1,0.3-0.2c0.1-0.2,0-0.5-0.1-0.6c-0.2-0.1-0.4,0-0.6,0.1
						c-0.5,0.7-1.1,1.4-1.6,2.2c-0.1,0.1-0.2,0.2-0.2,0.3c-0.2,0.3,0.1,0.6,0.3,0.6c0.1,0,0.1,0,0.2,0c0.2,0,0.3-0.1,0.4-0.2
						c0,0,0-0.1,0.1-0.1c0.1-0.2,0.3-0.4,0.4-0.5c0.4-0.5,0.7-1,1.1-1.5c0.1-0.1,0.2-0.2,0.3-0.4c0.2-0.3-0.1-0.6-0.3-0.6
						c-0.1,0-0.2,0-0.2,0c-0.2,0-0.4,0.2-0.4,0.4C269.9,71.3,270,71.5,270.2,71.5z"/>
				</g>
			</g>
			<g>
				<polygon points="268.4,73.5 268.7,73.5 270.5,76 270.2,76 				"/>
				<g>
					<path class="st20" d="M268.4,73.9c0.1,0,0.2,0,0.2,0c-0.1-0.1-0.2-0.1-0.3-0.2c0.5,0.7,1.1,1.4,1.6,2.2
						c0.1,0.1,0.2,0.2,0.2,0.3c0.1-0.2,0.2-0.4,0.3-0.6c-0.1,0-0.2,0-0.2,0c0.1,0.1,0.2,0.1,0.3,0.2c-0.5-0.7-1.1-1.4-1.6-2.2
						c-0.1-0.1-0.2-0.2-0.2-0.3c-0.1-0.2-0.4-0.3-0.6-0.1c-0.2,0.1-0.3,0.4-0.1,0.6c0.6,0.8,1.2,1.6,1.7,2.3l0.1,0.1
						c0.1,0.1,0.2,0.2,0.4,0.2c0.1,0,0.1,0,0.2,0c0.3,0,0.5-0.4,0.3-0.6c-0.6-0.8-1.2-1.6-1.7-2.3l-0.1-0.1
						c-0.1-0.1-0.2-0.2-0.4-0.2c-0.1,0-0.1,0-0.2,0c-0.2,0-0.4,0.2-0.4,0.4C268,73.8,268.2,73.9,268.4,73.9z"/>
				</g>
			</g>
			<g>
				<polygon points="270.2,76 270.5,76 268.7,78.5 268.4,78.5 				"/>
				<g>
					<path class="st20" d="M270.2,76.4c0.1,0,0.2,0,0.2,0c-0.1-0.2-0.2-0.4-0.3-0.6c-0.5,0.7-1.1,1.4-1.6,2.2
						c-0.1,0.1-0.2,0.2-0.2,0.3c0.1-0.1,0.2-0.1,0.3-0.2c-0.1,0-0.2,0-0.2,0c0.1,0.2,0.2,0.4,0.3,0.6c0.5-0.7,1.1-1.4,1.6-2.2
						c0.1-0.1,0.2-0.2,0.2-0.3c0.1-0.2,0-0.5-0.1-0.6c-0.2-0.1-0.4,0-0.6,0.1c-0.5,0.7-1.1,1.4-1.6,2.2c-0.1,0.1-0.2,0.2-0.2,0.3
						c-0.2,0.3,0.1,0.6,0.3,0.6c0.1,0,0.1,0,0.2,0c0.2,0,0.3-0.1,0.4-0.2c0,0,0-0.1,0.1-0.1c0.1-0.2,0.3-0.4,0.4-0.5
						c0.4-0.5,0.7-1,1.1-1.5c0.1-0.1,0.2-0.2,0.3-0.4c0.2-0.3-0.1-0.6-0.3-0.6c-0.1,0-0.2,0-0.2,0c-0.2,0-0.4,0.2-0.4,0.4
						C269.9,76.2,270,76.4,270.2,76.4z"/>
				</g>
			</g>
			<g>
				<polygon points="268.4,78.5 268.7,78.5 270.5,81 270.2,81 				"/>
				<g>
					<path class="st20" d="M268.4,78.9c0.1,0,0.2,0,0.2,0c-0.1-0.1-0.2-0.1-0.3-0.2c0.5,0.7,1.1,1.4,1.6,2.2
						c0.1,0.1,0.2,0.2,0.2,0.3c0.1-0.2,0.2-0.4,0.3-0.6c-0.1,0-0.2,0-0.2,0c0.1,0.1,0.2,0.1,0.3,0.2c-0.5-0.7-1.1-1.4-1.6-2.2
						c-0.1-0.1-0.2-0.2-0.2-0.3c-0.1-0.2-0.4-0.3-0.6-0.1c-0.2,0.1-0.3,0.4-0.1,0.6c0.6,0.8,1.2,1.6,1.7,2.3l0.1,0.1
						c0.1,0.1,0.2,0.2,0.4,0.2c0.1,0,0.1,0,0.2,0c0.3,0,0.5-0.4,0.3-0.6c-0.6-0.8-1.2-1.6-1.7-2.3l-0.1-0.1
						c-0.1-0.1-0.2-0.2-0.4-0.2c-0.1,0-0.1,0-0.2,0c-0.2,0-0.4,0.2-0.4,0.4C268,78.7,268.2,78.9,268.4,78.9z"/>
				</g>
			</g>
			<g>
				<polygon points="270.2,81 270.5,81 268.7,83.4 268.4,83.4 				"/>
				<g>
					<path class="st20" d="M270.2,81.4c0.1,0,0.2,0,0.2,0c-0.1-0.2-0.2-0.4-0.3-0.6c-0.5,0.7-1.1,1.4-1.6,2.2
						c-0.1,0.1-0.2,0.2-0.2,0.3c0.1-0.1,0.2-0.1,0.3-0.2c-0.1,0-0.2,0-0.2,0c0.1,0.2,0.2,0.4,0.3,0.6c0.5-0.7,1.1-1.4,1.6-2.2
						c0.1-0.1,0.2-0.2,0.2-0.3c0.1-0.2,0-0.5-0.1-0.6c-0.2-0.1-0.4,0-0.6,0.1c-0.5,0.7-1.1,1.4-1.6,2.2c-0.1,0.1-0.2,0.2-0.2,0.3
						c-0.2,0.3,0.1,0.6,0.3,0.6c0.1,0,0.1,0,0.2,0c0.2,0,0.3-0.1,0.4-0.2c0,0,0-0.1,0.1-0.1c0.1-0.2,0.3-0.4,0.4-0.5
						c0.4-0.5,0.7-1,1.1-1.5c0.1-0.1,0.2-0.2,0.3-0.4c0.2-0.3-0.1-0.6-0.3-0.6c-0.1,0-0.2,0-0.2,0c-0.2,0-0.4,0.2-0.4,0.4
						C269.9,81.2,270,81.4,270.2,81.4z"/>
				</g>
			</g>
			<g>
				<polygon points="268.4,83.4 268.7,83.4 270.5,85.9 270.2,85.9 				"/>
				<g>
					<path class="st20" d="M268.4,83.8c0.1,0,0.2,0,0.2,0c-0.1-0.1-0.2-0.1-0.3-0.2c0.5,0.7,1.1,1.4,1.6,2.2
						c0.1,0.1,0.2,0.2,0.2,0.3c0.1-0.2,0.2-0.4,0.3-0.6c-0.1,0-0.2,0-0.2,0c0.1,0.1,0.2,0.1,0.3,0.2c-0.5-0.7-1.1-1.4-1.6-2.2
						c-0.1-0.1-0.2-0.2-0.2-0.3c-0.1-0.2-0.4-0.3-0.6-0.1c-0.2,0.1-0.3,0.4-0.1,0.6c0.6,0.8,1.2,1.6,1.7,2.3l0.1,0.1
						c0.1,0.1,0.2,0.2,0.4,0.2c0.1,0,0.1,0,0.2,0c0.3,0,0.5-0.4,0.3-0.6c-0.6-0.8-1.2-1.6-1.7-2.3l-0.1-0.1
						c-0.1-0.1-0.2-0.2-0.4-0.2c-0.1,0-0.1,0-0.2,0c-0.2,0-0.4,0.2-0.4,0.4C268,83.7,268.2,83.8,268.4,83.8z"/>
				</g>
			</g>
			<g>
				<polygon points="270.2,85.9 270.5,85.9 268.7,88.4 268.4,88.4 				"/>
				<g>
					<path class="st20" d="M270.2,86.3c0.1,0,0.2,0,0.2,0c-0.1-0.2-0.2-0.4-0.3-0.6c-0.5,0.7-1.1,1.4-1.6,2.2
						c-0.1,0.1-0.2,0.2-0.2,0.3c0.1-0.1,0.2-0.1,0.3-0.2c-0.1,0-0.2,0-0.2,0c0.1,0.2,0.2,0.4,0.3,0.6c0.5-0.7,1.1-1.4,1.6-2.2
						c0.1-0.1,0.2-0.2,0.2-0.3c0.1-0.2,0-0.5-0.1-0.6c-0.2-0.1-0.4,0-0.6,0.1c-0.5,0.7-1.1,1.4-1.6,2.2c-0.1,0.1-0.2,0.2-0.2,0.3
						c-0.2,0.3,0.1,0.6,0.3,0.6c0.1,0,0.1,0,0.2,0c0.2,0,0.3-0.1,0.4-0.2c0,0,0-0.1,0.1-0.1c0.1-0.2,0.3-0.4,0.4-0.5
						c0.4-0.5,0.7-1,1.1-1.5c0.1-0.1,0.2-0.2,0.3-0.4c0.2-0.3-0.1-0.6-0.3-0.6c-0.1,0-0.2,0-0.2,0c-0.2,0-0.4,0.2-0.4,0.4
						C269.9,86.1,270,86.3,270.2,86.3z"/>
				</g>
			</g>
			<g>
				<polygon points="273.5,94.3 273.6,94.5 270.6,95.8 270.4,95.8 270.4,95.7 				"/>
				<g>
					<path class="st20" d="M273.1,94.5l0.1,0.1c0-0.2,0.1-0.4,0.1-0.6c-0.9,0.4-1.8,0.8-2.6,1.2c-0.1,0.1-0.3,0.1-0.4,0.2
						c0.1,0,0.1,0,0.2-0.1c-0.1,0-0.1,0-0.2,0c0.1,0.2,0.3,0.3,0.4,0.5v-0.1c-0.1,0.1-0.1,0.2-0.2,0.2c0.9-0.4,1.8-0.8,2.7-1.2
						c0.1-0.1,0.3-0.1,0.4-0.2c0.2-0.1,0.2-0.4,0.1-0.6s-0.4-0.2-0.6-0.1c-0.9,0.4-1.9,0.8-2.8,1.3c-0.1,0-0.1,0.1-0.2,0.1
						c-0.2,0.1-0.2,0.2-0.3,0.4c-0.1,0.3,0.1,0.5,0.4,0.5c0.2,0,0.3,0,0.4-0.1c0,0,0.1,0,0.1-0.1c0.2-0.1,0.5-0.2,0.7-0.3
						c0.6-0.3,1.2-0.5,1.8-0.8c0.1-0.1,0.3-0.1,0.4-0.2c0.2-0.1,0.3-0.4,0.1-0.6l-0.1-0.1c-0.1-0.2-0.4-0.3-0.6-0.1
						C273.1,94.1,273,94.3,273.1,94.5z"/>
				</g>
			</g>
			<g>
				<polygon points="273.6,97.2 273.5,97.3 270.4,95.9 270.4,95.8 270.6,95.8 				"/>
				<g>
					<path class="st20" d="M273.2,97l-0.1,0.1c0.2,0,0.4-0.1,0.6-0.1c-0.9-0.4-1.8-0.8-2.7-1.2c-0.1-0.1-0.3-0.1-0.4-0.2
						c0.1,0.1,0.1,0.2,0.2,0.2v-0.1c-0.1,0.2-0.3,0.3-0.4,0.5c0.1,0,0.1,0,0.2,0c-0.1,0-0.1,0-0.2-0.1c0.9,0.4,1.8,0.8,2.6,1.2
						c0.1,0.1,0.3,0.1,0.4,0.2c0.2,0.1,0.4,0.1,0.6-0.1c0.1-0.2,0.1-0.5-0.1-0.6c-0.9-0.4-1.9-0.8-2.8-1.3c-0.1,0-0.1-0.1-0.2-0.1
						c-0.1-0.1-0.3-0.1-0.4-0.1c-0.2,0-0.5,0.3-0.4,0.5c0.1,0.1,0.1,0.3,0.2,0.4c0.1,0,0.1,0,0.2,0.1c0.2,0.1,0.5,0.2,0.7,0.3
						c0.6,0.3,1.2,0.5,1.8,0.8c0.1,0.1,0.3,0.1,0.4,0.2c0.2,0.1,0.4,0,0.6-0.1l0.1-0.1c0.1-0.2,0-0.5-0.1-0.6
						C273.6,96.7,273.4,96.8,273.2,97z"/>
				</g>
			</g>
			<g>
				<polygon points="264.9,100.3 264.8,100.2 268.3,98.4 268.5,98.4 268.5,98.5 				"/>
				<g>
					<path class="st20" d="M265.2,100l-0.1-0.1c0,0.2-0.1,0.4-0.1,0.6c1-0.5,2.1-1,3.1-1.6c0.1-0.1,0.3-0.1,0.4-0.2
						c-0.1,0-0.1,0-0.2,0.1c0.1,0,0.1,0,0.2,0c-0.1-0.2-0.3-0.3-0.4-0.5v0.1c0.1-0.1,0.1-0.2,0.2-0.2c-1.1,0.5-2.1,1.1-3.2,1.6
						c-0.2,0.1-0.3,0.2-0.5,0.2c-0.2,0.1-0.3,0.4-0.1,0.6c0.1,0.2,0.4,0.2,0.6,0.1c1.1-0.6,2.2-1.1,3.3-1.7c0.1,0,0.2-0.1,0.3-0.1
						c0.2-0.1,0.2-0.2,0.3-0.4c0.1-0.3-0.1-0.5-0.4-0.5c-0.1,0-0.3,0-0.4,0.1c-0.1,0-0.1,0.1-0.2,0.1c-0.3,0.1-0.5,0.3-0.8,0.4
						c-0.7,0.3-1.4,0.7-2.1,1c-0.2,0.1-0.3,0.2-0.5,0.2c-0.3,0.1-0.2,0.4-0.1,0.6l0.1,0.1c0.1,0.2,0.4,0.1,0.6,0
						C265.3,100.4,265.3,100.2,265.2,100z"/>
				</g>
			</g>
			<g>
				<polygon points="268.4,58.7 268.6,58.6 270.5,61.2 270.2,61.2 				"/>
				<g>
					<path class="st20" d="M268.7,59.1c0.1,0,0.1-0.1,0.2-0.1c-0.2,0-0.4-0.1-0.6-0.1c0.5,0.7,1.1,1.5,1.6,2.2
						c0.1,0.1,0.2,0.2,0.2,0.3c0.1-0.2,0.2-0.4,0.3-0.6c-0.1,0-0.2,0-0.2,0c0.1,0.1,0.2,0.1,0.3,0.2c-0.5-0.7-1.1-1.4-1.6-2.1
						c-0.1-0.1-0.1-0.2-0.2-0.3c-0.1-0.2-0.4-0.3-0.6-0.1c-0.2,0.1-0.3,0.4-0.1,0.6c0.6,0.8,1.1,1.5,1.7,2.3l0.1,0.1
						c0.1,0.1,0.2,0.2,0.4,0.2c0.1,0,0.1,0,0.2,0c0.3,0,0.5-0.4,0.3-0.6c-0.5-0.7-1.1-1.5-1.6-2.2c-0.1-0.1-0.2-0.2-0.2-0.3
						c-0.1-0.2-0.3-0.2-0.6-0.1c-0.1,0-0.1,0.1-0.2,0.1c-0.2,0.1-0.3,0.4-0.1,0.6C268.2,59.1,268.4,59.2,268.7,59.1z"/>
				</g>
			</g>
		</g>
		<g>
			<g>
				<polygon points="254.5,98.6 254.5,98.4 258.3,98.4 258.3,98.6 				"/>
				<g>
					<path class="st20" d="M254.9,98.6c0-0.1,0-0.1,0-0.2c-0.1,0.1-0.3,0.3-0.4,0.4c1.1,0,2.2,0,3.4,0c0.2,0,0.3,0,0.5,0
						c-0.1-0.1-0.3-0.3-0.4-0.4c0,0.1,0,0.1,0,0.2c0.1-0.1,0.3-0.3,0.4-0.4c-1.1,0-2.2,0-3.4,0c-0.2,0-0.3,0-0.5,0
						c-0.5,0-0.5,0.8,0,0.8c1.1,0,2.2,0,3.4,0c0.2,0,0.3,0,0.5,0s0.4-0.2,0.4-0.4c0-0.1,0-0.1,0-0.2c0-0.2-0.2-0.4-0.4-0.4
						c-1.1,0-2.2,0-3.4,0c-0.2,0-0.3,0-0.5,0s-0.4,0.2-0.4,0.4c0,0.1,0,0.1,0,0.2C254.1,99.1,254.9,99.1,254.9,98.6z"/>
				</g>
			</g>
			<g>
				<polygon points="254.5,98.1 254.5,98 258.3,98 258.3,98.1 				"/>
				<g>
					<path class="st20" d="M254.9,98.1c0-0.1,0-0.1,0-0.2c-0.1,0.1-0.3,0.3-0.4,0.4c1.1,0,2.2,0,3.4,0c0.2,0,0.3,0,0.5,0
						c-0.1-0.1-0.3-0.3-0.4-0.4c0,0.1,0,0.1,0,0.2c0.1-0.1,0.3-0.3,0.4-0.4c-1.1,0-2.2,0-3.4,0c-0.2,0-0.3,0-0.5,0
						c-0.5,0-0.5,0.8,0,0.8c1.1,0,2.2,0,3.4,0c0.2,0,0.3,0,0.5,0s0.4-0.2,0.4-0.4c0-0.1,0-0.1,0-0.2c0-0.2-0.2-0.4-0.4-0.4
						c-1.1,0-2.2,0-3.4,0c-0.2,0-0.3,0-0.5,0s-0.4,0.2-0.4,0.4c0,0.1,0,0.1,0,0.2C254.1,98.6,254.9,98.6,254.9,98.1z"/>
				</g>
			</g>
			<g>
				<polygon points="260.1,100.7 259.9,100.8 258,98.3 258.3,98.3 				"/>
				<g>
					<path class="st20" d="M259.9,100.3c-0.1,0-0.1,0.1-0.2,0.1c0.2,0,0.4,0.1,0.6,0.1c-0.5-0.7-1.1-1.5-1.6-2.2
						c-0.1-0.1-0.2-0.2-0.2-0.3c-0.1,0.2-0.2,0.4-0.3,0.6c0.1,0,0.2,0,0.2,0c-0.1-0.1-0.2-0.1-0.3-0.2c0.5,0.7,1,1.4,1.6,2.1
						c0.1,0.1,0.1,0.2,0.2,0.3c0.1,0.2,0.4,0.3,0.6,0.1c0.2-0.1,0.3-0.4,0.1-0.6c-0.6-0.8-1.1-1.5-1.7-2.3l-0.1-0.1
						c-0.2-0.2-0.4-0.2-0.6-0.2c-0.3,0-0.5,0.4-0.3,0.6c0.5,0.7,1.1,1.5,1.6,2.2c0.1,0.1,0.2,0.2,0.2,0.3c0.1,0.2,0.4,0.3,0.6,0.1
						c0.1,0,0.1-0.1,0.2-0.1c0.2-0.1,0.3-0.4,0.1-0.6C260.3,100.3,260.1,100.2,259.9,100.3z"/>
				</g>
			</g>
			<g>
				<polygon points="259.9,95.8 260.1,95.8 258.3,98.3 258,98.3 				"/>
				<g>
					<path class="st20" d="M259.9,96.2c0.1,0,0.2,0,0.2,0c-0.1-0.2-0.2-0.4-0.3-0.6c-0.5,0.7-1.1,1.4-1.6,2.2
						c-0.1,0.1-0.2,0.2-0.2,0.3c0.1-0.1,0.2-0.1,0.3-0.2c-0.1,0-0.2,0-0.2,0c0.1,0.2,0.2,0.4,0.3,0.6c0.5-0.7,1.1-1.4,1.6-2.2
						c0.1-0.1,0.2-0.2,0.2-0.3c0.1-0.2,0-0.5-0.1-0.6c-0.2-0.1-0.4,0-0.6,0.1c-0.5,0.7-1.1,1.4-1.6,2.2c-0.1,0.1-0.2,0.2-0.2,0.3
						c-0.2,0.3,0.1,0.6,0.3,0.6c0.1,0,0.1,0,0.2,0c0.2,0,0.3-0.1,0.4-0.2c0,0,0-0.1,0.1-0.1c0.1-0.2,0.3-0.4,0.4-0.5
						c0.4-0.5,0.7-1,1.1-1.5c0.1-0.1,0.2-0.2,0.3-0.4c0.2-0.3-0.1-0.6-0.3-0.6c-0.1,0-0.2,0-0.2,0c-0.2,0-0.4,0.2-0.4,0.4
						C259.5,96,259.7,96.2,259.9,96.2z"/>
				</g>
			</g>
			<g>
				<polygon points="258,93.3 258.3,93.3 260.1,95.8 259.9,95.8 				"/>
				<g>
					<path class="st20" d="M258,93.7c0.1,0,0.2,0,0.2,0c-0.1-0.1-0.2-0.1-0.3-0.2c0.5,0.7,1.1,1.4,1.6,2.2c0.1,0.1,0.2,0.2,0.2,0.3
						c0.1-0.2,0.2-0.4,0.3-0.6c-0.1,0-0.2,0-0.2,0c0.1,0.1,0.2,0.1,0.3,0.2c-0.5-0.7-1.1-1.4-1.6-2.2c-0.1-0.1-0.2-0.2-0.2-0.3
						c-0.1-0.2-0.4-0.3-0.6-0.1c-0.2,0.1-0.3,0.4-0.1,0.6c0.6,0.8,1.2,1.6,1.7,2.3l0.1,0.1c0.1,0.1,0.2,0.2,0.4,0.2
						c0.1,0,0.1,0,0.2,0c0.3,0,0.5-0.4,0.3-0.6c-0.6-0.8-1.2-1.6-1.7-2.3l-0.1-0.1c-0.1-0.1-0.2-0.2-0.4-0.2c-0.1,0-0.1,0-0.2,0
						c-0.2,0-0.4,0.2-0.4,0.4C257.7,93.5,257.8,93.7,258,93.7z"/>
				</g>
			</g>
			<g>
				<polygon points="259.9,90.9 260.1,90.9 258.3,93.3 258,93.3 				"/>
				<g>
					<path class="st20" d="M259.9,91.3c0.1,0,0.2,0,0.2,0c-0.1-0.2-0.2-0.4-0.3-0.6c-0.5,0.7-1.1,1.4-1.6,2.2
						c-0.1,0.1-0.2,0.2-0.2,0.3c0.1-0.1,0.2-0.1,0.3-0.2c-0.1,0-0.2,0-0.2,0c0.1,0.2,0.2,0.4,0.3,0.6c0.5-0.7,1.1-1.4,1.6-2.2
						c0.1-0.1,0.2-0.2,0.2-0.3c0.1-0.2,0-0.5-0.1-0.6c-0.2-0.1-0.4,0-0.6,0.1c-0.5,0.7-1.1,1.4-1.6,2.2c-0.1,0.1-0.2,0.2-0.2,0.3
						c-0.2,0.3,0.1,0.6,0.3,0.6c0.1,0,0.1,0,0.2,0c0.2,0,0.3-0.1,0.4-0.2c0,0,0-0.1,0.1-0.1c0.1-0.2,0.3-0.4,0.4-0.5
						c0.4-0.5,0.7-1,1.1-1.5c0.1-0.1,0.2-0.2,0.3-0.4c0.2-0.3-0.1-0.6-0.3-0.6c-0.1,0-0.2,0-0.2,0c-0.2,0-0.4,0.2-0.4,0.4
						C259.5,91.1,259.7,91.3,259.9,91.3z"/>
				</g>
			</g>
			<g>
				<polygon points="260.1,90.9 259.9,90.9 258,88.4 258.3,88.4 				"/>
				<g>
					<path class="st20" d="M260.1,90.5c-0.1,0-0.2,0-0.2,0c0.1,0.1,0.2,0.1,0.3,0.2c-0.5-0.7-1.1-1.4-1.6-2.2
						c-0.1-0.1-0.2-0.2-0.2-0.3c-0.1,0.2-0.2,0.4-0.3,0.6c0.1,0,0.2,0,0.2,0c-0.1-0.1-0.2-0.1-0.3-0.2c0.5,0.7,1.1,1.4,1.6,2.2
						c0.1,0.1,0.2,0.2,0.2,0.3c0.1,0.2,0.4,0.3,0.6,0.1c0.2-0.1,0.3-0.4,0.1-0.6c-0.6-0.8-1.2-1.6-1.7-2.3l-0.1-0.1
						c-0.1-0.1-0.2-0.2-0.4-0.2c-0.1,0-0.1,0-0.2,0c-0.3,0-0.5,0.4-0.3,0.6c0.6,0.8,1.2,1.6,1.7,2.3l0.1,0.1
						c0.1,0.1,0.2,0.2,0.4,0.2c0.1,0,0.1,0,0.2,0c0.2,0,0.4-0.2,0.4-0.4C260.5,90.6,260.3,90.5,260.1,90.5z"/>
				</g>
			</g>
			<g>
				<polygon points="258.3,88.4 258,88.4 259.9,85.9 260.1,85.9 				"/>
				<g>
					<path class="st20" d="M258.3,88c-0.1,0-0.2,0-0.2,0c0.1,0.2,0.2,0.4,0.3,0.6c0.5-0.7,1.1-1.4,1.6-2.2c0.1-0.1,0.2-0.2,0.2-0.3
						c-0.1,0.1-0.2,0.1-0.3,0.2c0.1,0,0.2,0,0.2,0c-0.1-0.2-0.2-0.4-0.3-0.6c-0.5,0.7-1.1,1.4-1.6,2.2c-0.1,0.1-0.2,0.2-0.2,0.3
						c-0.1,0.2,0,0.5,0.1,0.6c0.2,0.1,0.4,0,0.6-0.1c0.5-0.7,1.1-1.4,1.6-2.2c0.1-0.1,0.2-0.2,0.2-0.3c0.2-0.3-0.1-0.6-0.3-0.6
						c-0.1,0-0.1,0-0.2,0c-0.2,0-0.3,0.1-0.4,0.2c0,0,0,0.1-0.1,0.1c-0.1,0.2-0.3,0.4-0.4,0.5c-0.4,0.5-0.7,1-1.1,1.5
						c-0.1,0.1-0.2,0.2-0.3,0.4c-0.2,0.3,0.1,0.6,0.3,0.6c0.1,0,0.2,0,0.2,0c0.2,0,0.4-0.2,0.4-0.4C258.7,88.2,258.5,88,258.3,88z"
						/>
				</g>
			</g>
			<g>
				<polygon points="260.1,85.9 259.9,85.9 258,83.4 258.3,83.4 				"/>
				<g>
					<path class="st20" d="M260.1,85.5c-0.1,0-0.2,0-0.2,0c0.1,0.1,0.2,0.1,0.3,0.2c-0.5-0.7-1.1-1.4-1.6-2.2
						c-0.1-0.1-0.2-0.2-0.2-0.3c-0.1,0.2-0.2,0.4-0.3,0.6c0.1,0,0.2,0,0.2,0c-0.1-0.1-0.2-0.1-0.3-0.2c0.5,0.7,1.1,1.4,1.6,2.2
						c0.1,0.1,0.2,0.2,0.2,0.3c0.1,0.2,0.4,0.3,0.6,0.1c0.2-0.1,0.3-0.4,0.1-0.6c-0.6-0.8-1.2-1.6-1.7-2.3l-0.1-0.1
						c-0.1-0.1-0.2-0.2-0.4-0.2c-0.1,0-0.1,0-0.2,0c-0.3,0-0.5,0.4-0.3,0.6c0.6,0.8,1.2,1.6,1.7,2.3l0.1,0.1
						c0.1,0.1,0.2,0.2,0.4,0.2c0.1,0,0.1,0,0.2,0c0.2,0,0.4-0.2,0.4-0.4C260.5,85.7,260.3,85.5,260.1,85.5z"/>
				</g>
			</g>
			<g>
				<polygon points="258.3,83.4 258,83.4 259.9,81 260.1,81 				"/>
				<g>
					<path class="st20" d="M258.3,83c-0.1,0-0.2,0-0.2,0c0.1,0.2,0.2,0.4,0.3,0.6c0.5-0.7,1.1-1.4,1.6-2.2c0.1-0.1,0.2-0.2,0.2-0.3
						c-0.1,0.1-0.2,0.1-0.3,0.2c0.1,0,0.2,0,0.2,0c-0.1-0.2-0.2-0.4-0.3-0.6c-0.5,0.7-1.1,1.4-1.6,2.2c-0.1,0.1-0.2,0.2-0.2,0.3
						c-0.1,0.2,0,0.5,0.1,0.6c0.2,0.1,0.4,0,0.6-0.1c0.5-0.7,1.1-1.4,1.6-2.2c0.1-0.1,0.2-0.2,0.2-0.3c0.2-0.3-0.1-0.6-0.3-0.6
						c-0.1,0-0.1,0-0.2,0c-0.2,0-0.3,0.1-0.4,0.2c0,0,0,0.1-0.1,0.1c-0.1,0.2-0.3,0.4-0.4,0.5c-0.4,0.5-0.7,1-1.1,1.5
						c-0.1,0.1-0.2,0.2-0.3,0.4c-0.2,0.3,0.1,0.6,0.3,0.6c0.1,0,0.2,0,0.2,0c0.2,0,0.4-0.2,0.4-0.4C258.7,83.2,258.5,83,258.3,83z"
						/>
				</g>
			</g>
			<g>
				<polygon points="260.1,81 259.9,81 258,78.5 258.3,78.5 				"/>
				<g>
					<path class="st20" d="M260.1,80.5c-0.1,0-0.2,0-0.2,0c0.1,0.1,0.2,0.1,0.3,0.2c-0.5-0.7-1.1-1.4-1.6-2.2
						c-0.1-0.1-0.2-0.2-0.2-0.3c-0.1,0.2-0.2,0.4-0.3,0.6c0.1,0,0.2,0,0.2,0c-0.1-0.1-0.2-0.1-0.3-0.2c0.5,0.7,1.1,1.4,1.6,2.2
						c0.1,0.1,0.2,0.2,0.2,0.3c0.1,0.2,0.4,0.3,0.6,0.1c0.2-0.1,0.3-0.4,0.1-0.6c-0.6-0.8-1.2-1.6-1.7-2.3l-0.1-0.1
						c-0.1-0.1-0.2-0.2-0.4-0.2c-0.1,0-0.1,0-0.2,0c-0.3,0-0.5,0.4-0.3,0.6c0.6,0.8,1.2,1.6,1.7,2.3l0.1,0.1
						c0.1,0.1,0.2,0.2,0.4,0.2c0.1,0,0.1,0,0.2,0c0.2,0,0.4-0.2,0.4-0.4C260.5,80.7,260.3,80.5,260.1,80.5z"/>
				</g>
			</g>
			<g>
				<polygon points="258.3,78.5 258,78.5 259.9,76 260.1,76 				"/>
				<g>
					<path class="st20" d="M258.3,78.1c-0.1,0-0.2,0-0.2,0c0.1,0.2,0.2,0.4,0.3,0.6c0.5-0.7,1.1-1.4,1.6-2.2
						c0.1-0.1,0.2-0.2,0.2-0.3c-0.1,0.1-0.2,0.1-0.3,0.2c0.1,0,0.2,0,0.2,0c-0.1-0.2-0.2-0.4-0.3-0.6
						C259.3,76.5,258.7,77.2,258.3,78.1c-0.2,0-0.3,0.1-0.3,0.2c-0.1,0.2,0,0.5,0.1,0.6c0.2,0.1,0.4,0,0.6-0.1
						c0.5-0.7,1.1-1.4,1.6-2.2c0.1-0.1,0.2-0.2,0.2-0.3c0.2-0.3-0.1-0.6-0.3-0.6c-0.1,0-0.1,0-0.2,0c-0.2,0-0.3,0.1-0.4,0.2
						c0,0,0,0.1-0.1,0.1c-0.1,0.2-0.3,0.4-0.4,0.5c-0.4,0.5-0.7,1-1.1,1.5c-0.1,0.1-0.2,0.2-0.3,0.4c-0.2,0.3,0.1,0.6,0.3,0.6
						c0.1,0,0.2,0,0.2,0c0.2,0,0.4-0.2,0.4-0.4C258.7,78.3,258.5,78.1,258.3,78.1z"/>
				</g>
			</g>
			<g>
				<polygon points="260.1,76 259.9,76 258,73.5 258.3,73.5 				"/>
				<g>
					<path class="st20" d="M260.1,75.6c-0.1,0-0.2,0-0.2,0c0.1,0.1,0.2,0.1,0.3,0.2c-0.5-0.7-1.1-1.4-1.6-2.2
						c-0.1-0.1-0.2-0.2-0.2-0.3c-0.1,0.2-0.2,0.4-0.3,0.6c0.1,0,0.2,0,0.2,0c-0.1-0.1-0.2-0.1-0.3-0.2c0.5,0.7,1.1,1.4,1.6,2.2
						c0.1,0.1,0.2,0.2,0.2,0.3c0.1,0.2,0.4,0.3,0.6,0.1c0.2-0.1,0.3-0.4,0.1-0.6c-0.6-0.8-1.2-1.6-1.7-2.3l-0.1-0.1
						c-0.1-0.1-0.2-0.2-0.4-0.2c-0.1,0-0.1,0-0.2,0c-0.3,0-0.5,0.4-0.3,0.6c0.6,0.8,1.2,1.6,1.7,2.3l0.1,0.1
						c0.1,0.1,0.2,0.2,0.4,0.2c0.1,0,0.1,0,0.2,0c0.2,0,0.4-0.2,0.4-0.4C260.5,75.8,260.3,75.6,260.1,75.6z"/>
				</g>
			</g>
			<g>
				<polygon points="258.3,73.5 258,73.5 259.9,71.1 260.1,71.1 				"/>
				<g>
					<path class="st20" d="M258.3,73.1c-0.1,0-0.2,0-0.2,0c0.1,0.2,0.2,0.4,0.3,0.6c0.5-0.7,1.1-1.4,1.6-2.2
						c0.1-0.1,0.2-0.2,0.2-0.3c-0.1,0.1-0.2,0.1-0.3,0.2c0.1,0,0.2,0,0.2,0c-0.1-0.2-0.2-0.4-0.3-0.6
						C259.3,71.5,258.7,72.2,258.3,73.1c-0.2,0-0.3,0.1-0.3,0.2c-0.1,0.2,0,0.5,0.1,0.6c0.2,0.1,0.4,0,0.6-0.1
						c0.5-0.7,1.1-1.4,1.6-2.2c0.1-0.1,0.2-0.2,0.2-0.3c0.2-0.3-0.1-0.6-0.3-0.6c-0.1,0-0.1,0-0.2,0c-0.2,0-0.3,0.1-0.4,0.2
						c0,0,0,0.1-0.1,0.1c-0.1,0.2-0.3,0.4-0.4,0.5c-0.4,0.5-0.7,1-1.1,1.5c-0.1,0.1-0.2,0.2-0.3,0.4c-0.2,0.3,0.1,0.6,0.3,0.6
						c0.1,0,0.2,0,0.2,0c0.2,0,0.4-0.2,0.4-0.4C258.7,73.3,258.5,73.1,258.3,73.1z"/>
				</g>
			</g>
			<g>
				<polygon points="260.1,71.1 259.9,71.1 258,68.6 258.3,68.6 				"/>
				<g>
					<path class="st20" d="M260.1,70.6c-0.1,0-0.2,0-0.2,0c0.1,0.1,0.2,0.1,0.3,0.2c-0.5-0.7-1.1-1.4-1.6-2.2
						c-0.1-0.1-0.2-0.2-0.2-0.3c-0.1,0.2-0.2,0.4-0.3,0.6c0.1,0,0.2,0,0.2,0c-0.1-0.1-0.2-0.1-0.3-0.2c0.5,0.7,1.1,1.4,1.6,2.2
						c0.1,0.1,0.2,0.2,0.2,0.3c0.1,0.2,0.4,0.3,0.6,0.1c0.2-0.1,0.3-0.4,0.1-0.6c-0.6-0.8-1.2-1.6-1.7-2.3l-0.1-0.1
						c-0.1-0.1-0.2-0.2-0.4-0.2c-0.1,0-0.1,0-0.2,0c-0.3,0-0.5,0.4-0.3,0.6c0.6,0.8,1.2,1.6,1.7,2.3l0.1,0.1
						c0.1,0.1,0.2,0.2,0.4,0.2c0.1,0,0.1,0,0.2,0c0.2,0,0.4-0.2,0.4-0.4C260.5,70.8,260.3,70.6,260.1,70.6z"/>
				</g>
			</g>
			<g>
				<polygon points="258.3,68.6 258,68.6 259.9,66.1 260.1,66.1 				"/>
				<g>
					<path class="st20" d="M258.3,68.2c-0.1,0-0.2,0-0.2,0c0.1,0.2,0.2,0.4,0.3,0.6c0.5-0.7,1.1-1.4,1.6-2.2
						c0.1-0.1,0.2-0.2,0.2-0.3c-0.1,0.1-0.2,0.1-0.3,0.2c0.1,0,0.2,0,0.2,0c-0.1-0.2-0.2-0.4-0.3-0.6
						C259.3,66.6,258.7,67.3,258.3,68.2c-0.2,0-0.3,0.1-0.3,0.2c-0.1,0.2,0,0.5,0.1,0.6c0.2,0.1,0.4,0,0.6-0.1
						c0.5-0.7,1.1-1.4,1.6-2.2c0.1-0.1,0.2-0.2,0.2-0.3c0.2-0.3-0.1-0.6-0.3-0.6c-0.1,0-0.1,0-0.2,0c-0.2,0-0.3,0.1-0.4,0.2
						c0,0,0,0.1-0.1,0.1c-0.1,0.2-0.3,0.4-0.4,0.5c-0.4,0.5-0.7,1-1.1,1.5c-0.1,0.1-0.2,0.2-0.3,0.4c-0.2,0.3,0.1,0.6,0.3,0.6
						c0.1,0,0.2,0,0.2,0c0.2,0,0.4-0.2,0.4-0.4C258.7,68.4,258.5,68.2,258.3,68.2z"/>
				</g>
			</g>
			<g>
				<polygon points="260.1,66.1 259.9,66.1 258.1,63.7 258.3,63.6 				"/>
				<g>
					<path class="st20" d="M260.1,65.7c-0.1,0-0.2,0-0.2,0c0.1,0.1,0.2,0.1,0.3,0.2c-0.5-0.7-1.1-1.4-1.6-2.1
						c-0.1-0.1-0.1-0.2-0.2-0.3c0,0.2-0.1,0.4-0.1,0.6c0.1,0,0.1-0.1,0.2-0.1c-0.2,0-0.4-0.1-0.6-0.1c0.5,0.7,1.1,1.5,1.6,2.2
						c0.1,0.1,0.2,0.2,0.2,0.3c0.1,0.2,0.4,0.3,0.6,0.1c0.2-0.1,0.3-0.4,0.1-0.6c-0.5-0.7-1.1-1.5-1.6-2.2c-0.1-0.1-0.2-0.2-0.2-0.3
						c-0.1-0.2-0.3-0.2-0.6-0.1c-0.1,0-0.1,0.1-0.2,0.1c-0.2,0.1-0.3,0.4-0.1,0.6c0.6,0.8,1.1,1.5,1.7,2.3l0.1,0.1
						c0.1,0.1,0.2,0.2,0.4,0.2c0.1,0,0.1,0,0.2,0c0.2,0,0.4-0.2,0.4-0.4C260.5,65.9,260.3,65.7,260.1,65.7z"/>
				</g>
			</g>
		</g>
		<g>
			<g>
				<path class="st21" d="M263.1,106.8c-3.3,7.6-18,7.1-38.8,7.1c-23.7,0-34.3-0.9-34.3-12.2"/>
				<g>
					<polygon points="267.1,108.2 258.8,106.5 263.8,103.2 					"/>
				</g>
			</g>
		</g>
	</g>
	<g>
		<rect x="163.8" y="148.6" class="st19" width="11.8" height="16.2"/>
		<text transform="matrix(1 0 0 1 166.0126 163.1961)" class="st0 st22">?</text>
	</g>
</g>
<g id="Layer_4">
	<g>
		<g>
			<path class="st2" d="M261.1,140.7c0,2.6-2.1,4.7-4.7,4.7s-4.7-2.1-4.7-4.7s2.1-4.7,4.7-4.7C259,136,261.1,138.1,261.1,140.7z"/>
			<g>
				<path class="st3" d="M254.6,145.1c0,4.5-3.3,4.5-3.3,9s3.3,4.5,3.3,9s-3.3,4.5-3.3,9s3.3,4.5,3.3,9s-3.3,4.5-3.3,9"/>
			</g>
			<g>
				<path class="st3" d="M258.6,145.5c0,4.5-3.3,4.5-3.3,9s3.3,4.5,3.3,9s-3.3,4.5-3.3,9s3.3,4.5,3.3,9s-3.3,4.5-3.3,9"/>
			</g>
			<line class="st4" x1="248.3" y1="167.1" x2="262.1" y2="167.4"/>
			<path class="st2" d="M258.3,194.9c0,2.6-2.1,4.7-4.7,4.7s-4.7-2.1-4.7-4.7c0-2.6,2.1-4.7,4.7-4.7S258.3,192.3,258.3,194.9z"/>
		</g>
		<g>
			<path class="st2" d="M251.1,140.7c0,2.6-2.1,4.7-4.7,4.7c-2.6,0-4.7-2.1-4.7-4.7s2.1-4.7,4.7-4.7S251.1,138.1,251.1,140.7z"/>
			<g>
				<path class="st3" d="M244.6,145.1c0,4.5-3.3,4.5-3.3,9s3.3,4.5,3.3,9s-3.3,4.5-3.3,9s3.3,4.5,3.3,9s-3.3,4.5-3.3,9"/>
			</g>
			<g>
				<path class="st3" d="M248.5,145.5c0,4.5-3.3,4.5-3.3,9s3.3,4.5,3.3,9s-3.3,4.5-3.3,9s3.3,4.5,3.3,9s-3.3,4.5-3.3,9"/>
			</g>
			<line class="st4" x1="238.3" y1="167.1" x2="252.1" y2="167.4"/>
			<path class="st2" d="M248.3,194.9c0,2.6-2.1,4.7-4.7,4.7c-2.6,0-4.7-2.1-4.7-4.7c0-2.6,2.1-4.7,4.7-4.7S248.3,192.3,248.3,194.9z
				"/>
		</g>
		<g>
			<path class="st2" d="M241,140.7c0,2.6-2.1,4.7-4.7,4.7c-2.6,0-4.7-2.1-4.7-4.7s2.1-4.7,4.7-4.7S241,138.1,241,140.7z"/>
			<g>
				<path class="st3" d="M234.6,145.1c0,4.5-3.3,4.5-3.3,9s3.3,4.5,3.3,9s-3.3,4.5-3.3,9s3.3,4.5,3.3,9s-3.3,4.5-3.3,9"/>
			</g>
			<g>
				<path class="st3" d="M238.5,145.5c0,4.5-3.3,4.5-3.3,9s3.3,4.5,3.3,9s-3.3,4.5-3.3,9s3.3,4.5,3.3,9s-3.3,4.5-3.3,9"/>
			</g>
			<line class="st4" x1="228.3" y1="167.1" x2="242.1" y2="167.4"/>
			<path class="st2" d="M238.3,194.9c0,2.6-2.1,4.7-4.7,4.7c-2.6,0-4.7-2.1-4.7-4.7c0-2.6,2.1-4.7,4.7-4.7S238.3,192.3,238.3,194.9z
				"/>
		</g>
		<g>
			<path class="st2" d="M231,140.7c0,2.6-2.1,4.7-4.7,4.7c-2.6,0-4.7-2.1-4.7-4.7s2.1-4.7,4.7-4.7S231,138.1,231,140.7z"/>
			<g>
				<path class="st3" d="M224.5,145.1c0,4.5-3.3,4.5-3.3,9s3.3,4.5,3.3,9s-3.3,4.5-3.3,9s3.3,4.5,3.3,9s-3.3,4.5-3.3,9"/>
			</g>
			<g>
				<path class="st3" d="M228.5,145.5c0,4.5-3.3,4.5-3.3,9s3.3,4.5,3.3,9s-3.3,4.5-3.3,9s3.3,4.5,3.3,9s-3.3,4.5-3.3,9"/>
			</g>
			<line class="st4" x1="218.2" y1="167.1" x2="232.1" y2="167.4"/>
			<path class="st2" d="M228.2,194.9c0,2.6-2.1,4.7-4.7,4.7s-4.7-2.1-4.7-4.7c0-2.6,2.1-4.7,4.7-4.7
				C226.2,190.2,228.2,192.3,228.2,194.9z"/>
		</g>
		<g>
			<path class="st2" d="M221,140.7c0,2.6-2.1,4.7-4.7,4.7c-2.6,0-4.7-2.1-4.7-4.7s2.1-4.7,4.7-4.7S221,138.1,221,140.7z"/>
			<g>
				<path class="st3" d="M214.5,145.1c0,4.5-3.3,4.5-3.3,9s3.3,4.5,3.3,9s-3.3,4.5-3.3,9s3.3,4.5,3.3,9s-3.3,4.5-3.3,9"/>
			</g>
			<g>
				<path class="st3" d="M218.5,145.5c0,4.5-3.3,4.5-3.3,9s3.3,4.5,3.3,9s-3.3,4.5-3.3,9s3.3,4.5,3.3,9s-3.3,4.5-3.3,9"/>
			</g>
			<line class="st4" x1="208.2" y1="167.1" x2="222" y2="167.4"/>
			<path class="st2" d="M218.2,194.9c0,2.6-2.1,4.7-4.7,4.7c-2.6,0-4.7-2.1-4.7-4.7c0-2.6,2.1-4.7,4.7-4.7
				C216.1,190.2,218.2,192.3,218.2,194.9z"/>
		</g>
		<g>
			<path class="st2" d="M211,140.7c0,2.6-2.1,4.7-4.7,4.7c-2.6,0-4.7-2.1-4.7-4.7s2.1-4.7,4.7-4.7S211,138.1,211,140.7z"/>
			<g>
				<path class="st3" d="M204.5,145.1c0,4.5-3.3,4.5-3.3,9s3.3,4.5,3.3,9s-3.3,4.5-3.3,9s3.3,4.5,3.3,9s-3.3,4.5-3.3,9"/>
			</g>
			<g>
				<path class="st3" d="M208.4,145.5c0,4.5-3.3,4.5-3.3,9s3.3,4.5,3.3,9s-3.3,4.5-3.3,9s3.3,4.5,3.3,9s-3.3,4.5-3.3,9"/>
			</g>
			<line class="st4" x1="198.2" y1="167.1" x2="212" y2="167.4"/>
			<path class="st2" d="M208.2,194.9c0,2.6-2.1,4.7-4.7,4.7c-2.6,0-4.7-2.1-4.7-4.7c0-2.6,2.1-4.7,4.7-4.7
				C206.1,190.2,208.2,192.3,208.2,194.9z"/>
		</g>
		<g>
			<path class="st2" d="M200.9,140.7c0,2.6-2.1,4.7-4.7,4.7s-4.7-2.1-4.7-4.7s2.1-4.7,4.7-4.7C198.8,136,200.9,138.1,200.9,140.7z"
				/>
			<g>
				<path class="st3" d="M194.5,145.1c0,4.5-3.3,4.5-3.3,9s3.3,4.5,3.3,9s-3.3,4.5-3.3,9s3.3,4.5,3.3,9s-3.3,4.5-3.3,9"/>
			</g>
			<g>
				<path class="st3" d="M198.4,145.5c0,4.5-3.3,4.5-3.3,9s3.3,4.5,3.3,9s-3.3,4.5-3.3,9s3.3,4.5,3.3,9s-3.3,4.5-3.3,9"/>
			</g>
			<line class="st4" x1="188.2" y1="167.1" x2="202" y2="167.4"/>
			<path class="st2" d="M198.2,194.9c0,2.6-2.1,4.7-4.7,4.7c-2.6,0-4.7-2.1-4.7-4.7c0-2.6,2.1-4.7,4.7-4.7
				C196.1,190.2,198.2,192.3,198.2,194.9z"/>
		</g>
		<g>
			<g>
				<g>
					<path class="st5" d="M205.8,200.3c0,2-0.2,4-0.5,6c-0.2,0.9-0.3,1.9-0.6,2.8c-0.2,1-0.6,1.5-1.5,1.9c-1.3,0.6-2.4,1.3-3.3,2.4
						c-0.9,1.2-1.3,2.6-1.3,4c0,0.8,1.2,0.8,1.2,0c0-1.6,0.6-3.1,1.8-4.2c1.1-1,2.7-1.2,3.6-2.4c0.4-0.6,0.6-1.3,0.7-2
						c0.2-0.9,0.4-1.9,0.5-2.8c0.3-1.9,0.5-3.9,0.5-5.8C207,199.6,205.8,199.6,205.8,200.3L205.8,200.3z"/>
				</g>
			</g>
			<g>
				<path class="st6" d="M193,132.4l8.4,68.3v-0.1c0.2,1.6,2.9,2.5,6,2.1s5.5-2,5.3-3.5v0.1l-8.4-68.3"/>
				
					<ellipse transform="matrix(0.9925 -0.1219 0.1219 0.9925 -14.5746 25.1911)" class="st7" cx="198.6" cy="131.7" rx="5.7" ry="2.8"/>
			</g>
			<g>
				<g>
					<path class="st5" d="M223.5,201.7c0,0.9,0.1,1.9,0.1,2.8c0,0.7-0.2,1.3-0.9,1.5c-1.1,0.5-2.5,0.3-3.6,0.1
						c-1.2-0.2-2.4-0.7-3.3-1.5c-0.9-0.8-1.6-1.8-1.6-3.1c0-0.8-1.2-0.8-1.2,0c0,2.9,2.6,4.9,5.2,5.6c2,0.5,5.8,0.9,6.4-1.8
						c0.3-1.2,0.1-2.5,0.1-3.7C224.7,201,223.5,200.9,223.5,201.7L223.5,201.7z"/>
				</g>
			</g>
			<g>
				<path class="st8" d="M212.8,131.2l-3.6,68.7v-0.1c-0.1,1.6,2.4,3,5.5,3.1c3.1,0.2,5.8-1,5.8-2.5v0.1l3.6-68.7"/>
				
					<ellipse transform="matrix(5.233904e-02 -0.9986 0.9986 5.233904e-02 75.5439 342.8716)" class="st9" cx="218.4" cy="131.6" rx="2.8" ry="5.7"/>
			</g>
			<g>
				<polygon class="st10" points="219.7,151.6 224,153.5 227.7,150.6 227.1,146 222.8,144.2 219.1,147 				"/>
				<line class="st11" x1="224" y1="156.9" x2="223.6" y2="153.3"/>
				<line class="st11" x1="224.9" y1="156.8" x2="224.5" y2="153.1"/>
				<line class="st11" x1="226.8" y1="150.3" x2="226.4" y2="146.7"/>
				<text transform="matrix(0.3907 -0.9205 0.9205 0.3907 225.1051 159.241)" class="st12 st13 st14">O</text>
				<line class="st11" x1="222.8" y1="144.2" x2="219.4" y2="142.7"/>
				<line class="st11" x1="221" y1="130.2" x2="217.6" y2="128.8"/>
				<polygon class="st10" points="221.1,130.2 225.4,132.1 228.5,128.5 226,124.5 221.5,125.6 				"/>
				<polygon class="st10" points="222.8,144.2 227.1,146 230.9,143.2 230.3,138.5 226,136.7 222.3,139.5 				"/>
				<polygon class="st10" points="217.9,137.7 222.2,139.5 226,136.7 225.4,132.1 221.1,130.2 217.3,133 				"/>
				<line class="st11" x1="221.6" y1="125.7" x2="218.9" y2="123.3"/>
				<line class="st11" x1="215.2" y1="123.8" x2="218.3" y2="122.9"/>
				<line class="st11" x1="215.4" y1="124.3" x2="218.9" y2="123.4"/>
				<text transform="matrix(0.3907 -0.9205 0.9205 0.3907 214.4809 125.5417)" class="st12 st13 st14">O</text>
				<line class="st11" x1="219.8" y1="119.8" x2="218.9" y2="123.3"/>
			</g>
			<g>
				<g>
					<path class="st5" d="M199.3,131.7c0.1-1.6,1.5-2.6,2.8-3.3c2-1,4.3-1.3,6.5-1.3s4.4,0.3,6.4,1.3c1.3,0.6,2.9,1.7,2.9,3.4
						c0,0.9,1.4,0.9,1.4,0c-0.2-4.8-7-6-10.7-6c-3.6,0-10.5,1.3-10.7,6C197.9,132.5,199.3,132.5,199.3,131.7L199.3,131.7z"/>
				</g>
			</g>
			<g>
				<path class="st6" d="M225.5,132.4l-6,68.5v-0.1c-0.1,1.6,2.3,3,5.4,3.3c3.1,0.3,5.8-0.8,5.9-2.3v0.1l6-68.5"/>
				
					<ellipse transform="matrix(8.715482e-02 -0.9962 0.9962 8.715482e-02 78.62 351.6992)" class="st15" cx="231.2" cy="133" rx="2.8" ry="5.7"/>
			</g>
			<g>
				<g>
					<path class="st5" d="M247.5,205.8c0,0.9,0,1.8-0.1,2.7c0,0.5-0.2,1.2-0.3,1.6l-0.1,0.2c0,0,0,0.1-0.1,0.1c0,0,0,0,0,0.1
						c-0.1,0.1,0-0.1,0,0c-0.1,0.1-0.1,0.1-0.2,0.2l-0.1,0.1c0.1,0-0.1,0.1-0.1,0.1c-0.1,0-0.2,0.1-0.2,0.1s0,0-0.1,0
						s-0.1,0-0.2,0.1c-0.1,0-0.2,0.1-0.3,0.1s-0.1,0-0.2,0h-0.1c-0.1,0,0.1,0,0,0c-0.6,0.1-1.2,0.1-1.8,0.1c-0.3,0-0.7,0-1,0
						c-0.2,0-0.4,0-0.7-0.1h-0.1c0.1,0,0,0,0,0s-0.1,0-0.1-0.1c-0.1,0,0.1,0.1,0,0c0,0,0-0.1-0.1-0.1c0.1,0.1,0,0.1,0,0v-0.1
						c0.1,0.1,0,0,0,0v-0.1c0-0.1,0,0.1,0,0s0-0.2,0-0.3s0-0.2,0-0.3s0-0.1,0-0.2c0,0,0-0.2,0-0.1c0.2-1.8,0.6-3.6,0.6-5.4
						c0-0.8-1.2-0.8-1.2,0c0,1.7-0.3,3.4-0.5,5.1c-0.1,1-0.2,2.1,0.8,2.7c0.5,0.3,1.2,0.3,1.8,0.3c0.7,0,1.4,0,2.1-0.1
						c1.1-0.1,2.2-0.4,2.8-1.4c0.4-0.6,0.5-1.3,0.6-1.9c0.1-1.1,0.2-2.1,0.2-3.2C248.7,205,247.5,205,247.5,205.8L247.5,205.8z"/>
				</g>
			</g>
			<g>
				<path class="st8" d="M231.9,138l4.8,68.6v-0.1c0.1,1.6,2.7,2.6,5.9,2.4c3.1-0.2,5.6-1.7,5.5-3.2v0.1l-4.8-68.6"/>
				
					<ellipse transform="matrix(0.9976 -6.975148e-02 6.975148e-02 0.9976 -9.0201 16.9085)" class="st16" cx="237.6" cy="137.6" rx="5.7" ry="2.8"/>
			</g>
			<g>
				<g>
					<path class="st5" d="M241.8,205.7c0.1,0.9,0.2,1.9,0.3,2.8c0.1,0.8,0.1,1.7,0.3,2.5c0.3,1.5,1.4,2.3,2.8,2.8
						c1.6,0.6,3.3,1.1,5,1.6c0.7,0.2,1.6,0.4,2.1,1c0.4,0.6,0.7,1.2,1.3,1.6c0.6,0.4,1.2-0.6,0.6-1c-0.5-0.4-0.7-1.1-1.1-1.5
						c-0.5-0.5-1.1-0.8-1.7-1c-1.6-0.5-3.2-1-4.8-1.5c-1.3-0.4-2.6-0.9-2.9-2.3c-0.2-0.8-0.2-1.6-0.3-2.3c-0.1-0.9-0.2-1.8-0.2-2.7
						C242.9,205,241.7,204.9,241.8,205.7L241.8,205.7z"/>
				</g>
			</g>
			<g>
				<path class="st6" d="M239.1,135.6l-2.4,68.7v-0.1c-0.1,1.6,2.4,2.9,5.6,3s5.7-1.1,5.8-2.6v0.1l2.4-68.7"/>
				
					<ellipse transform="matrix(3.489886e-02 -0.9994 0.9994 3.489886e-02 100.5278 375.7496)" class="st15" cx="244.8" cy="135.8" rx="2.8" ry="5.7"/>
			</g>
			<g>
				<g>
					<path class="st5" d="M230.9,207.4c0.6,1.6,0.6,3.3-1.1,4.2s-3.9,0.9-5.8,0.9c-1.2,0-2.4,0-3.5-0.1c-1-0.1-2.2,0-3.1-0.5
						c-1.5-0.8-1-3.1-0.7-4.4c0.6-2.6,1.4-5.1,1.4-7.7c0-0.8-1.2-0.8-1.2,0c0,2.6-0.9,5.2-1.4,7.7c-0.4,1.8-0.7,4.1,1.1,5.3
						c1,0.6,2.2,0.7,3.3,0.7c1.3,0.1,2.6,0.1,3.9,0.1c2.2,0,4.7,0,6.7-1.1c2.2-1.1,2.4-3.4,1.6-5.5
						C231.7,206.4,230.6,206.7,230.9,207.4L230.9,207.4z"/>
				</g>
			</g>
			<g>
				<path class="st6" d="M205.7,130.9l6,68.5v-0.1c0.1,1.6,2.8,2.6,5.9,2.3c3.1-0.3,5.6-1.8,5.4-3.3v0.1l-6-68.5"/>
				
					<ellipse transform="matrix(0.9962 -8.715482e-02 8.715482e-02 0.9962 -10.5618 18.9119)" class="st15" cx="211.3" cy="130.4" rx="5.7" ry="2.8"/>
			</g>
			<g>
				<path class="st17" d="M209,140l15.5,67v-0.1c0.4,1.5,3.1,2.2,6.2,1.5s5.3-2.5,4.9-4v0.1l-15.5-67"/>
				
					<ellipse transform="matrix(0.9744 -0.225 0.225 0.9744 -25.7096 51.8172)" class="st16" cx="214.5" cy="138.7" rx="5.7" ry="2.8"/>
			</g>
			<g>
				<g>
					<path class="st5" d="M210.4,129.2c0.2-7.4,10.4-9.9,16.2-8c6.7,2.2,9,9.2,8.9,15.6c0,0.8,1.2,0.8,1.2,0
						c0.1-5.8-1.5-12-6.7-15.3c-4.6-2.9-10.8-2.6-15.4-0.1c-3,1.6-5.2,4.3-5.3,7.8C209.2,130,210.4,130,210.4,129.2L210.4,129.2z"/>
				</g>
			</g>
			<g>
				<path class="st17" d="M229.9,137.8l11.9,67.7v-0.1c0.3,1.5,3,2.3,6.1,1.8s5.4-2.2,5.1-3.8v0.1l-11.9-67.7"/>
				
					<ellipse transform="matrix(0.9848 -0.1736 0.1736 0.9848 -20.1743 42.9589)" class="st18" cx="235.5" cy="136.8" rx="5.7" ry="2.8"/>
			</g>
			<g>
				<g>
					<path class="st5" d="M215.1,138.7c0.1-5,4.8-11.3,10.3-10.5c4.3,0.6,10,3.7,10.1,8.6c0,0.8,1.2,0.8,1.2,0
						c-0.1-4.5-4.2-7.5-8.1-8.9c-1.7-0.6-3.7-1.1-5.5-0.8c-2.3,0.4-4.3,1.9-5.8,3.6c-2,2.2-3.3,5-3.4,8.1
						C213.9,139.5,215.1,139.5,215.1,138.7L215.1,138.7z"/>
				</g>
			</g>
			<g>
				<g>
					<path class="st5" d="M231.4,132.9c0-3,2.5-6.2,5.6-6.5c3-0.3,4.9,2.9,6,5.2c0.6,1.3,1.1,2.7,1.1,4.2c0,0.8,1.2,0.8,1.2,0
						c0-1.5-0.5-3-1.1-4.3c-0.7-1.6-1.6-3.1-2.8-4.4c-1.1-1.1-2.5-1.9-4-1.9c-1.9,0.1-3.7,1-4.9,2.4c-1.3,1.4-2.2,3.3-2.2,5.3
						C230.3,133.6,231.4,133.6,231.4,132.9L231.4,132.9z"/>
				</g>
			</g>
		</g>
		<g class="st23">
			<g>
				<ellipse class="st24" cx="223" cy="222.5" rx="17.3" ry="9.7"/>
				<text transform="matrix(1 0 0 1 213.4489 224.299)" class="st13 st1">G</text>
				<text transform="matrix(1 0 0 1 220.4484 225.6582)" class="st13 st25"></text>
			</g>
			<g>
				<path class="st26" d="M247.8,236.3c0,4.6-3.7,8.3-8.3,8.3h-2.8c-4.6,0-8.3-3.7-8.3-8.3v-18.6c0-4.6,3.7-8.3,8.3-8.3h2.8
					c4.6,0,8.3,3.7,8.3,8.3V236.3z"/>
				<text transform="matrix(1 0 0 1 231.4097 228.8626)" class="st13 st1">G</text>
				<text transform="matrix(1 0 0 1 238.4093 230.2221)" class="st13 st25"></text>
			</g>
			<g>
				<path class="st27" d="M202.5,241.3c0-5.4,4.5-9.8,10.1-9.8"/>
				<g>
					<g>
						<path class="st27" d="M222.4,239.1c-1-4.3-5-7.6-9.8-7.6"/>
						<g>
							<polygon class="st28" points="223.8,238.5 222.7,241.3 220.8,238.9 							"/>
						</g>
					</g>
				</g>
				<text transform="matrix(1 0 0 1 189.7086 248.9357)" class="st0 st1">GDP</text>
				<text transform="matrix(1 0 0 1 212.4399 248.9357)" class="st0 st1">GTP</text>
			</g>
		</g>
		<rect x="201.6" y="158.3" class="st19" width="40.5" height="17.2"/>
		<text transform="matrix(1 0 0 1 203.2596 165.8114)" class="st0 st1">G-protein</text>
		<text transform="matrix(1 0 0 1 202.9597 174.7114)" class="st0 st1">activation</text>
	</g>
	<g>
		<rect x="163.1" y="93.7" class="st19" width="11.8" height="16.2"/>
		<text transform="matrix(1 0 0 1 165.376 108.3402)" class="st0 st22">?</text>
	</g>
</g>
<g id="Layer_3">
	<path class="st2" d="M92.4,99.3c0,2.6-2.1,4.7-4.7,4.7s-4.7-2.1-4.7-4.7s2.1-4.7,4.7-4.7C90.3,94.6,92.4,96.7,92.4,99.3z"/>
	<g>
		<path class="st3" d="M85.9,103.8c0,4.5-3.3,4.5-3.3,9s3.3,4.5,3.3,9s-3.3,4.5-3.3,9c0,4.5,3.3,4.5,3.3,9c0,4.5-3.3,4.5-3.3,9"/>
	</g>
	<g>
		<path class="st3" d="M89.9,104.2c0,4.5-3.3,4.5-3.3,9s3.3,4.5,3.3,9s-3.3,4.5-3.3,9s3.3,4.5,3.3,9s-3.3,4.5-3.3,9"/>
	</g>
	<line class="st4" x1="79.6" y1="125.7" x2="93.5" y2="126.1"/>
	<path class="st2" d="M89.6,153.6c0,2.6-2.1,4.7-4.7,4.7s-4.7-2.1-4.7-4.7c0-2.6,2.1-4.7,4.7-4.7S89.6,151,89.6,153.6z"/>
	<path class="st2" d="M82.4,99.3c0,2.6-2.1,4.7-4.7,4.7s-4.7-2.1-4.7-4.7s2.1-4.7,4.7-4.7C80.3,94.6,82.4,96.7,82.4,99.3z"/>
	<g>
		<path class="st3" d="M75.9,103.8c0,4.5-3.3,4.5-3.3,9s3.3,4.5,3.3,9s-3.3,4.5-3.3,9c0,4.5,3.3,4.5,3.3,9c0,4.5-3.3,4.5-3.3,9"/>
	</g>
	<g>
		<path class="st3" d="M79.9,104.2c0,4.5-3.3,4.5-3.3,9s3.3,4.5,3.3,9s-3.3,4.5-3.3,9s3.3,4.5,3.3,9s-3.3,4.5-3.3,9"/>
	</g>
	<line class="st4" x1="69.6" y1="125.7" x2="83.4" y2="126.1"/>
	<path class="st2" d="M79.6,153.6c0,2.6-2.1,4.7-4.7,4.7s-4.7-2.1-4.7-4.7c0-2.6,2.1-4.7,4.7-4.7S79.6,151,79.6,153.6z"/>
	<path class="st2" d="M72.4,99.3c0,2.6-2.1,4.7-4.7,4.7s-4.7-2.1-4.7-4.7s2.1-4.7,4.7-4.7C70.3,94.6,72.4,96.7,72.4,99.3z"/>
	<g>
		<path class="st3" d="M65.9,103.8c0,4.5-3.3,4.5-3.3,9s3.3,4.5,3.3,9s-3.3,4.5-3.3,9c0,4.5,3.3,4.5,3.3,9c0,4.5-3.3,4.5-3.3,9"/>
	</g>
	<g>
		<path class="st3" d="M69.8,104.2c0,4.5-3.3,4.5-3.3,9s3.3,4.5,3.3,9s-3.3,4.5-3.3,9s3.3,4.5,3.3,9s-3.3,4.5-3.3,9"/>
	</g>
	<line class="st4" x1="59.6" y1="125.7" x2="73.4" y2="126.1"/>
	<path class="st2" d="M69.6,153.6c0,2.6-2.1,4.7-4.7,4.7s-4.7-2.1-4.7-4.7c0-2.6,2.1-4.7,4.7-4.7C67.5,148.9,69.6,151,69.6,153.6z"
		/>
	<path class="st2" d="M62.3,99.3c0,2.6-2.1,4.7-4.7,4.7c-2.6,0-4.7-2.1-4.7-4.7s2.1-4.7,4.7-4.7C60.2,94.6,62.3,96.7,62.3,99.3z"/>
	<g>
		<path class="st3" d="M55.9,103.8c0,4.5-3.3,4.5-3.3,9s3.3,4.5,3.3,9s-3.3,4.5-3.3,9c0,4.5,3.3,4.5,3.3,9c0,4.5-3.3,4.5-3.3,9"/>
	</g>
	<g>
		<path class="st3" d="M59.8,104.2c0,4.5-3.3,4.5-3.3,9s3.3,4.5,3.3,9s-3.3,4.5-3.3,9s3.3,4.5,3.3,9s-3.3,4.5-3.3,9"/>
	</g>
	<line class="st4" x1="49.6" y1="125.7" x2="63.4" y2="126.1"/>
	<path class="st2" d="M59.6,153.6c0,2.6-2.1,4.7-4.7,4.7c-2.6,0-4.7-2.1-4.7-4.7c0-2.6,2.1-4.7,4.7-4.7S59.6,151,59.6,153.6z"/>
	<path class="st2" d="M52.3,99.3c0,2.6-2.1,4.7-4.7,4.7c-2.6,0-4.7-2.1-4.7-4.7s2.1-4.7,4.7-4.7S52.3,96.7,52.3,99.3z"/>
	<g>
		<path class="st3" d="M45.8,103.8c0,4.5-3.3,4.5-3.3,9s3.3,4.5,3.3,9s-3.3,4.5-3.3,9c0,4.5,3.3,4.5,3.3,9c0,4.5-3.3,4.5-3.3,9"/>
	</g>
	<g>
		<path class="st3" d="M49.8,104.2c0,4.5-3.3,4.5-3.3,9s3.3,4.5,3.3,9s-3.3,4.5-3.3,9s3.3,4.5,3.3,9s-3.3,4.5-3.3,9"/>
	</g>
	<line class="st4" x1="39.5" y1="125.7" x2="53.3" y2="126.1"/>
	<path class="st2" d="M49.5,153.6c0,2.6-2.1,4.7-4.7,4.7c-2.6,0-4.7-2.1-4.7-4.7c0-2.6,2.1-4.7,4.7-4.7S49.5,151,49.5,153.6z"/>
	<path class="st2" d="M42.3,99.3c0,2.6-2.1,4.7-4.7,4.7c-2.6,0-4.7-2.1-4.7-4.7s2.1-4.7,4.7-4.7S42.3,96.7,42.3,99.3z"/>
	<g>
		<path class="st3" d="M35.8,103.8c0,4.5-3.3,4.5-3.3,9s3.3,4.5,3.3,9s-3.3,4.5-3.3,9c0,4.5,3.3,4.5,3.3,9c0,4.5-3.3,4.5-3.3,9"/>
	</g>
	<g>
		<path class="st3" d="M39.8,104.2c0,4.5-3.3,4.5-3.3,9s3.3,4.5,3.3,9s-3.3,4.5-3.3,9s3.3,4.5,3.3,9s-3.3,4.5-3.3,9"/>
	</g>
	<line class="st4" x1="29.5" y1="125.7" x2="43.3" y2="126.1"/>
	<path class="st2" d="M39.5,153.6c0,2.6-2.1,4.7-4.7,4.7c-2.6,0-4.7-2.1-4.7-4.7c0-2.6,2.1-4.7,4.7-4.7S39.5,151,39.5,153.6z"/>
	<path class="st2" d="M32.3,99.3c0,2.6-2.1,4.7-4.7,4.7s-4.7-2.1-4.7-4.7s2.1-4.7,4.7-4.7S32.3,96.7,32.3,99.3z"/>
	<g>
		<path class="st3" d="M25.8,103.8c0,4.5-3.3,4.5-3.3,9s3.3,4.5,3.3,9s-3.3,4.5-3.3,9c0,4.5,3.3,4.5,3.3,9c0,4.5-3.3,4.5-3.3,9"/>
	</g>
	<g>
		<path class="st3" d="M29.7,104.2c0,4.5-3.3,4.5-3.3,9s3.3,4.5,3.3,9s-3.3,4.5-3.3,9s3.3,4.5,3.3,9s-3.3,4.5-3.3,9"/>
	</g>
	<line class="st4" x1="19.5" y1="125.7" x2="33.3" y2="126.1"/>
	<path class="st2" d="M29.5,153.6c0,2.6-2.1,4.7-4.7,4.7s-4.7-2.1-4.7-4.7c0-2.6,2.1-4.7,4.7-4.7S29.5,151,29.5,153.6z"/>
	<path class="st2" d="M122.6,99.3c0,2.6-2.1,4.7-4.7,4.7s-4.7-2.1-4.7-4.7s2.1-4.7,4.7-4.7C120.5,94.6,122.6,96.7,122.6,99.3z"/>
	<g>
		<path class="st3" d="M116.1,103.8c0,4.5-3.3,4.5-3.3,9s3.3,4.5,3.3,9s-3.3,4.5-3.3,9c0,4.5,3.3,4.5,3.3,9c0,4.5-3.3,4.5-3.3,9"/>
	</g>
	<g>
		<path class="st3" d="M120.1,104.2c0,4.5-3.3,4.5-3.3,9s3.3,4.5,3.3,9s-3.3,4.5-3.3,9s3.3,4.5,3.3,9s-3.3,4.5-3.3,9"/>
	</g>
	<line class="st4" x1="109.8" y1="125.7" x2="123.6" y2="126.1"/>
	<path class="st2" d="M119.8,153.6c0,2.6-2.1,4.7-4.7,4.7s-4.7-2.1-4.7-4.7c0-2.6,2.1-4.7,4.7-4.7
		C117.7,148.9,119.8,151,119.8,153.6z"/>
	<path class="st2" d="M112.6,99.3c0,2.6-2.1,4.7-4.7,4.7s-4.7-2.1-4.7-4.7s2.1-4.7,4.7-4.7C110.5,94.6,112.6,96.7,112.6,99.3z"/>
	<g>
		<path class="st3" d="M106.1,103.8c0,4.5-3.3,4.5-3.3,9s3.3,4.5,3.3,9s-3.3,4.5-3.3,9c0,4.5,3.3,4.5,3.3,9c0,4.5-3.3,4.5-3.3,9"/>
	</g>
	<g>
		<path class="st3" d="M110,104.2c0,4.5-3.3,4.5-3.3,9s3.3,4.5,3.3,9s-3.3,4.5-3.3,9s3.3,4.5,3.3,9s-3.3,4.5-3.3,9"/>
	</g>
	<line class="st4" x1="99.8" y1="125.7" x2="113.6" y2="126.1"/>
	<path class="st2" d="M109.8,153.6c0,2.6-2.1,4.7-4.7,4.7s-4.7-2.1-4.7-4.7c0-2.6,2.1-4.7,4.7-4.7
		C107.7,148.9,109.8,151,109.8,153.6z"/>
	<path class="st2" d="M102.5,99.3c0,2.6-2.1,4.7-4.7,4.7s-4.7-2.1-4.7-4.7s2.1-4.7,4.7-4.7C100.4,94.6,102.5,96.7,102.5,99.3z"/>
	<g>
		<path class="st3" d="M96,103.8c0,4.5-3.3,4.5-3.3,9s3.3,4.5,3.3,9s-3.3,4.5-3.3,9c0,4.5,3.3,4.5,3.3,9c0,4.5-3.3,4.5-3.3,9"/>
	</g>
	<g>
		<path class="st3" d="M100,104.2c0,4.5-3.3,4.5-3.3,9s3.3,4.5,3.3,9s-3.3,4.5-3.3,9s3.3,4.5,3.3,9s-3.3,4.5-3.3,9"/>
	</g>
	<line class="st4" x1="89.7" y1="125.7" x2="103.6" y2="126.1"/>
	<path class="st2" d="M99.8,153.6c0,2.6-2.1,4.7-4.7,4.7s-4.7-2.1-4.7-4.7c0-2.6,2.1-4.7,4.7-4.7C97.7,148.9,99.8,151,99.8,153.6z"
		/>
	<g>
		<g>
			<path class="st5" d="M56,158.5c0,2-0.2,4-0.5,6c-0.2,0.9-0.3,1.9-0.6,2.8c-0.2,1-0.6,1.5-1.5,1.9c-1.3,0.6-2.4,1.3-3.3,2.4
				c-0.9,1.2-1.3,2.6-1.3,4c0,0.8,1.2,0.8,1.2,0c0-1.6,0.6-3.1,1.8-4.2c1.1-1,2.7-1.2,3.6-2.4c0.4-0.6,0.6-1.3,0.7-2
				c0.2-0.9,0.4-1.9,0.5-2.8c0.3-1.9,0.5-3.9,0.5-5.8C57.2,157.7,56,157.7,56,158.5L56,158.5z"/>
		</g>
	</g>
	<g>
		<path class="st6" d="M43.1,90.5l8.4,68.3v-0.1c0.2,1.6,2.9,2.5,6,2.1s5.5-2,5.3-3.5v0.1l-8.4-68.3"/>
		<ellipse transform="matrix(0.9925 -0.1219 0.1219 0.9925 -10.5839 6.6178)" class="st7" cx="48.8" cy="89.8" rx="5.7" ry="2.8"/>
	</g>
	<g>
		<g>
			<path class="st5" d="M77.8,159.7c-0.1,3.3-3.9,4.7-6.7,4.7c-2.8,0-6.6-1.5-6.7-4.7c0-0.8-1.2-0.8-1.2,0c0.1,4,4.4,5.9,7.9,5.9
				c3.4,0,7.8-2,7.9-5.9C79,159,77.8,159,77.8,159.7L77.8,159.7z"/>
		</g>
	</g>
	<g>
		<path class="st8" d="M62.9,89.4l-3.6,68.7V158c-0.1,1.6,2.4,3,5.5,3.1c3.1,0.2,5.8-1,5.8-2.5v0.1L74.2,90"/>
		
			<ellipse transform="matrix(5.233904e-02 -0.9986 0.9986 5.233904e-02 -24.6122 153.5599)" class="st9" cx="68.6" cy="89.7" rx="2.8" ry="5.7"/>
	</g>
	<g>
		<g>
			<path class="st5" d="M49.5,89.8c0.1-1.6,1.5-2.6,2.8-3.3c2-1,4.3-1.3,6.5-1.3s4.4,0.3,6.4,1.3c1.3,0.6,2.9,1.7,2.9,3.4
				c0,0.9,1.4,0.9,1.4,0c-0.2-4.8-7-6-10.7-6c-3.6,0-10.5,1.3-10.7,6C48.1,90.7,49.4,90.7,49.5,89.8L49.5,89.8z"/>
		</g>
	</g>
	<g>
		<path class="st6" d="M72.7,90.9v68.8v-0.1c0,1.6,2.5,2.8,5.7,2.8c3.1,0,5.7-1.3,5.7-2.8v0.1V90.9"/>
		<ellipse class="st29" cx="78.4" cy="90.9" rx="5.7" ry="2.8"/>
	</g>
	<g>
		<g>
			<path class="st5" d="M102.2,161.1c0,2,0,4-0.1,6c-0.1,1.4-0.3,3.2-1.3,4.3c-0.9,1-2.3,1-3.5,0.5c-1.5-0.5-2.6-1.8-3.4-3.1
				c-1.1-1.9-1.6-4.2-1.6-6.4c0-0.8-1.2-0.8-1.2,0c0,3.9,1.5,8.6,5.3,10.4c1.4,0.7,3.3,1,4.6,0c1.4-0.9,1.9-2.7,2.1-4.2
				c0.4-2.5,0.3-5,0.3-7.5C103.4,160.3,102.2,160.3,102.2,161.1L102.2,161.1z"/>
		</g>
	</g>
	<g>
		<path class="st8" d="M82.1,96.1l4.8,68.6v-0.1c0.1,1.6,2.7,2.6,5.9,2.4c3.1-0.2,5.6-1.7,5.5-3.2v0.1l-4.8-68.6"/>
		
			<ellipse transform="matrix(0.9976 -6.975148e-02 6.975148e-02 0.9976 -6.4623 6.3573)" class="st16" cx="87.8" cy="95.7" rx="5.7" ry="2.8"/>
	</g>
	<g>
		<g>
			<path class="st5" d="M92,163.9c0.1,0.9,0.2,1.9,0.3,2.8c0.1,0.8,0.1,1.7,0.3,2.5c0.3,1.5,1.4,2.3,2.8,2.8c1.6,0.6,3.3,1.1,5,1.6
				c0.7,0.2,1.6,0.4,2.1,1c0.4,0.6,0.7,1.2,1.3,1.6c0.6,0.4,1.2-0.6,0.6-1c-0.5-0.4-0.7-1.1-1.1-1.5c-0.5-0.5-1.1-0.8-1.7-1
				c-1.6-0.5-3.2-1-4.8-1.5c-1.3-0.4-2.6-0.9-2.9-2.3c-0.2-0.8-0.2-1.6-0.3-2.3c-0.1-0.9-0.2-1.8-0.2-2.7
				C93.1,163.1,91.9,163.1,92,163.9L92,163.9z"/>
		</g>
	</g>
	<g>
		<path class="st6" d="M89.2,93.7l-2.4,68.7v-0.1c-0.1,1.6,2.4,2.9,5.6,3c3.1,0.1,5.7-1.1,5.8-2.6v0.1l2.4-68.7"/>
		
			<ellipse transform="matrix(3.489886e-02 -0.9994 0.9994 3.489886e-02 -2.302 185.4884)" class="st15" cx="94.9" cy="93.9" rx="2.8" ry="5.7"/>
	</g>
	<g>
		<g>
			<path class="st5" d="M81,165.5c0.8,2.3,1.3,5-0.1,7.2c-1.4,2-4,2.6-6.4,2.5c-4.6-0.2-7.2-6.1-8.4-9.8c-0.8-2.4-1.4-5-1.4-7.5
				c0-0.8-1.2-0.8-1.2,0c0,2.5,0.6,5.1,1.4,7.5c0.9,2.7,2,5.3,3.8,7.5c1.4,1.8,3.3,3.3,5.7,3.5c2.6,0.2,5.5-0.5,7.2-2.5
				c2-2.4,1.7-5.8,0.6-8.6C81.9,164.5,80.7,164.8,81,165.5L81,165.5z"/>
		</g>
	</g>
	<g>
		<path class="st6" d="M58.8,88.5v68.8v-0.1c0,1.6,2.5,2.8,5.7,2.8c3.1,0,5.7-1.3,5.7-2.8v0.1V88.5"/>
		<ellipse class="st29" cx="64.5" cy="88.5" rx="5.7" ry="2.8"/>
	</g>
	<g>
		<path class="st17" d="M59.1,98.2l15.5,67v-0.1c0.4,1.5,3.1,2.2,6.2,1.5s5.3-2.5,4.9-4v0.1l-15.5-67"/>
		<ellipse transform="matrix(0.9744 -0.225 0.225 0.9744 -20.1459 17.0406)" class="st16" cx="64.7" cy="96.9" rx="5.7" ry="2.8"/>
	</g>
	<g>
		<path class="st17" d="M75.6,97.9l21.3,65.4v-0.1c0.5,1.5,3.3,1.9,6.3,0.9s5-3,4.5-4.4v0.1L86.4,94.4"/>
		<ellipse transform="matrix(0.9511 -0.309 0.309 0.9511 -25.7618 29.7411)" class="st16" cx="81" cy="96.2" rx="5.7" ry="2.8"/>
	</g>
	<g>
		<g>
			<path class="st5" d="M65.2,96.9c0-2.6,1.2-5,2.8-7c1.4-1.6,3.3-3.2,5.4-3.5c2.1-0.4,4,0.8,5.3,2.4c1.6,2.1,2.2,4.8,2.2,7.3
				c0,0.8,1.2,0.8,1.2,0c0-4-1.6-8.9-5.7-10.6c-3.8-1.5-7.7,1.4-9.8,4.3c-1.5,2-2.5,4.5-2.5,7C64.1,97.6,65.2,97.6,65.2,96.9
				L65.2,96.9z"/>
		</g>
	</g>
	<g>
		<g>
			<path class="st5" d="M78.9,91c0.1-3.2,3.3-7,6.6-7.1c1.5,0,2.8,0.9,3.8,1.9c1.3,1.1,2.3,2.5,3.2,3.9c0.8,1.2,1.7,2.7,1.7,4.2
				c0,0.8,1.2,0.8,1.2,0c0-1.5-0.8-3-1.5-4.3c-1-1.7-2.2-3.3-3.7-4.7c-1.2-1.1-2.7-2.1-4.4-2.2c-2-0.1-4,1.1-5.4,2.5
				c-1.4,1.5-2.6,3.6-2.7,5.7C77.8,91.7,78.9,91.7,78.9,91L78.9,91z"/>
		</g>
	</g>
	<g>
		<g>
			<path class="st5" d="M65.1,88.5c0-2.5,0-5.3,1.3-7.5s4.2-2.7,6.5-2.1s4.3,2.1,6.1,3.7c2,1.8,3.9,3.9,5.4,6.2
				c1.3,2,2.8,4.4,2.8,6.9c0,0.8,1.2,0.8,1.2,0c0-2.4-1.3-4.8-2.5-6.8c-1.6-2.6-3.7-5.1-6-7.1c-1.9-1.7-4.2-3.4-6.7-4
				c-2.4-0.6-5.4-0.1-7.1,1.8c-2,2.4-2.1,6-2.1,9C63.9,89.3,65,89.3,65.1,88.5L65.1,88.5z"/>
		</g>
	</g>
	<g>
		<polygon class="st10" points="7.8,95.5 7.8,100.2 11.8,102.6 15.9,100.2 15.9,95.5 11.8,93.2 		"/>
		<line class="st11" x1="4.6" y1="101.6" x2="7.8" y2="99.8"/>
		<line class="st11" x1="5.1" y1="102.4" x2="8.3" y2="100.5"/>
		<line class="st11" x1="11.8" y1="101.6" x2="14.9" y2="99.8"/>
		<text transform="matrix(1 0 0 1 2.9197 103.6337)" class="st12 st13 st30">O</text>
		<line class="st11" x1="15.9" y1="95.5" x2="15.9" y2="91.9"/>
		<line class="st11" x1="28" y1="88.4" x2="28" y2="84.7"/>
		<polygon class="st10" points="28,88.5 28,93.2 32.5,94.6 35.2,90.8 32.5,87 		"/>
		<polygon class="st10" points="15.9,95.5 15.9,100.2 19.9,102.6 24,100.2 24,95.5 19.9,93.2 		"/>
		<polygon class="st10" points="19.9,88.5 19.9,93.2 24,95.5 28,93.2 28,88.5 24,86.1 		"/>
		<line class="st11" x1="32.4" y1="87.2" x2="33.6" y2="83.7"/>
		<line class="st11" x1="31.7" y1="80.6" x2="33.7" y2="83.1"/>
		<line class="st11" x1="31.2" y1="80.9" x2="33.5" y2="83.8"/>
		<text transform="matrix(1 0 0 1 29.788 80.6867)" class="st12 st13 st30">O</text>
		<line class="st11" x1="37.1" y1="83.2" x2="33.5" y2="83.8"/>
	</g>
	<g>
		<g>
			<path class="st31" d="M45.5,79.9c4.3-1.2,16.9,5.7,22,12.7"/>
			<g>
				<polygon points="64.3,93.4 69.3,96.4 69.5,90.5 				"/>
			</g>
		</g>
	</g>
	<text transform="matrix(1 0 0 1 0.6107 77.7169)" class="st13 st32">Progesterone</text>
</g>
<g>
	<g>
		<line class="st21" x1="117.9" y1="125.9" x2="131.6" y2="125.9"/>
		<g>
			<polygon points="130.9,128.4 135.2,125.9 130.9,123.5 			"/>
		</g>
	</g>
</g>
<g>
	<g>
		<line class="st21" x1="168.4" y1="113.6" x2="178.9" y2="104.8"/>
		<g>
			<polygon points="180,107.2 181.7,102.5 176.8,103.4 			"/>
		</g>
	</g>
</g>
<g>
	<g>
		<line class="st21" x1="168.3" y1="139.9" x2="179" y2="148.6"/>
		<g>
			<polygon points="176.8,150.1 181.8,150.8 180,146.2 			"/>
		</g>
	</g>
</g>
<text transform="matrix(1 0 0 1 36.2373 12.8)" class="st13 st33">PAQRs non-classical signaling</text>
</svg>
