<?xml version="1.0" encoding="utf-8"?>
<!-- Generator: Adobe Illustrator 27.3.1, SVG Export Plug-In . SVG Version: 6.00 Build 0)  -->
<svg version="1.1" id="Layer_1" xmlns="http://www.w3.org/2000/svg" xmlns:xlink="http://www.w3.org/1999/xlink" x="0px" y="0px"
	 viewBox="0 0 277.6 241.4" style="enable-background:new 0 0 277.6 241.4;" xml:space="preserve">
<style type="text/css">
	.st0{enable-background:new    ;}
	.st1{font-family:'ArialMT';}
	.st2{font-size:9px;}
	.st3{fill:#A7A9AC;stroke:#58595B;stroke-width:1.0677;stroke-miterlimit:10;}
	.st4{fill:none;stroke:#58595B;stroke-width:1.0298;stroke-linecap:round;stroke-miterlimit:10;}
	.st5{fill:none;stroke:#FFFFFF;stroke-width:1.4092;stroke-miterlimit:10;}
	.st6{fill:#1798FF;}
	.st7{fill:#0F7BFF;stroke:#000000;stroke-width:0.117;stroke-miterlimit:10;}
	.st8{fill:#74C1FF;stroke:#000000;stroke-width:0.117;stroke-miterlimit:9.9996;}
	.st9{fill:#0F5FFF;stroke:#000000;stroke-width:0.117;stroke-miterlimit:10;}
	.st10{fill:#74C1FF;stroke:#000000;stroke-width:0.117;stroke-miterlimit:9.9997;}
	.st11{fill:#FF8F4F;stroke:#58595B;stroke-width:0.4679;stroke-miterlimit:10;}
	.st12{fill:none;stroke:#58595B;stroke-width:0.4679;stroke-miterlimit:10;}
	.st13{fill:#58595B;}
	.st14{font-family:'Arial-BoldMT';}
	.st15{font-size:2.8073px;}
	.st16{fill:#74C1FF;stroke:#000000;stroke-width:0.117;stroke-miterlimit:10.0001;}
	.st17{fill:#74C1FF;stroke:#000000;stroke-width:0.117;stroke-miterlimit:10.0004;}
	.st18{fill:#1798FF;stroke:#000000;stroke-width:0.117;stroke-miterlimit:10;}
	.st19{fill:#74C1FF;stroke:#000000;stroke-width:0.117;stroke-miterlimit:9.9998;}
	.st20{opacity:0.5;fill:#FFFFFF;enable-background:new    ;}
	.st21{fill:#F15A29;}
	.st22{fill:none;stroke:#000000;stroke-miterlimit:10;}
	.st23{font-size:18px;}
	.st24{opacity:0.7;}
	.st25{fill:#F7941E;stroke:#F15A29;stroke-width:0.6903;stroke-miterlimit:10;}
	.st26{font-size:5.247px;}
	.st27{fill:#39B54A;stroke:#006838;stroke-width:0.6903;stroke-miterlimit:10;}
	.st28{fill:none;stroke:#231F20;stroke-width:0.6658;stroke-miterlimit:10;}
	.st29{fill:#231F20;}
	.st30{fill:#74C1FF;stroke:#000000;stroke-width:0.117;stroke-miterlimit:10;}
	.st31{font-size:2.8074px;}
	.st32{fill:none;stroke:#000000;stroke-width:0.8437;stroke-miterlimit:10;}
	.st33{font-size:6px;}
</style>
<g id="Layer_1_00000069360308526018746790000015617944359692867728_">
	<text transform="matrix(1 0 0 1 139.3118 112.5355)" class="st0"><tspan x="0" y="0" class="st1 st2">receptor</tspan><tspan x="-2.5" y="10.8" class="st1 st2">activation</tspan></text>
</g>
<g id="Layer_5">
	<g>
		<g>
			<path class="st3" d="M276.6,24.7c0,2.6-2.1,4.7-4.7,4.7s-4.7-2.1-4.7-4.7c0-2.6,2.1-4.7,4.7-4.7C274.5,20,276.6,22.1,276.6,24.7z
				"/>
			<g>
				<path class="st4" d="M270.1,29.1c0,4.5-3.3,4.5-3.3,9s3.3,4.5,3.3,9s-3.3,4.5-3.3,9s3.3,4.5,3.3,9s-3.3,4.5-3.3,9"/>
			</g>
			<g>
				<path class="st4" d="M274.1,29.5c0,4.5-3.3,4.5-3.3,9s3.3,4.5,3.3,9s-3.3,4.5-3.3,9s3.3,4.5,3.3,9s-3.3,4.5-3.3,9"/>
			</g>
			<line class="st5" x1="263.8" y1="51.1" x2="277.6" y2="51.4"/>
			<path class="st3" d="M273.8,78.9c0,2.6-2.1,4.7-4.7,4.7c-2.6,0-4.7-2.1-4.7-4.7c0-2.6,2.1-4.7,4.7-4.7S273.8,76.3,273.8,78.9z"/>
		</g>
		<g>
			<path class="st3" d="M256.3,24.7c0,2.6-2.1,4.7-4.7,4.7c-2.6,0-4.7-2.1-4.7-4.7c0-2.6,2.1-4.7,4.7-4.7
				C254.2,20,256.3,22.1,256.3,24.7z"/>
			<g>
				<path class="st4" d="M249.8,29.1c0,4.5-3.3,4.5-3.3,9s3.3,4.5,3.3,9s-3.3,4.5-3.3,9s3.3,4.5,3.3,9s-3.3,4.5-3.3,9"/>
			</g>
			<g>
				<path class="st4" d="M253.8,29.5c0,4.5-3.3,4.5-3.3,9s3.3,4.5,3.3,9s-3.3,4.5-3.3,9s3.3,4.5,3.3,9s-3.3,4.5-3.3,9"/>
			</g>
			<line class="st5" x1="243.5" y1="51.1" x2="257.3" y2="51.4"/>
			<path class="st3" d="M253.5,78.9c0,2.6-2.1,4.7-4.7,4.7c-2.6,0-4.7-2.1-4.7-4.7c0-2.6,2.1-4.7,4.7-4.7
				C251.4,74.2,253.5,76.3,253.5,78.9z"/>
		</g>
		<g>
			<path class="st3" d="M195.9,24.7c0,2.6-2.1,4.7-4.7,4.7c-2.6,0-4.7-2.1-4.7-4.7c0-2.6,2.1-4.7,4.7-4.7
				C193.8,20,195.9,22.1,195.9,24.7z"/>
			<g>
				<path class="st4" d="M189.4,29.1c0,4.5-3.3,4.5-3.3,9s3.3,4.5,3.3,9s-3.3,4.5-3.3,9s3.3,4.5,3.3,9s-3.3,4.5-3.3,9"/>
			</g>
			<g>
				<path class="st4" d="M193.3,29.5c0,4.5-3.3,4.5-3.3,9s3.3,4.5,3.3,9s-3.3,4.5-3.3,9s3.3,4.5,3.3,9s-3.3,4.5-3.3,9"/>
			</g>
			<line class="st5" x1="183.1" y1="51.1" x2="196.9" y2="51.4"/>
			<path class="st3" d="M193.1,78.9c0,2.6-2.1,4.7-4.7,4.7c-2.6,0-4.7-2.1-4.7-4.7c0-2.6,2.1-4.7,4.7-4.7
				C191,74.2,193.1,76.3,193.1,78.9z"/>
		</g>
		<g>
			<path class="st3" d="M246.1,24.7c0,2.6-2.1,4.7-4.7,4.7c-2.6,0-4.7-2.1-4.7-4.7c0-2.6,2.1-4.7,4.7-4.7
				C244,20,246.1,22.1,246.1,24.7z"/>
			<g>
				<path class="st4" d="M239.6,29.1c0,4.5-3.3,4.5-3.3,9s3.3,4.5,3.3,9s-3.3,4.5-3.3,9s3.3,4.5,3.3,9s-3.3,4.5-3.3,9"/>
			</g>
			<g>
				<path class="st4" d="M243.6,29.5c0,4.5-3.3,4.5-3.3,9s3.3,4.5,3.3,9s-3.3,4.5-3.3,9s3.3,4.5,3.3,9s-3.3,4.5-3.3,9"/>
			</g>
			<line class="st5" x1="233.3" y1="51.1" x2="247.1" y2="51.4"/>
			<path class="st3" d="M243.3,78.9c0,2.6-2.1,4.7-4.7,4.7c-2.6,0-4.7-2.1-4.7-4.7c0-2.6,2.1-4.7,4.7-4.7
				C241.2,74.2,243.3,76.3,243.3,78.9z"/>
		</g>
		<g>
			<path class="st3" d="M236.1,24.7c0,2.6-2.1,4.7-4.7,4.7c-2.6,0-4.7-2.1-4.7-4.7c0-2.6,2.1-4.7,4.7-4.7
				C234,20,236.1,22.1,236.1,24.7z"/>
			<g>
				<path class="st4" d="M229.6,29.1c0,4.5-3.3,4.5-3.3,9s3.3,4.5,3.3,9s-3.3,4.5-3.3,9s3.3,4.5,3.3,9s-3.3,4.5-3.3,9"/>
			</g>
			<g>
				<path class="st4" d="M233.5,29.5c0,4.5-3.3,4.5-3.3,9s3.3,4.5,3.3,9s-3.3,4.5-3.3,9s3.3,4.5,3.3,9s-3.3,4.5-3.3,9"/>
			</g>
			<line class="st5" x1="223.3" y1="51.1" x2="237.1" y2="51.4"/>
			<path class="st3" d="M233.3,78.9c0,2.6-2.1,4.7-4.7,4.7c-2.6,0-4.7-2.1-4.7-4.7c0-2.6,2.1-4.7,4.7-4.7
				C231.2,74.2,233.3,76.3,233.3,78.9z"/>
		</g>
		<g>
			<path class="st3" d="M226,24.7c0,2.6-2.1,4.7-4.7,4.7c-2.6,0-4.7-2.1-4.7-4.7c0-2.6,2.1-4.7,4.7-4.7C223.9,20,226,22.1,226,24.7z
				"/>
			<g>
				<path class="st4" d="M219.6,29.1c0,4.5-3.3,4.5-3.3,9s3.3,4.5,3.3,9s-3.3,4.5-3.3,9s3.3,4.5,3.3,9s-3.3,4.5-3.3,9"/>
			</g>
			<g>
				<path class="st4" d="M223.5,29.5c0,4.5-3.3,4.5-3.3,9s3.3,4.5,3.3,9s-3.3,4.5-3.3,9s3.3,4.5,3.3,9s-3.3,4.5-3.3,9"/>
			</g>
			<line class="st5" x1="213.3" y1="51.1" x2="227.1" y2="51.4"/>
			<path class="st3" d="M223.3,78.9c0,2.6-2.1,4.7-4.7,4.7c-2.6,0-4.7-2.1-4.7-4.7c0-2.6,2.1-4.7,4.7-4.7
				C221.2,74.2,223.3,76.3,223.3,78.9z"/>
		</g>
		<g>
			<path class="st3" d="M216,24.7c0,2.6-2.1,4.7-4.7,4.7c-2.6,0-4.7-2.1-4.7-4.7c0-2.6,2.1-4.7,4.7-4.7C213.9,20,216,22.1,216,24.7z
				"/>
			<g>
				<path class="st4" d="M209.5,29.1c0,4.5-3.3,4.5-3.3,9s3.3,4.5,3.3,9s-3.3,4.5-3.3,9s3.3,4.5,3.3,9s-3.3,4.5-3.3,9"/>
			</g>
			<g>
				<path class="st4" d="M213.5,29.5c0,4.5-3.3,4.5-3.3,9s3.3,4.5,3.3,9s-3.3,4.5-3.3,9s3.3,4.5,3.3,9s-3.3,4.5-3.3,9"/>
			</g>
			<line class="st5" x1="203.2" y1="51.1" x2="217" y2="51.4"/>
			<path class="st3" d="M213.2,78.9c0,2.6-2.1,4.7-4.7,4.7c-2.6,0-4.7-2.1-4.7-4.7c0-2.6,2.1-4.7,4.7-4.7
				C211.1,74.2,213.2,76.3,213.2,78.9z"/>
		</g>
		<g>
			<path class="st3" d="M206,24.7c0,2.6-2.1,4.7-4.7,4.7c-2.6,0-4.7-2.1-4.7-4.7c0-2.6,2.1-4.7,4.7-4.7C203.9,20,206,22.1,206,24.7z
				"/>
			<g>
				<path class="st4" d="M199.5,29.1c0,4.5-3.3,4.5-3.3,9s3.3,4.5,3.3,9s-3.3,4.5-3.3,9s3.3,4.5,3.3,9s-3.3,4.5-3.3,9"/>
			</g>
			<g>
				<path class="st4" d="M203.5,29.5c0,4.5-3.3,4.5-3.3,9s3.3,4.5,3.3,9s-3.3,4.5-3.3,9s3.3,4.5,3.3,9s-3.3,4.5-3.3,9"/>
			</g>
			<line class="st5" x1="193.2" y1="51.1" x2="207" y2="51.4"/>
			<path class="st3" d="M203.2,78.9c0,2.6-2.1,4.7-4.7,4.7c-2.6,0-4.7-2.1-4.7-4.7c0-2.6,2.1-4.7,4.7-4.7
				C201.1,74.2,203.2,76.3,203.2,78.9z"/>
		</g>
		<g>
			<path class="st3" d="M266.4,24.7c0,2.6-2.1,4.7-4.7,4.7c-2.6,0-4.7-2.1-4.7-4.7c0-2.6,2.1-4.7,4.7-4.7
				C264.3,20,266.4,22.1,266.4,24.7z"/>
			<g>
				<path class="st4" d="M260,29.1c0,4.5-3.3,4.5-3.3,9s3.3,4.5,3.3,9s-3.3,4.5-3.3,9s3.3,4.5,3.3,9s-3.3,4.5-3.3,9"/>
			</g>
			<g>
				<path class="st4" d="M263.9,29.5c0,4.5-3.3,4.5-3.3,9s3.3,4.5,3.3,9s-3.3,4.5-3.3,9s3.3,4.5,3.3,9s-3.3,4.5-3.3,9"/>
			</g>
			<line class="st5" x1="253.7" y1="51.1" x2="267.5" y2="51.4"/>
			<path class="st3" d="M263.7,78.9c0,2.6-2.1,4.7-4.7,4.7s-4.7-2.1-4.7-4.7c0-2.6,2.1-4.7,4.7-4.7
				C261.6,74.2,263.7,76.3,263.7,78.9z"/>
		</g>
		<g>
			<g>
				<g>
					<path class="st6" d="M208.5,83.9c0,2-0.2,4-0.5,6c-0.2,0.9-0.3,1.9-0.6,2.8c-0.2,1-0.6,1.5-1.5,1.9c-1.3,0.6-2.4,1.3-3.3,2.4
						c-0.9,1.2-1.3,2.6-1.3,4c0,0.8,1.2,0.8,1.2,0c0-1.6,0.6-3.1,1.8-4.2c1.1-1,2.7-1.2,3.6-2.4c0.4-0.6,0.6-1.3,0.7-2
						c0.2-0.9,0.4-1.9,0.5-2.8c0.3-1.9,0.5-3.9,0.5-5.8C209.7,83.2,208.5,83.2,208.5,83.9L208.5,83.9z"/>
				</g>
			</g>
			<g>
				<path class="st7" d="M195.7,15.9l8.4,68.3v-0.1c0.2,1.6,2.9,2.5,6,2.1c3.1-0.4,5.5-2,5.3-3.5v0.1L207,14.5"/>
				
					<ellipse transform="matrix(0.9925 -0.1219 0.1219 0.9925 -0.3497 24.651)" class="st8" cx="201.3" cy="15.2" rx="5.7" ry="2.8"/>
			</g>
			<g>
				<g>
					<path class="st6" d="M226.2,85.3c0,0.9,0.1,1.9,0.1,2.8c0,0.7-0.2,1.3-0.9,1.5c-1.1,0.5-2.5,0.3-3.6,0.1
						c-1.2-0.2-2.4-0.7-3.3-1.5c-0.9-0.8-1.6-1.8-1.6-3.1c0-0.8-1.2-0.8-1.2,0c0,2.9,2.6,4.9,5.2,5.6c2,0.5,5.8,0.9,6.4-1.8
						c0.3-1.2,0.1-2.5,0.1-3.7C227.4,84.5,226.2,84.5,226.2,85.3L226.2,85.3z"/>
				</g>
			</g>
			<g>
				<path class="st9" d="M215.4,14.8l-3.6,68.7v-0.1c-0.1,1.6,2.4,3,5.5,3.1c3.1,0.2,5.8-1,5.8-2.5v0.1l3.6-68.7"/>
				
					<ellipse transform="matrix(5.233750e-02 -0.9986 0.9986 5.233750e-02 194.4663 235.1067)" class="st10" cx="221.1" cy="15.1" rx="2.8" ry="5.7"/>
			</g>
			<g>
				<polygon class="st11" points="222.3,35.2 226.6,37 230.4,34.2 229.8,29.6 225.5,27.7 221.8,30.6 				"/>
				<line class="st12" x1="226.7" y1="40.5" x2="226.2" y2="36.8"/>
				<line class="st12" x1="227.6" y1="40.3" x2="227.1" y2="36.7"/>
				<line class="st12" x1="229.5" y1="33.9" x2="229.1" y2="30.3"/>
				<text transform="matrix(0.3907 -0.9205 0.9205 0.3907 227.7655 42.7642)" class="st13 st14 st15">O</text>
				<line class="st12" x1="225.5" y1="27.7" x2="222.1" y2="26.3"/>
				<line class="st12" x1="223.7" y1="13.8" x2="220.3" y2="12.4"/>
				<polygon class="st11" points="223.7,13.8 228,15.6 231.1,12.1 228.7,8.1 224.2,9.2 				"/>
				<polygon class="st11" points="225.5,27.7 229.8,29.6 233.5,26.8 233,22.1 228.7,20.3 224.9,23.1 				"/>
				<polygon class="st11" points="220.6,21.3 224.9,23.1 228.6,20.3 228.1,15.6 223.7,13.8 220,16.6 				"/>
				<line class="st12" x1="224.3" y1="9.2" x2="221.5" y2="6.8"/>
				<line class="st12" x1="217.9" y1="7.3" x2="221" y2="6.5"/>
				<line class="st12" x1="218" y1="7.9" x2="221.5" y2="6.9"/>
				<text transform="matrix(0.3907 -0.9205 0.9205 0.3907 217.1405 9.0669)" class="st13 st14 st15">O</text>
				<line class="st12" x1="222.4" y1="3.4" x2="221.5" y2="6.9"/>
			</g>
			<g>
				<g>
					<path class="st6" d="M202,15.2c0.1-1.6,1.5-2.6,2.8-3.3c2-1,4.3-1.3,6.5-1.3s4.4,0.3,6.4,1.3c1.3,0.6,2.9,1.7,2.9,3.4
						c0,0.9,1.4,0.9,1.4,0c-0.2-4.8-7-6-10.7-6c-3.6,0-10.5,1.3-10.7,6C200.6,16.1,202,16.1,202,15.2L202,15.2z"/>
				</g>
			</g>
			<g>
				<path class="st7" d="M228.2,16l-6,68.5v-0.1c-0.1,1.6,2.3,3,5.4,3.3c3.1,0.3,5.8-0.8,5.9-2.3v0.1l6-68.5"/>
				
					<ellipse transform="matrix(8.715528e-02 -0.9962 0.9962 8.715528e-02 197.0994 247.8984)" class="st16" cx="233.8" cy="16.4" rx="2.8" ry="5.7"/>
			</g>
			<g>
				<g>
					<path class="st6" d="M250.2,89.4c0,0.9,0,1.8-0.1,2.7c0,0.5-0.2,1.2-0.3,1.6l-0.1,0.2c0,0,0,0.1-0.1,0.1c0,0,0,0,0,0.1
						c-0.1,0.1,0-0.1,0,0c-0.1,0.1-0.1,0.1-0.2,0.2l-0.1,0.1c0.1,0-0.1,0.1-0.1,0.1c-0.1,0-0.2,0.1-0.2,0.1s0,0-0.1,0
						s-0.1,0-0.2,0.1c-0.1,0-0.2,0.1-0.3,0.1s-0.1,0-0.2,0h-0.1c-0.1,0,0.1,0,0,0c-0.6,0.1-1.2,0.1-1.8,0.1c-0.3,0-0.7,0-1,0
						c-0.2,0-0.4,0-0.7-0.1h-0.1c0.1,0,0,0,0,0s-0.1,0-0.1-0.1c-0.1,0,0.1,0.1,0,0c0,0,0-0.1-0.1-0.1c0.1,0.1,0,0.1,0,0v-0.1
						c0.1,0.1,0,0,0,0v-0.1c0-0.1,0,0.1,0,0s0-0.2,0-0.3s0-0.2,0-0.3s0-0.1,0-0.2c0,0,0-0.2,0-0.1c0.2-1.8,0.6-3.6,0.6-5.4
						c0-0.8-1.2-0.8-1.2,0c0,1.7-0.3,3.4-0.5,5.1c-0.1,1-0.2,2.1,0.8,2.7c0.5,0.3,1.2,0.3,1.8,0.3c0.7,0,1.4,0,2.1-0.1
						c1.1-0.1,2.2-0.4,2.8-1.4c0.4-0.6,0.5-1.3,0.6-1.9c0.1-1.1,0.2-2.1,0.2-3.2C251.3,88.6,250.2,88.6,250.2,89.4L250.2,89.4z"/>
				</g>
			</g>
			<g>
				<path class="st9" d="M234.6,21.5l4.8,68.6V90c0.1,1.6,2.7,2.6,5.9,2.4c3.1-0.2,5.6-1.7,5.5-3.2v0.1L246,20.7"/>
				
					<ellipse transform="matrix(0.9976 -6.975397e-02 6.975397e-02 0.9976 -0.8861 16.8128)" class="st17" cx="240.3" cy="21.1" rx="5.7" ry="2.8"/>
			</g>
			<g>
				<g>
					<path class="st6" d="M244.5,89.3c0.1,0.9,0.2,1.9,0.3,2.8c0.1,0.8,0.1,1.7,0.3,2.5c0.3,1.5,1.4,2.3,2.8,2.8
						c1.6,0.6,3.3,1.1,5,1.6c0.7,0.2,1.6,0.4,2.1,1c0.4,0.6,0.7,1.2,1.3,1.6c0.6,0.4,1.2-0.6,0.6-1c-0.5-0.4-0.7-1.1-1.1-1.5
						c-0.5-0.5-1.1-0.8-1.7-1c-1.6-0.5-3.2-1-4.8-1.5c-1.3-0.4-2.6-0.9-2.9-2.3c-0.2-0.8-0.2-1.6-0.3-2.3c-0.1-0.9-0.2-1.8-0.2-2.7
						C245.6,88.5,244.4,88.5,244.5,89.3L244.5,89.3z"/>
				</g>
			</g>
			<g>
				<path class="st7" d="M241.7,19.2l-2.4,68.7v-0.1c-0.1,1.6,2.4,2.9,5.6,3s5.7-1.1,5.8-2.6v0.1l2.4-68.7"/>
				
					<ellipse transform="matrix(3.489918e-02 -0.9994 0.9994 3.489918e-02 219.4756 265.9692)" class="st16" cx="247.4" cy="19.3" rx="2.8" ry="5.7"/>
			</g>
			<g>
				<g>
					<path class="st6" d="M233.5,91c0.6,1.6,0.6,3.3-1.1,4.2s-3.9,0.9-5.8,0.9c-1.2,0-2.4,0-3.5-0.1c-1-0.1-2.2,0-3.1-0.5
						c-1.5-0.8-1-3.1-0.7-4.4c0.6-2.6,1.4-5.1,1.4-7.7c0-0.8-1.2-0.8-1.2,0c0,2.6-0.9,5.2-1.4,7.7c-0.4,1.8-0.7,4.1,1.1,5.3
						c1,0.6,2.2,0.7,3.3,0.7c1.3,0.1,2.6,0.1,3.9,0.1c2.2,0,4.7,0,6.7-1.1c2.2-1.1,2.4-3.4,1.6-5.5C234.4,90,233.3,90.3,233.5,91
						L233.5,91z"/>
				</g>
			</g>
			<g>
				<path class="st7" d="M208.3,14.5l6,68.5v-0.1c0.1,1.6,2.8,2.6,5.9,2.3c3.1-0.3,5.6-1.8,5.4-3.3V82l-6-68.5"/>
				
					<ellipse transform="matrix(0.9962 -8.715528e-02 8.715528e-02 0.9962 -0.4051 18.7037)" class="st16" cx="214" cy="14" rx="5.7" ry="2.8"/>
			</g>
			<g>
				<path class="st18" d="M211.6,23.6l15.5,67v-0.1c0.4,1.5,3.1,2.2,6.2,1.5c3.1-0.7,5.3-2.5,4.9-4v0.1l-15.5-67"/>
				<ellipse transform="matrix(0.9744 -0.225 0.225 0.9744 0.5556 49.4394)" class="st17" cx="217.2" cy="22.3" rx="5.7" ry="2.8"/>
			</g>
			<g>
				<g>
					<path class="st6" d="M213,12.8c0.2-7.4,10.4-9.9,16.2-8c6.7,2.2,9,9.2,8.9,15.6c0,0.8,1.2,0.8,1.2,0c0.1-5.8-1.5-12-6.7-15.3
						C228,2.2,221.8,2.5,217.2,5c-3,1.6-5.2,4.3-5.3,7.8C211.9,13.5,213,13.5,213,12.8L213,12.8z"/>
				</g>
			</g>
			<g>
				<path class="st18" d="M232.6,21.4l11.9,67.7V89c0.3,1.5,3,2.3,6.1,1.8s5.4-2.2,5.1-3.8v0.1l-11.9-67.7"/>
				
					<ellipse transform="matrix(0.9848 -0.1736 0.1736 0.9848 7.681321e-02 41.6592)" class="st19" cx="238.2" cy="20.4" rx="5.7" ry="2.8"/>
			</g>
			<g>
				<g>
					<path class="st6" d="M217.7,22.3c0.1-5,4.8-11.3,10.3-10.5c4.3,0.6,10,3.7,10.1,8.6c0,0.8,1.2,0.8,1.2,0
						c-0.1-4.5-4.2-7.5-8.1-8.9c-1.7-0.6-3.7-1.1-5.5-0.8c-2.3,0.4-4.3,1.9-5.8,3.6c-2,2.2-3.3,5-3.4,8.1
						C216.6,23.1,217.7,23.1,217.7,22.3L217.7,22.3z"/>
				</g>
			</g>
			<g>
				<g>
					<path class="st6" d="M234.1,16.4c0-3,2.5-6.2,5.6-6.5c3-0.3,4.9,2.9,6,5.2c0.6,1.3,1.1,2.7,1.1,4.2c0,0.8,1.2,0.8,1.2,0
						c0-1.5-0.5-3-1.1-4.3c-0.7-1.6-1.6-3.1-2.8-4.4c-1.1-1.1-2.5-1.9-4-1.9c-1.9,0.1-3.7,1-4.9,2.4c-1.3,1.4-2.2,3.3-2.2,5.3
						C232.9,17.2,234.1,17.2,234.1,16.4L234.1,16.4z"/>
				</g>
			</g>
		</g>
		<rect x="203.2" y="42" class="st20" width="48.4" height="10"/>
		<text transform="matrix(1 0 0 1 203.8727 49.9096)" class="st1 st2">ceramidase</text>
		<g>
			<g>
				<polygon points="192.2,87.5 192,87.4 193.8,84.9 194,84.9 				"/>
				<g>
					<path class="st21" d="M192.4,87.1c-0.1,0-0.1-0.1-0.2-0.1c0,0.2,0.1,0.4,0.1,0.6c0.5-0.7,1.1-1.4,1.6-2.1
						c0.1-0.1,0.1-0.2,0.2-0.3c-0.1,0.1-0.2,0.1-0.3,0.2c0.1,0,0.2,0,0.2,0c-0.1-0.2-0.2-0.4-0.3-0.6c-0.5,0.7-1.1,1.5-1.6,2.2
						c-0.1,0.1-0.2,0.2-0.2,0.3c-0.1,0.2,0,0.5,0.1,0.6c0.2,0.1,0.4,0,0.6-0.1c0.5-0.7,1.1-1.5,1.6-2.2c0.1-0.1,0.2-0.2,0.2-0.3
						c0.2-0.3-0.1-0.6-0.3-0.6c-0.1,0-0.1,0-0.2,0c-0.2,0-0.3,0.1-0.4,0.2c0,0,0,0.1-0.1,0.1c-0.1,0.2-0.3,0.3-0.4,0.5
						c-0.4,0.5-0.7,1-1.1,1.5c-0.1,0.1-0.2,0.2-0.3,0.4s0,0.5,0.1,0.6c0.1,0,0.1,0.1,0.2,0.1c0.2,0.1,0.4,0.1,0.6-0.1
						C192.6,87.5,192.6,87.2,192.4,87.1z"/>
				</g>
			</g>
			<g>
				<polygon points="194,84.9 193.8,84.9 192,82.6 192.1,82.5 192.2,82.5 				"/>
				<g>
					<path class="st21" d="M194,84.5c-0.1,0-0.2,0-0.2,0c0.1,0.1,0.2,0.1,0.3,0.2c-0.5-0.7-1-1.3-1.5-2c-0.1-0.1-0.1-0.2-0.2-0.3
						c0,0.1,0,0.2,0,0.3v-0.1c-0.1,0.1-0.3,0.2-0.4,0.3h0.1c-0.1-0.1-0.2-0.1-0.3-0.2c0.5,0.7,1.1,1.4,1.6,2.1
						c0.1,0.1,0.2,0.2,0.2,0.3c0.1,0.2,0.4,0.3,0.6,0.1c0.2-0.1,0.3-0.4,0.1-0.6c-0.6-0.7-1.1-1.5-1.7-2.2c0-0.1-0.1-0.1-0.1-0.2
						c0,0,0,0,0-0.1c-0.1-0.1-0.3-0.2-0.4-0.2c-0.2,0-0.3,0.1-0.4,0.3c0,0.2-0.1,0.3,0,0.4c0,0.1,0.1,0.1,0.1,0.1
						c0.2,0.2,0.3,0.4,0.5,0.6c0.3,0.5,0.7,0.9,1,1.4l0.1,0.1c0.1,0.1,0.2,0.2,0.4,0.2c0.1,0,0.1,0,0.2,0c0.2,0,0.4-0.2,0.4-0.4
						C194.4,84.7,194.3,84.5,194,84.5z"/>
				</g>
			</g>
			<g>
				<polygon points="192.2,82.5 192.1,82.5 192,82.4 193.8,80 193.9,80 194,80.1 				"/>
				<g>
					<path class="st21" d="M192.2,82.1L192.2,82.1c0,0.1,0.2,0.2,0.3,0.3v-0.1c0,0.1,0,0.2,0,0.3c0.5-0.7,1-1.4,1.5-2.1
						c0.1-0.1,0.1-0.2,0.2-0.3c-0.1,0.1-0.2,0.1-0.3,0.2h0.1c-0.1-0.1-0.3-0.2-0.4-0.3v0.1c0-0.1,0-0.2,0-0.3
						c-0.5,0.7-1,1.4-1.5,2.1c-0.1,0.1-0.1,0.2-0.2,0.3c-0.1,0.2,0,0.5,0.1,0.6c0.2,0.1,0.4,0,0.6-0.1c0.5-0.7,1.1-1.5,1.6-2.2
						c0-0.1,0.1-0.1,0.1-0.2c0.1-0.1,0.1-0.3,0-0.4c-0.1-0.2-0.2-0.3-0.4-0.3c-0.1,0-0.2,0-0.3,0.1c-0.1,0-0.1,0.1-0.2,0.2l-0.1,0.1
						c-0.1,0.2-0.3,0.4-0.4,0.6c-0.3,0.5-0.7,1-1,1.4c0,0.1-0.1,0.1-0.1,0.2c-0.1,0.1-0.1,0.3,0,0.5c0.1,0.2,0.2,0.3,0.4,0.3h0.1
						c0.2,0,0.4-0.2,0.4-0.4C192.6,82.3,192.4,82.1,192.2,82.1z"/>
				</g>
			</g>
			<g>
				<polygon points="193.9,79.9 193.9,80 193.8,80 192,77.5 192.2,77.5 				"/>
				<g>
					<path class="st21" d="M193.6,79.8v0.1c0.1-0.1,0.3-0.2,0.4-0.3h-0.1c0.1,0.1,0.2,0.1,0.3,0.2c-0.5-0.7-1.1-1.4-1.6-2.2
						c-0.1-0.1-0.2-0.2-0.2-0.3c-0.1,0.2-0.2,0.4-0.3,0.6c0.1,0,0.2,0,0.2,0c-0.1-0.1-0.2-0.1-0.3-0.2c0.5,0.7,1,1.4,1.5,2.1
						c0.1,0.1,0.1,0.2,0.2,0.3c0.1,0.2,0.4,0.3,0.6,0.1c0.2-0.1,0.3-0.4,0.1-0.6c-0.6-0.7-1.1-1.5-1.7-2.2l-0.1-0.1
						c-0.1-0.1-0.2-0.2-0.4-0.2c-0.1,0-0.1,0-0.2,0c-0.3,0-0.5,0.4-0.3,0.6c0.6,0.8,1.1,1.5,1.7,2.3c0,0.1,0.1,0.1,0.1,0.2l0.1,0.1
						c0.1,0.1,0.3,0.1,0.4,0.1c0.2,0,0.3-0.1,0.4-0.3V80c0.1-0.2-0.1-0.5-0.3-0.5C193.8,79.4,193.6,79.6,193.6,79.8z"/>
				</g>
			</g>
			<g>
				<polygon points="192.2,77.5 192,77.5 193.8,75 194,75 				"/>
				<g>
					<path class="st21" d="M192.2,77.1c-0.1,0-0.2,0-0.2,0c0.1,0.2,0.2,0.4,0.3,0.6c0.5-0.7,1.1-1.4,1.6-2.2
						c0.1-0.1,0.2-0.2,0.2-0.3c-0.1,0.1-0.2,0.1-0.3,0.2c0.1,0,0.2,0,0.2,0c-0.1-0.2-0.2-0.4-0.3-0.6c-0.5,0.7-1.1,1.4-1.6,2.2
						c-0.1,0.1-0.2,0.2-0.2,0.3c-0.1,0.2,0,0.5,0.1,0.6c0.2,0.1,0.4,0,0.6-0.1c0.5-0.7,1.1-1.4,1.6-2.2c0.1-0.1,0.2-0.2,0.2-0.3
						c0.2-0.3-0.1-0.6-0.3-0.6c-0.1,0-0.1,0-0.2,0c-0.2,0-0.3,0.1-0.4,0.2c0,0,0,0.1-0.1,0.1c-0.1,0.2-0.3,0.4-0.4,0.5
						c-0.4,0.5-0.7,1-1.1,1.5c-0.1,0.1-0.2,0.2-0.3,0.4c-0.2,0.3,0.1,0.6,0.3,0.6c0.1,0,0.2,0,0.2,0c0.2,0,0.4-0.2,0.4-0.4
						C192.6,77.3,192.4,77.1,192.2,77.1z"/>
				</g>
			</g>
			<g>
				<polygon points="191.7,77.3 191.5,77.2 193.1,75 193.3,75.1 				"/>
				<g>
					<path class="st21" d="M191.9,77c-0.1,0-0.1-0.1-0.2-0.1c0,0.2,0.1,0.4,0.1,0.6c0.5-0.7,1-1.3,1.5-2c0.1-0.1,0.1-0.2,0.2-0.3
						c-0.2,0-0.4,0.1-0.6,0.1c0.1,0,0.1,0.1,0.2,0.1c0-0.2-0.1-0.4-0.1-0.6c-0.5,0.7-1,1.3-1.5,2c-0.1,0.1-0.1,0.2-0.2,0.3
						c-0.1,0.2,0,0.5,0.1,0.6c0.2,0.1,0.4,0,0.6-0.1c0.5-0.7,1-1.3,1.5-2c0.1-0.1,0.1-0.2,0.2-0.3c0.1-0.2,0-0.5-0.1-0.6
						c-0.1,0-0.1-0.1-0.2-0.1c-0.2-0.1-0.4,0-0.6,0.1c-0.5,0.7-1,1.3-1.5,2c-0.1,0.1-0.1,0.2-0.2,0.3c-0.1,0.2,0,0.5,0.1,0.6
						c0.1,0,0.1,0.1,0.2,0.1c0.2,0.1,0.4,0.1,0.6-0.1C192.1,77.4,192.1,77.1,191.9,77z"/>
				</g>
			</g>
			<g>
				<polygon points="194,75 193.8,75 192,72.6 192.2,72.6 				"/>
				<g>
					<path class="st21" d="M194,74.6c-0.1,0-0.2,0-0.2,0c0.1,0.1,0.2,0.1,0.3,0.2c-0.5-0.7-1.1-1.4-1.6-2.2
						c-0.1-0.1-0.2-0.2-0.2-0.3c-0.1,0.2-0.2,0.4-0.3,0.6c0.1,0,0.2,0,0.2,0c-0.1-0.1-0.2-0.1-0.3-0.2c0.5,0.7,1.1,1.4,1.6,2.2
						c0.1,0.1,0.2,0.2,0.2,0.3c0.1,0.2,0.4,0.3,0.6,0.1c0.2-0.1,0.3-0.4,0.1-0.6c-0.6-0.8-1.2-1.6-1.7-2.3l-0.1-0.1
						c-0.1-0.1-0.2-0.2-0.4-0.2c-0.1,0-0.1,0-0.2,0c-0.3,0-0.5,0.4-0.3,0.6c0.6,0.8,1.2,1.6,1.7,2.3l0.1,0.1
						c0.1,0.1,0.2,0.2,0.4,0.2c0.1,0,0.1,0,0.2,0c0.2,0,0.4-0.2,0.4-0.4C194.4,74.8,194.3,74.6,194,74.6z"/>
				</g>
			</g>
			<g>
				<polygon points="193.8,45.3 194,45.3 192.2,47.8 192,47.8 				"/>
				<g>
					<path class="st21" d="M193.8,45.7c0.1,0,0.2,0,0.2,0c-0.1-0.2-0.2-0.4-0.3-0.6c-0.5,0.7-1.1,1.4-1.6,2.2
						c-0.1,0.1-0.2,0.2-0.2,0.3c0.1-0.1,0.2-0.1,0.3-0.2c-0.1,0-0.2,0-0.2,0c0.1,0.2,0.2,0.4,0.3,0.6c0.5-0.7,1.1-1.4,1.6-2.2
						c0.1-0.1,0.2-0.2,0.2-0.3c0.1-0.2,0-0.5-0.1-0.6c-0.2-0.1-0.4,0-0.6,0.1c-0.5,0.7-1.1,1.4-1.6,2.2c-0.1,0.1-0.2,0.2-0.2,0.3
						c-0.2,0.3,0.1,0.6,0.3,0.6c0.1,0,0.1,0,0.2,0c0.2,0,0.3-0.1,0.4-0.2c0,0,0-0.1,0.1-0.1c0.1-0.2,0.3-0.4,0.4-0.5
						c0.4-0.5,0.7-1,1.1-1.5c0.1-0.1,0.2-0.2,0.3-0.4c0.2-0.3-0.1-0.6-0.3-0.6c-0.1,0-0.2,0-0.2,0c-0.2,0-0.4,0.2-0.4,0.4
						C193.4,45.6,193.6,45.7,193.8,45.7z"/>
				</g>
			</g>
			<g>
				<polygon points="192,47.8 192.2,47.8 194,50.3 193.8,50.3 				"/>
				<g>
					<path class="st21" d="M192,48.2c0.1,0,0.2,0,0.2,0c-0.1-0.1-0.2-0.1-0.3-0.2c0.5,0.7,1.1,1.4,1.6,2.2c0.1,0.1,0.2,0.2,0.2,0.3
						c0.1-0.2,0.2-0.4,0.3-0.6c-0.1,0-0.2,0-0.2,0c0.1,0.1,0.2,0.1,0.3,0.2c-0.5-0.7-1.1-1.4-1.6-2.2c-0.1-0.1-0.2-0.2-0.2-0.3
						c-0.1-0.2-0.4-0.3-0.6-0.1c-0.2,0.1-0.3,0.4-0.1,0.6c0.6,0.8,1.2,1.6,1.7,2.3l0.1,0.1c0.1,0.1,0.2,0.2,0.4,0.2
						c0.1,0,0.1,0,0.2,0c0.3,0,0.5-0.4,0.3-0.6c-0.6-0.8-1.2-1.6-1.7-2.3l-0.1-0.1c-0.1-0.1-0.2-0.2-0.4-0.2c-0.1,0-0.1,0-0.2,0
						c-0.2,0-0.4,0.2-0.4,0.4C191.6,48,191.7,48.2,192,48.2z"/>
				</g>
			</g>
			<g>
				<polygon points="193.8,50.3 194,50.3 192.2,52.8 192,52.8 				"/>
				<g>
					<path class="st21" d="M193.8,50.7c0.1,0,0.2,0,0.2,0c-0.1-0.2-0.2-0.4-0.3-0.6c-0.5,0.7-1.1,1.4-1.6,2.2
						c-0.1,0.1-0.2,0.2-0.2,0.3c0.1-0.1,0.2-0.1,0.3-0.2c-0.1,0-0.2,0-0.2,0c0.1,0.2,0.2,0.4,0.3,0.6c0.5-0.7,1.1-1.4,1.6-2.2
						c0.1-0.1,0.2-0.2,0.2-0.3c0.1-0.2,0-0.5-0.1-0.6c-0.2-0.1-0.4,0-0.6,0.1c-0.5,0.7-1.1,1.4-1.6,2.2c-0.1,0.1-0.2,0.2-0.2,0.3
						c-0.2,0.3,0.1,0.6,0.3,0.6c0.1,0,0.1,0,0.2,0c0.2,0,0.3-0.1,0.4-0.2c0,0,0-0.1,0.1-0.1c0.1-0.2,0.3-0.4,0.4-0.5
						c0.4-0.5,0.7-1,1.1-1.5c0.1-0.1,0.2-0.2,0.3-0.4c0.2-0.3-0.1-0.6-0.3-0.6c-0.1,0-0.2,0-0.2,0c-0.2,0-0.4,0.2-0.4,0.4
						C193.4,50.5,193.6,50.7,193.8,50.7z"/>
				</g>
			</g>
			<g>
				<polygon points="192,52.8 192.2,52.8 194,55.2 193.8,55.2 				"/>
				<g>
					<path class="st21" d="M192,53.2c0.1,0,0.2,0,0.2,0c-0.1-0.1-0.2-0.1-0.3-0.2c0.5,0.7,1.1,1.4,1.6,2.2c0.1,0.1,0.2,0.2,0.2,0.3
						c0.1-0.2,0.2-0.4,0.3-0.6c-0.1,0-0.2,0-0.2,0c0.1,0.1,0.2,0.1,0.3,0.2c-0.5-0.7-1.1-1.4-1.6-2.2c-0.1-0.1-0.2-0.2-0.2-0.3
						c-0.1-0.2-0.4-0.3-0.6-0.1c-0.2,0.1-0.3,0.4-0.1,0.6c0.6,0.8,1.2,1.6,1.7,2.3l0.1,0.1c0.1,0.1,0.2,0.2,0.4,0.2
						c0.1,0,0.1,0,0.2,0c0.3,0,0.5-0.4,0.3-0.6c-0.6-0.8-1.2-1.6-1.7-2.3l-0.1-0.1c-0.1-0.1-0.2-0.2-0.4-0.2c-0.1,0-0.1,0-0.2,0
						c-0.2,0-0.4,0.2-0.4,0.4C191.6,53,191.7,53.2,192,53.2z"/>
				</g>
			</g>
			<g>
				<polygon points="193.8,55.2 194,55.2 192.2,57.7 192,57.7 				"/>
				<g>
					<path class="st21" d="M193.8,55.6c0.1,0,0.2,0,0.2,0c-0.1-0.2-0.2-0.4-0.3-0.6c-0.5,0.7-1.1,1.4-1.6,2.2
						c-0.1,0.1-0.2,0.2-0.2,0.3c0.1-0.1,0.2-0.1,0.3-0.2c-0.1,0-0.2,0-0.2,0c0.1,0.2,0.2,0.4,0.3,0.6c0.5-0.7,1.1-1.4,1.6-2.2
						c0.1-0.1,0.2-0.2,0.2-0.3c0.1-0.2,0-0.5-0.1-0.6c-0.2-0.1-0.4,0-0.6,0.1c-0.5,0.7-1.1,1.4-1.6,2.2c-0.1,0.1-0.2,0.2-0.2,0.3
						c-0.2,0.3,0.1,0.6,0.3,0.6c0.1,0,0.1,0,0.2,0c0.2,0,0.3-0.1,0.4-0.2c0,0,0-0.1,0.1-0.1c0.1-0.2,0.3-0.4,0.4-0.5
						c0.4-0.5,0.7-1,1.1-1.5c0.1-0.1,0.2-0.2,0.3-0.4c0.2-0.3-0.1-0.6-0.3-0.6c-0.1,0-0.2,0-0.2,0c-0.2,0-0.4,0.2-0.4,0.4
						C193.4,55.5,193.6,55.6,193.8,55.6z"/>
				</g>
			</g>
			<g>
				<polygon points="192,57.7 192.2,57.7 194,60.2 193.8,60.2 				"/>
				<g>
					<path class="st21" d="M192,58.1c0.1,0,0.2,0,0.2,0c-0.1-0.1-0.2-0.1-0.3-0.2c0.5,0.7,1.1,1.4,1.6,2.2c0.1,0.1,0.2,0.2,0.2,0.3
						c0.1-0.2,0.2-0.4,0.3-0.6c-0.1,0-0.2,0-0.2,0c0.1,0.1,0.2,0.1,0.3,0.2c-0.5-0.7-1.1-1.4-1.6-2.2c-0.1-0.1-0.2-0.2-0.2-0.3
						c-0.1-0.2-0.4-0.3-0.6-0.1c-0.2,0.1-0.3,0.4-0.1,0.6c0.6,0.8,1.2,1.6,1.7,2.3l0.1,0.1c0.1,0.1,0.2,0.2,0.4,0.2
						c0.1,0,0.1,0,0.2,0c0.3,0,0.5-0.4,0.3-0.6c-0.6-0.8-1.2-1.6-1.7-2.3l-0.1-0.1c-0.1-0.1-0.2-0.2-0.4-0.2c-0.1,0-0.1,0-0.2,0
						c-0.2,0-0.4,0.2-0.4,0.4C191.6,57.9,191.7,58.1,192,58.1z"/>
				</g>
			</g>
			<g>
				<polygon points="193.8,60.2 194,60.2 192.2,62.7 192,62.7 				"/>
				<g>
					<path class="st21" d="M193.8,60.6c0.1,0,0.2,0,0.2,0c-0.1-0.2-0.2-0.4-0.3-0.6c-0.5,0.7-1.1,1.4-1.6,2.2
						c-0.1,0.1-0.2,0.2-0.2,0.3c0.1-0.1,0.2-0.1,0.3-0.2c-0.1,0-0.2,0-0.2,0c0.1,0.2,0.2,0.4,0.3,0.6c0.5-0.7,1.1-1.4,1.6-2.2
						c0.1-0.1,0.2-0.2,0.2-0.3c0.1-0.2,0-0.5-0.1-0.6c-0.2-0.1-0.4,0-0.6,0.1c-0.5,0.7-1.1,1.4-1.6,2.2c-0.1,0.1-0.2,0.2-0.2,0.3
						c-0.2,0.3,0.1,0.6,0.3,0.6c0.1,0,0.1,0,0.2,0c0.2,0,0.3-0.1,0.4-0.2c0,0,0-0.1,0.1-0.1c0.1-0.2,0.3-0.4,0.4-0.5
						c0.4-0.5,0.7-1,1.1-1.5c0.1-0.1,0.2-0.2,0.3-0.4c0.2-0.3-0.1-0.6-0.3-0.6c-0.1,0-0.2,0-0.2,0c-0.2,0-0.4,0.2-0.4,0.4
						C193.4,60.4,193.6,60.6,193.8,60.6z"/>
				</g>
			</g>
			<g>
				<polygon points="192,62.7 192.2,62.7 194,65.1 193.8,65.1 				"/>
				<g>
					<path class="st21" d="M192,63.1c0.1,0,0.2,0,0.2,0c-0.1-0.1-0.2-0.1-0.3-0.2c0.5,0.7,1.1,1.4,1.6,2.2c0.1,0.1,0.2,0.2,0.2,0.3
						c0.1-0.2,0.2-0.4,0.3-0.6c-0.1,0-0.2,0-0.2,0c0.1,0.1,0.2,0.1,0.3,0.2c-0.5-0.7-1.1-1.4-1.6-2.2c-0.1-0.1-0.2-0.2-0.2-0.3
						c-0.1-0.2-0.4-0.3-0.6-0.1c-0.2,0.1-0.3,0.4-0.1,0.6c0.6,0.8,1.2,1.6,1.7,2.3l0.1,0.1c0.1,0.1,0.2,0.2,0.4,0.2
						c0.1,0,0.1,0,0.2,0c0.3,0,0.5-0.4,0.3-0.6c-0.6-0.8-1.2-1.6-1.7-2.3l-0.1-0.1c-0.1-0.1-0.2-0.2-0.4-0.2c-0.1,0-0.1,0-0.2,0
						c-0.2,0-0.4,0.2-0.4,0.4C191.6,62.9,191.7,63.1,192,63.1z"/>
				</g>
			</g>
			<g>
				<polygon points="193.8,65.1 194,65.1 192.2,67.6 192,67.6 				"/>
				<g>
					<path class="st21" d="M193.8,65.5c0.1,0,0.2,0,0.2,0c-0.1-0.2-0.2-0.4-0.3-0.6c-0.5,0.7-1.1,1.4-1.6,2.2
						c-0.1,0.1-0.2,0.2-0.2,0.3c0.1-0.1,0.2-0.1,0.3-0.2c-0.1,0-0.2,0-0.2,0c0.1,0.2,0.2,0.4,0.3,0.6c0.5-0.7,1.1-1.4,1.6-2.2
						c0.1-0.1,0.2-0.2,0.2-0.3c0.1-0.2,0-0.5-0.1-0.6c-0.2-0.1-0.4,0-0.6,0.1c-0.5,0.7-1.1,1.4-1.6,2.2c-0.1,0.1-0.2,0.2-0.2,0.3
						c-0.2,0.3,0.1,0.6,0.3,0.6c0.1,0,0.1,0,0.2,0c0.2,0,0.3-0.1,0.4-0.2c0,0,0-0.1,0.1-0.1c0.1-0.2,0.3-0.4,0.4-0.5
						c0.4-0.5,0.7-1,1.1-1.5c0.1-0.1,0.2-0.2,0.3-0.4c0.2-0.3-0.1-0.6-0.3-0.6c-0.1,0-0.2,0-0.2,0c-0.2,0-0.4,0.2-0.4,0.4
						C193.4,65.4,193.6,65.5,193.8,65.5z"/>
				</g>
			</g>
			<g>
				<polygon points="192,67.6 192.2,67.6 194,70.1 193.8,70.1 				"/>
				<g>
					<path class="st21" d="M192,68c0.1,0,0.2,0,0.2,0c-0.1-0.1-0.2-0.1-0.3-0.2c0.5,0.7,1.1,1.4,1.6,2.2c0.1,0.1,0.2,0.2,0.2,0.3
						c0.1-0.2,0.2-0.4,0.3-0.6c-0.1,0-0.2,0-0.2,0c0.1,0.1,0.2,0.1,0.3,0.2c-0.5-0.7-1.1-1.4-1.6-2.2c-0.1-0.1-0.2-0.2-0.2-0.3
						c-0.1-0.2-0.4-0.3-0.6-0.1c-0.2,0.1-0.3,0.4-0.1,0.6c0.6,0.8,1.2,1.6,1.7,2.3l0.1,0.1c0.1,0.1,0.2,0.2,0.4,0.2
						c0.1,0,0.1,0,0.2,0c0.3,0,0.5-0.4,0.3-0.6c-0.6-0.8-1.2-1.6-1.7-2.3l-0.1-0.1c-0.1-0.1-0.2-0.2-0.4-0.2c-0.1,0-0.1,0-0.2,0
						c-0.2,0-0.4,0.2-0.4,0.4C191.6,67.8,191.7,68,192,68z"/>
				</g>
			</g>
			<g>
				<polygon points="193.8,70.1 194,70.1 192.2,72.6 192,72.6 				"/>
				<g>
					<path class="st21" d="M193.8,70.5c0.1,0,0.2,0,0.2,0c-0.1-0.2-0.2-0.4-0.3-0.6c-0.5,0.7-1.1,1.4-1.6,2.2
						c-0.1,0.1-0.2,0.2-0.2,0.3c0.1-0.1,0.2-0.1,0.3-0.2c-0.1,0-0.2,0-0.2,0c0.1,0.2,0.2,0.4,0.3,0.6c0.5-0.7,1.1-1.4,1.6-2.2
						c0.1-0.1,0.2-0.2,0.2-0.3c0.1-0.2,0-0.5-0.1-0.6c-0.2-0.1-0.4,0-0.6,0.1c-0.5,0.7-1.1,1.4-1.6,2.2c-0.1,0.1-0.2,0.2-0.2,0.3
						c-0.2,0.3,0.1,0.6,0.3,0.6c0.1,0,0.1,0,0.2,0c0.2,0,0.3-0.1,0.4-0.2c0,0,0-0.1,0.1-0.1c0.1-0.2,0.3-0.4,0.4-0.5
						c0.4-0.5,0.7-1,1.1-1.5c0.1-0.1,0.2-0.2,0.3-0.4c0.2-0.3-0.1-0.6-0.3-0.6c-0.1,0-0.2,0-0.2,0c-0.2,0-0.4,0.2-0.4,0.4
						C193.4,70.3,193.6,70.5,193.8,70.5z"/>
				</g>
			</g>
			<g>
				<polygon points="197,78.5 197.1,78.6 194.1,80 193.9,80 193.9,79.9 				"/>
				<g>
					<path class="st21" d="M196.7,78.7l0.1,0.1c0-0.2,0.1-0.4,0.1-0.6c-0.9,0.4-1.8,0.8-2.6,1.2c-0.1,0.1-0.3,0.1-0.4,0.2
						c0.1,0,0.1,0,0.2-0.1c-0.1,0-0.1,0-0.2,0c0.1,0.2,0.3,0.3,0.4,0.5v-0.1c-0.1,0.1-0.1,0.2-0.2,0.2c0.9-0.4,1.8-0.8,2.7-1.2
						c0.1-0.1,0.3-0.1,0.4-0.2c0.2-0.1,0.2-0.4,0.1-0.6c-0.1-0.2-0.4-0.2-0.6-0.1c-0.9,0.4-1.9,0.8-2.8,1.3c-0.1,0-0.1,0.1-0.2,0.1
						c-0.2,0.1-0.2,0.2-0.3,0.4c-0.1,0.3,0.1,0.5,0.4,0.5c0.2,0,0.3,0,0.4-0.1c0,0,0.1,0,0.1-0.1c0.2-0.1,0.5-0.2,0.7-0.3
						c0.6-0.3,1.2-0.5,1.8-0.8c0.1-0.1,0.3-0.1,0.4-0.2c0.2-0.1,0.3-0.4,0.1-0.6l-0.1-0.1c-0.1-0.2-0.4-0.3-0.6-0.1
						C196.7,78.2,196.5,78.5,196.7,78.7z"/>
				</g>
			</g>
			<g>
				<polygon points="197.1,81.3 197,81.5 194,80.1 193.9,80 194.1,80 				"/>
				<g>
					<path class="st21" d="M196.8,81.1l-0.1,0.1c0.2,0,0.4-0.1,0.6-0.1c-0.9-0.4-1.8-0.8-2.7-1.2c-0.1-0.1-0.3-0.1-0.4-0.2
						c0.1,0.1,0.1,0.2,0.2,0.2v-0.1c-0.1,0.2-0.3,0.3-0.4,0.5c0.1,0,0.1,0,0.2,0c-0.1,0-0.1,0-0.2-0.1c0.9,0.4,1.8,0.8,2.6,1.2
						c0.1,0.1,0.3,0.1,0.4,0.2c0.2,0.1,0.4,0.1,0.6-0.1c0.1-0.2,0.1-0.5-0.1-0.6c-0.9-0.4-1.9-0.8-2.8-1.3c-0.1,0-0.1-0.1-0.2-0.1
						c-0.1-0.1-0.3-0.1-0.4-0.1c-0.2,0-0.5,0.3-0.4,0.5c0.1,0.1,0.1,0.3,0.2,0.4c0.1,0,0.1,0,0.2,0.1c0.2,0.1,0.5,0.2,0.7,0.3
						c0.6,0.3,1.2,0.5,1.8,0.8c0.1,0.1,0.3,0.1,0.4,0.2c0.2,0.1,0.4,0,0.6-0.1l0.1-0.1c0.1-0.2,0-0.5-0.1-0.6
						C197.1,80.9,196.9,81,196.8,81.1z"/>
				</g>
			</g>
			<g>
				<polygon points="188.3,80.7 188.4,80.6 192,82.4 192.1,82.5 191.9,82.5 				"/>
				<g>
					<path class="st21" d="M188.5,81.1c0.1,0,0.1-0.1,0.2-0.1c-0.1,0-0.3,0-0.4,0c1.1,0.5,2.1,1,3.2,1.6c0.2,0.1,0.3,0.2,0.5,0.2
						c-0.1-0.1-0.1-0.2-0.2-0.2v0.1c0.1-0.2,0.3-0.3,0.4-0.5c-0.1,0-0.1,0-0.2,0c0.1,0,0.1,0,0.2,0.1c-1-0.5-2.1-1-3.1-1.6
						c-0.2-0.1-0.3-0.2-0.5-0.2c-0.2-0.1-0.4-0.1-0.6,0.1c-0.1,0.2-0.1,0.5,0.1,0.6c1.1,0.6,2.2,1.1,3.3,1.7c0.1,0,0.2,0.1,0.2,0.1
						c0.1,0.1,0.3,0.1,0.4,0.1c0.3,0,0.5-0.3,0.4-0.5c0-0.2-0.1-0.3-0.3-0.4c-0.1,0-0.1-0.1-0.2-0.1c-0.3-0.1-0.6-0.3-0.8-0.4
						c-0.7-0.3-1.4-0.7-2.1-1c-0.2-0.1-0.3-0.2-0.5-0.2c-0.1-0.1-0.3-0.1-0.4,0c-0.1,0-0.1,0.1-0.2,0.1c-0.2,0.1-0.3,0.3-0.1,0.6
						C188,81.1,188.3,81.2,188.5,81.1z"/>
				</g>
			</g>
			<g>
				<polygon points="188.4,84.5 188.3,84.3 191.9,82.5 192.1,82.5 192,82.6 				"/>
				<g>
					<path class="st21" d="M188.7,84.2l-0.1-0.1c0,0.2-0.1,0.4-0.1,0.6c1-0.5,2.1-1,3.1-1.6c0.1-0.1,0.3-0.1,0.4-0.2
						c-0.1,0-0.1,0-0.2,0.1c0.1,0,0.1,0,0.2,0c-0.1-0.2-0.3-0.3-0.4-0.5v0.1c0.1-0.1,0.1-0.2,0.2-0.2c-1.1,0.5-2.1,1.1-3.2,1.6
						c-0.2,0.1-0.3,0.2-0.5,0.2c-0.2,0.1-0.3,0.4-0.1,0.6c0.1,0.2,0.4,0.2,0.6,0.1c1.1-0.6,2.2-1.1,3.3-1.7c0.1,0,0.2-0.1,0.3-0.1
						c0.2-0.1,0.2-0.2,0.3-0.4c0.1-0.3-0.1-0.5-0.4-0.5c-0.1,0-0.3,0-0.4,0.1c-0.1,0-0.1,0.1-0.2,0.1c-0.3,0.1-0.5,0.3-0.8,0.4
						c-0.7,0.3-1.4,0.7-2.1,1c-0.2,0.1-0.3,0.2-0.5,0.2c-0.3,0.1-0.2,0.4-0.1,0.6l0.1,0.1c0.1,0.2,0.4,0.1,0.6,0
						C188.9,84.6,188.8,84.3,188.7,84.2z"/>
				</g>
			</g>
			<g>
				<polygon points="192,42.9 192.2,42.8 194,45.3 193.8,45.3 				"/>
				<g>
					<path class="st21" d="M192.2,43.2c0.1,0,0.1-0.1,0.2-0.1c-0.2,0-0.4-0.1-0.6-0.1c0.5,0.7,1.1,1.5,1.6,2.2
						c0.1,0.1,0.2,0.2,0.2,0.3c0.1-0.2,0.2-0.4,0.3-0.6c-0.1,0-0.2,0-0.2,0c0.1,0.1,0.2,0.1,0.3,0.2c-0.5-0.7-1.1-1.4-1.6-2.1
						c-0.1-0.1-0.1-0.2-0.2-0.3c-0.1-0.2-0.4-0.3-0.6-0.1c-0.2,0.1-0.3,0.4-0.1,0.6c0.6,0.8,1.1,1.5,1.7,2.3l0.1,0.1
						c0.1,0.1,0.2,0.2,0.4,0.2c0.1,0,0.1,0,0.2,0c0.3,0,0.5-0.4,0.3-0.6c-0.5-0.7-1.1-1.5-1.6-2.2c-0.1-0.1-0.2-0.2-0.2-0.3
						c-0.1-0.2-0.3-0.2-0.6-0.1c-0.1,0-0.1,0.1-0.2,0.1c-0.2,0.1-0.3,0.4-0.1,0.6C191.8,43.3,192,43.3,192.2,43.2z"/>
				</g>
			</g>
			<g>
				<polygon points="182.9,78.5 182.9,78.3 186.7,78.3 186.7,78.5 				"/>
				<g>
					<path class="st21" d="M183.3,78.5c0-0.1,0-0.1,0-0.2c-0.1,0.1-0.3,0.3-0.4,0.4c1.1,0,2.2,0,3.4,0c0.2,0,0.3,0,0.5,0
						c-0.1-0.1-0.3-0.3-0.4-0.4c0,0.1,0,0.1,0,0.2c0.1-0.1,0.3-0.3,0.4-0.4c-1.1,0-2.2,0-3.4,0c-0.2,0-0.3,0-0.5,0
						c-0.5,0-0.5,0.8,0,0.8c1.1,0,2.2,0,3.4,0c0.2,0,0.3,0,0.5,0s0.4-0.2,0.4-0.4c0-0.1,0-0.1,0-0.2c0-0.2-0.2-0.4-0.4-0.4
						c-1.1,0-2.2,0-3.4,0c-0.2,0-0.3,0-0.5,0s-0.4,0.2-0.4,0.4c0,0.1,0,0.1,0,0.2C182.5,79,183.3,79,183.3,78.5z"/>
				</g>
			</g>
			<g>
				<polygon points="182.9,78 182.9,77.9 186.7,77.9 186.7,78.1 				"/>
				<g>
					<path class="st21" d="M183.3,78c0-0.1,0-0.1,0-0.2c-0.1,0.1-0.3,0.3-0.4,0.4c1.1,0,2.2,0,3.4,0c0.2,0,0.3,0,0.5,0
						c-0.1-0.1-0.3-0.3-0.4-0.4c0,0.1,0,0.1,0,0.2c0.1-0.1,0.3-0.3,0.4-0.4c-1.1,0-2.2,0-3.4,0c-0.2,0-0.3,0-0.5,0
						c-0.5,0-0.5,0.8,0,0.8c1.1,0,2.2,0,3.4,0c0.2,0,0.3,0,0.5,0s0.4-0.2,0.4-0.4c0-0.1,0-0.1,0-0.2c0-0.2-0.2-0.4-0.4-0.4
						c-1.1,0-2.2,0-3.4,0c-0.2,0-0.3,0-0.5,0s-0.4,0.2-0.4,0.4c0,0.1,0,0.1,0,0.2C182.5,78.6,183.3,78.6,183.3,78z"/>
				</g>
			</g>
			<g>
				<polygon points="188.4,80.6 188.3,80.7 186.4,78.2 186.7,78.2 				"/>
				<g>
					<path class="st21" d="M188.2,80.3c-0.1,0-0.1,0.1-0.2,0.1c0.2,0,0.4,0.1,0.6,0.1c-0.5-0.7-1.1-1.5-1.6-2.2
						c-0.1-0.1-0.2-0.2-0.2-0.3c-0.1,0.2-0.2,0.4-0.3,0.6c0.1,0,0.2,0,0.2,0c-0.1-0.1-0.2-0.1-0.3-0.2c0.5,0.7,1,1.4,1.6,2.1
						c0.1,0.1,0.1,0.2,0.2,0.3c0.1,0.2,0.4,0.3,0.6,0.1c0.2-0.1,0.3-0.4,0.1-0.6c-0.6-0.8-1.1-1.5-1.7-2.3l-0.1-0.1
						c-0.2-0.2-0.4-0.2-0.6-0.2c-0.3,0-0.5,0.4-0.3,0.6c0.5,0.7,1.1,1.5,1.6,2.2c0.1,0.1,0.2,0.2,0.2,0.3c0.1,0.2,0.4,0.3,0.6,0.1
						c0.1,0,0.1-0.1,0.2-0.1c0.2-0.1,0.3-0.4,0.1-0.6C188.7,80.2,188.4,80.1,188.2,80.3z"/>
				</g>
			</g>
			<g>
				<polygon points="188.2,75.7 188.5,75.7 186.7,78.2 186.4,78.2 				"/>
				<g>
					<path class="st21" d="M188.2,76.1c0.1,0,0.2,0,0.2,0c-0.1-0.2-0.2-0.4-0.3-0.6c-0.5,0.7-1.1,1.4-1.6,2.2
						c-0.1,0.1-0.2,0.2-0.2,0.3c0.1-0.1,0.2-0.1,0.3-0.2c-0.1,0-0.2,0-0.2,0c0.1,0.2,0.2,0.4,0.3,0.6c0.5-0.7,1.1-1.4,1.6-2.2
						c0.1-0.1,0.2-0.2,0.2-0.3c0.1-0.2,0-0.5-0.1-0.6c-0.2-0.1-0.4,0-0.6,0.1c-0.5,0.7-1.1,1.4-1.6,2.2c-0.1,0.1-0.2,0.2-0.2,0.3
						c-0.2,0.3,0.1,0.6,0.3,0.6c0.1,0,0.1,0,0.2,0c0.2,0,0.3-0.1,0.4-0.2c0,0,0-0.1,0.1-0.1c0.1-0.2,0.3-0.4,0.4-0.5
						c0.4-0.5,0.7-1,1.1-1.5c0.1-0.1,0.2-0.2,0.3-0.4c0.2-0.3-0.1-0.6-0.3-0.6c-0.1,0-0.2,0-0.2,0c-0.2,0-0.4,0.2-0.4,0.4
						C187.8,75.9,188,76.1,188.2,76.1z"/>
				</g>
			</g>
			<g>
				<polygon points="186.4,73.3 186.7,73.3 188.5,75.7 188.2,75.7 				"/>
				<g>
					<path class="st21" d="M186.4,73.7c0.1,0,0.2,0,0.2,0c-0.1-0.1-0.2-0.1-0.3-0.2c0.5,0.7,1.1,1.4,1.6,2.2
						c0.1,0.1,0.2,0.2,0.2,0.3c0.1-0.2,0.2-0.4,0.3-0.6c-0.1,0-0.2,0-0.2,0c0.1,0.1,0.2,0.1,0.3,0.2c-0.5-0.7-1.1-1.4-1.6-2.2
						c-0.1-0.1-0.2-0.2-0.2-0.3c-0.1-0.2-0.4-0.3-0.6-0.1c-0.2,0.1-0.3,0.4-0.1,0.6c0.6,0.8,1.2,1.6,1.7,2.3l0.1,0.1
						c0.1,0.1,0.2,0.2,0.4,0.2c0.1,0,0.1,0,0.2,0c0.3,0,0.5-0.4,0.3-0.6c-0.6-0.8-1.2-1.6-1.7-2.3l-0.1-0.1
						c-0.1-0.1-0.2-0.2-0.4-0.2c-0.1,0-0.1,0-0.2,0c-0.2,0-0.4,0.2-0.4,0.4C186,73.5,186.2,73.7,186.4,73.7z"/>
				</g>
			</g>
			<g>
				<polygon points="188.2,70.8 188.5,70.8 186.7,73.3 186.4,73.3 				"/>
				<g>
					<path class="st21" d="M188.2,71.2c0.1,0,0.2,0,0.2,0c-0.1-0.2-0.2-0.4-0.3-0.6c-0.5,0.7-1.1,1.4-1.6,2.2
						c-0.1,0.1-0.2,0.2-0.2,0.3c0.1-0.1,0.2-0.1,0.3-0.2c-0.1,0-0.2,0-0.2,0c0.1,0.2,0.2,0.4,0.3,0.6c0.5-0.7,1.1-1.4,1.6-2.2
						c0.1-0.1,0.2-0.2,0.2-0.3c0.1-0.2,0-0.5-0.1-0.6c-0.2-0.1-0.4,0-0.6,0.1c-0.5,0.7-1.1,1.4-1.6,2.2c-0.1,0.1-0.2,0.2-0.2,0.3
						c-0.2,0.3,0.1,0.6,0.3,0.6c0.1,0,0.1,0,0.2,0c0.2,0,0.3-0.1,0.4-0.2c0,0,0-0.1,0.1-0.1c0.1-0.2,0.3-0.4,0.4-0.5
						c0.4-0.5,0.7-1,1.1-1.5c0.1-0.1,0.2-0.2,0.3-0.4c0.2-0.3-0.1-0.6-0.3-0.6c-0.1,0-0.2,0-0.2,0c-0.2,0-0.4,0.2-0.4,0.4
						C187.8,71,188,71.2,188.2,71.2z"/>
				</g>
			</g>
			<g>
				<polygon points="188.5,70.8 188.2,70.8 186.4,68.3 186.7,68.3 				"/>
				<g>
					<path class="st21" d="M188.5,70.4c-0.1,0-0.2,0-0.2,0c0.1,0.1,0.2,0.1,0.3,0.2c-0.5-0.7-1.1-1.4-1.6-2.2
						c-0.1-0.1-0.2-0.2-0.2-0.3c-0.1,0.2-0.2,0.4-0.3,0.6c0.1,0,0.2,0,0.2,0c-0.1-0.1-0.2-0.1-0.3-0.2c0.5,0.7,1.1,1.4,1.6,2.2
						c0.1,0.1,0.2,0.2,0.2,0.3c0.1,0.2,0.4,0.3,0.6,0.1c0.2-0.1,0.3-0.4,0.1-0.6c-0.6-0.8-1.2-1.6-1.7-2.3l-0.1-0.1
						c-0.1-0.1-0.2-0.2-0.4-0.2c-0.1,0-0.1,0-0.2,0c-0.3,0-0.5,0.4-0.3,0.6c0.6,0.8,1.2,1.6,1.7,2.3l0.1,0.1
						c0.1,0.1,0.2,0.2,0.4,0.2c0.1,0,0.1,0,0.2,0c0.2,0,0.4-0.2,0.4-0.4C188.9,70.6,188.7,70.4,188.5,70.4z"/>
				</g>
			</g>
			<g>
				<polygon points="186.7,68.3 186.4,68.3 188.2,65.8 188.5,65.8 				"/>
				<g>
					<path class="st21" d="M186.7,67.9c-0.1,0-0.2,0-0.2,0c0.1,0.2,0.2,0.4,0.3,0.6c0.5-0.7,1.1-1.4,1.6-2.2
						c0.1-0.1,0.2-0.2,0.2-0.3c-0.1,0.1-0.2,0.1-0.3,0.2c0.1,0,0.2,0,0.2,0c-0.1-0.2-0.2-0.4-0.3-0.6c-0.5,0.7-1.1,1.4-1.6,2.2
						c-0.1,0.1-0.2,0.2-0.2,0.3c-0.1,0.2,0,0.5,0.1,0.6c0.2,0.1,0.4,0,0.6-0.1c0.5-0.7,1.1-1.4,1.6-2.2c0.1-0.1,0.2-0.2,0.2-0.3
						c0.2-0.3-0.1-0.6-0.3-0.6c-0.1,0-0.1,0-0.2,0c-0.2,0-0.3,0.1-0.4,0.2c0,0,0,0.1-0.1,0.1c-0.1,0.2-0.3,0.4-0.4,0.5
						c-0.4,0.5-0.7,1-1.1,1.5c-0.1,0.1-0.2,0.2-0.3,0.4c-0.2,0.3,0.1,0.6,0.3,0.6c0.1,0,0.2,0,0.2,0c0.2,0,0.4-0.2,0.4-0.4
						C187,68.1,186.9,67.9,186.7,67.9z"/>
				</g>
			</g>
			<g>
				<polygon points="188.5,65.8 188.2,65.8 186.4,63.3 186.7,63.3 				"/>
				<g>
					<path class="st21" d="M188.5,65.4c-0.1,0-0.2,0-0.2,0c0.1,0.1,0.2,0.1,0.3,0.2c-0.5-0.7-1.1-1.4-1.6-2.2
						c-0.1-0.1-0.2-0.2-0.2-0.3c-0.1,0.2-0.2,0.4-0.3,0.6c0.1,0,0.2,0,0.2,0c-0.1-0.1-0.2-0.1-0.3-0.2c0.5,0.7,1.1,1.4,1.6,2.2
						c0.1,0.1,0.2,0.2,0.2,0.3c0.1,0.2,0.4,0.3,0.6,0.1c0.2-0.1,0.3-0.4,0.1-0.6c-0.6-0.8-1.2-1.6-1.7-2.3l-0.1-0.1
						c-0.1-0.1-0.2-0.2-0.4-0.2c-0.1,0-0.1,0-0.2,0c-0.3,0-0.5,0.4-0.3,0.6c0.6,0.8,1.2,1.6,1.7,2.3l0.1,0.1
						c0.1,0.1,0.2,0.2,0.4,0.2c0.1,0,0.1,0,0.2,0c0.2,0,0.4-0.2,0.4-0.4C188.9,65.6,188.7,65.4,188.5,65.4z"/>
				</g>
			</g>
			<g>
				<polygon points="186.7,63.3 186.4,63.3 188.2,60.9 188.5,60.9 				"/>
				<g>
					<path class="st21" d="M186.7,62.9c-0.1,0-0.2,0-0.2,0c0.1,0.2,0.2,0.4,0.3,0.6c0.5-0.7,1.1-1.4,1.6-2.2
						c0.1-0.1,0.2-0.2,0.2-0.3c-0.1,0.1-0.2,0.1-0.3,0.2c0.1,0,0.2,0,0.2,0c-0.1-0.2-0.2-0.4-0.3-0.6c-0.5,0.7-1.1,1.4-1.6,2.2
						c-0.1,0.1-0.2,0.2-0.2,0.3c-0.1,0.2,0,0.5,0.1,0.6c0.2,0.1,0.4,0,0.6-0.1c0.5-0.7,1.1-1.4,1.6-2.2c0.1-0.1,0.2-0.2,0.2-0.3
						c0.2-0.3-0.1-0.6-0.3-0.6c-0.1,0-0.1,0-0.2,0c-0.2,0-0.3,0.1-0.4,0.2c0,0,0,0.1-0.1,0.1c-0.1,0.2-0.3,0.4-0.4,0.5
						c-0.4,0.5-0.7,1-1.1,1.5c-0.1,0.1-0.2,0.2-0.3,0.4c-0.2,0.3,0.1,0.6,0.3,0.6c0.1,0,0.2,0,0.2,0c0.2,0,0.4-0.2,0.4-0.4
						C187,63.1,186.9,62.9,186.7,62.9z"/>
				</g>
			</g>
			<g>
				<polygon points="188.5,60.9 188.2,60.9 186.4,58.4 186.7,58.4 				"/>
				<g>
					<path class="st21" d="M188.5,60.5c-0.1,0-0.2,0-0.2,0c0.1,0.1,0.2,0.1,0.3,0.2c-0.5-0.7-1.1-1.4-1.6-2.2
						c-0.1-0.1-0.2-0.2-0.2-0.3c-0.1,0.2-0.2,0.4-0.3,0.6c0.1,0,0.2,0,0.2,0c-0.1-0.1-0.2-0.1-0.3-0.2c0.5,0.7,1.1,1.4,1.6,2.2
						c0.1,0.1,0.2,0.2,0.2,0.3c0.1,0.2,0.4,0.3,0.6,0.1c0.2-0.1,0.3-0.4,0.1-0.6c-0.6-0.8-1.2-1.6-1.7-2.3l-0.1-0.1
						c-0.1-0.1-0.2-0.2-0.4-0.2c-0.1,0-0.1,0-0.2,0c-0.3,0-0.5,0.4-0.3,0.6c0.6,0.8,1.2,1.6,1.7,2.3L188,61c0.1,0.1,0.2,0.2,0.4,0.2
						c0.1,0,0.1,0,0.2,0c0.2,0,0.4-0.2,0.4-0.4C188.9,60.7,188.7,60.5,188.5,60.5z"/>
				</g>
			</g>
			<g>
				<polygon points="186.7,58.4 186.4,58.4 188.2,55.9 188.5,55.9 				"/>
				<g>
					<path class="st21" d="M186.7,58c-0.1,0-0.2,0-0.2,0c0.1,0.2,0.2,0.4,0.3,0.6c0.5-0.7,1.1-1.4,1.6-2.2c0.1-0.1,0.2-0.2,0.2-0.3
						c-0.1,0.1-0.2,0.1-0.3,0.2c0.1,0,0.2,0,0.2,0c-0.1-0.2-0.2-0.4-0.3-0.6c-0.5,0.7-1.1,1.4-1.6,2.2c-0.1,0.1-0.2,0.2-0.2,0.3
						c-0.1,0.2,0,0.5,0.1,0.6c0.2,0.1,0.4,0,0.6-0.1c0.5-0.7,1.1-1.4,1.6-2.2c0.1-0.1,0.2-0.2,0.2-0.3c0.2-0.3-0.1-0.6-0.3-0.6
						c-0.1,0-0.1,0-0.2,0c-0.2,0-0.3,0.1-0.4,0.2c0,0,0,0.1-0.1,0.1c-0.1,0.2-0.3,0.4-0.4,0.5c-0.4,0.5-0.7,1-1.1,1.5
						c-0.1,0.1-0.2,0.2-0.3,0.4c-0.2,0.3,0.1,0.6,0.3,0.6c0.1,0,0.2,0,0.2,0c0.2,0,0.4-0.2,0.4-0.4C187,58.2,186.9,58,186.7,58z"/>
				</g>
			</g>
			<g>
				<polygon points="188.5,55.9 188.2,55.9 186.4,53.4 186.7,53.4 				"/>
				<g>
					<path class="st21" d="M188.5,55.5c-0.1,0-0.2,0-0.2,0c0.1,0.1,0.2,0.1,0.3,0.2c-0.5-0.7-1.1-1.4-1.6-2.2
						c-0.1-0.1-0.2-0.2-0.2-0.3c-0.1,0.2-0.2,0.4-0.3,0.6c0.1,0,0.2,0,0.2,0c-0.1-0.1-0.2-0.1-0.3-0.2c0.5,0.7,1.1,1.4,1.6,2.2
						c0.1,0.1,0.2,0.2,0.2,0.3c0.1,0.2,0.4,0.3,0.6,0.1c0.2-0.1,0.3-0.4,0.1-0.6c-0.6-0.8-1.2-1.6-1.7-2.3l-0.1-0.1
						c-0.1-0.1-0.2-0.2-0.4-0.2c-0.1,0-0.1,0-0.2,0c-0.3,0-0.5,0.4-0.3,0.6c0.6,0.8,1.2,1.6,1.7,2.3L188,56c0.1,0.1,0.2,0.2,0.4,0.2
						c0.1,0,0.1,0,0.2,0c0.2,0,0.4-0.2,0.4-0.4C188.9,55.7,188.7,55.5,188.5,55.5z"/>
				</g>
			</g>
			<g>
				<polygon points="186.7,53.4 186.4,53.4 188.2,51 188.5,51 				"/>
				<g>
					<path class="st21" d="M186.7,53c-0.1,0-0.2,0-0.2,0c0.1,0.2,0.2,0.4,0.3,0.6c0.5-0.7,1.1-1.4,1.6-2.2c0.1-0.1,0.2-0.2,0.2-0.3
						c-0.1,0.1-0.2,0.1-0.3,0.2c0.1,0,0.2,0,0.2,0c-0.1-0.2-0.2-0.4-0.3-0.6c-0.5,0.7-1.1,1.4-1.6,2.2c-0.1,0.1-0.2,0.2-0.2,0.3
						c-0.1,0.2,0,0.5,0.1,0.6c0.2,0.1,0.4,0,0.6-0.1c0.5-0.7,1.1-1.4,1.6-2.2c0.1-0.1,0.2-0.2,0.2-0.3c0.2-0.3-0.1-0.6-0.3-0.6
						c-0.1,0-0.1,0-0.2,0c-0.2,0-0.3,0.1-0.4,0.2c0,0,0,0.1-0.1,0.1c-0.1,0.2-0.3,0.4-0.4,0.5c-0.4,0.5-0.7,1-1.1,1.5
						c-0.1,0.1-0.2,0.2-0.3,0.4c-0.2,0.3,0.1,0.6,0.3,0.6c0.1,0,0.2,0,0.2,0c0.2,0,0.4-0.2,0.4-0.4C187,53.2,186.9,53,186.7,53z"/>
				</g>
			</g>
			<g>
				<polygon points="188.5,51 188.2,51 186.4,48.5 186.7,48.5 				"/>
				<g>
					<path class="st21" d="M188.5,50.6c-0.1,0-0.2,0-0.2,0c0.1,0.1,0.2,0.1,0.3,0.2c-0.5-0.7-1.1-1.4-1.6-2.2
						c-0.1-0.1-0.2-0.2-0.2-0.3c-0.1,0.2-0.2,0.4-0.3,0.6c0.1,0,0.2,0,0.2,0c-0.1-0.1-0.2-0.1-0.3-0.2c0.5,0.7,1.1,1.4,1.6,2.2
						c0.1,0.1,0.2,0.2,0.2,0.3c0.1,0.2,0.4,0.3,0.6,0.1c0.2-0.1,0.3-0.4,0.1-0.6c-0.6-0.8-1.2-1.6-1.7-2.3l-0.1-0.1
						c-0.1-0.1-0.2-0.2-0.4-0.2c-0.1,0-0.1,0-0.2,0c-0.3,0-0.5,0.4-0.3,0.6c0.6,0.8,1.2,1.6,1.7,2.3l0.1,0.1
						c0.1,0.1,0.2,0.2,0.4,0.2c0.1,0,0.1,0,0.2,0c0.2,0,0.4-0.2,0.4-0.4C188.9,50.8,188.7,50.6,188.5,50.6z"/>
				</g>
			</g>
			<g>
				<polygon points="186.7,48.5 186.4,48.5 188.2,46 188.5,46 				"/>
				<g>
					<path class="st21" d="M186.7,48.1c-0.1,0-0.2,0-0.2,0c0.1,0.2,0.2,0.4,0.3,0.6c0.5-0.7,1.1-1.4,1.6-2.2
						c0.1-0.1,0.2-0.2,0.2-0.3c-0.1,0.1-0.2,0.1-0.3,0.2c0.1,0,0.2,0,0.2,0c-0.1-0.2-0.2-0.4-0.3-0.6c-0.5,0.7-1.1,1.4-1.6,2.2
						c-0.1,0.1-0.2,0.2-0.2,0.3c-0.1,0.2,0,0.5,0.1,0.6c0.2,0.1,0.4,0,0.6-0.1c0.5-0.7,1.1-1.4,1.6-2.2c0.1-0.1,0.2-0.2,0.2-0.3
						c0.2-0.3-0.1-0.6-0.3-0.6c-0.1,0-0.1,0-0.2,0c-0.2,0-0.3,0.1-0.4,0.2c0,0,0,0.1-0.1,0.1c-0.1,0.2-0.3,0.4-0.4,0.5
						c-0.4,0.5-0.7,1-1.1,1.5c-0.1,0.1-0.2,0.2-0.3,0.4c-0.2,0.3,0.1,0.6,0.3,0.6c0.1,0,0.2,0,0.2,0c0.2,0,0.4-0.2,0.4-0.4
						C187,48.3,186.9,48.1,186.7,48.1z"/>
				</g>
			</g>
			<g>
				<polygon points="188.5,46 188.2,46 186.4,43.6 186.6,43.5 				"/>
				<g>
					<path class="st21" d="M188.5,45.6c-0.1,0-0.2,0-0.2,0c0.1,0.1,0.2,0.1,0.3,0.2c-0.5-0.7-1.1-1.4-1.6-2.1
						c-0.1-0.1-0.1-0.2-0.2-0.3c0,0.2-0.1,0.4-0.1,0.6c0.1,0,0.1-0.1,0.2-0.1c-0.2,0-0.4-0.1-0.6-0.1c0.5,0.7,1.1,1.5,1.6,2.2
						c0.1,0.1,0.2,0.2,0.2,0.3c0.1,0.2,0.4,0.3,0.6,0.1c0.2-0.1,0.3-0.4,0.1-0.6c-0.5-0.7-1.1-1.5-1.6-2.2c-0.1-0.1-0.2-0.2-0.2-0.3
						c-0.1-0.2-0.3-0.2-0.6-0.1c-0.1,0-0.1,0.1-0.2,0.1c-0.2,0.1-0.3,0.4-0.1,0.6c0.6,0.8,1.1,1.5,1.7,2.3l0.1,0.1
						c0.1,0.1,0.2,0.2,0.4,0.2c0.1,0,0.1,0,0.2,0c0.2,0,0.4-0.2,0.4-0.4C188.9,45.8,188.7,45.6,188.5,45.6z"/>
				</g>
			</g>
		</g>
		<g>
			<g>
				<polygon points="268.6,89.4 268.4,89.3 270.2,86.9 270.5,86.9 				"/>
				<g>
					<path class="st21" d="M268.8,89c-0.1,0-0.1-0.1-0.2-0.1c0,0.2,0.1,0.4,0.1,0.6c0.5-0.7,1.1-1.4,1.6-2.1
						c0.1-0.1,0.1-0.2,0.2-0.3c-0.1,0.1-0.2,0.1-0.3,0.2c0.1,0,0.2,0,0.2,0c-0.1-0.2-0.2-0.4-0.3-0.6c-0.5,0.7-1.1,1.5-1.6,2.2
						c-0.1,0.1-0.2,0.2-0.2,0.3c-0.1,0.2,0,0.5,0.1,0.6c0.2,0.1,0.4,0,0.6-0.1c0.5-0.7,1.1-1.5,1.6-2.2c0.1-0.1,0.2-0.2,0.2-0.3
						c0.2-0.3-0.1-0.6-0.3-0.6c-0.1,0-0.1,0-0.2,0c-0.2,0-0.3,0.1-0.4,0.2c0,0,0,0.1-0.1,0.1c-0.1,0.2-0.3,0.3-0.4,0.5
						c-0.4,0.5-0.7,1-1.1,1.5c-0.1,0.1-0.2,0.2-0.3,0.4s0,0.5,0.1,0.6c0.1,0,0.1,0.1,0.2,0.1c0.2,0.1,0.4,0.1,0.6-0.1
						C269.1,89.4,269,89.1,268.8,89z"/>
				</g>
			</g>
			<g>
				<polygon points="270.5,86.9 270.2,86.9 268.5,84.6 268.5,84.5 268.7,84.5 				"/>
				<g>
					<path class="st21" d="M270.5,86.5c-0.1,0-0.2,0-0.2,0c0.1,0.1,0.2,0.1,0.3,0.2c-0.5-0.7-1-1.3-1.5-2c-0.1-0.1-0.1-0.2-0.2-0.3
						c0,0.1,0,0.2,0,0.3v-0.1c-0.1,0.1-0.3,0.2-0.4,0.3h0.1c-0.1-0.1-0.2-0.1-0.3-0.2c0.5,0.7,1.1,1.4,1.6,2.1
						c0.1,0.1,0.2,0.2,0.2,0.3c0.1,0.2,0.4,0.3,0.6,0.1c0.2-0.1,0.3-0.4,0.1-0.6c-0.6-0.7-1.1-1.5-1.7-2.2c0-0.1-0.1-0.1-0.1-0.2
						c0,0,0,0,0-0.1c-0.1-0.1-0.3-0.2-0.4-0.2c-0.2,0-0.3,0.1-0.4,0.3c0,0.2-0.1,0.3,0,0.4c0,0.1,0.1,0.1,0.1,0.1
						c0.2,0.2,0.3,0.4,0.5,0.6c0.3,0.5,0.7,0.9,1,1.4l0.1,0.1c0.1,0.1,0.2,0.2,0.4,0.2c0.1,0,0.1,0,0.2,0c0.2,0,0.4-0.2,0.4-0.4
						C270.9,86.6,270.7,86.5,270.5,86.5z"/>
				</g>
			</g>
			<g>
				<polygon points="268.7,84.5 268.5,84.5 268.5,84.3 270.2,81.9 270.4,81.9 270.4,82 				"/>
				<g>
					<path class="st21" d="M268.7,84.1h-0.1c0.1,0.1,0.3,0.2,0.4,0.3v-0.1c0,0.1,0,0.2,0,0.3c0.5-0.7,1-1.4,1.5-2.1
						c0.1-0.1,0.1-0.2,0.2-0.3c-0.1,0.1-0.2,0.1-0.3,0.2h0.1c-0.1-0.1-0.3-0.2-0.4-0.3v0.1c0-0.1,0-0.2,0-0.3
						c-0.5,0.7-1,1.4-1.5,2.1c-0.1,0.1-0.1,0.2-0.2,0.3c-0.1,0.2,0,0.5,0.1,0.6c0.2,0.1,0.4,0,0.6-0.1c0.5-0.7,1.1-1.5,1.6-2.2
						c0-0.1,0.1-0.1,0.1-0.2c0.1-0.1,0.1-0.3,0-0.4c-0.1-0.2-0.2-0.3-0.4-0.3c-0.1,0-0.2,0-0.3,0.1c-0.1,0-0.1,0.1-0.2,0.2l-0.1,0.1
						c-0.1,0.2-0.3,0.4-0.4,0.6c-0.3,0.5-0.7,1-1,1.4c0,0.1-0.1,0.1-0.1,0.2c-0.1,0.1-0.1,0.3,0,0.5s0.2,0.3,0.4,0.3h0.1
						c0.2,0,0.4-0.2,0.4-0.4C269.1,84.2,268.9,84.1,268.7,84.1z"/>
				</g>
			</g>
			<g>
				<polygon points="270.4,81.8 270.4,81.9 270.2,81.9 268.4,79.4 268.7,79.4 				"/>
				<g>
					<path class="st21" d="M270,81.7v0.1c0.1-0.1,0.3-0.2,0.4-0.3h-0.1c0.1,0.1,0.2,0.1,0.3,0.2c-0.5-0.7-1.1-1.4-1.6-2.2
						c-0.1-0.1-0.2-0.2-0.2-0.3c-0.1,0.2-0.2,0.4-0.3,0.6c0.1,0,0.2,0,0.2,0c-0.1-0.1-0.2-0.1-0.3-0.2c0.5,0.7,1,1.4,1.5,2.1
						c0.1,0.1,0.1,0.2,0.2,0.3c0.1,0.2,0.4,0.3,0.6,0.1c0.2-0.1,0.3-0.4,0.1-0.6c-0.6-0.7-1.1-1.5-1.7-2.2l-0.1-0.1
						c-0.1-0.1-0.2-0.2-0.4-0.2c-0.1,0-0.1,0-0.2,0c-0.3,0-0.5,0.4-0.3,0.6c0.6,0.8,1.1,1.5,1.7,2.3c0,0.1,0.1,0.1,0.1,0.2l0.1,0.1
						c0.1,0.1,0.3,0.1,0.4,0.1c0.2,0,0.3-0.1,0.4-0.3v-0.1c0.1-0.2-0.1-0.5-0.3-0.5C270.3,81.4,270.1,81.5,270,81.7z"/>
				</g>
			</g>
			<g>
				<polygon points="268.7,79.4 268.4,79.4 270.2,77 270.5,77 				"/>
				<g>
					<path class="st21" d="M268.7,79c-0.1,0-0.2,0-0.2,0c0.1,0.2,0.2,0.4,0.3,0.6c0.5-0.7,1.1-1.4,1.6-2.2c0.1-0.1,0.2-0.2,0.2-0.3
						c-0.1,0.1-0.2,0.1-0.3,0.2c0.1,0,0.2,0,0.2,0c-0.1-0.2-0.2-0.4-0.3-0.6c-0.5,0.7-1.1,1.4-1.6,2.2c-0.1,0.1-0.2,0.2-0.2,0.3
						c-0.1,0.2,0,0.5,0.1,0.6c0.2,0.1,0.4,0,0.6-0.1c0.5-0.7,1.1-1.4,1.6-2.2c0.1-0.1,0.2-0.2,0.2-0.3c0.2-0.3-0.1-0.6-0.3-0.6
						c-0.1,0-0.1,0-0.2,0c-0.2,0-0.3,0.1-0.4,0.2c0,0,0,0.1-0.1,0.1c-0.1,0.2-0.3,0.4-0.4,0.5c-0.4,0.5-0.7,1-1.1,1.5
						c-0.1,0.1-0.2,0.2-0.3,0.4c-0.2,0.3,0.1,0.6,0.3,0.6c0.1,0,0.2,0,0.2,0c0.2,0,0.4-0.2,0.4-0.4C269.1,79.2,268.9,79,268.7,79z"
						/>
				</g>
			</g>
			<g>
				<polygon points="268.1,79.3 267.9,79.2 269.6,76.9 269.8,77 				"/>
				<g>
					<path class="st21" d="M268.3,78.9c-0.1,0-0.1-0.1-0.2-0.1c0,0.2,0.1,0.4,0.1,0.6c0.5-0.7,1-1.3,1.5-2c0.1-0.1,0.1-0.2,0.2-0.3
						c-0.2,0-0.4,0.1-0.6,0.1c0.1,0,0.1,0.1,0.2,0.1c0-0.2-0.1-0.4-0.1-0.6c-0.5,0.7-1,1.3-1.5,2c-0.1,0.1-0.1,0.2-0.2,0.3
						c-0.1,0.2,0,0.5,0.1,0.6c0.2,0.1,0.4,0,0.6-0.1c0.5-0.7,1-1.3,1.5-2c0.1-0.1,0.1-0.2,0.2-0.3c0.1-0.2,0-0.5-0.1-0.6
						c-0.1,0-0.1-0.1-0.2-0.1c-0.2-0.1-0.4,0-0.6,0.1c-0.5,0.7-1,1.3-1.5,2c-0.1,0.1-0.1,0.2-0.2,0.3c-0.1,0.2,0,0.5,0.1,0.6
						c0.1,0,0.1,0.1,0.2,0.1c0.2,0.1,0.4,0.1,0.6-0.1S268.5,79,268.3,78.9z"/>
				</g>
			</g>
			<g>
				<polygon points="270.5,77 270.2,77 268.4,74.5 268.7,74.5 				"/>
				<g>
					<path class="st21" d="M270.5,76.6c-0.1,0-0.2,0-0.2,0c0.1,0.1,0.2,0.1,0.3,0.2c-0.5-0.7-1.1-1.4-1.6-2.2
						c-0.1-0.1-0.2-0.2-0.2-0.3c-0.1,0.2-0.2,0.4-0.3,0.6c0.1,0,0.2,0,0.2,0c-0.1-0.1-0.2-0.1-0.3-0.2c0.5,0.7,1.1,1.4,1.6,2.2
						c0.1,0.1,0.2,0.2,0.2,0.3c0.1,0.2,0.4,0.3,0.6,0.1c0.2-0.1,0.3-0.4,0.1-0.6c-0.6-0.8-1.2-1.6-1.7-2.3l-0.1-0.1
						c-0.1-0.1-0.2-0.2-0.4-0.2c-0.1,0-0.1,0-0.2,0c-0.3,0-0.5,0.4-0.3,0.6c0.6,0.8,1.2,1.6,1.7,2.3l0.1,0.1
						c0.1,0.1,0.2,0.2,0.4,0.2c0.1,0,0.1,0,0.2,0c0.2,0,0.4-0.2,0.4-0.4C270.9,76.7,270.7,76.6,270.5,76.6z"/>
				</g>
			</g>
			<g>
				<polygon points="270.2,47.3 270.5,47.3 268.7,49.7 268.4,49.7 				"/>
				<g>
					<path class="st21" d="M270.2,47.7c0.1,0,0.2,0,0.2,0c-0.1-0.2-0.2-0.4-0.3-0.6c-0.5,0.7-1.1,1.4-1.6,2.2
						c-0.1,0.1-0.2,0.2-0.2,0.3c0.1-0.1,0.2-0.1,0.3-0.2c-0.1,0-0.2,0-0.2,0c0.1,0.2,0.2,0.4,0.3,0.6c0.5-0.7,1.1-1.4,1.6-2.2
						c0.1-0.1,0.2-0.2,0.2-0.3c0.1-0.2,0-0.5-0.1-0.6c-0.2-0.1-0.4,0-0.6,0.1c-0.5,0.7-1.1,1.4-1.6,2.2c-0.1,0.1-0.2,0.2-0.2,0.3
						c-0.2,0.3,0.1,0.6,0.3,0.6c0.1,0,0.1,0,0.2,0c0.2,0,0.3-0.1,0.4-0.2c0,0,0-0.1,0.1-0.1c0.1-0.2,0.3-0.4,0.4-0.5
						c0.4-0.5,0.7-1,1.1-1.5c0.1-0.1,0.2-0.2,0.3-0.4c0.2-0.3-0.1-0.6-0.3-0.6c-0.1,0-0.2,0-0.2,0c-0.2,0-0.4,0.2-0.4,0.4
						C269.9,47.5,270,47.7,270.2,47.7z"/>
				</g>
			</g>
			<g>
				<polygon points="268.4,49.7 268.7,49.7 270.5,52.2 270.2,52.2 				"/>
				<g>
					<path class="st21" d="M268.4,50.1c0.1,0,0.2,0,0.2,0c-0.1-0.1-0.2-0.1-0.3-0.2c0.5,0.7,1.1,1.4,1.6,2.2
						c0.1,0.1,0.2,0.2,0.2,0.3c0.1-0.2,0.2-0.4,0.3-0.6c-0.1,0-0.2,0-0.2,0c0.1,0.1,0.2,0.1,0.3,0.2c-0.5-0.7-1.1-1.4-1.6-2.2
						c-0.1-0.1-0.2-0.2-0.2-0.3c-0.1-0.2-0.4-0.3-0.6-0.1c-0.2,0.1-0.3,0.4-0.1,0.6c0.6,0.8,1.2,1.6,1.7,2.3l0.1,0.1
						c0.1,0.1,0.2,0.2,0.4,0.2c0.1,0,0.1,0,0.2,0c0.3,0,0.5-0.4,0.3-0.6c-0.6-0.8-1.2-1.6-1.7-2.3l-0.1-0.1
						c-0.1-0.1-0.2-0.2-0.4-0.2c-0.1,0-0.1,0-0.2,0c-0.2,0-0.4,0.2-0.4,0.4C268,50,268.2,50.1,268.4,50.1z"/>
				</g>
			</g>
			<g>
				<polygon points="270.2,52.2 270.5,52.2 268.7,54.7 268.4,54.7 				"/>
				<g>
					<path class="st21" d="M270.2,52.6c0.1,0,0.2,0,0.2,0c-0.1-0.2-0.2-0.4-0.3-0.6c-0.5,0.7-1.1,1.4-1.6,2.2
						c-0.1,0.1-0.2,0.2-0.2,0.3c0.1-0.1,0.2-0.1,0.3-0.2c-0.1,0-0.2,0-0.2,0c0.1,0.2,0.2,0.4,0.3,0.6c0.5-0.7,1.1-1.4,1.6-2.2
						c0.1-0.1,0.2-0.2,0.2-0.3c0.1-0.2,0-0.5-0.1-0.6c-0.2-0.1-0.4,0-0.6,0.1c-0.5,0.7-1.1,1.4-1.6,2.2c-0.1,0.1-0.2,0.2-0.2,0.3
						c-0.2,0.3,0.1,0.6,0.3,0.6c0.1,0,0.1,0,0.2,0c0.2,0,0.3-0.1,0.4-0.2c0,0,0-0.1,0.1-0.1c0.1-0.2,0.3-0.4,0.4-0.5
						c0.4-0.5,0.7-1,1.1-1.5c0.1-0.1,0.2-0.2,0.3-0.4c0.2-0.3-0.1-0.6-0.3-0.6c-0.1,0-0.2,0-0.2,0c-0.2,0-0.4,0.2-0.4,0.4
						C269.9,52.4,270,52.6,270.2,52.6z"/>
				</g>
			</g>
			<g>
				<polygon points="268.4,54.7 268.7,54.7 270.5,57.2 270.2,57.2 				"/>
				<g>
					<path class="st21" d="M268.4,55.1c0.1,0,0.2,0,0.2,0c-0.1-0.1-0.2-0.1-0.3-0.2c0.5,0.7,1.1,1.4,1.6,2.2
						c0.1,0.1,0.2,0.2,0.2,0.3c0.1-0.2,0.2-0.4,0.3-0.6c-0.1,0-0.2,0-0.2,0c0.1,0.1,0.2,0.1,0.3,0.2c-0.5-0.7-1.1-1.4-1.6-2.2
						c-0.1-0.1-0.2-0.2-0.2-0.3c-0.1-0.2-0.4-0.3-0.6-0.1c-0.2,0.1-0.3,0.4-0.1,0.6c0.6,0.8,1.2,1.6,1.7,2.3l0.1,0.1
						c0.1,0.1,0.2,0.2,0.4,0.2c0.1,0,0.1,0,0.2,0c0.3,0,0.5-0.4,0.3-0.6c-0.6-0.8-1.2-1.6-1.7-2.3l-0.1-0.1
						c-0.1-0.1-0.2-0.2-0.4-0.2c-0.1,0-0.1,0-0.2,0c-0.2,0-0.4,0.2-0.4,0.4C268,54.9,268.2,55.1,268.4,55.1z"/>
				</g>
			</g>
			<g>
				<polygon points="270.2,57.2 270.5,57.2 268.7,59.6 268.4,59.6 				"/>
				<g>
					<path class="st21" d="M270.2,57.6c0.1,0,0.2,0,0.2,0c-0.1-0.2-0.2-0.4-0.3-0.6c-0.5,0.7-1.1,1.4-1.6,2.2
						c-0.1,0.1-0.2,0.2-0.2,0.3c0.1-0.1,0.2-0.1,0.3-0.2c-0.1,0-0.2,0-0.2,0c0.1,0.2,0.2,0.4,0.3,0.6c0.5-0.7,1.1-1.4,1.6-2.2
						c0.1-0.1,0.2-0.2,0.2-0.3c0.1-0.2,0-0.5-0.1-0.6c-0.2-0.1-0.4,0-0.6,0.1c-0.5,0.7-1.1,1.4-1.6,2.2c-0.1,0.1-0.2,0.2-0.2,0.3
						c-0.2,0.3,0.1,0.6,0.3,0.6c0.1,0,0.1,0,0.2,0c0.2,0,0.3-0.1,0.4-0.2c0,0,0-0.1,0.1-0.1c0.1-0.2,0.3-0.4,0.4-0.5
						c0.4-0.5,0.7-1,1.1-1.5c0.1-0.1,0.2-0.2,0.3-0.4c0.2-0.3-0.1-0.6-0.3-0.6c-0.1,0-0.2,0-0.2,0c-0.2,0-0.4,0.2-0.4,0.4
						C269.9,57.4,270,57.6,270.2,57.6z"/>
				</g>
			</g>
			<g>
				<polygon points="268.4,59.6 268.7,59.6 270.5,62.1 270.2,62.1 				"/>
				<g>
					<path class="st21" d="M268.4,60c0.1,0,0.2,0,0.2,0c-0.1-0.1-0.2-0.1-0.3-0.2c0.5,0.7,1.1,1.4,1.6,2.2c0.1,0.1,0.2,0.2,0.2,0.3
						c0.1-0.2,0.2-0.4,0.3-0.6c-0.1,0-0.2,0-0.2,0c0.1,0.1,0.2,0.1,0.3,0.2c-0.5-0.7-1.1-1.4-1.6-2.2c-0.1-0.1-0.2-0.2-0.2-0.3
						c-0.1-0.2-0.4-0.3-0.6-0.1c-0.2,0.1-0.3,0.4-0.1,0.6c0.6,0.8,1.2,1.6,1.7,2.3l0.1,0.1c0.1,0.1,0.2,0.2,0.4,0.2
						c0.1,0,0.1,0,0.2,0c0.3,0,0.5-0.4,0.3-0.6c-0.6-0.8-1.2-1.6-1.7-2.3l-0.1-0.1c-0.1-0.1-0.2-0.2-0.4-0.2c-0.1,0-0.1,0-0.2,0
						c-0.2,0-0.4,0.2-0.4,0.4C268,59.9,268.2,60,268.4,60z"/>
				</g>
			</g>
			<g>
				<polygon points="270.2,62.1 270.5,62.1 268.7,64.6 268.4,64.6 				"/>
				<g>
					<path class="st21" d="M270.2,62.5c0.1,0,0.2,0,0.2,0c-0.1-0.2-0.2-0.4-0.3-0.6c-0.5,0.7-1.1,1.4-1.6,2.2
						c-0.1,0.1-0.2,0.2-0.2,0.3c0.1-0.1,0.2-0.1,0.3-0.2c-0.1,0-0.2,0-0.2,0c0.1,0.2,0.2,0.4,0.3,0.6c0.5-0.7,1.1-1.4,1.6-2.2
						c0.1-0.1,0.2-0.2,0.2-0.3c0.1-0.2,0-0.5-0.1-0.6c-0.2-0.1-0.4,0-0.6,0.1c-0.5,0.7-1.1,1.4-1.6,2.2c-0.1,0.1-0.2,0.2-0.2,0.3
						c-0.2,0.3,0.1,0.6,0.3,0.6c0.1,0,0.1,0,0.2,0c0.2,0,0.3-0.1,0.4-0.2c0,0,0-0.1,0.1-0.1c0.1-0.2,0.3-0.4,0.4-0.5
						c0.4-0.5,0.7-1,1.1-1.5c0.1-0.1,0.2-0.2,0.3-0.4c0.2-0.3-0.1-0.6-0.3-0.6c-0.1,0-0.2,0-0.2,0c-0.2,0-0.4,0.2-0.4,0.4
						C269.9,62.3,270,62.5,270.2,62.5z"/>
				</g>
			</g>
			<g>
				<polygon points="268.4,64.6 268.7,64.6 270.5,67.1 270.2,67.1 				"/>
				<g>
					<path class="st21" d="M268.4,65c0.1,0,0.2,0,0.2,0c-0.1-0.1-0.2-0.1-0.3-0.2c0.5,0.7,1.1,1.4,1.6,2.2c0.1,0.1,0.2,0.2,0.2,0.3
						c0.1-0.2,0.2-0.4,0.3-0.6c-0.1,0-0.2,0-0.2,0c0.1,0.1,0.2,0.1,0.3,0.2c-0.5-0.7-1.1-1.4-1.6-2.2c-0.1-0.1-0.2-0.2-0.2-0.3
						c-0.1-0.2-0.4-0.3-0.6-0.1c-0.2,0.1-0.3,0.4-0.1,0.6c0.6,0.8,1.2,1.6,1.7,2.3l0.1,0.1c0.1,0.1,0.2,0.2,0.4,0.2
						c0.1,0,0.1,0,0.2,0c0.3,0,0.5-0.4,0.3-0.6c-0.6-0.8-1.2-1.6-1.7-2.3l-0.1-0.1c-0.1-0.1-0.2-0.2-0.4-0.2c-0.1,0-0.1,0-0.2,0
						c-0.2,0-0.4,0.2-0.4,0.4C268,64.8,268.2,65,268.4,65z"/>
				</g>
			</g>
			<g>
				<polygon points="270.2,67.1 270.5,67.1 268.7,69.5 268.4,69.5 				"/>
				<g>
					<path class="st21" d="M270.2,67.5c0.1,0,0.2,0,0.2,0c-0.1-0.2-0.2-0.4-0.3-0.6c-0.5,0.7-1.1,1.4-1.6,2.2
						c-0.1,0.1-0.2,0.2-0.2,0.3c0.1-0.1,0.2-0.1,0.3-0.2c-0.1,0-0.2,0-0.2,0c0.1,0.2,0.2,0.4,0.3,0.6c0.5-0.7,1.1-1.4,1.6-2.2
						c0.1-0.1,0.2-0.2,0.2-0.3c0.1-0.2,0-0.5-0.1-0.6c-0.2-0.1-0.4,0-0.6,0.1c-0.5,0.7-1.1,1.4-1.6,2.2c-0.1,0.1-0.2,0.2-0.2,0.3
						c-0.2,0.3,0.1,0.6,0.3,0.6c0.1,0,0.1,0,0.2,0c0.2,0,0.3-0.1,0.4-0.2c0,0,0-0.1,0.1-0.1c0.1-0.2,0.3-0.4,0.4-0.5
						c0.4-0.5,0.7-1,1.1-1.5c0.1-0.1,0.2-0.2,0.3-0.4c0.2-0.3-0.1-0.6-0.3-0.6c-0.1,0-0.2,0-0.2,0c-0.2,0-0.4,0.2-0.4,0.4
						C269.9,67.3,270,67.5,270.2,67.5z"/>
				</g>
			</g>
			<g>
				<polygon points="268.4,69.5 268.7,69.5 270.5,72 270.2,72 				"/>
				<g>
					<path class="st21" d="M268.4,69.9c0.1,0,0.2,0,0.2,0c-0.1-0.1-0.2-0.1-0.3-0.2c0.5,0.7,1.1,1.4,1.6,2.2
						c0.1,0.1,0.2,0.2,0.2,0.3c0.1-0.2,0.2-0.4,0.3-0.6c-0.1,0-0.2,0-0.2,0c0.1,0.1,0.2,0.1,0.3,0.2c-0.5-0.7-1.1-1.4-1.6-2.2
						c-0.1-0.1-0.2-0.2-0.2-0.3c-0.1-0.2-0.4-0.3-0.6-0.1c-0.2,0.1-0.3,0.4-0.1,0.6c0.6,0.8,1.2,1.6,1.7,2.3l0.1,0.1
						c0.1,0.1,0.2,0.2,0.4,0.2c0.1,0,0.1,0,0.2,0c0.3,0,0.5-0.4,0.3-0.6c-0.6-0.8-1.2-1.6-1.7-2.3l-0.1-0.1
						c-0.1-0.1-0.2-0.2-0.4-0.2c-0.1,0-0.1,0-0.2,0c-0.2,0-0.4,0.2-0.4,0.4C268,69.8,268.2,69.9,268.4,69.9z"/>
				</g>
			</g>
			<g>
				<polygon points="270.2,72 270.5,72 268.7,74.5 268.4,74.5 				"/>
				<g>
					<path class="st21" d="M270.2,72.4c0.1,0,0.2,0,0.2,0c-0.1-0.2-0.2-0.4-0.3-0.6c-0.5,0.7-1.1,1.4-1.6,2.2
						c-0.1,0.1-0.2,0.2-0.2,0.3c0.1-0.1,0.2-0.1,0.3-0.2c-0.1,0-0.2,0-0.2,0c0.1,0.2,0.2,0.4,0.3,0.6c0.5-0.7,1.1-1.4,1.6-2.2
						c0.1-0.1,0.2-0.2,0.2-0.3c0.1-0.2,0-0.5-0.1-0.6c-0.2-0.1-0.4,0-0.6,0.1c-0.5,0.7-1.1,1.4-1.6,2.2c-0.1,0.1-0.2,0.2-0.2,0.3
						c-0.2,0.3,0.1,0.6,0.3,0.6c0.1,0,0.1,0,0.2,0c0.2,0,0.3-0.1,0.4-0.2c0,0,0-0.1,0.1-0.1c0.1-0.2,0.3-0.4,0.4-0.5
						c0.4-0.5,0.7-1,1.1-1.5c0.1-0.1,0.2-0.2,0.3-0.4c0.2-0.3-0.1-0.6-0.3-0.6c-0.1,0-0.2,0-0.2,0c-0.2,0-0.4,0.2-0.4,0.4
						C269.9,72.2,270,72.4,270.2,72.4z"/>
				</g>
			</g>
			<g>
				<polygon points="273.5,80.4 273.6,80.6 270.6,81.9 270.4,81.9 270.4,81.8 				"/>
				<g>
					<path class="st21" d="M273.1,80.6l0.1,0.1c0-0.2,0.1-0.4,0.1-0.6c-0.9,0.4-1.8,0.8-2.6,1.2c-0.1,0.1-0.3,0.1-0.4,0.2
						c0.1,0,0.1,0,0.2-0.1c-0.1,0-0.1,0-0.2,0c0.1,0.2,0.3,0.3,0.4,0.5v-0.1c-0.1,0.1-0.1,0.2-0.2,0.2c0.9-0.4,1.8-0.8,2.7-1.2
						c0.1-0.1,0.3-0.1,0.4-0.2c0.2-0.1,0.2-0.4,0.1-0.6c-0.1-0.2-0.4-0.2-0.6-0.1c-0.9,0.4-1.9,0.8-2.8,1.3c-0.1,0-0.1,0.1-0.2,0.1
						c-0.2,0.1-0.2,0.2-0.3,0.4c-0.1,0.3,0.1,0.5,0.4,0.5c0.2,0,0.3,0,0.4-0.1c0,0,0.1,0,0.1-0.1c0.2-0.1,0.5-0.2,0.7-0.3
						c0.6-0.3,1.2-0.5,1.8-0.8c0.1-0.1,0.3-0.1,0.4-0.2c0.2-0.1,0.3-0.4,0.1-0.6l-0.1-0.1c-0.1-0.2-0.4-0.3-0.6-0.1
						C273.1,80.2,273,80.4,273.1,80.6z"/>
				</g>
			</g>
			<g>
				<polygon points="273.6,83.3 273.5,83.4 270.4,82 270.4,81.9 270.6,81.9 				"/>
				<g>
					<path class="st21" d="M273.2,83.1l-0.1,0.1c0.2,0,0.4-0.1,0.6-0.1c-0.9-0.4-1.8-0.8-2.7-1.2c-0.1-0.1-0.3-0.1-0.4-0.2
						c0.1,0.1,0.1,0.2,0.2,0.2v-0.1c-0.1,0.2-0.3,0.3-0.4,0.5c0.1,0,0.1,0,0.2,0c-0.1,0-0.1,0-0.2-0.1c0.9,0.4,1.8,0.8,2.6,1.2
						c0.1,0.1,0.3,0.1,0.4,0.2c0.2,0.1,0.4,0.1,0.6-0.1c0.1-0.2,0.1-0.5-0.1-0.6c-0.9-0.4-1.9-0.8-2.8-1.3c-0.1,0-0.1-0.1-0.2-0.1
						c-0.1-0.1-0.3-0.1-0.4-0.1c-0.2,0-0.5,0.3-0.4,0.5c0.1,0.1,0.1,0.3,0.2,0.4c0.1,0,0.1,0,0.2,0.1c0.2,0.1,0.5,0.2,0.7,0.3
						c0.6,0.3,1.2,0.5,1.8,0.8c0.1,0.1,0.3,0.1,0.4,0.2c0.2,0.1,0.4,0,0.6-0.1l0.1-0.1c0.1-0.2,0-0.5-0.1-0.6
						C273.6,82.8,273.4,82.9,273.2,83.1z"/>
				</g>
			</g>
			<g>
				<polygon points="264.9,86.4 264.8,86.3 268.3,84.5 268.5,84.5 268.5,84.6 				"/>
				<g>
					<path class="st21" d="M265.2,86.1l-0.1-0.1c0,0.2-0.1,0.4-0.1,0.6c1-0.5,2.1-1,3.1-1.6c0.1-0.1,0.3-0.1,0.4-0.2
						c-0.1,0-0.1,0-0.2,0.1c0.1,0,0.1,0,0.2,0c-0.1-0.2-0.3-0.3-0.4-0.5v0.1c0.1-0.1,0.1-0.2,0.2-0.2c-1.1,0.5-2.1,1.1-3.2,1.6
						c-0.2,0.1-0.3,0.2-0.5,0.2c-0.2,0.1-0.3,0.4-0.1,0.6c0.1,0.2,0.4,0.2,0.6,0.1c1.1-0.6,2.2-1.1,3.3-1.7c0.1,0,0.2-0.1,0.3-0.1
						c0.2-0.1,0.2-0.2,0.3-0.4c0.1-0.3-0.1-0.5-0.4-0.5c-0.1,0-0.3,0-0.4,0.1c-0.1,0-0.1,0.1-0.2,0.1c-0.3,0.1-0.5,0.3-0.8,0.4
						c-0.7,0.3-1.4,0.7-2.1,1c-0.2,0.1-0.3,0.2-0.5,0.2c-0.3,0.1-0.2,0.4-0.1,0.6l0.1,0.1c0.1,0.2,0.4,0.1,0.6,0
						C265.3,86.5,265.3,86.3,265.2,86.1z"/>
				</g>
			</g>
			<g>
				<polygon points="268.4,44.8 268.6,44.7 270.5,47.3 270.2,47.3 				"/>
				<g>
					<path class="st21" d="M268.7,45.2c0.1,0,0.1-0.1,0.2-0.1c-0.2,0-0.4-0.1-0.6-0.1c0.5,0.7,1.1,1.5,1.6,2.2
						c0.1,0.1,0.2,0.2,0.2,0.3c0.1-0.2,0.2-0.4,0.3-0.6c-0.1,0-0.2,0-0.2,0c0.1,0.1,0.2,0.1,0.3,0.2c-0.5-0.7-1.1-1.4-1.6-2.1
						c-0.1-0.1-0.1-0.2-0.2-0.3c-0.1-0.2-0.4-0.3-0.6-0.1c-0.2,0.1-0.3,0.4-0.1,0.6c0.6,0.8,1.1,1.5,1.7,2.3l0.1,0.1
						c0.1,0.1,0.2,0.2,0.4,0.2c0.1,0,0.1,0,0.2,0c0.3,0,0.5-0.4,0.3-0.6c-0.5-0.7-1.1-1.5-1.6-2.2c-0.1-0.1-0.2-0.2-0.2-0.3
						c-0.1-0.2-0.3-0.2-0.6-0.1c-0.1,0-0.1,0.1-0.2,0.1c-0.2,0.1-0.3,0.4-0.1,0.6C268.2,45.2,268.4,45.3,268.7,45.2z"/>
				</g>
			</g>
		</g>
		<g>
			<g>
				<polygon points="254.5,84.7 254.5,84.5 258.3,84.5 258.3,84.7 				"/>
				<g>
					<path class="st21" d="M254.9,84.7c0-0.1,0-0.1,0-0.2c-0.1,0.1-0.3,0.3-0.4,0.4c1.1,0,2.2,0,3.4,0c0.2,0,0.3,0,0.5,0
						c-0.1-0.1-0.3-0.3-0.4-0.4c0,0.1,0,0.1,0,0.2c0.1-0.1,0.3-0.3,0.4-0.4c-1.1,0-2.2,0-3.4,0c-0.2,0-0.3,0-0.5,0
						c-0.5,0-0.5,0.8,0,0.8c1.1,0,2.2,0,3.4,0c0.2,0,0.3,0,0.5,0c0.2,0,0.4-0.2,0.4-0.4c0-0.1,0-0.1,0-0.2c0-0.2-0.2-0.4-0.4-0.4
						c-1.1,0-2.2,0-3.4,0c-0.2,0-0.3,0-0.5,0s-0.4,0.2-0.4,0.4c0,0.1,0,0.1,0,0.2C254.1,85.2,254.9,85.2,254.9,84.7z"/>
				</g>
			</g>
			<g>
				<polygon points="254.5,84.2 254.5,84.1 258.3,84.1 258.3,84.2 				"/>
				<g>
					<path class="st21" d="M254.9,84.2c0-0.1,0-0.1,0-0.2c-0.1,0.1-0.3,0.3-0.4,0.4c1.1,0,2.2,0,3.4,0c0.2,0,0.3,0,0.5,0
						c-0.1-0.1-0.3-0.3-0.4-0.4c0,0.1,0,0.1,0,0.2c0.1-0.1,0.3-0.3,0.4-0.4c-1.1,0-2.2,0-3.4,0c-0.2,0-0.3,0-0.5,0
						c-0.5,0-0.5,0.8,0,0.8c1.1,0,2.2,0,3.4,0c0.2,0,0.3,0,0.5,0c0.2,0,0.4-0.2,0.4-0.4c0-0.1,0-0.1,0-0.2c0-0.2-0.2-0.4-0.4-0.4
						c-1.1,0-2.2,0-3.4,0c-0.2,0-0.3,0-0.5,0s-0.4,0.2-0.4,0.4c0,0.1,0,0.1,0,0.2C254.1,84.7,254.9,84.7,254.9,84.2z"/>
				</g>
			</g>
			<g>
				<polygon points="260.1,86.8 259.9,86.9 258,84.4 258.3,84.4 				"/>
				<g>
					<path class="st21" d="M259.9,86.4c-0.1,0-0.1,0.1-0.2,0.1c0.2,0,0.4,0.1,0.6,0.1c-0.5-0.7-1.1-1.5-1.6-2.2
						c-0.1-0.1-0.2-0.2-0.2-0.3c-0.1,0.2-0.2,0.4-0.3,0.6c0.1,0,0.2,0,0.2,0c-0.1-0.1-0.2-0.1-0.3-0.2c0.5,0.7,1,1.4,1.6,2.1
						c0.1,0.1,0.1,0.2,0.2,0.3c0.1,0.2,0.4,0.3,0.6,0.1c0.2-0.1,0.3-0.4,0.1-0.6c-0.6-0.8-1.1-1.5-1.7-2.3l-0.1-0.1
						c-0.2-0.2-0.4-0.2-0.6-0.2c-0.3,0-0.5,0.4-0.3,0.6c0.5,0.7,1.1,1.5,1.6,2.2c0.1,0.1,0.2,0.2,0.2,0.3c0.1,0.2,0.4,0.3,0.6,0.1
						c0.1,0,0.1-0.1,0.2-0.1c0.2-0.1,0.3-0.4,0.1-0.6C260.3,86.4,260.1,86.3,259.9,86.4z"/>
				</g>
			</g>
			<g>
				<polygon points="259.9,81.9 260.1,81.9 258.3,84.4 258,84.4 				"/>
				<g>
					<path class="st21" d="M259.9,82.3c0.1,0,0.2,0,0.2,0c-0.1-0.2-0.2-0.4-0.3-0.6c-0.5,0.7-1.1,1.4-1.6,2.2
						c-0.1,0.1-0.2,0.2-0.2,0.3c0.1-0.1,0.2-0.1,0.3-0.2c-0.1,0-0.2,0-0.2,0c0.1,0.2,0.2,0.4,0.3,0.6c0.5-0.7,1.1-1.4,1.6-2.2
						c0.1-0.1,0.2-0.2,0.2-0.3c0.1-0.2,0-0.5-0.1-0.6c-0.2-0.1-0.4,0-0.6,0.1c-0.5,0.7-1.1,1.4-1.6,2.2c-0.1,0.1-0.2,0.2-0.2,0.3
						c-0.2,0.3,0.1,0.6,0.3,0.6c0.1,0,0.1,0,0.2,0c0.2,0,0.3-0.1,0.4-0.2c0,0,0-0.1,0.1-0.1c0.1-0.2,0.3-0.4,0.4-0.5
						c0.4-0.5,0.7-1,1.1-1.5c0.1-0.1,0.2-0.2,0.3-0.4c0.2-0.3-0.1-0.6-0.3-0.6c-0.1,0-0.2,0-0.2,0c-0.2,0-0.4,0.2-0.4,0.4
						C259.5,82.1,259.7,82.3,259.9,82.3z"/>
				</g>
			</g>
			<g>
				<polygon points="258,79.4 258.3,79.4 260.1,81.9 259.9,81.9 				"/>
				<g>
					<path class="st21" d="M258,79.8c0.1,0,0.2,0,0.2,0c-0.1-0.1-0.2-0.1-0.3-0.2c0.5,0.7,1.1,1.4,1.6,2.2c0.1,0.1,0.2,0.2,0.2,0.3
						c0.1-0.2,0.2-0.4,0.3-0.6c-0.1,0-0.2,0-0.2,0c0.1,0.1,0.2,0.1,0.3,0.2c-0.5-0.7-1.1-1.4-1.6-2.2c-0.1-0.1-0.2-0.2-0.2-0.3
						c-0.1-0.2-0.4-0.3-0.6-0.1c-0.2,0.1-0.3,0.4-0.1,0.6c0.6,0.8,1.2,1.6,1.7,2.3l0.1,0.1c0.1,0.1,0.2,0.2,0.4,0.2
						c0.1,0,0.1,0,0.2,0c0.3,0,0.5-0.4,0.3-0.6c-0.6-0.8-1.2-1.6-1.7-2.3l-0.1-0.1c-0.1-0.1-0.2-0.2-0.4-0.2c-0.1,0-0.1,0-0.2,0
						c-0.2,0-0.4,0.2-0.4,0.4C257.7,79.6,257.8,79.8,258,79.8z"/>
				</g>
			</g>
			<g>
				<polygon points="259.9,77 260.1,77 258.3,79.4 258,79.4 				"/>
				<g>
					<path class="st21" d="M259.9,77.4c0.1,0,0.2,0,0.2,0c-0.1-0.2-0.2-0.4-0.3-0.6c-0.5,0.7-1.1,1.4-1.6,2.2
						c-0.1,0.1-0.2,0.2-0.2,0.3c0.1-0.1,0.2-0.1,0.3-0.2c-0.1,0-0.2,0-0.2,0c0.1,0.2,0.2,0.4,0.3,0.6c0.5-0.7,1.1-1.4,1.6-2.2
						c0.1-0.1,0.2-0.2,0.2-0.3c0.1-0.2,0-0.5-0.1-0.6c-0.2-0.1-0.4,0-0.6,0.1c-0.5,0.7-1.1,1.4-1.6,2.2c-0.1,0.1-0.2,0.2-0.2,0.3
						c-0.2,0.3,0.1,0.6,0.3,0.6c0.1,0,0.1,0,0.2,0c0.2,0,0.3-0.1,0.4-0.2c0,0,0-0.1,0.1-0.1c0.1-0.2,0.3-0.4,0.4-0.5
						c0.4-0.5,0.7-1,1.1-1.5c0.1-0.1,0.2-0.2,0.3-0.4c0.2-0.3-0.1-0.6-0.3-0.6c-0.1,0-0.2,0-0.2,0c-0.2,0-0.4,0.2-0.4,0.4
						C259.5,77.2,259.7,77.4,259.9,77.4z"/>
				</g>
			</g>
			<g>
				<polygon points="260.1,77 259.9,77 258,74.5 258.3,74.5 				"/>
				<g>
					<path class="st21" d="M260.1,76.6c-0.1,0-0.2,0-0.2,0c0.1,0.1,0.2,0.1,0.3,0.2c-0.5-0.7-1.1-1.4-1.6-2.2
						c-0.1-0.1-0.2-0.2-0.2-0.3c-0.1,0.2-0.2,0.4-0.3,0.6c0.1,0,0.2,0,0.2,0c-0.1-0.1-0.2-0.1-0.3-0.2c0.5,0.7,1.1,1.4,1.6,2.2
						c0.1,0.1,0.2,0.2,0.2,0.3c0.1,0.2,0.4,0.3,0.6,0.1c0.2-0.1,0.3-0.4,0.1-0.6c-0.6-0.8-1.2-1.6-1.7-2.3l-0.1-0.1
						c-0.1-0.1-0.2-0.2-0.4-0.2c-0.1,0-0.1,0-0.2,0c-0.3,0-0.5,0.4-0.3,0.6c0.6,0.8,1.2,1.6,1.7,2.3l0.1,0.1
						c0.1,0.1,0.2,0.2,0.4,0.2c0.1,0,0.1,0,0.2,0c0.2,0,0.4-0.2,0.4-0.4C260.5,76.7,260.3,76.6,260.1,76.6z"/>
				</g>
			</g>
			<g>
				<polygon points="258.3,74.5 258,74.5 259.9,72 260.1,72 				"/>
				<g>
					<path class="st21" d="M258.3,74.1c-0.1,0-0.2,0-0.2,0c0.1,0.2,0.2,0.4,0.3,0.6c0.5-0.7,1.1-1.4,1.6-2.2
						c0.1-0.1,0.2-0.2,0.2-0.3c-0.1,0.1-0.2,0.1-0.3,0.2c0.1,0,0.2,0,0.2,0c-0.1-0.2-0.2-0.4-0.3-0.6c-0.5,0.7-1.1,1.4-1.6,2.2
						c-0.1,0.1-0.2,0.2-0.2,0.3c-0.1,0.2,0,0.5,0.1,0.6c0.2,0.1,0.4,0,0.6-0.1c0.5-0.7,1.1-1.4,1.6-2.2c0.1-0.1,0.2-0.2,0.2-0.3
						c0.2-0.3-0.1-0.6-0.3-0.6c-0.1,0-0.1,0-0.2,0c-0.2,0-0.3,0.1-0.4,0.2c0,0,0,0.1-0.1,0.1c-0.1,0.2-0.3,0.4-0.4,0.5
						c-0.4,0.5-0.7,1-1.1,1.5c-0.1,0.1-0.2,0.2-0.3,0.4c-0.2,0.3,0.1,0.6,0.3,0.6c0.1,0,0.2,0,0.2,0c0.2,0,0.4-0.2,0.4-0.4
						C258.7,74.3,258.5,74.1,258.3,74.1z"/>
				</g>
			</g>
			<g>
				<polygon points="260.1,72 259.9,72 258,69.5 258.3,69.5 				"/>
				<g>
					<path class="st21" d="M260.1,71.6c-0.1,0-0.2,0-0.2,0c0.1,0.1,0.2,0.1,0.3,0.2c-0.5-0.7-1.1-1.4-1.6-2.2
						c-0.1-0.1-0.2-0.2-0.2-0.3c-0.1,0.2-0.2,0.4-0.3,0.6c0.1,0,0.2,0,0.2,0c-0.1-0.1-0.2-0.1-0.3-0.2c0.5,0.7,1.1,1.4,1.6,2.2
						c0.1,0.1,0.2,0.2,0.2,0.3c0.1,0.2,0.4,0.3,0.6,0.1c0.2-0.1,0.3-0.4,0.1-0.6c-0.6-0.8-1.2-1.6-1.7-2.3l-0.1-0.1
						c-0.1-0.1-0.2-0.2-0.4-0.2c-0.1,0-0.1,0-0.2,0c-0.3,0-0.5,0.4-0.3,0.6c0.6,0.8,1.2,1.6,1.7,2.3l0.1,0.1
						c0.1,0.1,0.2,0.2,0.4,0.2c0.1,0,0.1,0,0.2,0c0.2,0,0.4-0.2,0.4-0.4C260.5,71.8,260.3,71.6,260.1,71.6z"/>
				</g>
			</g>
			<g>
				<polygon points="258.3,69.5 258,69.5 259.9,67.1 260.1,67.1 				"/>
				<g>
					<path class="st21" d="M258.3,69.1c-0.1,0-0.2,0-0.2,0c0.1,0.2,0.2,0.4,0.3,0.6c0.5-0.7,1.1-1.4,1.6-2.2
						c0.1-0.1,0.2-0.2,0.2-0.3c-0.1,0.1-0.2,0.1-0.3,0.2c0.1,0,0.2,0,0.2,0c-0.1-0.2-0.2-0.4-0.3-0.6c-0.5,0.7-1.1,1.4-1.6,2.2
						c-0.1,0.1-0.2,0.2-0.2,0.3c-0.1,0.2,0,0.5,0.1,0.6c0.2,0.1,0.4,0,0.6-0.1c0.5-0.7,1.1-1.4,1.6-2.2c0.1-0.1,0.2-0.2,0.2-0.3
						c0.2-0.3-0.1-0.6-0.3-0.6c-0.1,0-0.1,0-0.2,0c-0.2,0-0.3,0.1-0.4,0.2c0,0,0,0.1-0.1,0.1c-0.1,0.2-0.3,0.4-0.4,0.5
						c-0.4,0.5-0.7,1-1.1,1.5c-0.1,0.1-0.2,0.2-0.3,0.4c-0.2,0.3,0.1,0.6,0.3,0.6c0.1,0,0.2,0,0.2,0c0.2,0,0.4-0.2,0.4-0.4
						C258.7,69.3,258.5,69.1,258.3,69.1z"/>
				</g>
			</g>
			<g>
				<polygon points="260.1,67.1 259.9,67.1 258,64.6 258.3,64.6 				"/>
				<g>
					<path class="st21" d="M260.1,66.6c-0.1,0-0.2,0-0.2,0c0.1,0.1,0.2,0.1,0.3,0.2c-0.5-0.7-1.1-1.4-1.6-2.2
						c-0.1-0.1-0.2-0.2-0.2-0.3c-0.1,0.2-0.2,0.4-0.3,0.6c0.1,0,0.2,0,0.2,0c-0.1-0.1-0.2-0.1-0.3-0.2c0.5,0.7,1.1,1.4,1.6,2.2
						c0.1,0.1,0.2,0.2,0.2,0.3c0.1,0.2,0.4,0.3,0.6,0.1c0.2-0.1,0.3-0.4,0.1-0.6c-0.6-0.8-1.2-1.6-1.7-2.3l-0.1-0.1
						c-0.1-0.1-0.2-0.2-0.4-0.2c-0.1,0-0.1,0-0.2,0c-0.3,0-0.5,0.4-0.3,0.6c0.6,0.8,1.2,1.6,1.7,2.3l0.1,0.1
						c0.1,0.1,0.2,0.2,0.4,0.2c0.1,0,0.1,0,0.2,0c0.2,0,0.4-0.2,0.4-0.4C260.5,66.8,260.3,66.6,260.1,66.6z"/>
				</g>
			</g>
			<g>
				<polygon points="258.3,64.6 258,64.6 259.9,62.1 260.1,62.1 				"/>
				<g>
					<path class="st21" d="M258.3,64.2c-0.1,0-0.2,0-0.2,0c0.1,0.2,0.2,0.4,0.3,0.6c0.5-0.7,1.1-1.4,1.6-2.2
						c0.1-0.1,0.2-0.2,0.2-0.3c-0.1,0.1-0.2,0.1-0.3,0.2c0.1,0,0.2,0,0.2,0c-0.1-0.2-0.2-0.4-0.3-0.6c-0.5,0.7-1.1,1.4-1.6,2.2
						c-0.1,0.1-0.2,0.2-0.2,0.3c-0.1,0.2,0,0.5,0.1,0.6c0.2,0.1,0.4,0,0.6-0.1c0.5-0.7,1.1-1.4,1.6-2.2c0.1-0.1,0.2-0.2,0.2-0.3
						c0.2-0.3-0.1-0.6-0.3-0.6c-0.1,0-0.1,0-0.2,0c-0.2,0-0.3,0.1-0.4,0.2c0,0,0,0.1-0.1,0.1c-0.1,0.2-0.3,0.4-0.4,0.5
						c-0.4,0.5-0.7,1-1.1,1.5c-0.1,0.1-0.2,0.2-0.3,0.4c-0.2,0.3,0.1,0.6,0.3,0.6c0.1,0,0.2,0,0.2,0c0.2,0,0.4-0.2,0.4-0.4
						C258.7,64.4,258.5,64.2,258.3,64.2z"/>
				</g>
			</g>
			<g>
				<polygon points="260.1,62.1 259.9,62.1 258,59.6 258.3,59.6 				"/>
				<g>
					<path class="st21" d="M260.1,61.7c-0.1,0-0.2,0-0.2,0c0.1,0.1,0.2,0.1,0.3,0.2c-0.5-0.7-1.1-1.4-1.6-2.2
						c-0.1-0.1-0.2-0.2-0.2-0.3c-0.1,0.2-0.2,0.4-0.3,0.6c0.1,0,0.2,0,0.2,0c-0.1-0.1-0.2-0.1-0.3-0.2c0.5,0.7,1.1,1.4,1.6,2.2
						c0.1,0.1,0.2,0.2,0.2,0.3c0.1,0.2,0.4,0.3,0.6,0.1c0.2-0.1,0.3-0.4,0.1-0.6c-0.6-0.8-1.2-1.6-1.7-2.3l-0.1-0.1
						c-0.1-0.1-0.2-0.2-0.4-0.2c-0.1,0-0.1,0-0.2,0c-0.3,0-0.5,0.4-0.3,0.6c0.6,0.8,1.2,1.6,1.7,2.3l0.1,0.1
						c0.1,0.1,0.2,0.2,0.4,0.2c0.1,0,0.1,0,0.2,0c0.2,0,0.4-0.2,0.4-0.4C260.5,61.9,260.3,61.7,260.1,61.7z"/>
				</g>
			</g>
			<g>
				<polygon points="258.3,59.6 258,59.6 259.9,57.2 260.1,57.2 				"/>
				<g>
					<path class="st21" d="M258.3,59.2c-0.1,0-0.2,0-0.2,0c0.1,0.2,0.2,0.4,0.3,0.6c0.5-0.7,1.1-1.4,1.6-2.2
						c0.1-0.1,0.2-0.2,0.2-0.3c-0.1,0.1-0.2,0.1-0.3,0.2c0.1,0,0.2,0,0.2,0c-0.1-0.2-0.2-0.4-0.3-0.6c-0.5,0.7-1.1,1.4-1.6,2.2
						c-0.1,0.1-0.2,0.2-0.2,0.3c-0.1,0.2,0,0.5,0.1,0.6c0.2,0.1,0.4,0,0.6-0.1c0.5-0.7,1.1-1.4,1.6-2.2c0.1-0.1,0.2-0.2,0.2-0.3
						c0.2-0.3-0.1-0.6-0.3-0.6c-0.1,0-0.1,0-0.2,0c-0.2,0-0.3,0.1-0.4,0.2c0,0,0,0.1-0.1,0.1c-0.1,0.2-0.3,0.4-0.4,0.5
						c-0.4,0.5-0.7,1-1.1,1.5c-0.1,0.1-0.2,0.2-0.3,0.4c-0.2,0.3,0.1,0.6,0.3,0.6c0.1,0,0.2,0,0.2,0c0.2,0,0.4-0.2,0.4-0.4
						C258.7,59.4,258.5,59.2,258.3,59.2z"/>
				</g>
			</g>
			<g>
				<polygon points="260.1,57.2 259.9,57.2 258,54.7 258.3,54.7 				"/>
				<g>
					<path class="st21" d="M260.1,56.7c-0.1,0-0.2,0-0.2,0c0.1,0.1,0.2,0.1,0.3,0.2c-0.5-0.7-1.1-1.4-1.6-2.2
						c-0.1-0.1-0.2-0.2-0.2-0.3c-0.1,0.2-0.2,0.4-0.3,0.6c0.1,0,0.2,0,0.2,0c-0.1-0.1-0.2-0.1-0.3-0.2c0.5,0.7,1.1,1.4,1.6,2.2
						c0.1,0.1,0.2,0.2,0.2,0.3c0.1,0.2,0.4,0.3,0.6,0.1c0.2-0.1,0.3-0.4,0.1-0.6c-0.6-0.8-1.2-1.6-1.7-2.3l-0.1-0.1
						c-0.1-0.1-0.2-0.2-0.4-0.2c-0.1,0-0.1,0-0.2,0c-0.3,0-0.5,0.4-0.3,0.6c0.6,0.8,1.2,1.6,1.7,2.3l0.1,0.1
						c0.1,0.1,0.2,0.2,0.4,0.2c0.1,0,0.1,0,0.2,0c0.2,0,0.4-0.2,0.4-0.4C260.5,56.9,260.3,56.7,260.1,56.7z"/>
				</g>
			</g>
			<g>
				<polygon points="258.3,54.7 258,54.7 259.9,52.2 260.1,52.2 				"/>
				<g>
					<path class="st21" d="M258.3,54.3c-0.1,0-0.2,0-0.2,0c0.1,0.2,0.2,0.4,0.3,0.6c0.5-0.7,1.1-1.4,1.6-2.2
						c0.1-0.1,0.2-0.2,0.2-0.3c-0.1,0.1-0.2,0.1-0.3,0.2c0.1,0,0.2,0,0.2,0c-0.1-0.2-0.2-0.4-0.3-0.6c-0.5,0.7-1.1,1.4-1.6,2.2
						c-0.1,0.1-0.2,0.2-0.2,0.3c-0.1,0.2,0,0.5,0.1,0.6c0.2,0.1,0.4,0,0.6-0.1c0.5-0.7,1.1-1.4,1.6-2.2c0.1-0.1,0.2-0.2,0.2-0.3
						c0.2-0.3-0.1-0.6-0.3-0.6c-0.1,0-0.1,0-0.2,0c-0.2,0-0.3,0.1-0.4,0.2c0,0,0,0.1-0.1,0.1c-0.1,0.2-0.3,0.4-0.4,0.5
						c-0.4,0.5-0.7,1-1.1,1.5c-0.1,0.1-0.2,0.2-0.3,0.4c-0.2,0.3,0.1,0.6,0.3,0.6c0.1,0,0.2,0,0.2,0c0.2,0,0.4-0.2,0.4-0.4
						C258.7,54.5,258.5,54.3,258.3,54.3z"/>
				</g>
			</g>
			<g>
				<polygon points="260.1,52.2 259.9,52.2 258.1,49.8 258.3,49.7 				"/>
				<g>
					<path class="st21" d="M260.1,51.8c-0.1,0-0.2,0-0.2,0c0.1,0.1,0.2,0.1,0.3,0.2c-0.5-0.7-1.1-1.4-1.6-2.1
						c-0.1-0.1-0.1-0.2-0.2-0.3c0,0.2-0.1,0.4-0.1,0.6c0.1,0,0.1-0.1,0.2-0.1c-0.2,0-0.4-0.1-0.6-0.1c0.5,0.7,1.1,1.5,1.6,2.2
						c0.1,0.1,0.2,0.2,0.2,0.3c0.1,0.2,0.4,0.3,0.6,0.1c0.2-0.1,0.3-0.4,0.1-0.6c-0.5-0.7-1.1-1.5-1.6-2.2c-0.1-0.1-0.2-0.2-0.2-0.3
						c-0.1-0.2-0.3-0.2-0.6-0.1c-0.1,0-0.1,0.1-0.2,0.1c-0.2,0.1-0.3,0.4-0.1,0.6c0.6,0.8,1.1,1.5,1.7,2.3l0.1,0.1
						c0.1,0.1,0.2,0.2,0.4,0.2c0.1,0,0.1,0,0.2,0c0.2,0,0.4-0.2,0.4-0.4C260.5,52,260.3,51.8,260.1,51.8z"/>
				</g>
			</g>
		</g>
		<g>
			<g>
				<path class="st22" d="M263.1,92.9c-3.3,7.6-18,7.1-38.8,7.1c-23.7,0-34.3-0.9-34.3-12.2"/>
				<g>
					<polygon points="267.1,94.3 258.8,92.6 263.8,89.3 					"/>
				</g>
			</g>
		</g>
	</g>
	<g>
		<rect x="163.8" y="134.7" class="st20" width="11.8" height="16.2"/>
		<text transform="matrix(1 0 0 1 166.0126 149.2857)" class="st1 st23">?</text>
	</g>
</g>
<g id="Layer_4">
	<g>
		<g>
			<path class="st3" d="M261.1,129.8c0,2.6-2.1,4.7-4.7,4.7c-2.6,0-4.7-2.1-4.7-4.7c0-2.6,2.1-4.7,4.7-4.7
				C259,125.1,261.1,127.2,261.1,129.8z"/>
			<g>
				<path class="st4" d="M254.6,134.2c0,4.5-3.3,4.5-3.3,9s3.3,4.5,3.3,9s-3.3,4.5-3.3,9s3.3,4.5,3.3,9s-3.3,4.5-3.3,9"/>
			</g>
			<g>
				<path class="st4" d="M258.6,134.6c0,4.5-3.3,4.5-3.3,9s3.3,4.5,3.3,9s-3.3,4.5-3.3,9s3.3,4.5,3.3,9s-3.3,4.5-3.3,9"/>
			</g>
			<line class="st5" x1="248.3" y1="156.2" x2="262.1" y2="156.5"/>
			<path class="st3" d="M258.3,184c0,2.6-2.1,4.7-4.7,4.7s-4.7-2.1-4.7-4.7c0-2.6,2.1-4.7,4.7-4.7S258.3,181.4,258.3,184z"/>
		</g>
		<g>
			<path class="st3" d="M251.1,129.8c0,2.6-2.1,4.7-4.7,4.7c-2.6,0-4.7-2.1-4.7-4.7c0-2.6,2.1-4.7,4.7-4.7
				C249,125.1,251.1,127.2,251.1,129.8z"/>
			<g>
				<path class="st4" d="M244.6,134.2c0,4.5-3.3,4.5-3.3,9s3.3,4.5,3.3,9s-3.3,4.5-3.3,9s3.3,4.5,3.3,9s-3.3,4.5-3.3,9"/>
			</g>
			<g>
				<path class="st4" d="M248.5,134.6c0,4.5-3.3,4.5-3.3,9s3.3,4.5,3.3,9s-3.3,4.5-3.3,9s3.3,4.5,3.3,9s-3.3,4.5-3.3,9"/>
			</g>
			<line class="st5" x1="238.3" y1="156.2" x2="252.1" y2="156.5"/>
			<path class="st3" d="M248.3,184c0,2.6-2.1,4.7-4.7,4.7c-2.6,0-4.7-2.1-4.7-4.7c0-2.6,2.1-4.7,4.7-4.7
				C246.2,179.3,248.3,181.4,248.3,184z"/>
		</g>
		<g>
			<path class="st3" d="M241,129.8c0,2.6-2.1,4.7-4.7,4.7c-2.6,0-4.7-2.1-4.7-4.7c0-2.6,2.1-4.7,4.7-4.7
				C238.9,125.1,241,127.2,241,129.8z"/>
			<g>
				<path class="st4" d="M234.6,134.2c0,4.5-3.3,4.5-3.3,9s3.3,4.5,3.3,9s-3.3,4.5-3.3,9s3.3,4.5,3.3,9s-3.3,4.5-3.3,9"/>
			</g>
			<g>
				<path class="st4" d="M238.5,134.6c0,4.5-3.3,4.5-3.3,9s3.3,4.5,3.3,9s-3.3,4.5-3.3,9s3.3,4.5,3.3,9s-3.3,4.5-3.3,9"/>
			</g>
			<line class="st5" x1="228.3" y1="156.2" x2="242.1" y2="156.5"/>
			<path class="st3" d="M238.3,184c0,2.6-2.1,4.7-4.7,4.7c-2.6,0-4.7-2.1-4.7-4.7c0-2.6,2.1-4.7,4.7-4.7
				C236.2,179.3,238.3,181.4,238.3,184z"/>
		</g>
		<g>
			<path class="st3" d="M231,129.8c0,2.6-2.1,4.7-4.7,4.7c-2.6,0-4.7-2.1-4.7-4.7c0-2.6,2.1-4.7,4.7-4.7
				C228.9,125.1,231,127.2,231,129.8z"/>
			<g>
				<path class="st4" d="M224.5,134.2c0,4.5-3.3,4.5-3.3,9s3.3,4.5,3.3,9s-3.3,4.5-3.3,9s3.3,4.5,3.3,9s-3.3,4.5-3.3,9"/>
			</g>
			<g>
				<path class="st4" d="M228.5,134.6c0,4.5-3.3,4.5-3.3,9s3.3,4.5,3.3,9s-3.3,4.5-3.3,9s3.3,4.5,3.3,9s-3.3,4.5-3.3,9"/>
			</g>
			<line class="st5" x1="218.2" y1="156.2" x2="232.1" y2="156.5"/>
			<path class="st3" d="M228.2,184c0,2.6-2.1,4.7-4.7,4.7s-4.7-2.1-4.7-4.7c0-2.6,2.1-4.7,4.7-4.7
				C226.2,179.3,228.2,181.4,228.2,184z"/>
		</g>
		<g>
			<path class="st3" d="M221,129.8c0,2.6-2.1,4.7-4.7,4.7c-2.6,0-4.7-2.1-4.7-4.7c0-2.6,2.1-4.7,4.7-4.7
				C218.9,125.1,221,127.2,221,129.8z"/>
			<g>
				<path class="st4" d="M214.5,134.2c0,4.5-3.3,4.5-3.3,9s3.3,4.5,3.3,9s-3.3,4.5-3.3,9s3.3,4.5,3.3,9s-3.3,4.5-3.3,9"/>
			</g>
			<g>
				<path class="st4" d="M218.5,134.6c0,4.5-3.3,4.5-3.3,9s3.3,4.5,3.3,9s-3.3,4.5-3.3,9s3.3,4.5,3.3,9s-3.3,4.5-3.3,9"/>
			</g>
			<line class="st5" x1="208.2" y1="156.2" x2="222" y2="156.5"/>
			<path class="st3" d="M218.2,184c0,2.6-2.1,4.7-4.7,4.7c-2.6,0-4.7-2.1-4.7-4.7c0-2.6,2.1-4.7,4.7-4.7
				C216.1,179.3,218.2,181.4,218.2,184z"/>
		</g>
		<g>
			<path class="st3" d="M211,129.8c0,2.6-2.1,4.7-4.7,4.7c-2.6,0-4.7-2.1-4.7-4.7c0-2.6,2.1-4.7,4.7-4.7
				C208.9,125.1,211,127.2,211,129.8z"/>
			<g>
				<path class="st4" d="M204.5,134.2c0,4.5-3.3,4.5-3.3,9s3.3,4.5,3.3,9s-3.3,4.5-3.3,9s3.3,4.5,3.3,9s-3.3,4.5-3.3,9"/>
			</g>
			<g>
				<path class="st4" d="M208.4,134.6c0,4.5-3.3,4.5-3.3,9s3.3,4.5,3.3,9s-3.3,4.5-3.3,9s3.3,4.5,3.3,9s-3.3,4.5-3.3,9"/>
			</g>
			<line class="st5" x1="198.2" y1="156.2" x2="212" y2="156.5"/>
			<path class="st3" d="M208.2,184c0,2.6-2.1,4.7-4.7,4.7c-2.6,0-4.7-2.1-4.7-4.7c0-2.6,2.1-4.7,4.7-4.7
				C206.1,179.3,208.2,181.4,208.2,184z"/>
		</g>
		<g>
			<path class="st3" d="M200.9,129.8c0,2.6-2.1,4.7-4.7,4.7s-4.7-2.1-4.7-4.7c0-2.6,2.1-4.7,4.7-4.7
				C198.8,125.1,200.9,127.2,200.9,129.8z"/>
			<g>
				<path class="st4" d="M194.5,134.2c0,4.5-3.3,4.5-3.3,9s3.3,4.5,3.3,9s-3.3,4.5-3.3,9s3.3,4.5,3.3,9s-3.3,4.5-3.3,9"/>
			</g>
			<g>
				<path class="st4" d="M198.4,134.6c0,4.5-3.3,4.5-3.3,9s3.3,4.5,3.3,9s-3.3,4.5-3.3,9s3.3,4.5,3.3,9s-3.3,4.5-3.3,9"/>
			</g>
			<line class="st5" x1="188.2" y1="156.2" x2="202" y2="156.5"/>
			<path class="st3" d="M198.2,184c0,2.6-2.1,4.7-4.7,4.7c-2.6,0-4.7-2.1-4.7-4.7c0-2.6,2.1-4.7,4.7-4.7
				C196.1,179.3,198.2,181.4,198.2,184z"/>
		</g>
		<g>
			<g>
				<g>
					<path class="st6" d="M205.8,189.4c0,2-0.2,4-0.5,6c-0.2,0.9-0.3,1.9-0.6,2.8c-0.2,1-0.6,1.5-1.5,1.9c-1.3,0.6-2.4,1.3-3.3,2.4
						c-0.9,1.2-1.3,2.6-1.3,4c0,0.8,1.2,0.8,1.2,0c0-1.6,0.6-3.1,1.8-4.2c1.1-1,2.7-1.2,3.6-2.4c0.4-0.6,0.6-1.3,0.7-2
						c0.2-0.9,0.4-1.9,0.5-2.8c0.3-1.9,0.5-3.9,0.5-5.8C207,188.7,205.8,188.7,205.8,189.4L205.8,189.4z"/>
				</g>
			</g>
			<g>
				<path class="st7" d="M193,121.5l8.4,68.3v-0.1c0.2,1.6,2.9,2.5,6,2.1c3.1-0.4,5.5-2,5.3-3.5v0.1l-8.4-68.3"/>
				
					<ellipse transform="matrix(0.9925 -0.1219 0.1219 0.9925 -13.2491 25.1115)" class="st8" cx="198.6" cy="120.8" rx="5.7" ry="2.8"/>
			</g>
			<g>
				<g>
					<path class="st6" d="M223.5,190.8c0,0.9,0.1,1.9,0.1,2.8c0,0.7-0.2,1.3-0.9,1.5c-1.1,0.5-2.5,0.3-3.6,0.1
						c-1.2-0.2-2.4-0.7-3.3-1.5c-0.9-0.8-1.6-1.8-1.6-3.1c0-0.8-1.2-0.8-1.2,0c0,2.9,2.6,4.9,5.2,5.6c2,0.5,5.8,0.9,6.4-1.8
						c0.3-1.2,0.1-2.5,0.1-3.7C224.7,190.1,223.5,190,223.5,190.8L223.5,190.8z"/>
				</g>
			</g>
			<g>
				<path class="st9" d="M212.8,120.3l-3.6,68.7v-0.1c-0.1,1.6,2.4,3,5.5,3.1c3.1,0.2,5.8-1,5.8-2.5v0.1l3.6-68.7"/>
				
					<ellipse transform="matrix(5.233750e-02 -0.9986 0.9986 5.233750e-02 86.4666 332.4991)" class="st10" cx="218.4" cy="120.7" rx="2.8" ry="5.7"/>
			</g>
			<g>
				<polygon class="st11" points="219.7,140.7 224,142.6 227.7,139.7 227.1,135.1 222.8,133.3 219.1,136.1 				"/>
				<line class="st12" x1="224" y1="146" x2="223.6" y2="142.4"/>
				<line class="st12" x1="224.9" y1="145.9" x2="224.5" y2="142.2"/>
				<line class="st12" x1="226.8" y1="139.4" x2="226.4" y2="135.8"/>
				<text transform="matrix(0.3907 -0.9205 0.9205 0.3907 225.1051 148.3306)" class="st13 st14 st15">O</text>
				<line class="st12" x1="222.8" y1="133.3" x2="219.4" y2="131.8"/>
				<line class="st12" x1="221" y1="119.3" x2="217.6" y2="117.9"/>
				<polygon class="st11" points="221.1,119.3 225.4,121.2 228.5,117.6 226,113.6 221.5,114.7 				"/>
				<polygon class="st11" points="222.8,133.3 227.1,135.1 230.9,132.3 230.3,127.6 226,125.8 222.3,128.6 				"/>
				<polygon class="st11" points="217.9,126.8 222.2,128.6 226,125.8 225.4,121.2 221.1,119.3 217.3,122.1 				"/>
				<line class="st12" x1="221.6" y1="114.8" x2="218.9" y2="112.4"/>
				<line class="st12" x1="215.2" y1="112.9" x2="218.3" y2="112"/>
				<line class="st12" x1="215.4" y1="113.4" x2="218.9" y2="112.5"/>
				<text transform="matrix(0.3907 -0.9205 0.9205 0.3907 214.4809 114.6314)" class="st13 st14 st15">O</text>
				<line class="st12" x1="219.8" y1="108.9" x2="218.9" y2="112.4"/>
			</g>
			<g>
				<g>
					<path class="st6" d="M199.3,120.8c0.1-1.6,1.5-2.6,2.8-3.3c2-1,4.3-1.3,6.5-1.3c2.2,0,4.4,0.3,6.4,1.3c1.3,0.6,2.9,1.7,2.9,3.4
						c0,0.9,1.4,0.9,1.4,0c-0.2-4.8-7-6-10.7-6c-3.6,0-10.5,1.3-10.7,6C197.9,121.6,199.3,121.6,199.3,120.8L199.3,120.8z"/>
				</g>
			</g>
			<g>
				<path class="st7" d="M225.5,121.5l-6,68.5v-0.1c-0.1,1.6,2.3,3,5.4,3.3c3.1,0.3,5.8-0.8,5.9-2.3v0.1l6-68.5"/>
				
					<ellipse transform="matrix(8.715528e-02 -0.9962 0.9962 8.715528e-02 89.5293 341.7285)" class="st16" cx="231.2" cy="122" rx="2.8" ry="5.7"/>
			</g>
			<g>
				<g>
					<path class="st6" d="M247.5,194.9c0,0.9,0,1.8-0.1,2.7c0,0.5-0.2,1.2-0.3,1.6l-0.1,0.2c0,0,0,0.1-0.1,0.1c0,0,0,0,0,0.1
						c-0.1,0.1,0-0.1,0,0c-0.1,0.1-0.1,0.1-0.2,0.2l-0.1,0.1c0.1,0-0.1,0.1-0.1,0.1c-0.1,0-0.2,0.1-0.2,0.1s0,0-0.1,0
						c-0.1,0-0.1,0-0.2,0.1c-0.1,0-0.2,0.1-0.3,0.1c-0.1,0-0.1,0-0.2,0h-0.1c-0.1,0,0.1,0,0,0c-0.6,0.1-1.2,0.1-1.8,0.1
						c-0.3,0-0.7,0-1,0c-0.2,0-0.4,0-0.7-0.1h-0.1c0.1,0,0,0,0,0s-0.1,0-0.1-0.1c-0.1,0,0.1,0.1,0,0c0,0,0-0.1-0.1-0.1
						c0.1,0.1,0,0.1,0,0V200c0.1,0.1,0,0,0,0v-0.1c0-0.1,0,0.1,0,0s0-0.2,0-0.3s0-0.2,0-0.3s0-0.1,0-0.2c0,0,0-0.2,0-0.1
						c0.2-1.8,0.6-3.6,0.6-5.4c0-0.8-1.2-0.8-1.2,0c0,1.7-0.3,3.4-0.5,5.1c-0.1,1-0.2,2.1,0.8,2.7c0.5,0.3,1.2,0.3,1.8,0.3
						c0.7,0,1.4,0,2.1-0.1c1.1-0.1,2.2-0.4,2.8-1.4c0.4-0.6,0.5-1.3,0.6-1.9c0.1-1.1,0.2-2.1,0.2-3.2
						C248.7,194.1,247.5,194.1,247.5,194.9L247.5,194.9z"/>
				</g>
			</g>
			<g>
				<path class="st9" d="M231.9,127.1l4.8,68.6v-0.1c0.1,1.6,2.7,2.6,5.9,2.4c3.1-0.2,5.6-1.7,5.5-3.2v0.1l-4.8-68.6"/>
				
					<ellipse transform="matrix(0.9976 -6.975397e-02 6.975397e-02 0.9976 -8.2619 16.882)" class="st17" cx="237.6" cy="126.7" rx="5.7" ry="2.8"/>
			</g>
			<g>
				<g>
					<path class="st6" d="M241.8,194.8c0.1,0.9,0.2,1.9,0.3,2.8c0.1,0.8,0.1,1.7,0.3,2.5c0.3,1.5,1.4,2.3,2.8,2.8
						c1.6,0.6,3.3,1.1,5,1.6c0.7,0.2,1.6,0.4,2.1,1c0.4,0.6,0.7,1.2,1.3,1.6c0.6,0.4,1.2-0.6,0.6-1c-0.5-0.4-0.7-1.1-1.1-1.5
						c-0.5-0.5-1.1-0.8-1.7-1c-1.6-0.5-3.2-1-4.8-1.5c-1.3-0.4-2.6-0.9-2.9-2.3c-0.2-0.8-0.2-1.6-0.3-2.3c-0.1-0.9-0.2-1.8-0.2-2.7
						C242.9,194.1,241.7,194,241.8,194.8L241.8,194.8z"/>
				</g>
			</g>
			<g>
				<path class="st7" d="M239.1,124.7l-2.4,68.7v-0.1c-0.1,1.6,2.4,2.9,5.6,3s5.7-1.1,5.8-2.6v0.1l2.4-68.7"/>
				
					<ellipse transform="matrix(3.489918e-02 -0.9994 0.9994 3.489918e-02 111.3455 365.2054)" class="st16" cx="244.8" cy="125" rx="2.8" ry="5.7"/>
			</g>
			<g>
				<g>
					<path class="st6" d="M230.9,196.5c0.6,1.6,0.6,3.3-1.1,4.2s-3.9,0.9-5.8,0.9c-1.2,0-2.4,0-3.5-0.1c-1-0.1-2.2,0-3.1-0.5
						c-1.5-0.8-1-3.1-0.7-4.4c0.6-2.6,1.4-5.1,1.4-7.7c0-0.8-1.2-0.8-1.2,0c0,2.6-0.9,5.2-1.4,7.7c-0.4,1.8-0.7,4.1,1.1,5.3
						c1,0.6,2.2,0.7,3.3,0.7c1.3,0.1,2.6,0.1,3.9,0.1c2.2,0,4.7,0,6.7-1.1c2.2-1.1,2.4-3.4,1.6-5.5
						C231.7,195.5,230.6,195.8,230.9,196.5L230.9,196.5z"/>
				</g>
			</g>
			<g>
				<path class="st7" d="M205.7,120l6,68.5v-0.1c0.1,1.6,2.8,2.6,5.9,2.3c3.1-0.3,5.6-1.8,5.4-3.3v0.1l-6-68.5"/>
				
					<ellipse transform="matrix(0.9962 -8.715528e-02 8.715528e-02 0.9962 -9.6144 18.8698)" class="st16" cx="211.3" cy="119.5" rx="5.7" ry="2.8"/>
			</g>
			<g>
				<path class="st18" d="M209,129.1l15.5,67V196c0.4,1.5,3.1,2.2,6.2,1.5s5.3-2.5,4.9-4v0.1l-15.5-67"/>
				
					<ellipse transform="matrix(0.9744 -0.225 0.225 0.9744 -23.2633 51.5369)" class="st17" cx="214.5" cy="127.8" rx="5.7" ry="2.8"/>
			</g>
			<g>
				<g>
					<path class="st6" d="M210.4,118.3c0.2-7.4,10.4-9.9,16.2-8c6.7,2.2,9,9.2,8.9,15.6c0,0.8,1.2,0.8,1.2,0
						c0.1-5.8-1.5-12-6.7-15.3c-4.6-2.9-10.8-2.6-15.4-0.1c-3,1.6-5.2,4.3-5.3,7.8C209.2,119.1,210.4,119.1,210.4,118.3L210.4,118.3
						z"/>
				</g>
			</g>
			<g>
				<path class="st18" d="M229.9,126.9l11.9,67.7v-0.1c0.3,1.5,3,2.3,6.1,1.8c3.1-0.5,5.4-2.2,5.1-3.8v0.1l-11.9-67.7"/>
				
					<ellipse transform="matrix(0.9848 -0.1736 0.1736 0.9848 -18.2875 42.7927)" class="st19" cx="235.5" cy="125.9" rx="5.7" ry="2.8"/>
			</g>
			<g>
				<g>
					<path class="st6" d="M215.1,127.8c0.1-5,4.8-11.3,10.3-10.5c4.3,0.6,10,3.7,10.1,8.6c0,0.8,1.2,0.8,1.2,0
						c-0.1-4.5-4.2-7.5-8.1-8.9c-1.7-0.6-3.7-1.1-5.5-0.8c-2.3,0.4-4.3,1.9-5.8,3.6c-2,2.2-3.3,5-3.4,8.1
						C213.9,128.6,215.1,128.6,215.1,127.8L215.1,127.8z"/>
				</g>
			</g>
			<g>
				<g>
					<path class="st6" d="M231.4,122c0-3,2.5-6.2,5.6-6.5c3-0.3,4.9,2.9,6,5.2c0.6,1.3,1.1,2.7,1.1,4.2c0,0.8,1.2,0.8,1.2,0
						c0-1.5-0.5-3-1.1-4.3c-0.7-1.6-1.6-3.1-2.8-4.4c-1.1-1.1-2.5-1.9-4-1.9c-1.9,0.1-3.7,1-4.9,2.4c-1.3,1.4-2.2,3.3-2.2,5.3
						C230.3,122.7,231.4,122.7,231.4,122L231.4,122z"/>
				</g>
			</g>
		</g>
		<g class="st24">
			<g>
				<ellipse class="st25" cx="223" cy="211.6" rx="17.3" ry="9.7"/>
				<text transform="matrix(1 0 0 1 213.4489 213.3887)" class="st14 st2">G</text>
				<text transform="matrix(1 0 0 1 220.4484 214.7478)" class="st14 st26"></text>
			</g>
			<g>
				<path class="st27" d="M247.8,225.4c0,4.6-3.7,8.3-8.3,8.3h-2.8c-4.6,0-8.3-3.7-8.3-8.3v-18.6c0-4.6,3.7-8.3,8.3-8.3h2.8
					c4.6,0,8.3,3.7,8.3,8.3V225.4z"/>
				<text transform="matrix(1 0 0 1 231.4097 217.9522)" class="st14 st2">G</text>
				<text transform="matrix(1 0 0 1 238.4093 219.3118)" class="st14 st26"></text>
			</g>
			<g>
				<path class="st28" d="M202.5,230.4c0-5.4,4.5-9.8,10.1-9.8"/>
				<g>
					<g>
						<path class="st28" d="M222.4,228.2c-1-4.3-5-7.6-9.8-7.6"/>
						<g>
							<polygon class="st29" points="223.8,227.6 222.7,230.4 220.8,228 							"/>
						</g>
					</g>
				</g>
				<text transform="matrix(1 0 0 1 189.7086 238.0254)" class="st1 st2">GDP</text>
				<text transform="matrix(1 0 0 1 212.4399 238.0254)" class="st1 st2">GTP</text>
			</g>
		</g>
		<rect x="201.6" y="147.4" class="st20" width="40.5" height="17.2"/>
		<text transform="matrix(1 0 0 1 203.2596 154.901)" class="st1 st2">G-protein</text>
		<text transform="matrix(1 0 0 1 202.9597 163.801)" class="st1 st2">activation</text>
	</g>
	<g>
		<rect x="163.1" y="82.8" class="st20" width="11.8" height="16.2"/>
		<text transform="matrix(1 0 0 1 165.376 97.4298)" class="st1 st23">?</text>
	</g>
</g>
<g id="Layer_3">
	<path class="st3" d="M92.4,88.4c0,2.6-2.1,4.7-4.7,4.7c-2.6,0-4.7-2.1-4.7-4.7s2.1-4.7,4.7-4.7C90.3,83.7,92.4,85.8,92.4,88.4z"/>
	<g>
		<path class="st4" d="M85.9,92.9c0,4.5-3.3,4.5-3.3,9s3.3,4.5,3.3,9s-3.3,4.5-3.3,9s3.3,4.5,3.3,9s-3.3,4.5-3.3,9"/>
	</g>
	<g>
		<path class="st4" d="M89.9,93.3c0,4.5-3.3,4.5-3.3,9s3.3,4.5,3.3,9s-3.3,4.5-3.3,9s3.3,4.5,3.3,9s-3.3,4.5-3.3,9"/>
	</g>
	<line class="st5" x1="79.6" y1="114.8" x2="93.5" y2="115.2"/>
	<path class="st3" d="M89.6,142.7c0,2.6-2.1,4.7-4.7,4.7c-2.6,0-4.7-2.1-4.7-4.7c0-2.6,2.1-4.7,4.7-4.7
		C87.5,138,89.6,140.1,89.6,142.7z"/>
	<path class="st3" d="M82.4,88.4c0,2.6-2.1,4.7-4.7,4.7c-2.6,0-4.7-2.1-4.7-4.7s2.1-4.7,4.7-4.7C80.3,83.7,82.4,85.8,82.4,88.4z"/>
	<g>
		<path class="st4" d="M75.9,92.9c0,4.5-3.3,4.5-3.3,9s3.3,4.5,3.3,9s-3.3,4.5-3.3,9s3.3,4.5,3.3,9s-3.3,4.5-3.3,9"/>
	</g>
	<g>
		<path class="st4" d="M79.9,93.3c0,4.5-3.3,4.5-3.3,9s3.3,4.5,3.3,9s-3.3,4.5-3.3,9s3.3,4.5,3.3,9s-3.3,4.5-3.3,9"/>
	</g>
	<line class="st5" x1="69.6" y1="114.8" x2="83.4" y2="115.2"/>
	<path class="st3" d="M79.6,142.7c0,2.6-2.1,4.7-4.7,4.7c-2.6,0-4.7-2.1-4.7-4.7c0-2.6,2.1-4.7,4.7-4.7
		C77.5,138,79.6,140.1,79.6,142.7z"/>
	<path class="st3" d="M72.4,88.4c0,2.6-2.1,4.7-4.7,4.7c-2.6,0-4.7-2.1-4.7-4.7s2.1-4.7,4.7-4.7C70.3,83.7,72.4,85.8,72.4,88.4z"/>
	<g>
		<path class="st4" d="M65.9,92.9c0,4.5-3.3,4.5-3.3,9s3.3,4.5,3.3,9s-3.3,4.5-3.3,9s3.3,4.5,3.3,9s-3.3,4.5-3.3,9"/>
	</g>
	<g>
		<path class="st4" d="M69.8,93.3c0,4.5-3.3,4.5-3.3,9s3.3,4.5,3.3,9s-3.3,4.5-3.3,9s3.3,4.5,3.3,9s-3.3,4.5-3.3,9"/>
	</g>
	<line class="st5" x1="59.6" y1="114.8" x2="73.4" y2="115.2"/>
	<path class="st3" d="M69.6,142.7c0,2.6-2.1,4.7-4.7,4.7c-2.6,0-4.7-2.1-4.7-4.7c0-2.6,2.1-4.7,4.7-4.7
		C67.5,138,69.6,140.1,69.6,142.7z"/>
	<path class="st3" d="M62.3,88.4c0,2.6-2.1,4.7-4.7,4.7c-2.6,0-4.7-2.1-4.7-4.7s2.1-4.7,4.7-4.7C60.2,83.7,62.3,85.8,62.3,88.4z"/>
	<g>
		<path class="st4" d="M55.9,92.9c0,4.5-3.3,4.5-3.3,9s3.3,4.5,3.3,9s-3.3,4.5-3.3,9s3.3,4.5,3.3,9s-3.3,4.5-3.3,9"/>
	</g>
	<g>
		<path class="st4" d="M59.8,93.3c0,4.5-3.3,4.5-3.3,9s3.3,4.5,3.3,9s-3.3,4.5-3.3,9s3.3,4.5,3.3,9s-3.3,4.5-3.3,9"/>
	</g>
	<line class="st5" x1="49.6" y1="114.8" x2="63.4" y2="115.2"/>
	<path class="st3" d="M59.6,142.7c0,2.6-2.1,4.7-4.7,4.7c-2.6,0-4.7-2.1-4.7-4.7c0-2.6,2.1-4.7,4.7-4.7S59.6,140.1,59.6,142.7z"/>
	<path class="st3" d="M52.3,88.4c0,2.6-2.1,4.7-4.7,4.7c-2.6,0-4.7-2.1-4.7-4.7s2.1-4.7,4.7-4.7S52.3,85.8,52.3,88.4z"/>
	<g>
		<path class="st4" d="M45.8,92.9c0,4.5-3.3,4.5-3.3,9s3.3,4.5,3.3,9s-3.3,4.5-3.3,9s3.3,4.5,3.3,9s-3.3,4.5-3.3,9"/>
	</g>
	<g>
		<path class="st4" d="M49.8,93.3c0,4.5-3.3,4.5-3.3,9s3.3,4.5,3.3,9s-3.3,4.5-3.3,9s3.3,4.5,3.3,9s-3.3,4.5-3.3,9"/>
	</g>
	<line class="st5" x1="39.5" y1="114.8" x2="53.3" y2="115.2"/>
	<path class="st3" d="M49.5,142.7c0,2.6-2.1,4.7-4.7,4.7c-2.6,0-4.7-2.1-4.7-4.7c0-2.6,2.1-4.7,4.7-4.7S49.5,140.1,49.5,142.7z"/>
	<path class="st3" d="M42.3,88.4c0,2.6-2.1,4.7-4.7,4.7c-2.6,0-4.7-2.1-4.7-4.7s2.1-4.7,4.7-4.7S42.3,85.8,42.3,88.4z"/>
	<g>
		<path class="st4" d="M35.8,92.9c0,4.5-3.3,4.5-3.3,9s3.3,4.5,3.3,9s-3.3,4.5-3.3,9s3.3,4.5,3.3,9s-3.3,4.5-3.3,9"/>
	</g>
	<g>
		<path class="st4" d="M39.8,93.3c0,4.5-3.3,4.5-3.3,9s3.3,4.5,3.3,9s-3.3,4.5-3.3,9s3.3,4.5,3.3,9s-3.3,4.5-3.3,9"/>
	</g>
	<line class="st5" x1="29.5" y1="114.8" x2="43.3" y2="115.2"/>
	<path class="st3" d="M39.5,142.7c0,2.6-2.1,4.7-4.7,4.7c-2.6,0-4.7-2.1-4.7-4.7c0-2.6,2.1-4.7,4.7-4.7S39.5,140.1,39.5,142.7z"/>
	<path class="st3" d="M32.3,88.4c0,2.6-2.1,4.7-4.7,4.7s-4.7-2.1-4.7-4.7s2.1-4.7,4.7-4.7S32.3,85.8,32.3,88.4z"/>
	<g>
		<path class="st4" d="M25.8,92.9c0,4.5-3.3,4.5-3.3,9s3.3,4.5,3.3,9s-3.3,4.5-3.3,9s3.3,4.5,3.3,9s-3.3,4.5-3.3,9"/>
	</g>
	<g>
		<path class="st4" d="M29.7,93.3c0,4.5-3.3,4.5-3.3,9s3.3,4.5,3.3,9s-3.3,4.5-3.3,9s3.3,4.5,3.3,9s-3.3,4.5-3.3,9"/>
	</g>
	<line class="st5" x1="19.5" y1="114.8" x2="33.3" y2="115.2"/>
	<path class="st3" d="M29.5,142.7c0,2.6-2.1,4.7-4.7,4.7s-4.7-2.1-4.7-4.7c0-2.6,2.1-4.7,4.7-4.7S29.5,140.1,29.5,142.7z"/>
	<path class="st3" d="M122.6,88.4c0,2.6-2.1,4.7-4.7,4.7c-2.6,0-4.7-2.1-4.7-4.7s2.1-4.7,4.7-4.7C120.5,83.7,122.6,85.8,122.6,88.4z
		"/>
	<g>
		<path class="st4" d="M116.1,92.9c0,4.5-3.3,4.5-3.3,9s3.3,4.5,3.3,9s-3.3,4.5-3.3,9s3.3,4.5,3.3,9s-3.3,4.5-3.3,9"/>
	</g>
	<g>
		<path class="st4" d="M120.1,93.3c0,4.5-3.3,4.5-3.3,9s3.3,4.5,3.3,9s-3.3,4.5-3.3,9s3.3,4.5,3.3,9s-3.3,4.5-3.3,9"/>
	</g>
	<line class="st5" x1="109.8" y1="114.8" x2="123.6" y2="115.2"/>
	<path class="st3" d="M119.8,142.7c0,2.6-2.1,4.7-4.7,4.7c-2.6,0-4.7-2.1-4.7-4.7c0-2.6,2.1-4.7,4.7-4.7
		C117.7,138,119.8,140.1,119.8,142.7z"/>
	<path class="st3" d="M112.6,88.4c0,2.6-2.1,4.7-4.7,4.7c-2.6,0-4.7-2.1-4.7-4.7s2.1-4.7,4.7-4.7C110.5,83.7,112.6,85.8,112.6,88.4z
		"/>
	<g>
		<path class="st4" d="M106.1,92.9c0,4.5-3.3,4.5-3.3,9s3.3,4.5,3.3,9s-3.3,4.5-3.3,9s3.3,4.5,3.3,9s-3.3,4.5-3.3,9"/>
	</g>
	<g>
		<path class="st4" d="M110,93.3c0,4.5-3.3,4.5-3.3,9s3.3,4.5,3.3,9s-3.3,4.5-3.3,9s3.3,4.5,3.3,9s-3.3,4.5-3.3,9"/>
	</g>
	<line class="st5" x1="99.8" y1="114.8" x2="113.6" y2="115.2"/>
	<path class="st3" d="M109.8,142.7c0,2.6-2.1,4.7-4.7,4.7c-2.6,0-4.7-2.1-4.7-4.7c0-2.6,2.1-4.7,4.7-4.7
		C107.7,138,109.8,140.1,109.8,142.7z"/>
	<path class="st3" d="M102.5,88.4c0,2.6-2.1,4.7-4.7,4.7c-2.6,0-4.7-2.1-4.7-4.7s2.1-4.7,4.7-4.7C100.4,83.7,102.5,85.8,102.5,88.4z
		"/>
	<g>
		<path class="st4" d="M96,92.9c0,4.5-3.3,4.5-3.3,9s3.3,4.5,3.3,9s-3.3,4.5-3.3,9s3.3,4.5,3.3,9s-3.3,4.5-3.3,9"/>
	</g>
	<g>
		<path class="st4" d="M100,93.3c0,4.5-3.3,4.5-3.3,9s3.3,4.5,3.3,9s-3.3,4.5-3.3,9s3.3,4.5,3.3,9s-3.3,4.5-3.3,9"/>
	</g>
	<line class="st5" x1="89.7" y1="114.8" x2="103.6" y2="115.2"/>
	<path class="st3" d="M99.8,142.7c0,2.6-2.1,4.7-4.7,4.7c-2.6,0-4.7-2.1-4.7-4.7c0-2.6,2.1-4.7,4.7-4.7
		C97.7,138,99.8,140.1,99.8,142.7z"/>
	<g>
		<g>
			<path class="st6" d="M56,147.6c0,2-0.2,4-0.5,6c-0.2,0.9-0.3,1.9-0.6,2.8c-0.2,1-0.6,1.5-1.5,1.9c-1.3,0.6-2.4,1.3-3.3,2.4
				c-0.9,1.2-1.3,2.6-1.3,4c0,0.8,1.2,0.8,1.2,0c0-1.6,0.6-3.1,1.8-4.2c1.1-1,2.7-1.2,3.6-2.4c0.4-0.6,0.6-1.3,0.7-2
				c0.2-0.9,0.4-1.9,0.5-2.8c0.3-1.9,0.5-3.9,0.5-5.8C57.2,146.8,56,146.8,56,147.6L56,147.6z"/>
		</g>
	</g>
	<g>
		<path class="st7" d="M43.1,79.6l8.4,68.3v-0.1c0.2,1.6,2.9,2.5,6,2.1c3.1-0.4,5.5-2,5.3-3.5v0.1l-8.4-68.3"/>
		<ellipse transform="matrix(0.9925 -0.1219 0.1219 0.9925 -9.2601 6.536)" class="st8" cx="48.8" cy="78.9" rx="5.7" ry="2.8"/>
	</g>
	<g>
		<g>
			<path class="st6" d="M77.8,148.8c-0.1,3.3-3.9,4.7-6.7,4.7c-2.8,0-6.6-1.5-6.7-4.7c0-0.8-1.2-0.8-1.2,0c0.1,4,4.4,5.9,7.9,5.9
				c3.4,0,7.8-2,7.9-5.9C79,148.1,77.8,148.1,77.8,148.8L77.8,148.8z"/>
		</g>
	</g>
	<g>
		<path class="st9" d="M62.9,78.5l-3.6,68.7v-0.1c-0.1,1.6,2.4,3,5.5,3.1c3.1,0.2,5.8-1,5.8-2.5v0.1l3.6-68.7"/>
		
			<ellipse transform="matrix(5.233750e-02 -0.9986 0.9986 5.233750e-02 -13.6767 143.2173)" class="st10" cx="68.6" cy="78.8" rx="2.8" ry="5.7"/>
	</g>
	<g>
		<g>
			<path class="st6" d="M49.5,78.9c0.1-1.6,1.5-2.6,2.8-3.3c2-1,4.3-1.3,6.5-1.3s4.4,0.3,6.4,1.3c1.3,0.6,2.9,1.7,2.9,3.4
				c0,0.9,1.4,0.9,1.4,0c-0.2-4.8-7-6-10.7-6c-3.6,0-10.5,1.3-10.7,6C48.1,79.8,49.4,79.8,49.5,78.9L49.5,78.9z"/>
		</g>
	</g>
	<g>
		<path class="st7" d="M72.7,80v68.8v-0.1c0,1.6,2.5,2.8,5.7,2.8c3.1,0,5.7-1.3,5.7-2.8v0.1V80"/>
		<ellipse class="st30" cx="78.4" cy="80" rx="5.7" ry="2.8"/>
	</g>
	<g>
		<g>
			<path class="st6" d="M102.2,150.2c0,2,0,4-0.1,6c-0.1,1.4-0.3,3.2-1.3,4.3c-0.9,1-2.3,1-3.5,0.5c-1.5-0.5-2.6-1.8-3.4-3.1
				c-1.1-1.9-1.6-4.2-1.6-6.4c0-0.8-1.2-0.8-1.2,0c0,3.9,1.5,8.6,5.3,10.4c1.4,0.7,3.3,1,4.6,0c1.4-0.9,1.9-2.7,2.1-4.2
				c0.4-2.5,0.3-5,0.3-7.5C103.4,149.4,102.2,149.4,102.2,150.2L102.2,150.2z"/>
		</g>
	</g>
	<g>
		<path class="st9" d="M82.1,85.2l4.8,68.6v-0.1c0.1,1.6,2.7,2.6,5.9,2.4c3.1-0.2,5.6-1.7,5.5-3.2v0.1l-4.8-68.6"/>
		
			<ellipse transform="matrix(0.9976 -6.975397e-02 6.975397e-02 0.9976 -5.7046 6.3305)" class="st17" cx="87.8" cy="84.8" rx="5.7" ry="2.8"/>
	</g>
	<g>
		<g>
			<path class="st6" d="M92,153c0.1,0.9,0.2,1.9,0.3,2.8c0.1,0.8,0.1,1.7,0.3,2.5c0.3,1.5,1.4,2.3,2.8,2.8c1.6,0.6,3.3,1.1,5,1.6
				c0.7,0.2,1.6,0.4,2.1,1c0.4,0.6,0.7,1.2,1.3,1.6c0.6,0.4,1.2-0.6,0.6-1c-0.5-0.4-0.7-1.1-1.1-1.5c-0.5-0.5-1.1-0.8-1.7-1
				c-1.6-0.5-3.2-1-4.8-1.5c-1.3-0.4-2.6-0.9-2.9-2.3c-0.2-0.8-0.2-1.6-0.3-2.3c-0.1-0.9-0.2-1.8-0.2-2.7
				C93.1,152.2,91.9,152.2,92,153L92,153z"/>
		</g>
	</g>
	<g>
		<path class="st7" d="M89.2,82.8l-2.4,68.7v-0.1c-0.1,1.6,2.4,2.9,5.6,3c3.1,0.1,5.7-1.1,5.8-2.6v0.1l2.4-68.7"/>
		
			<ellipse transform="matrix(3.489918e-02 -0.9994 0.9994 3.489918e-02 8.5263 174.9687)" class="st16" cx="94.9" cy="83.1" rx="2.8" ry="5.7"/>
	</g>
	<g>
		<g>
			<path class="st6" d="M81,154.6c0.8,2.3,1.3,5-0.1,7.2c-1.4,2-4,2.6-6.4,2.5c-4.6-0.2-7.2-6.1-8.4-9.8c-0.8-2.4-1.4-5-1.4-7.5
				c0-0.8-1.2-0.8-1.2,0c0,2.5,0.6,5.1,1.4,7.5c0.9,2.7,2,5.3,3.8,7.5c1.4,1.8,3.3,3.3,5.7,3.5c2.6,0.2,5.5-0.5,7.2-2.5
				c2-2.4,1.7-5.8,0.6-8.6C81.9,153.6,80.7,153.9,81,154.6L81,154.6z"/>
		</g>
	</g>
	<g>
		<path class="st7" d="M58.8,77.6v68.8v-0.1c0,1.6,2.5,2.8,5.7,2.8c3.1,0,5.7-1.3,5.7-2.8v0.1V77.6"/>
		<ellipse class="st30" cx="64.5" cy="77.6" rx="5.7" ry="2.8"/>
	</g>
	<g>
		<path class="st18" d="M59.1,87.3l15.5,67v-0.1c0.4,1.5,3.1,2.2,6.2,1.5c3.1-0.7,5.3-2.5,4.9-4v0.1l-15.5-67"/>
		<ellipse transform="matrix(0.9744 -0.225 0.225 0.9744 -17.6985 16.762)" class="st17" cx="64.7" cy="86" rx="5.7" ry="2.8"/>
	</g>
	<g>
		<path class="st18" d="M75.6,87l21.3,65.4v-0.1c0.5,1.5,3.3,1.9,6.3,0.9s5-3,4.5-4.4v0.1L86.4,83.5"/>
		<ellipse transform="matrix(0.9511 -0.309 0.309 0.9511 -22.3798 29.1951)" class="st17" cx="81" cy="85.3" rx="5.7" ry="2.8"/>
	</g>
	<g>
		<g>
			<path class="st6" d="M65.2,86c0-2.6,1.2-5,2.8-7c1.4-1.6,3.3-3.2,5.4-3.5c2.1-0.4,4,0.8,5.3,2.4c1.6,2.1,2.2,4.8,2.2,7.3
				c0,0.8,1.2,0.8,1.2,0c0-4-1.6-8.9-5.7-10.6c-3.8-1.5-7.7,1.4-9.8,4.3c-1.5,2-2.5,4.5-2.5,7C64.1,86.7,65.2,86.7,65.2,86L65.2,86z
				"/>
		</g>
	</g>
	<g>
		<g>
			<path class="st6" d="M78.9,80.1c0.1-3.2,3.3-7,6.6-7.1c1.5,0,2.8,0.9,3.8,1.9c1.3,1.1,2.3,2.5,3.2,3.9c0.8,1.2,1.7,2.7,1.7,4.2
				c0,0.8,1.2,0.8,1.2,0c0-1.5-0.8-3-1.5-4.3c-1-1.7-2.2-3.3-3.7-4.7c-1.2-1.1-2.7-2.1-4.4-2.2c-2-0.1-4,1.1-5.4,2.5
				c-1.4,1.5-2.6,3.6-2.7,5.7C77.8,80.8,78.9,80.8,78.9,80.1L78.9,80.1z"/>
		</g>
	</g>
	<g>
		<g>
			<path class="st6" d="M65.1,77.6c0-2.5,0-5.3,1.3-7.5s4.2-2.7,6.5-2.1s4.3,2.1,6.1,3.7c2,1.8,3.9,3.9,5.4,6.2
				c1.3,2,2.8,4.4,2.8,6.9c0,0.8,1.2,0.8,1.2,0c0-2.4-1.3-4.8-2.5-6.8c-1.6-2.6-3.7-5.1-6-7.1c-1.9-1.7-4.2-3.4-6.7-4
				c-2.4-0.6-5.4-0.1-7.1,1.8c-2,2.4-2.1,6-2.1,9C63.9,78.4,65,78.4,65.1,77.6L65.1,77.6z"/>
		</g>
	</g>
	<g>
		<polygon class="st11" points="7.8,84.6 7.8,89.3 11.8,91.7 15.9,89.3 15.9,84.6 11.8,82.3 		"/>
		<line class="st12" x1="4.6" y1="90.7" x2="7.8" y2="88.9"/>
		<line class="st12" x1="5.1" y1="91.5" x2="8.3" y2="89.6"/>
		<line class="st12" x1="11.8" y1="90.7" x2="14.9" y2="88.9"/>
		<text transform="matrix(1 0 0 1 2.9197 92.7234)" class="st13 st14 st31">O</text>
		<line class="st12" x1="15.9" y1="84.6" x2="15.9" y2="81"/>
		<line class="st12" x1="28" y1="77.5" x2="28" y2="73.8"/>
		<polygon class="st11" points="28,77.6 28,82.3 32.5,83.7 35.2,79.9 32.5,76.1 		"/>
		<polygon class="st11" points="15.9,84.6 15.9,89.3 19.9,91.7 24,89.3 24,84.6 19.9,82.3 		"/>
		<polygon class="st11" points="19.9,77.6 19.9,82.3 24,84.6 28,82.3 28,77.6 24,75.2 		"/>
		<line class="st12" x1="32.4" y1="76.3" x2="33.6" y2="72.8"/>
		<line class="st12" x1="31.7" y1="69.7" x2="33.7" y2="72.2"/>
		<line class="st12" x1="31.2" y1="70" x2="33.5" y2="72.9"/>
		<text transform="matrix(1 0 0 1 29.788 69.7763)" class="st13 st14 st31">O</text>
		<line class="st12" x1="37.1" y1="72.3" x2="33.5" y2="72.9"/>
	</g>
	<g>
		<g>
			<path class="st32" d="M45.5,69c4.3-1.2,16.9,5.7,22,12.7"/>
			<g>
				<polygon points="64.3,82.5 69.3,85.5 69.5,79.6 				"/>
			</g>
		</g>
	</g>
	<text transform="matrix(1 0 0 1 0.6107 66.8065)" class="st14 st33">Progesterone</text>
</g>
<g>
	<g>
		<line class="st22" x1="117.9" y1="115" x2="131.6" y2="115"/>
		<g>
			<polygon points="130.9,117.5 135.2,115 130.9,112.6 			"/>
		</g>
	</g>
</g>
<g>
	<g>
		<line class="st22" x1="168.4" y1="102.7" x2="178.9" y2="93.9"/>
		<g>
			<polygon points="180,96.3 181.7,91.6 176.8,92.5 			"/>
		</g>
	</g>
</g>
<g>
	<g>
		<line class="st22" x1="168.3" y1="129" x2="179" y2="137.7"/>
		<g>
			<polygon points="176.8,139.2 181.8,139.9 180,135.3 			"/>
		</g>
	</g>
</g>
</svg>
