<?xml version="1.0" encoding="utf-8"?>
<!-- Generator: Adobe Illustrator 27.2.0, SVG Export Plug-In . SVG Version: 6.00 Build 0)  -->
<svg version="1.1" id="Слой_1" xmlns="http://www.w3.org/2000/svg" xmlns:xlink="http://www.w3.org/1999/xlink" x="0px" y="0px"
	 viewBox="0 0 400 400" style="enable-background:new 0 0 400 400;" xml:space="preserve">
<style type="text/css">
	.st0{fill:none;}
</style>
<rect class="st0" width="400" height="400"/>
<g>
	<rect x="103.1" y="222.4" width="2.4" height="45.6"/>
	<rect x="140.8" y="278.2" transform="matrix(0.8663 -0.4995 0.4995 0.8663 -117.6677 119.0634)" width="45.6" height="2.4"/>
	<rect x="162.3" y="188.1" transform="matrix(0.5 -0.866 0.866 0.5 -100.8448 247.0682)" width="2.4" height="45.6"/>
	<rect x="255.8" y="205.2" transform="matrix(0.809 -0.5878 0.5878 0.809 -84.9028 194.6194)" width="2.4" height="45.6"/>
	<path d="M332.9,96.4l-11.2,34.4L266,142.6l-0.7,0.1l-0.2,0.7l-0.6,1.9l0,0l-17,52.3l-53.7,17.4l-49.4-28.5l-0.6-0.3l-0.6,0.3
		l-1.7,1l0,0l-47.6,27.5L60,195.3l-1.2,2.1l33.9,19.6V272v2v0.7l0.6,0.3l1.7,1l0,0l46.4,26.8l0,0l1.7,1l0.6,0.3l0.6-0.3l49.4-28.5
		l36.9,12l0.7-2.3l-36.6-11.9v-55.9l53.1-17.3l32.2,44.3l0,0l0.7,0.9L280,246l0,0l-18.1,25.3l1.9,1.4l18.3-25.2l0,0l1.2-1.6l0.5-0.7
		l-0.5-0.7l-1.2-1.6l0,0l-32.3-44.5l17.4-53.5l1.3-0.3l0,0l54.4-11.6l0.7-0.1l0.2-0.7l0.6-1.9l0,0l10.8-33.2L332.9,96.4z
		 M95.1,273.2V272V217l47.6-27.5l0,0l1.1-0.7l48.7,28.1v56.3l-47.6,27.5l0,0l-1.1,0.7l-1.1-0.7l0,0L95.1,273.2z M193.7,274
		L193.7,274L193.7,274L193.7,274z M248.5,198.6L248.5,198.6L248.5,198.6L248.5,198.6z"/>
	<path d="M44.1,172.8c-8,0-13,5.6-13,14.6s5,14.6,13,14.6s13-5.6,13-14.6S52.1,172.8,44.1,172.8z M44.1,198.6
		c-5.8,0-9.4-4.4-9.4-11.3c0-7,3.6-11.3,9.4-11.3s9.4,4.4,9.4,11.3C53.4,194.2,49.8,198.6,44.1,198.6z"/>
	<polygon points="23.6,185.4 8.1,185.4 8.1,173.2 4.6,173.2 4.6,201.4 8.1,201.4 8.1,188.6 23.6,188.6 23.6,201.4 27.1,201.4 
		27.1,173.2 23.6,173.2 	"/>
	<polygon points="256.3,299.2 256.1,299.2 240.7,277.1 237.2,277.1 237.2,305.4 240.7,305.4 240.7,283.2 240.9,283.2 256.3,305.4 
		259.7,305.4 259.7,277.1 256.3,277.1 	"/>
	<polygon points="256.2,321.5 240.8,321.5 240.8,309.4 237.2,309.4 237.2,337.5 240.8,337.5 240.8,324.6 256.2,324.6 256.2,337.5 
		259.7,337.5 259.7,309.4 256.2,309.4 	"/>
	<polygon points="348.2,84.6 348,84.6 332.6,62.5 329.2,62.5 329.2,90.7 332.7,90.7 332.7,68.6 332.8,68.6 348.3,90.7 351.7,90.7 
		351.7,62.5 348.2,62.5 	"/>
	<polygon points="374.7,74.7 359.2,74.7 359.2,62.5 355.7,62.5 355.7,90.7 359.2,90.7 359.2,77.8 374.7,77.8 374.7,90.7 378.2,90.7 
		378.2,62.5 374.7,62.5 	"/>
	<path d="M385.7,94.7L385.7,94.7l5-5.2c3.3-3.4,4.3-5,4.3-7.2c0-3-2.8-5.4-6.3-5.4c-3.7,0-6.5,2.6-6.5,6l0,0h2.4l0,0
		c0-2.2,1.8-3.9,4.1-3.9c2.2,0,3.9,1.5,3.9,3.4c0,1.6-0.6,2.7-3.3,5.5l-6.9,7.3v1.7h13v-2.2C395.4,94.7,385.7,94.7,385.7,94.7z"/>
</g>
</svg>
